%TF.GenerationSoftware,KiCad,Pcbnew,9.0.7*%
%TF.CreationDate,2026-04-25T18:04:33+02:00*%
%TF.ProjectId,macro pad,6d616372-6f20-4706-9164-2e6b69636164,rev?*%
%TF.SameCoordinates,Original*%
%TF.FileFunction,Drillmap*%
%TF.FilePolarity,Positive*%
%FSLAX45Y45*%
G04 Gerber Fmt 4.5, Leading zero omitted, Abs format (unit mm)*
G04 Created by KiCad (PCBNEW 9.0.7) date 2026-04-25 18:04:33*
%MOMM*%
%LPD*%
G01*
G04 APERTURE LIST*
%ADD10C,0.050000*%
%ADD11C,0.200000*%
%ADD12C,0.170000*%
%ADD13C,0.400000*%
G04 APERTURE END LIST*
D10*
X10000000Y-8500000D02*
X19000000Y-8500000D01*
X10000000Y-2500000D02*
X10000000Y-8500000D01*
X19000000Y-2500000D02*
X19000000Y-8500000D01*
X19000000Y-2500000D02*
X10000000Y-2500000D01*
D11*
D12*
X11216000Y-7215000D02*
X11386000Y-7385000D01*
X11386000Y-7215000D02*
X11216000Y-7385000D01*
X12232000Y-7215000D02*
X12402000Y-7385000D01*
X12402000Y-7215000D02*
X12232000Y-7385000D01*
X13137000Y-5295000D02*
X13307000Y-5465000D01*
X13307000Y-5295000D02*
X13137000Y-5465000D01*
X13138000Y-7215000D02*
X13308000Y-7385000D01*
X13308000Y-7215000D02*
X13138000Y-7385000D01*
X14153000Y-5295000D02*
X14323000Y-5465000D01*
X14323000Y-5295000D02*
X14153000Y-5465000D01*
X14154000Y-7215000D02*
X14324000Y-7385000D01*
X14324000Y-7215000D02*
X14154000Y-7385000D01*
X15064000Y-7215000D02*
X15234000Y-7385000D01*
X15234000Y-7215000D02*
X15064000Y-7385000D01*
X16080000Y-7215000D02*
X16250000Y-7385000D01*
X16250000Y-7215000D02*
X16080000Y-7385000D01*
D13*
X12009000Y-7300000D02*
G75*
G02*
X11609000Y-7300000I-200000J0D01*
G01*
X11609000Y-7300000D02*
G75*
G02*
X12009000Y-7300000I200000J0D01*
G01*
X13930000Y-5380000D02*
G75*
G02*
X13530000Y-5380000I-200000J0D01*
G01*
X13530000Y-5380000D02*
G75*
G02*
X13930000Y-5380000I200000J0D01*
G01*
X13931000Y-7300000D02*
G75*
G02*
X13531000Y-7300000I-200000J0D01*
G01*
X13531000Y-7300000D02*
G75*
G02*
X13931000Y-7300000I200000J0D01*
G01*
X15857000Y-7300000D02*
G75*
G02*
X15457000Y-7300000I-200000J0D01*
G01*
X15457000Y-7300000D02*
G75*
G02*
X15857000Y-7300000I200000J0D01*
G01*
D11*
X10258277Y-8813984D02*
X10258277Y-8613984D01*
X10258277Y-8613984D02*
X10305896Y-8613984D01*
X10305896Y-8613984D02*
X10334467Y-8623508D01*
X10334467Y-8623508D02*
X10353515Y-8642555D01*
X10353515Y-8642555D02*
X10363039Y-8661603D01*
X10363039Y-8661603D02*
X10372563Y-8699698D01*
X10372563Y-8699698D02*
X10372563Y-8728270D01*
X10372563Y-8728270D02*
X10363039Y-8766365D01*
X10363039Y-8766365D02*
X10353515Y-8785412D01*
X10353515Y-8785412D02*
X10334467Y-8804460D01*
X10334467Y-8804460D02*
X10305896Y-8813984D01*
X10305896Y-8813984D02*
X10258277Y-8813984D01*
X10458277Y-8813984D02*
X10458277Y-8680650D01*
X10458277Y-8718746D02*
X10467801Y-8699698D01*
X10467801Y-8699698D02*
X10477324Y-8690174D01*
X10477324Y-8690174D02*
X10496372Y-8680650D01*
X10496372Y-8680650D02*
X10515420Y-8680650D01*
X10582086Y-8813984D02*
X10582086Y-8680650D01*
X10582086Y-8613984D02*
X10572563Y-8623508D01*
X10572563Y-8623508D02*
X10582086Y-8633031D01*
X10582086Y-8633031D02*
X10591610Y-8623508D01*
X10591610Y-8623508D02*
X10582086Y-8613984D01*
X10582086Y-8613984D02*
X10582086Y-8633031D01*
X10705896Y-8813984D02*
X10686848Y-8804460D01*
X10686848Y-8804460D02*
X10677324Y-8785412D01*
X10677324Y-8785412D02*
X10677324Y-8613984D01*
X10810658Y-8813984D02*
X10791610Y-8804460D01*
X10791610Y-8804460D02*
X10782086Y-8785412D01*
X10782086Y-8785412D02*
X10782086Y-8613984D01*
X11039229Y-8813984D02*
X11039229Y-8613984D01*
X11039229Y-8613984D02*
X11105896Y-8756841D01*
X11105896Y-8756841D02*
X11172563Y-8613984D01*
X11172563Y-8613984D02*
X11172563Y-8813984D01*
X11353515Y-8813984D02*
X11353515Y-8709222D01*
X11353515Y-8709222D02*
X11343991Y-8690174D01*
X11343991Y-8690174D02*
X11324943Y-8680650D01*
X11324943Y-8680650D02*
X11286848Y-8680650D01*
X11286848Y-8680650D02*
X11267801Y-8690174D01*
X11353515Y-8804460D02*
X11334467Y-8813984D01*
X11334467Y-8813984D02*
X11286848Y-8813984D01*
X11286848Y-8813984D02*
X11267801Y-8804460D01*
X11267801Y-8804460D02*
X11258277Y-8785412D01*
X11258277Y-8785412D02*
X11258277Y-8766365D01*
X11258277Y-8766365D02*
X11267801Y-8747317D01*
X11267801Y-8747317D02*
X11286848Y-8737793D01*
X11286848Y-8737793D02*
X11334467Y-8737793D01*
X11334467Y-8737793D02*
X11353515Y-8728270D01*
X11448753Y-8680650D02*
X11448753Y-8880650D01*
X11448753Y-8690174D02*
X11467801Y-8680650D01*
X11467801Y-8680650D02*
X11505896Y-8680650D01*
X11505896Y-8680650D02*
X11524943Y-8690174D01*
X11524943Y-8690174D02*
X11534467Y-8699698D01*
X11534467Y-8699698D02*
X11543991Y-8718746D01*
X11543991Y-8718746D02*
X11543991Y-8775889D01*
X11543991Y-8775889D02*
X11534467Y-8794936D01*
X11534467Y-8794936D02*
X11524943Y-8804460D01*
X11524943Y-8804460D02*
X11505896Y-8813984D01*
X11505896Y-8813984D02*
X11467801Y-8813984D01*
X11467801Y-8813984D02*
X11448753Y-8804460D01*
X11629705Y-8794936D02*
X11639229Y-8804460D01*
X11639229Y-8804460D02*
X11629705Y-8813984D01*
X11629705Y-8813984D02*
X11620182Y-8804460D01*
X11620182Y-8804460D02*
X11629705Y-8794936D01*
X11629705Y-8794936D02*
X11629705Y-8813984D01*
X11629705Y-8690174D02*
X11639229Y-8699698D01*
X11639229Y-8699698D02*
X11629705Y-8709222D01*
X11629705Y-8709222D02*
X11620182Y-8699698D01*
X11620182Y-8699698D02*
X11629705Y-8690174D01*
X11629705Y-8690174D02*
X11629705Y-8709222D01*
D12*
X9827500Y-9057500D02*
X9997500Y-9227500D01*
X9997500Y-9057500D02*
X9827500Y-9227500D01*
D11*
X10363039Y-9233984D02*
X10248753Y-9233984D01*
X10305896Y-9233984D02*
X10305896Y-9033984D01*
X10305896Y-9033984D02*
X10286848Y-9062555D01*
X10286848Y-9062555D02*
X10267801Y-9081603D01*
X10267801Y-9081603D02*
X10248753Y-9091127D01*
X10448753Y-9214936D02*
X10458277Y-9224460D01*
X10458277Y-9224460D02*
X10448753Y-9233984D01*
X10448753Y-9233984D02*
X10439229Y-9224460D01*
X10439229Y-9224460D02*
X10448753Y-9214936D01*
X10448753Y-9214936D02*
X10448753Y-9233984D01*
X10524944Y-9033984D02*
X10658277Y-9033984D01*
X10658277Y-9033984D02*
X10572563Y-9233984D01*
X10772563Y-9033984D02*
X10791610Y-9033984D01*
X10791610Y-9033984D02*
X10810658Y-9043508D01*
X10810658Y-9043508D02*
X10820182Y-9053031D01*
X10820182Y-9053031D02*
X10829705Y-9072079D01*
X10829705Y-9072079D02*
X10839229Y-9110174D01*
X10839229Y-9110174D02*
X10839229Y-9157793D01*
X10839229Y-9157793D02*
X10829705Y-9195889D01*
X10829705Y-9195889D02*
X10820182Y-9214936D01*
X10820182Y-9214936D02*
X10810658Y-9224460D01*
X10810658Y-9224460D02*
X10791610Y-9233984D01*
X10791610Y-9233984D02*
X10772563Y-9233984D01*
X10772563Y-9233984D02*
X10753515Y-9224460D01*
X10753515Y-9224460D02*
X10743991Y-9214936D01*
X10743991Y-9214936D02*
X10734467Y-9195889D01*
X10734467Y-9195889D02*
X10724944Y-9157793D01*
X10724944Y-9157793D02*
X10724944Y-9110174D01*
X10724944Y-9110174D02*
X10734467Y-9072079D01*
X10734467Y-9072079D02*
X10743991Y-9053031D01*
X10743991Y-9053031D02*
X10753515Y-9043508D01*
X10753515Y-9043508D02*
X10772563Y-9033984D01*
X10963039Y-9033984D02*
X10982086Y-9033984D01*
X10982086Y-9033984D02*
X11001134Y-9043508D01*
X11001134Y-9043508D02*
X11010658Y-9053031D01*
X11010658Y-9053031D02*
X11020182Y-9072079D01*
X11020182Y-9072079D02*
X11029705Y-9110174D01*
X11029705Y-9110174D02*
X11029705Y-9157793D01*
X11029705Y-9157793D02*
X11020182Y-9195889D01*
X11020182Y-9195889D02*
X11010658Y-9214936D01*
X11010658Y-9214936D02*
X11001134Y-9224460D01*
X11001134Y-9224460D02*
X10982086Y-9233984D01*
X10982086Y-9233984D02*
X10963039Y-9233984D01*
X10963039Y-9233984D02*
X10943991Y-9224460D01*
X10943991Y-9224460D02*
X10934467Y-9214936D01*
X10934467Y-9214936D02*
X10924944Y-9195889D01*
X10924944Y-9195889D02*
X10915420Y-9157793D01*
X10915420Y-9157793D02*
X10915420Y-9110174D01*
X10915420Y-9110174D02*
X10924944Y-9072079D01*
X10924944Y-9072079D02*
X10934467Y-9053031D01*
X10934467Y-9053031D02*
X10943991Y-9043508D01*
X10943991Y-9043508D02*
X10963039Y-9033984D01*
X11115420Y-9233984D02*
X11115420Y-9100650D01*
X11115420Y-9119698D02*
X11124944Y-9110174D01*
X11124944Y-9110174D02*
X11143991Y-9100650D01*
X11143991Y-9100650D02*
X11172563Y-9100650D01*
X11172563Y-9100650D02*
X11191610Y-9110174D01*
X11191610Y-9110174D02*
X11201134Y-9129222D01*
X11201134Y-9129222D02*
X11201134Y-9233984D01*
X11201134Y-9129222D02*
X11210658Y-9110174D01*
X11210658Y-9110174D02*
X11229705Y-9100650D01*
X11229705Y-9100650D02*
X11258277Y-9100650D01*
X11258277Y-9100650D02*
X11277324Y-9110174D01*
X11277324Y-9110174D02*
X11286848Y-9129222D01*
X11286848Y-9129222D02*
X11286848Y-9233984D01*
X11382086Y-9233984D02*
X11382086Y-9100650D01*
X11382086Y-9119698D02*
X11391610Y-9110174D01*
X11391610Y-9110174D02*
X11410658Y-9100650D01*
X11410658Y-9100650D02*
X11439229Y-9100650D01*
X11439229Y-9100650D02*
X11458277Y-9110174D01*
X11458277Y-9110174D02*
X11467801Y-9129222D01*
X11467801Y-9129222D02*
X11467801Y-9233984D01*
X11467801Y-9129222D02*
X11477324Y-9110174D01*
X11477324Y-9110174D02*
X11496372Y-9100650D01*
X11496372Y-9100650D02*
X11524943Y-9100650D01*
X11524943Y-9100650D02*
X11543991Y-9110174D01*
X11543991Y-9110174D02*
X11553515Y-9129222D01*
X11553515Y-9129222D02*
X11553515Y-9233984D01*
X11943991Y-9024460D02*
X11772563Y-9281603D01*
X12201134Y-9033984D02*
X12220182Y-9033984D01*
X12220182Y-9033984D02*
X12239229Y-9043508D01*
X12239229Y-9043508D02*
X12248753Y-9053031D01*
X12248753Y-9053031D02*
X12258277Y-9072079D01*
X12258277Y-9072079D02*
X12267801Y-9110174D01*
X12267801Y-9110174D02*
X12267801Y-9157793D01*
X12267801Y-9157793D02*
X12258277Y-9195889D01*
X12258277Y-9195889D02*
X12248753Y-9214936D01*
X12248753Y-9214936D02*
X12239229Y-9224460D01*
X12239229Y-9224460D02*
X12220182Y-9233984D01*
X12220182Y-9233984D02*
X12201134Y-9233984D01*
X12201134Y-9233984D02*
X12182086Y-9224460D01*
X12182086Y-9224460D02*
X12172563Y-9214936D01*
X12172563Y-9214936D02*
X12163039Y-9195889D01*
X12163039Y-9195889D02*
X12153515Y-9157793D01*
X12153515Y-9157793D02*
X12153515Y-9110174D01*
X12153515Y-9110174D02*
X12163039Y-9072079D01*
X12163039Y-9072079D02*
X12172563Y-9053031D01*
X12172563Y-9053031D02*
X12182086Y-9043508D01*
X12182086Y-9043508D02*
X12201134Y-9033984D01*
X12353515Y-9214936D02*
X12363039Y-9224460D01*
X12363039Y-9224460D02*
X12353515Y-9233984D01*
X12353515Y-9233984D02*
X12343991Y-9224460D01*
X12343991Y-9224460D02*
X12353515Y-9214936D01*
X12353515Y-9214936D02*
X12353515Y-9233984D01*
X12486848Y-9033984D02*
X12505896Y-9033984D01*
X12505896Y-9033984D02*
X12524944Y-9043508D01*
X12524944Y-9043508D02*
X12534467Y-9053031D01*
X12534467Y-9053031D02*
X12543991Y-9072079D01*
X12543991Y-9072079D02*
X12553515Y-9110174D01*
X12553515Y-9110174D02*
X12553515Y-9157793D01*
X12553515Y-9157793D02*
X12543991Y-9195889D01*
X12543991Y-9195889D02*
X12534467Y-9214936D01*
X12534467Y-9214936D02*
X12524944Y-9224460D01*
X12524944Y-9224460D02*
X12505896Y-9233984D01*
X12505896Y-9233984D02*
X12486848Y-9233984D01*
X12486848Y-9233984D02*
X12467801Y-9224460D01*
X12467801Y-9224460D02*
X12458277Y-9214936D01*
X12458277Y-9214936D02*
X12448753Y-9195889D01*
X12448753Y-9195889D02*
X12439229Y-9157793D01*
X12439229Y-9157793D02*
X12439229Y-9110174D01*
X12439229Y-9110174D02*
X12448753Y-9072079D01*
X12448753Y-9072079D02*
X12458277Y-9053031D01*
X12458277Y-9053031D02*
X12467801Y-9043508D01*
X12467801Y-9043508D02*
X12486848Y-9033984D01*
X12724944Y-9033984D02*
X12686848Y-9033984D01*
X12686848Y-9033984D02*
X12667801Y-9043508D01*
X12667801Y-9043508D02*
X12658277Y-9053031D01*
X12658277Y-9053031D02*
X12639229Y-9081603D01*
X12639229Y-9081603D02*
X12629706Y-9119698D01*
X12629706Y-9119698D02*
X12629706Y-9195889D01*
X12629706Y-9195889D02*
X12639229Y-9214936D01*
X12639229Y-9214936D02*
X12648753Y-9224460D01*
X12648753Y-9224460D02*
X12667801Y-9233984D01*
X12667801Y-9233984D02*
X12705896Y-9233984D01*
X12705896Y-9233984D02*
X12724944Y-9224460D01*
X12724944Y-9224460D02*
X12734467Y-9214936D01*
X12734467Y-9214936D02*
X12743991Y-9195889D01*
X12743991Y-9195889D02*
X12743991Y-9148270D01*
X12743991Y-9148270D02*
X12734467Y-9129222D01*
X12734467Y-9129222D02*
X12724944Y-9119698D01*
X12724944Y-9119698D02*
X12705896Y-9110174D01*
X12705896Y-9110174D02*
X12667801Y-9110174D01*
X12667801Y-9110174D02*
X12648753Y-9119698D01*
X12648753Y-9119698D02*
X12639229Y-9129222D01*
X12639229Y-9129222D02*
X12629706Y-9148270D01*
X12915420Y-9033984D02*
X12877325Y-9033984D01*
X12877325Y-9033984D02*
X12858277Y-9043508D01*
X12858277Y-9043508D02*
X12848753Y-9053031D01*
X12848753Y-9053031D02*
X12829706Y-9081603D01*
X12829706Y-9081603D02*
X12820182Y-9119698D01*
X12820182Y-9119698D02*
X12820182Y-9195889D01*
X12820182Y-9195889D02*
X12829706Y-9214936D01*
X12829706Y-9214936D02*
X12839229Y-9224460D01*
X12839229Y-9224460D02*
X12858277Y-9233984D01*
X12858277Y-9233984D02*
X12896372Y-9233984D01*
X12896372Y-9233984D02*
X12915420Y-9224460D01*
X12915420Y-9224460D02*
X12924944Y-9214936D01*
X12924944Y-9214936D02*
X12934467Y-9195889D01*
X12934467Y-9195889D02*
X12934467Y-9148270D01*
X12934467Y-9148270D02*
X12924944Y-9129222D01*
X12924944Y-9129222D02*
X12915420Y-9119698D01*
X12915420Y-9119698D02*
X12896372Y-9110174D01*
X12896372Y-9110174D02*
X12858277Y-9110174D01*
X12858277Y-9110174D02*
X12839229Y-9119698D01*
X12839229Y-9119698D02*
X12829706Y-9129222D01*
X12829706Y-9129222D02*
X12820182Y-9148270D01*
X13029706Y-9233984D02*
X13067801Y-9233984D01*
X13067801Y-9233984D02*
X13086848Y-9224460D01*
X13086848Y-9224460D02*
X13096372Y-9214936D01*
X13096372Y-9214936D02*
X13115420Y-9186365D01*
X13115420Y-9186365D02*
X13124944Y-9148270D01*
X13124944Y-9148270D02*
X13124944Y-9072079D01*
X13124944Y-9072079D02*
X13115420Y-9053031D01*
X13115420Y-9053031D02*
X13105896Y-9043508D01*
X13105896Y-9043508D02*
X13086848Y-9033984D01*
X13086848Y-9033984D02*
X13048753Y-9033984D01*
X13048753Y-9033984D02*
X13029706Y-9043508D01*
X13029706Y-9043508D02*
X13020182Y-9053031D01*
X13020182Y-9053031D02*
X13010658Y-9072079D01*
X13010658Y-9072079D02*
X13010658Y-9119698D01*
X13010658Y-9119698D02*
X13020182Y-9138746D01*
X13020182Y-9138746D02*
X13029706Y-9148270D01*
X13029706Y-9148270D02*
X13048753Y-9157793D01*
X13048753Y-9157793D02*
X13086848Y-9157793D01*
X13086848Y-9157793D02*
X13105896Y-9148270D01*
X13105896Y-9148270D02*
X13115420Y-9138746D01*
X13115420Y-9138746D02*
X13124944Y-9119698D01*
X13201134Y-9033984D02*
X13201134Y-9072079D01*
X13277325Y-9033984D02*
X13277325Y-9072079D01*
X13572563Y-9310174D02*
X13563039Y-9300650D01*
X13563039Y-9300650D02*
X13543991Y-9272079D01*
X13543991Y-9272079D02*
X13534468Y-9253031D01*
X13534468Y-9253031D02*
X13524944Y-9224460D01*
X13524944Y-9224460D02*
X13515420Y-9176841D01*
X13515420Y-9176841D02*
X13515420Y-9138746D01*
X13515420Y-9138746D02*
X13524944Y-9091127D01*
X13524944Y-9091127D02*
X13534468Y-9062555D01*
X13534468Y-9062555D02*
X13543991Y-9043508D01*
X13543991Y-9043508D02*
X13563039Y-9014936D01*
X13563039Y-9014936D02*
X13572563Y-9005412D01*
X13677325Y-9119698D02*
X13658277Y-9110174D01*
X13658277Y-9110174D02*
X13648753Y-9100650D01*
X13648753Y-9100650D02*
X13639229Y-9081603D01*
X13639229Y-9081603D02*
X13639229Y-9072079D01*
X13639229Y-9072079D02*
X13648753Y-9053031D01*
X13648753Y-9053031D02*
X13658277Y-9043508D01*
X13658277Y-9043508D02*
X13677325Y-9033984D01*
X13677325Y-9033984D02*
X13715420Y-9033984D01*
X13715420Y-9033984D02*
X13734468Y-9043508D01*
X13734468Y-9043508D02*
X13743991Y-9053031D01*
X13743991Y-9053031D02*
X13753515Y-9072079D01*
X13753515Y-9072079D02*
X13753515Y-9081603D01*
X13753515Y-9081603D02*
X13743991Y-9100650D01*
X13743991Y-9100650D02*
X13734468Y-9110174D01*
X13734468Y-9110174D02*
X13715420Y-9119698D01*
X13715420Y-9119698D02*
X13677325Y-9119698D01*
X13677325Y-9119698D02*
X13658277Y-9129222D01*
X13658277Y-9129222D02*
X13648753Y-9138746D01*
X13648753Y-9138746D02*
X13639229Y-9157793D01*
X13639229Y-9157793D02*
X13639229Y-9195889D01*
X13639229Y-9195889D02*
X13648753Y-9214936D01*
X13648753Y-9214936D02*
X13658277Y-9224460D01*
X13658277Y-9224460D02*
X13677325Y-9233984D01*
X13677325Y-9233984D02*
X13715420Y-9233984D01*
X13715420Y-9233984D02*
X13734468Y-9224460D01*
X13734468Y-9224460D02*
X13743991Y-9214936D01*
X13743991Y-9214936D02*
X13753515Y-9195889D01*
X13753515Y-9195889D02*
X13753515Y-9157793D01*
X13753515Y-9157793D02*
X13743991Y-9138746D01*
X13743991Y-9138746D02*
X13734468Y-9129222D01*
X13734468Y-9129222D02*
X13715420Y-9119698D01*
X13991610Y-9233984D02*
X13991610Y-9033984D01*
X14077325Y-9233984D02*
X14077325Y-9129222D01*
X14077325Y-9129222D02*
X14067801Y-9110174D01*
X14067801Y-9110174D02*
X14048753Y-9100650D01*
X14048753Y-9100650D02*
X14020182Y-9100650D01*
X14020182Y-9100650D02*
X14001134Y-9110174D01*
X14001134Y-9110174D02*
X13991610Y-9119698D01*
X14201134Y-9233984D02*
X14182087Y-9224460D01*
X14182087Y-9224460D02*
X14172563Y-9214936D01*
X14172563Y-9214936D02*
X14163039Y-9195889D01*
X14163039Y-9195889D02*
X14163039Y-9138746D01*
X14163039Y-9138746D02*
X14172563Y-9119698D01*
X14172563Y-9119698D02*
X14182087Y-9110174D01*
X14182087Y-9110174D02*
X14201134Y-9100650D01*
X14201134Y-9100650D02*
X14229706Y-9100650D01*
X14229706Y-9100650D02*
X14248753Y-9110174D01*
X14248753Y-9110174D02*
X14258277Y-9119698D01*
X14258277Y-9119698D02*
X14267801Y-9138746D01*
X14267801Y-9138746D02*
X14267801Y-9195889D01*
X14267801Y-9195889D02*
X14258277Y-9214936D01*
X14258277Y-9214936D02*
X14248753Y-9224460D01*
X14248753Y-9224460D02*
X14229706Y-9233984D01*
X14229706Y-9233984D02*
X14201134Y-9233984D01*
X14382087Y-9233984D02*
X14363039Y-9224460D01*
X14363039Y-9224460D02*
X14353515Y-9205412D01*
X14353515Y-9205412D02*
X14353515Y-9033984D01*
X14534468Y-9224460D02*
X14515420Y-9233984D01*
X14515420Y-9233984D02*
X14477325Y-9233984D01*
X14477325Y-9233984D02*
X14458277Y-9224460D01*
X14458277Y-9224460D02*
X14448753Y-9205412D01*
X14448753Y-9205412D02*
X14448753Y-9129222D01*
X14448753Y-9129222D02*
X14458277Y-9110174D01*
X14458277Y-9110174D02*
X14477325Y-9100650D01*
X14477325Y-9100650D02*
X14515420Y-9100650D01*
X14515420Y-9100650D02*
X14534468Y-9110174D01*
X14534468Y-9110174D02*
X14543991Y-9129222D01*
X14543991Y-9129222D02*
X14543991Y-9148270D01*
X14543991Y-9148270D02*
X14448753Y-9167317D01*
X14620182Y-9224460D02*
X14639230Y-9233984D01*
X14639230Y-9233984D02*
X14677325Y-9233984D01*
X14677325Y-9233984D02*
X14696372Y-9224460D01*
X14696372Y-9224460D02*
X14705896Y-9205412D01*
X14705896Y-9205412D02*
X14705896Y-9195889D01*
X14705896Y-9195889D02*
X14696372Y-9176841D01*
X14696372Y-9176841D02*
X14677325Y-9167317D01*
X14677325Y-9167317D02*
X14648753Y-9167317D01*
X14648753Y-9167317D02*
X14629706Y-9157793D01*
X14629706Y-9157793D02*
X14620182Y-9138746D01*
X14620182Y-9138746D02*
X14620182Y-9129222D01*
X14620182Y-9129222D02*
X14629706Y-9110174D01*
X14629706Y-9110174D02*
X14648753Y-9100650D01*
X14648753Y-9100650D02*
X14677325Y-9100650D01*
X14677325Y-9100650D02*
X14696372Y-9110174D01*
X14772563Y-9310174D02*
X14782087Y-9300650D01*
X14782087Y-9300650D02*
X14801134Y-9272079D01*
X14801134Y-9272079D02*
X14810658Y-9253031D01*
X14810658Y-9253031D02*
X14820182Y-9224460D01*
X14820182Y-9224460D02*
X14829706Y-9176841D01*
X14829706Y-9176841D02*
X14829706Y-9138746D01*
X14829706Y-9138746D02*
X14820182Y-9091127D01*
X14820182Y-9091127D02*
X14810658Y-9062555D01*
X14810658Y-9062555D02*
X14801134Y-9043508D01*
X14801134Y-9043508D02*
X14782087Y-9014936D01*
X14782087Y-9014936D02*
X14772563Y-9005412D01*
X15134468Y-9310174D02*
X15124944Y-9300650D01*
X15124944Y-9300650D02*
X15105896Y-9272079D01*
X15105896Y-9272079D02*
X15096372Y-9253031D01*
X15096372Y-9253031D02*
X15086849Y-9224460D01*
X15086849Y-9224460D02*
X15077325Y-9176841D01*
X15077325Y-9176841D02*
X15077325Y-9138746D01*
X15077325Y-9138746D02*
X15086849Y-9091127D01*
X15086849Y-9091127D02*
X15096372Y-9062555D01*
X15096372Y-9062555D02*
X15105896Y-9043508D01*
X15105896Y-9043508D02*
X15124944Y-9014936D01*
X15124944Y-9014936D02*
X15134468Y-9005412D01*
X15210658Y-9100650D02*
X15210658Y-9233984D01*
X15210658Y-9119698D02*
X15220182Y-9110174D01*
X15220182Y-9110174D02*
X15239230Y-9100650D01*
X15239230Y-9100650D02*
X15267801Y-9100650D01*
X15267801Y-9100650D02*
X15286849Y-9110174D01*
X15286849Y-9110174D02*
X15296372Y-9129222D01*
X15296372Y-9129222D02*
X15296372Y-9233984D01*
X15420182Y-9233984D02*
X15401134Y-9224460D01*
X15401134Y-9224460D02*
X15391611Y-9214936D01*
X15391611Y-9214936D02*
X15382087Y-9195889D01*
X15382087Y-9195889D02*
X15382087Y-9138746D01*
X15382087Y-9138746D02*
X15391611Y-9119698D01*
X15391611Y-9119698D02*
X15401134Y-9110174D01*
X15401134Y-9110174D02*
X15420182Y-9100650D01*
X15420182Y-9100650D02*
X15448753Y-9100650D01*
X15448753Y-9100650D02*
X15467801Y-9110174D01*
X15467801Y-9110174D02*
X15477325Y-9119698D01*
X15477325Y-9119698D02*
X15486849Y-9138746D01*
X15486849Y-9138746D02*
X15486849Y-9195889D01*
X15486849Y-9195889D02*
X15477325Y-9214936D01*
X15477325Y-9214936D02*
X15467801Y-9224460D01*
X15467801Y-9224460D02*
X15448753Y-9233984D01*
X15448753Y-9233984D02*
X15420182Y-9233984D01*
X15543992Y-9100650D02*
X15620182Y-9100650D01*
X15572563Y-9033984D02*
X15572563Y-9205412D01*
X15572563Y-9205412D02*
X15582087Y-9224460D01*
X15582087Y-9224460D02*
X15601134Y-9233984D01*
X15601134Y-9233984D02*
X15620182Y-9233984D01*
X15839230Y-9100650D02*
X15839230Y-9300650D01*
X15839230Y-9110174D02*
X15858277Y-9100650D01*
X15858277Y-9100650D02*
X15896373Y-9100650D01*
X15896373Y-9100650D02*
X15915420Y-9110174D01*
X15915420Y-9110174D02*
X15924944Y-9119698D01*
X15924944Y-9119698D02*
X15934468Y-9138746D01*
X15934468Y-9138746D02*
X15934468Y-9195889D01*
X15934468Y-9195889D02*
X15924944Y-9214936D01*
X15924944Y-9214936D02*
X15915420Y-9224460D01*
X15915420Y-9224460D02*
X15896373Y-9233984D01*
X15896373Y-9233984D02*
X15858277Y-9233984D01*
X15858277Y-9233984D02*
X15839230Y-9224460D01*
X16048753Y-9233984D02*
X16029706Y-9224460D01*
X16029706Y-9224460D02*
X16020182Y-9205412D01*
X16020182Y-9205412D02*
X16020182Y-9033984D01*
X16210658Y-9233984D02*
X16210658Y-9129222D01*
X16210658Y-9129222D02*
X16201134Y-9110174D01*
X16201134Y-9110174D02*
X16182087Y-9100650D01*
X16182087Y-9100650D02*
X16143992Y-9100650D01*
X16143992Y-9100650D02*
X16124944Y-9110174D01*
X16210658Y-9224460D02*
X16191611Y-9233984D01*
X16191611Y-9233984D02*
X16143992Y-9233984D01*
X16143992Y-9233984D02*
X16124944Y-9224460D01*
X16124944Y-9224460D02*
X16115420Y-9205412D01*
X16115420Y-9205412D02*
X16115420Y-9186365D01*
X16115420Y-9186365D02*
X16124944Y-9167317D01*
X16124944Y-9167317D02*
X16143992Y-9157793D01*
X16143992Y-9157793D02*
X16191611Y-9157793D01*
X16191611Y-9157793D02*
X16210658Y-9148270D01*
X16277325Y-9100650D02*
X16353515Y-9100650D01*
X16305896Y-9033984D02*
X16305896Y-9205412D01*
X16305896Y-9205412D02*
X16315420Y-9224460D01*
X16315420Y-9224460D02*
X16334468Y-9233984D01*
X16334468Y-9233984D02*
X16353515Y-9233984D01*
X16496373Y-9224460D02*
X16477325Y-9233984D01*
X16477325Y-9233984D02*
X16439230Y-9233984D01*
X16439230Y-9233984D02*
X16420182Y-9224460D01*
X16420182Y-9224460D02*
X16410658Y-9205412D01*
X16410658Y-9205412D02*
X16410658Y-9129222D01*
X16410658Y-9129222D02*
X16420182Y-9110174D01*
X16420182Y-9110174D02*
X16439230Y-9100650D01*
X16439230Y-9100650D02*
X16477325Y-9100650D01*
X16477325Y-9100650D02*
X16496373Y-9110174D01*
X16496373Y-9110174D02*
X16505896Y-9129222D01*
X16505896Y-9129222D02*
X16505896Y-9148270D01*
X16505896Y-9148270D02*
X16410658Y-9167317D01*
X16677325Y-9233984D02*
X16677325Y-9033984D01*
X16677325Y-9224460D02*
X16658277Y-9233984D01*
X16658277Y-9233984D02*
X16620182Y-9233984D01*
X16620182Y-9233984D02*
X16601134Y-9224460D01*
X16601134Y-9224460D02*
X16591611Y-9214936D01*
X16591611Y-9214936D02*
X16582087Y-9195889D01*
X16582087Y-9195889D02*
X16582087Y-9138746D01*
X16582087Y-9138746D02*
X16591611Y-9119698D01*
X16591611Y-9119698D02*
X16601134Y-9110174D01*
X16601134Y-9110174D02*
X16620182Y-9100650D01*
X16620182Y-9100650D02*
X16658277Y-9100650D01*
X16658277Y-9100650D02*
X16677325Y-9110174D01*
X16753515Y-9310174D02*
X16763039Y-9300650D01*
X16763039Y-9300650D02*
X16782087Y-9272079D01*
X16782087Y-9272079D02*
X16791611Y-9253031D01*
X16791611Y-9253031D02*
X16801135Y-9224460D01*
X16801135Y-9224460D02*
X16810658Y-9176841D01*
X16810658Y-9176841D02*
X16810658Y-9138746D01*
X16810658Y-9138746D02*
X16801135Y-9091127D01*
X16801135Y-9091127D02*
X16791611Y-9062555D01*
X16791611Y-9062555D02*
X16782087Y-9043508D01*
X16782087Y-9043508D02*
X16763039Y-9014936D01*
X16763039Y-9014936D02*
X16753515Y-9005412D01*
X9997500Y-9432500D02*
G75*
G02*
X9797500Y-9432500I-100000J0D01*
G01*
X9797500Y-9432500D02*
G75*
G02*
X9997500Y-9432500I100000J0D01*
G01*
X10343991Y-9390650D02*
X10343991Y-9523984D01*
X10296372Y-9314460D02*
X10248753Y-9457317D01*
X10248753Y-9457317D02*
X10372563Y-9457317D01*
X10448753Y-9504936D02*
X10458277Y-9514460D01*
X10458277Y-9514460D02*
X10448753Y-9523984D01*
X10448753Y-9523984D02*
X10439229Y-9514460D01*
X10439229Y-9514460D02*
X10448753Y-9504936D01*
X10448753Y-9504936D02*
X10448753Y-9523984D01*
X10582086Y-9323984D02*
X10601134Y-9323984D01*
X10601134Y-9323984D02*
X10620182Y-9333508D01*
X10620182Y-9333508D02*
X10629705Y-9343031D01*
X10629705Y-9343031D02*
X10639229Y-9362079D01*
X10639229Y-9362079D02*
X10648753Y-9400174D01*
X10648753Y-9400174D02*
X10648753Y-9447793D01*
X10648753Y-9447793D02*
X10639229Y-9485889D01*
X10639229Y-9485889D02*
X10629705Y-9504936D01*
X10629705Y-9504936D02*
X10620182Y-9514460D01*
X10620182Y-9514460D02*
X10601134Y-9523984D01*
X10601134Y-9523984D02*
X10582086Y-9523984D01*
X10582086Y-9523984D02*
X10563039Y-9514460D01*
X10563039Y-9514460D02*
X10553515Y-9504936D01*
X10553515Y-9504936D02*
X10543991Y-9485889D01*
X10543991Y-9485889D02*
X10534467Y-9447793D01*
X10534467Y-9447793D02*
X10534467Y-9400174D01*
X10534467Y-9400174D02*
X10543991Y-9362079D01*
X10543991Y-9362079D02*
X10553515Y-9343031D01*
X10553515Y-9343031D02*
X10563039Y-9333508D01*
X10563039Y-9333508D02*
X10582086Y-9323984D01*
X10772563Y-9323984D02*
X10791610Y-9323984D01*
X10791610Y-9323984D02*
X10810658Y-9333508D01*
X10810658Y-9333508D02*
X10820182Y-9343031D01*
X10820182Y-9343031D02*
X10829705Y-9362079D01*
X10829705Y-9362079D02*
X10839229Y-9400174D01*
X10839229Y-9400174D02*
X10839229Y-9447793D01*
X10839229Y-9447793D02*
X10829705Y-9485889D01*
X10829705Y-9485889D02*
X10820182Y-9504936D01*
X10820182Y-9504936D02*
X10810658Y-9514460D01*
X10810658Y-9514460D02*
X10791610Y-9523984D01*
X10791610Y-9523984D02*
X10772563Y-9523984D01*
X10772563Y-9523984D02*
X10753515Y-9514460D01*
X10753515Y-9514460D02*
X10743991Y-9504936D01*
X10743991Y-9504936D02*
X10734467Y-9485889D01*
X10734467Y-9485889D02*
X10724944Y-9447793D01*
X10724944Y-9447793D02*
X10724944Y-9400174D01*
X10724944Y-9400174D02*
X10734467Y-9362079D01*
X10734467Y-9362079D02*
X10743991Y-9343031D01*
X10743991Y-9343031D02*
X10753515Y-9333508D01*
X10753515Y-9333508D02*
X10772563Y-9323984D01*
X10963039Y-9323984D02*
X10982086Y-9323984D01*
X10982086Y-9323984D02*
X11001134Y-9333508D01*
X11001134Y-9333508D02*
X11010658Y-9343031D01*
X11010658Y-9343031D02*
X11020182Y-9362079D01*
X11020182Y-9362079D02*
X11029705Y-9400174D01*
X11029705Y-9400174D02*
X11029705Y-9447793D01*
X11029705Y-9447793D02*
X11020182Y-9485889D01*
X11020182Y-9485889D02*
X11010658Y-9504936D01*
X11010658Y-9504936D02*
X11001134Y-9514460D01*
X11001134Y-9514460D02*
X10982086Y-9523984D01*
X10982086Y-9523984D02*
X10963039Y-9523984D01*
X10963039Y-9523984D02*
X10943991Y-9514460D01*
X10943991Y-9514460D02*
X10934467Y-9504936D01*
X10934467Y-9504936D02*
X10924944Y-9485889D01*
X10924944Y-9485889D02*
X10915420Y-9447793D01*
X10915420Y-9447793D02*
X10915420Y-9400174D01*
X10915420Y-9400174D02*
X10924944Y-9362079D01*
X10924944Y-9362079D02*
X10934467Y-9343031D01*
X10934467Y-9343031D02*
X10943991Y-9333508D01*
X10943991Y-9333508D02*
X10963039Y-9323984D01*
X11115420Y-9523984D02*
X11115420Y-9390650D01*
X11115420Y-9409698D02*
X11124944Y-9400174D01*
X11124944Y-9400174D02*
X11143991Y-9390650D01*
X11143991Y-9390650D02*
X11172563Y-9390650D01*
X11172563Y-9390650D02*
X11191610Y-9400174D01*
X11191610Y-9400174D02*
X11201134Y-9419222D01*
X11201134Y-9419222D02*
X11201134Y-9523984D01*
X11201134Y-9419222D02*
X11210658Y-9400174D01*
X11210658Y-9400174D02*
X11229705Y-9390650D01*
X11229705Y-9390650D02*
X11258277Y-9390650D01*
X11258277Y-9390650D02*
X11277324Y-9400174D01*
X11277324Y-9400174D02*
X11286848Y-9419222D01*
X11286848Y-9419222D02*
X11286848Y-9523984D01*
X11382086Y-9523984D02*
X11382086Y-9390650D01*
X11382086Y-9409698D02*
X11391610Y-9400174D01*
X11391610Y-9400174D02*
X11410658Y-9390650D01*
X11410658Y-9390650D02*
X11439229Y-9390650D01*
X11439229Y-9390650D02*
X11458277Y-9400174D01*
X11458277Y-9400174D02*
X11467801Y-9419222D01*
X11467801Y-9419222D02*
X11467801Y-9523984D01*
X11467801Y-9419222D02*
X11477324Y-9400174D01*
X11477324Y-9400174D02*
X11496372Y-9390650D01*
X11496372Y-9390650D02*
X11524943Y-9390650D01*
X11524943Y-9390650D02*
X11543991Y-9400174D01*
X11543991Y-9400174D02*
X11553515Y-9419222D01*
X11553515Y-9419222D02*
X11553515Y-9523984D01*
X11943991Y-9314460D02*
X11772563Y-9571603D01*
X12201134Y-9323984D02*
X12220182Y-9323984D01*
X12220182Y-9323984D02*
X12239229Y-9333508D01*
X12239229Y-9333508D02*
X12248753Y-9343031D01*
X12248753Y-9343031D02*
X12258277Y-9362079D01*
X12258277Y-9362079D02*
X12267801Y-9400174D01*
X12267801Y-9400174D02*
X12267801Y-9447793D01*
X12267801Y-9447793D02*
X12258277Y-9485889D01*
X12258277Y-9485889D02*
X12248753Y-9504936D01*
X12248753Y-9504936D02*
X12239229Y-9514460D01*
X12239229Y-9514460D02*
X12220182Y-9523984D01*
X12220182Y-9523984D02*
X12201134Y-9523984D01*
X12201134Y-9523984D02*
X12182086Y-9514460D01*
X12182086Y-9514460D02*
X12172563Y-9504936D01*
X12172563Y-9504936D02*
X12163039Y-9485889D01*
X12163039Y-9485889D02*
X12153515Y-9447793D01*
X12153515Y-9447793D02*
X12153515Y-9400174D01*
X12153515Y-9400174D02*
X12163039Y-9362079D01*
X12163039Y-9362079D02*
X12172563Y-9343031D01*
X12172563Y-9343031D02*
X12182086Y-9333508D01*
X12182086Y-9333508D02*
X12201134Y-9323984D01*
X12353515Y-9504936D02*
X12363039Y-9514460D01*
X12363039Y-9514460D02*
X12353515Y-9523984D01*
X12353515Y-9523984D02*
X12343991Y-9514460D01*
X12343991Y-9514460D02*
X12353515Y-9504936D01*
X12353515Y-9504936D02*
X12353515Y-9523984D01*
X12553515Y-9523984D02*
X12439229Y-9523984D01*
X12496372Y-9523984D02*
X12496372Y-9323984D01*
X12496372Y-9323984D02*
X12477325Y-9352555D01*
X12477325Y-9352555D02*
X12458277Y-9371603D01*
X12458277Y-9371603D02*
X12439229Y-9381127D01*
X12734467Y-9323984D02*
X12639229Y-9323984D01*
X12639229Y-9323984D02*
X12629706Y-9419222D01*
X12629706Y-9419222D02*
X12639229Y-9409698D01*
X12639229Y-9409698D02*
X12658277Y-9400174D01*
X12658277Y-9400174D02*
X12705896Y-9400174D01*
X12705896Y-9400174D02*
X12724944Y-9409698D01*
X12724944Y-9409698D02*
X12734467Y-9419222D01*
X12734467Y-9419222D02*
X12743991Y-9438270D01*
X12743991Y-9438270D02*
X12743991Y-9485889D01*
X12743991Y-9485889D02*
X12734467Y-9504936D01*
X12734467Y-9504936D02*
X12724944Y-9514460D01*
X12724944Y-9514460D02*
X12705896Y-9523984D01*
X12705896Y-9523984D02*
X12658277Y-9523984D01*
X12658277Y-9523984D02*
X12639229Y-9514460D01*
X12639229Y-9514460D02*
X12629706Y-9504936D01*
X12810658Y-9323984D02*
X12943991Y-9323984D01*
X12943991Y-9323984D02*
X12858277Y-9523984D01*
X13115420Y-9323984D02*
X13020182Y-9323984D01*
X13020182Y-9323984D02*
X13010658Y-9419222D01*
X13010658Y-9419222D02*
X13020182Y-9409698D01*
X13020182Y-9409698D02*
X13039229Y-9400174D01*
X13039229Y-9400174D02*
X13086848Y-9400174D01*
X13086848Y-9400174D02*
X13105896Y-9409698D01*
X13105896Y-9409698D02*
X13115420Y-9419222D01*
X13115420Y-9419222D02*
X13124944Y-9438270D01*
X13124944Y-9438270D02*
X13124944Y-9485889D01*
X13124944Y-9485889D02*
X13115420Y-9504936D01*
X13115420Y-9504936D02*
X13105896Y-9514460D01*
X13105896Y-9514460D02*
X13086848Y-9523984D01*
X13086848Y-9523984D02*
X13039229Y-9523984D01*
X13039229Y-9523984D02*
X13020182Y-9514460D01*
X13020182Y-9514460D02*
X13010658Y-9504936D01*
X13201134Y-9323984D02*
X13201134Y-9362079D01*
X13277325Y-9323984D02*
X13277325Y-9362079D01*
X13572563Y-9600174D02*
X13563039Y-9590650D01*
X13563039Y-9590650D02*
X13543991Y-9562079D01*
X13543991Y-9562079D02*
X13534468Y-9543031D01*
X13534468Y-9543031D02*
X13524944Y-9514460D01*
X13524944Y-9514460D02*
X13515420Y-9466841D01*
X13515420Y-9466841D02*
X13515420Y-9428746D01*
X13515420Y-9428746D02*
X13524944Y-9381127D01*
X13524944Y-9381127D02*
X13534468Y-9352555D01*
X13534468Y-9352555D02*
X13543991Y-9333508D01*
X13543991Y-9333508D02*
X13563039Y-9304936D01*
X13563039Y-9304936D02*
X13572563Y-9295412D01*
X13734468Y-9390650D02*
X13734468Y-9523984D01*
X13686848Y-9314460D02*
X13639229Y-9457317D01*
X13639229Y-9457317D02*
X13763039Y-9457317D01*
X13991610Y-9523984D02*
X13991610Y-9323984D01*
X14077325Y-9523984D02*
X14077325Y-9419222D01*
X14077325Y-9419222D02*
X14067801Y-9400174D01*
X14067801Y-9400174D02*
X14048753Y-9390650D01*
X14048753Y-9390650D02*
X14020182Y-9390650D01*
X14020182Y-9390650D02*
X14001134Y-9400174D01*
X14001134Y-9400174D02*
X13991610Y-9409698D01*
X14201134Y-9523984D02*
X14182087Y-9514460D01*
X14182087Y-9514460D02*
X14172563Y-9504936D01*
X14172563Y-9504936D02*
X14163039Y-9485889D01*
X14163039Y-9485889D02*
X14163039Y-9428746D01*
X14163039Y-9428746D02*
X14172563Y-9409698D01*
X14172563Y-9409698D02*
X14182087Y-9400174D01*
X14182087Y-9400174D02*
X14201134Y-9390650D01*
X14201134Y-9390650D02*
X14229706Y-9390650D01*
X14229706Y-9390650D02*
X14248753Y-9400174D01*
X14248753Y-9400174D02*
X14258277Y-9409698D01*
X14258277Y-9409698D02*
X14267801Y-9428746D01*
X14267801Y-9428746D02*
X14267801Y-9485889D01*
X14267801Y-9485889D02*
X14258277Y-9504936D01*
X14258277Y-9504936D02*
X14248753Y-9514460D01*
X14248753Y-9514460D02*
X14229706Y-9523984D01*
X14229706Y-9523984D02*
X14201134Y-9523984D01*
X14382087Y-9523984D02*
X14363039Y-9514460D01*
X14363039Y-9514460D02*
X14353515Y-9495412D01*
X14353515Y-9495412D02*
X14353515Y-9323984D01*
X14534468Y-9514460D02*
X14515420Y-9523984D01*
X14515420Y-9523984D02*
X14477325Y-9523984D01*
X14477325Y-9523984D02*
X14458277Y-9514460D01*
X14458277Y-9514460D02*
X14448753Y-9495412D01*
X14448753Y-9495412D02*
X14448753Y-9419222D01*
X14448753Y-9419222D02*
X14458277Y-9400174D01*
X14458277Y-9400174D02*
X14477325Y-9390650D01*
X14477325Y-9390650D02*
X14515420Y-9390650D01*
X14515420Y-9390650D02*
X14534468Y-9400174D01*
X14534468Y-9400174D02*
X14543991Y-9419222D01*
X14543991Y-9419222D02*
X14543991Y-9438270D01*
X14543991Y-9438270D02*
X14448753Y-9457317D01*
X14620182Y-9514460D02*
X14639230Y-9523984D01*
X14639230Y-9523984D02*
X14677325Y-9523984D01*
X14677325Y-9523984D02*
X14696372Y-9514460D01*
X14696372Y-9514460D02*
X14705896Y-9495412D01*
X14705896Y-9495412D02*
X14705896Y-9485889D01*
X14705896Y-9485889D02*
X14696372Y-9466841D01*
X14696372Y-9466841D02*
X14677325Y-9457317D01*
X14677325Y-9457317D02*
X14648753Y-9457317D01*
X14648753Y-9457317D02*
X14629706Y-9447793D01*
X14629706Y-9447793D02*
X14620182Y-9428746D01*
X14620182Y-9428746D02*
X14620182Y-9419222D01*
X14620182Y-9419222D02*
X14629706Y-9400174D01*
X14629706Y-9400174D02*
X14648753Y-9390650D01*
X14648753Y-9390650D02*
X14677325Y-9390650D01*
X14677325Y-9390650D02*
X14696372Y-9400174D01*
X14772563Y-9600174D02*
X14782087Y-9590650D01*
X14782087Y-9590650D02*
X14801134Y-9562079D01*
X14801134Y-9562079D02*
X14810658Y-9543031D01*
X14810658Y-9543031D02*
X14820182Y-9514460D01*
X14820182Y-9514460D02*
X14829706Y-9466841D01*
X14829706Y-9466841D02*
X14829706Y-9428746D01*
X14829706Y-9428746D02*
X14820182Y-9381127D01*
X14820182Y-9381127D02*
X14810658Y-9352555D01*
X14810658Y-9352555D02*
X14801134Y-9333508D01*
X14801134Y-9333508D02*
X14782087Y-9304936D01*
X14782087Y-9304936D02*
X14772563Y-9295412D01*
X15134468Y-9600174D02*
X15124944Y-9590650D01*
X15124944Y-9590650D02*
X15105896Y-9562079D01*
X15105896Y-9562079D02*
X15096372Y-9543031D01*
X15096372Y-9543031D02*
X15086849Y-9514460D01*
X15086849Y-9514460D02*
X15077325Y-9466841D01*
X15077325Y-9466841D02*
X15077325Y-9428746D01*
X15077325Y-9428746D02*
X15086849Y-9381127D01*
X15086849Y-9381127D02*
X15096372Y-9352555D01*
X15096372Y-9352555D02*
X15105896Y-9333508D01*
X15105896Y-9333508D02*
X15124944Y-9304936D01*
X15124944Y-9304936D02*
X15134468Y-9295412D01*
X15210658Y-9390650D02*
X15210658Y-9523984D01*
X15210658Y-9409698D02*
X15220182Y-9400174D01*
X15220182Y-9400174D02*
X15239230Y-9390650D01*
X15239230Y-9390650D02*
X15267801Y-9390650D01*
X15267801Y-9390650D02*
X15286849Y-9400174D01*
X15286849Y-9400174D02*
X15296372Y-9419222D01*
X15296372Y-9419222D02*
X15296372Y-9523984D01*
X15420182Y-9523984D02*
X15401134Y-9514460D01*
X15401134Y-9514460D02*
X15391611Y-9504936D01*
X15391611Y-9504936D02*
X15382087Y-9485889D01*
X15382087Y-9485889D02*
X15382087Y-9428746D01*
X15382087Y-9428746D02*
X15391611Y-9409698D01*
X15391611Y-9409698D02*
X15401134Y-9400174D01*
X15401134Y-9400174D02*
X15420182Y-9390650D01*
X15420182Y-9390650D02*
X15448753Y-9390650D01*
X15448753Y-9390650D02*
X15467801Y-9400174D01*
X15467801Y-9400174D02*
X15477325Y-9409698D01*
X15477325Y-9409698D02*
X15486849Y-9428746D01*
X15486849Y-9428746D02*
X15486849Y-9485889D01*
X15486849Y-9485889D02*
X15477325Y-9504936D01*
X15477325Y-9504936D02*
X15467801Y-9514460D01*
X15467801Y-9514460D02*
X15448753Y-9523984D01*
X15448753Y-9523984D02*
X15420182Y-9523984D01*
X15543992Y-9390650D02*
X15620182Y-9390650D01*
X15572563Y-9323984D02*
X15572563Y-9495412D01*
X15572563Y-9495412D02*
X15582087Y-9514460D01*
X15582087Y-9514460D02*
X15601134Y-9523984D01*
X15601134Y-9523984D02*
X15620182Y-9523984D01*
X15839230Y-9390650D02*
X15839230Y-9590650D01*
X15839230Y-9400174D02*
X15858277Y-9390650D01*
X15858277Y-9390650D02*
X15896373Y-9390650D01*
X15896373Y-9390650D02*
X15915420Y-9400174D01*
X15915420Y-9400174D02*
X15924944Y-9409698D01*
X15924944Y-9409698D02*
X15934468Y-9428746D01*
X15934468Y-9428746D02*
X15934468Y-9485889D01*
X15934468Y-9485889D02*
X15924944Y-9504936D01*
X15924944Y-9504936D02*
X15915420Y-9514460D01*
X15915420Y-9514460D02*
X15896373Y-9523984D01*
X15896373Y-9523984D02*
X15858277Y-9523984D01*
X15858277Y-9523984D02*
X15839230Y-9514460D01*
X16048753Y-9523984D02*
X16029706Y-9514460D01*
X16029706Y-9514460D02*
X16020182Y-9495412D01*
X16020182Y-9495412D02*
X16020182Y-9323984D01*
X16210658Y-9523984D02*
X16210658Y-9419222D01*
X16210658Y-9419222D02*
X16201134Y-9400174D01*
X16201134Y-9400174D02*
X16182087Y-9390650D01*
X16182087Y-9390650D02*
X16143992Y-9390650D01*
X16143992Y-9390650D02*
X16124944Y-9400174D01*
X16210658Y-9514460D02*
X16191611Y-9523984D01*
X16191611Y-9523984D02*
X16143992Y-9523984D01*
X16143992Y-9523984D02*
X16124944Y-9514460D01*
X16124944Y-9514460D02*
X16115420Y-9495412D01*
X16115420Y-9495412D02*
X16115420Y-9476365D01*
X16115420Y-9476365D02*
X16124944Y-9457317D01*
X16124944Y-9457317D02*
X16143992Y-9447793D01*
X16143992Y-9447793D02*
X16191611Y-9447793D01*
X16191611Y-9447793D02*
X16210658Y-9438270D01*
X16277325Y-9390650D02*
X16353515Y-9390650D01*
X16305896Y-9323984D02*
X16305896Y-9495412D01*
X16305896Y-9495412D02*
X16315420Y-9514460D01*
X16315420Y-9514460D02*
X16334468Y-9523984D01*
X16334468Y-9523984D02*
X16353515Y-9523984D01*
X16496373Y-9514460D02*
X16477325Y-9523984D01*
X16477325Y-9523984D02*
X16439230Y-9523984D01*
X16439230Y-9523984D02*
X16420182Y-9514460D01*
X16420182Y-9514460D02*
X16410658Y-9495412D01*
X16410658Y-9495412D02*
X16410658Y-9419222D01*
X16410658Y-9419222D02*
X16420182Y-9400174D01*
X16420182Y-9400174D02*
X16439230Y-9390650D01*
X16439230Y-9390650D02*
X16477325Y-9390650D01*
X16477325Y-9390650D02*
X16496373Y-9400174D01*
X16496373Y-9400174D02*
X16505896Y-9419222D01*
X16505896Y-9419222D02*
X16505896Y-9438270D01*
X16505896Y-9438270D02*
X16410658Y-9457317D01*
X16677325Y-9523984D02*
X16677325Y-9323984D01*
X16677325Y-9514460D02*
X16658277Y-9523984D01*
X16658277Y-9523984D02*
X16620182Y-9523984D01*
X16620182Y-9523984D02*
X16601134Y-9514460D01*
X16601134Y-9514460D02*
X16591611Y-9504936D01*
X16591611Y-9504936D02*
X16582087Y-9485889D01*
X16582087Y-9485889D02*
X16582087Y-9428746D01*
X16582087Y-9428746D02*
X16591611Y-9409698D01*
X16591611Y-9409698D02*
X16601134Y-9400174D01*
X16601134Y-9400174D02*
X16620182Y-9390650D01*
X16620182Y-9390650D02*
X16658277Y-9390650D01*
X16658277Y-9390650D02*
X16677325Y-9400174D01*
X16753515Y-9600174D02*
X16763039Y-9590650D01*
X16763039Y-9590650D02*
X16782087Y-9562079D01*
X16782087Y-9562079D02*
X16791611Y-9543031D01*
X16791611Y-9543031D02*
X16801135Y-9514460D01*
X16801135Y-9514460D02*
X16810658Y-9466841D01*
X16810658Y-9466841D02*
X16810658Y-9428746D01*
X16810658Y-9428746D02*
X16801135Y-9381127D01*
X16801135Y-9381127D02*
X16791611Y-9352555D01*
X16791611Y-9352555D02*
X16782087Y-9333508D01*
X16782087Y-9333508D02*
X16763039Y-9304936D01*
X16763039Y-9304936D02*
X16753515Y-9295412D01*
M02*
