%TF.GenerationSoftware,KiCad,Pcbnew,9.0.7*%
%TF.CreationDate,2026-04-25T18:05:53+02:00*%
%TF.ProjectId,macro pad,6d616372-6f20-4706-9164-2e6b69636164,rev?*%
%TF.SameCoordinates,Original*%
%TF.FileFunction,Copper,L1,Top*%
%TF.FilePolarity,Positive*%
%FSLAX46Y46*%
G04 Gerber Fmt 4.6, Leading zero omitted, Abs format (unit mm)*
G04 Created by KiCad (PCBNEW 9.0.7) date 2026-04-25 18:05:53*
%MOMM*%
%LPD*%
G01*
G04 APERTURE LIST*
%TA.AperFunction,ComponentPad*%
%ADD10R,2.000000X2.000000*%
%TD*%
%TA.AperFunction,ComponentPad*%
%ADD11C,2.000000*%
%TD*%
%TA.AperFunction,ComponentPad*%
%ADD12R,3.200000X2.000000*%
%TD*%
%TA.AperFunction,ComponentPad*%
%ADD13C,2.200000*%
%TD*%
%TA.AperFunction,ComponentPad*%
%ADD14R,1.700000X1.700000*%
%TD*%
%TA.AperFunction,ComponentPad*%
%ADD15C,1.700000*%
%TD*%
%TA.AperFunction,ComponentPad*%
%ADD16C,1.524000*%
%TD*%
%TA.AperFunction,Conductor*%
%ADD17C,0.200000*%
%TD*%
G04 APERTURE END LIST*
D10*
%TO.P,SW5,A,A*%
%TO.N,Net-(U1-GPIO26{slash}ADC0{slash}A0)*%
X170340000Y-32500000D03*
D11*
%TO.P,SW5,B,B*%
%TO.N,Net-(U1-GPIO27{slash}ADC1{slash}A1)*%
X170340000Y-37500000D03*
%TO.P,SW5,C,C*%
%TO.N,GND*%
X170340000Y-35000000D03*
D12*
%TO.P,SW5,MP*%
%TO.N,N/C*%
X177840000Y-29400000D03*
X177840000Y-40600000D03*
D11*
%TO.P,SW5,S1,S1*%
%TO.N,Net-(U1-GPIO28{slash}ADC2{slash}A2)*%
X184840000Y-37500000D03*
%TO.P,SW5,S2,S2*%
%TO.N,GND*%
X184840000Y-32500000D03*
%TD*%
D13*
%TO.P,SW3,1,1*%
%TO.N,GND*%
X139850000Y-67920000D03*
%TO.P,SW3,2,2*%
%TO.N,Net-(U1-GPIO4{slash}MISO)*%
X133500000Y-70460000D03*
%TD*%
%TO.P,SW1,1,1*%
%TO.N,GND*%
X159110000Y-67920000D03*
%TO.P,SW1,2,2*%
%TO.N,Net-(U1-GPIO1{slash}RX)*%
X152760000Y-70460000D03*
%TD*%
D14*
%TO.P,J1,1,Pin_1*%
%TO.N,GND*%
X130340000Y-32500000D03*
D15*
%TO.P,J1,2,Pin_2*%
%TO.N,+3.3V*%
X130340000Y-35040000D03*
%TO.P,J1,3,Pin_3*%
%TO.N,Net-(J1-Pin_3)*%
X130340000Y-37580000D03*
%TO.P,J1,4,Pin_4*%
%TO.N,Net-(J1-Pin_4)*%
X130340000Y-40120000D03*
%TD*%
D13*
%TO.P,SW4,1,1*%
%TO.N,GND*%
X120630000Y-67920000D03*
%TO.P,SW4,2,2*%
%TO.N,Net-(U1-GPIO3{slash}MOSI)*%
X114280000Y-70460000D03*
%TD*%
%TO.P,SW2,1,1*%
%TO.N,GND*%
X139840000Y-48720000D03*
%TO.P,SW2,2,2*%
%TO.N,Net-(U1-GPIO2{slash}SCK)*%
X133490000Y-51260000D03*
%TD*%
D16*
%TO.P,U1,1,GPIO26/ADC0/A0*%
%TO.N,Net-(U1-GPIO26{slash}ADC0{slash}A0)*%
X125500000Y-32260000D03*
%TO.P,U1,2,GPIO27/ADC1/A1*%
%TO.N,Net-(U1-GPIO27{slash}ADC1{slash}A1)*%
X125500000Y-34800000D03*
%TO.P,U1,3,GPIO28/ADC2/A2*%
%TO.N,Net-(U1-GPIO28{slash}ADC2{slash}A2)*%
X125500000Y-37340000D03*
%TO.P,U1,4,GPIO29/ADC3/A3*%
%TO.N,unconnected-(U1-GPIO29{slash}ADC3{slash}A3-Pad4)*%
X125500000Y-39880000D03*
%TO.P,U1,5,GPIO6/SDA*%
%TO.N,Net-(J1-Pin_4)*%
X125500000Y-42420000D03*
%TO.P,U1,6,GPIO7/SCL*%
%TO.N,Net-(J1-Pin_3)*%
X125500000Y-44960000D03*
%TO.P,U1,7,GPIO0/TX*%
%TO.N,unconnected-(U1-GPIO0{slash}TX-Pad7)*%
X125500000Y-47500000D03*
%TO.P,U1,8,GPIO1/RX*%
%TO.N,Net-(U1-GPIO1{slash}RX)*%
X110260000Y-47500000D03*
%TO.P,U1,9,GPIO2/SCK*%
%TO.N,Net-(U1-GPIO2{slash}SCK)*%
X110260000Y-44960000D03*
%TO.P,U1,10,GPIO4/MISO*%
%TO.N,Net-(U1-GPIO4{slash}MISO)*%
X110260000Y-42420000D03*
%TO.P,U1,11,GPIO3/MOSI*%
%TO.N,Net-(U1-GPIO3{slash}MOSI)*%
X110260000Y-39880000D03*
%TO.P,U1,12,3V3*%
%TO.N,+3.3V*%
X110260000Y-37340000D03*
%TO.P,U1,13,GND*%
%TO.N,unconnected-(U1-GND-Pad13)*%
X110260000Y-34800000D03*
%TO.P,U1,14,VBUS*%
%TO.N,unconnected-(U1-VBUS-Pad14)*%
X110260000Y-32260000D03*
%TD*%
D17*
%TO.N,+3.3V*%
X121500000Y-49500000D02*
X118500000Y-46500000D01*
X118500000Y-46500000D02*
X118500000Y-45580000D01*
X134891000Y-42609000D02*
X128000000Y-49500000D01*
X134891000Y-39591000D02*
X134891000Y-42609000D01*
X118500000Y-45580000D02*
X110260000Y-37340000D01*
X130340000Y-35040000D02*
X134891000Y-39591000D01*
X128000000Y-49500000D02*
X121500000Y-49500000D01*
%TO.N,Net-(J1-Pin_3)*%
X130340000Y-37580000D02*
X129490000Y-38430000D01*
X129490000Y-38430000D02*
X124570000Y-38430000D01*
X124000000Y-39000000D02*
X124000000Y-43460000D01*
X124570000Y-38430000D02*
X124000000Y-39000000D01*
X124000000Y-43460000D02*
X125500000Y-44960000D01*
%TO.N,Net-(J1-Pin_4)*%
X130340000Y-40120000D02*
X128040000Y-42420000D01*
X128040000Y-42420000D02*
X125500000Y-42420000D01*
%TO.N,Net-(U1-GPIO1{slash}RX)*%
X152770000Y-68270000D02*
X147500000Y-63000000D01*
X125760000Y-63000000D02*
X147500000Y-63000000D01*
X110260000Y-47500000D02*
X125760000Y-63000000D01*
X152770000Y-70460000D02*
X152770000Y-68270000D01*
%TO.N,Net-(U1-GPIO2{slash}SCK)*%
X118460000Y-50960000D02*
X112460000Y-44960000D01*
X133450000Y-50960000D02*
X118460000Y-50960000D01*
X112460000Y-44960000D02*
X110260000Y-44960000D01*
%TO.N,Net-(U1-GPIO4{slash}MISO)*%
X110260000Y-42420000D02*
X107580000Y-42420000D01*
X107500000Y-49000000D02*
X128960000Y-70460000D01*
X107580000Y-42420000D02*
X107500000Y-42500000D01*
X128960000Y-70460000D02*
X133500000Y-70460000D01*
X107500000Y-42500000D02*
X107500000Y-49000000D01*
%TO.N,Net-(U1-GPIO3{slash}MOSI)*%
X106500000Y-57500000D02*
X106500000Y-40500000D01*
X114110000Y-70460000D02*
X114110000Y-65110000D01*
X107120000Y-39880000D02*
X110260000Y-39880000D01*
X114110000Y-65110000D02*
X106500000Y-57500000D01*
X106500000Y-40500000D02*
X107120000Y-39880000D01*
%TO.N,Net-(U1-GPIO27{slash}ADC1{slash}A1)*%
X170340000Y-37500000D02*
X166340000Y-33500000D01*
X127000000Y-33300000D02*
X125500000Y-34800000D01*
X129500000Y-29500000D02*
X127000000Y-32000000D01*
X143000000Y-33500000D02*
X139000000Y-29500000D01*
X139000000Y-29500000D02*
X129500000Y-29500000D01*
X166340000Y-33500000D02*
X143000000Y-33500000D01*
X127000000Y-32000000D02*
X127000000Y-33300000D01*
%TO.N,Net-(U1-GPIO28{slash}ADC2{slash}A2)*%
X183340000Y-39000000D02*
X142500000Y-39000000D01*
X129033550Y-31033550D02*
X128533550Y-31033550D01*
X127500000Y-32067100D02*
X127500000Y-35340000D01*
X184840000Y-37500000D02*
X183340000Y-39000000D01*
X134000000Y-30500000D02*
X129567100Y-30500000D01*
X127500000Y-35340000D02*
X125500000Y-37340000D01*
X128533550Y-31033550D02*
X127500000Y-32067100D01*
X142500000Y-39000000D02*
X134000000Y-30500000D01*
X129567100Y-30500000D02*
X129033550Y-31033550D01*
%TO.N,Net-(U1-GPIO26{slash}ADC0{slash}A0)*%
X170340000Y-32500000D02*
X144000000Y-32500000D01*
X128760000Y-29000000D02*
X125500000Y-32260000D01*
X140500000Y-29000000D02*
X128760000Y-29000000D01*
X144000000Y-32500000D02*
X140500000Y-29000000D01*
%TD*%
M02*
