%TF.GenerationSoftware,KiCad,Pcbnew,9.0.7*%
%TF.CreationDate,2026-04-25T18:05:54+02:00*%
%TF.ProjectId,macro pad,6d616372-6f20-4706-9164-2e6b69636164,rev?*%
%TF.SameCoordinates,Original*%
%TF.FileFunction,Legend,Bot*%
%TF.FilePolarity,Positive*%
%FSLAX46Y46*%
G04 Gerber Fmt 4.6, Leading zero omitted, Abs format (unit mm)*
G04 Created by KiCad (PCBNEW 9.0.7) date 2026-04-25 18:05:54*
%MOMM*%
%LPD*%
G01*
G04 APERTURE LIST*
%ADD10C,0.100000*%
%ADD11C,0.101600*%
%ADD12C,0.127000*%
%ADD13C,0.504000*%
G04 APERTURE END LIST*
D10*
X98357419Y-54714285D02*
X98357419Y-54523809D01*
X98357419Y-54523809D02*
X98405038Y-54428571D01*
X98405038Y-54428571D02*
X98452657Y-54380952D01*
X98452657Y-54380952D02*
X98595514Y-54285714D01*
X98595514Y-54285714D02*
X98785990Y-54238095D01*
X98785990Y-54238095D02*
X99166942Y-54238095D01*
X99166942Y-54238095D02*
X99262180Y-54285714D01*
X99262180Y-54285714D02*
X99309800Y-54333333D01*
X99309800Y-54333333D02*
X99357419Y-54428571D01*
X99357419Y-54428571D02*
X99357419Y-54619047D01*
X99357419Y-54619047D02*
X99309800Y-54714285D01*
X99309800Y-54714285D02*
X99262180Y-54761904D01*
X99262180Y-54761904D02*
X99166942Y-54809523D01*
X99166942Y-54809523D02*
X98928847Y-54809523D01*
X98928847Y-54809523D02*
X98833609Y-54761904D01*
X98833609Y-54761904D02*
X98785990Y-54714285D01*
X98785990Y-54714285D02*
X98738371Y-54619047D01*
X98738371Y-54619047D02*
X98738371Y-54428571D01*
X98738371Y-54428571D02*
X98785990Y-54333333D01*
X98785990Y-54333333D02*
X98833609Y-54285714D01*
X98833609Y-54285714D02*
X98928847Y-54238095D01*
X98357419Y-55428571D02*
X98357419Y-55523809D01*
X98357419Y-55523809D02*
X98405038Y-55619047D01*
X98405038Y-55619047D02*
X98452657Y-55666666D01*
X98452657Y-55666666D02*
X98547895Y-55714285D01*
X98547895Y-55714285D02*
X98738371Y-55761904D01*
X98738371Y-55761904D02*
X98976466Y-55761904D01*
X98976466Y-55761904D02*
X99166942Y-55714285D01*
X99166942Y-55714285D02*
X99262180Y-55666666D01*
X99262180Y-55666666D02*
X99309800Y-55619047D01*
X99309800Y-55619047D02*
X99357419Y-55523809D01*
X99357419Y-55523809D02*
X99357419Y-55428571D01*
X99357419Y-55428571D02*
X99309800Y-55333333D01*
X99309800Y-55333333D02*
X99262180Y-55285714D01*
X99262180Y-55285714D02*
X99166942Y-55238095D01*
X99166942Y-55238095D02*
X98976466Y-55190476D01*
X98976466Y-55190476D02*
X98738371Y-55190476D01*
X98738371Y-55190476D02*
X98547895Y-55238095D01*
X98547895Y-55238095D02*
X98452657Y-55285714D01*
X98452657Y-55285714D02*
X98405038Y-55333333D01*
X98405038Y-55333333D02*
X98357419Y-55428571D01*
X189500000Y-85000000D02*
X99413580Y-85000000D01*
X99413580Y-25000000D02*
X189500000Y-25000000D01*
X100000000Y-85000000D02*
X100000000Y-25000000D01*
X100000000Y-85000000D02*
X99413579Y-83873496D01*
X100000000Y-85000000D02*
X100586421Y-83873496D01*
X100000000Y-25000000D02*
X100586421Y-26126504D01*
X100000000Y-25000000D02*
X99413579Y-26126504D01*
D11*
X126863809Y-27533479D02*
X126863809Y-28047526D01*
X126863809Y-28047526D02*
X126833571Y-28108002D01*
X126833571Y-28108002D02*
X126803333Y-28138241D01*
X126803333Y-28138241D02*
X126742857Y-28168479D01*
X126742857Y-28168479D02*
X126621904Y-28168479D01*
X126621904Y-28168479D02*
X126561428Y-28138241D01*
X126561428Y-28138241D02*
X126531190Y-28108002D01*
X126531190Y-28108002D02*
X126500952Y-28047526D01*
X126500952Y-28047526D02*
X126500952Y-27533479D01*
X125865952Y-28168479D02*
X126228809Y-28168479D01*
X126047381Y-28168479D02*
X126047381Y-27533479D01*
X126047381Y-27533479D02*
X126107857Y-27624193D01*
X126107857Y-27624193D02*
X126168333Y-27684669D01*
X126168333Y-27684669D02*
X126228809Y-27714907D01*
D12*
%TO.C,U1*%
X108990000Y-48389000D02*
X108990000Y-31244000D01*
D10*
X110895000Y-29339000D02*
X124865000Y-29339000D01*
D12*
X110895000Y-29339000D02*
X124865000Y-29339000D01*
X113376000Y-28429000D02*
X113376000Y-29339000D01*
X121871272Y-27929000D02*
X113876000Y-27929000D01*
X122375000Y-29339000D02*
X122371272Y-28428728D01*
X124865000Y-50294000D02*
X110895000Y-50294000D01*
X126770000Y-48389000D02*
X126770000Y-31244000D01*
X108990000Y-31244000D02*
G75*
G02*
X110895000Y-29339000I1905000J0D01*
G01*
X110895000Y-50294000D02*
G75*
G02*
X108990000Y-48389000I0J1905000D01*
G01*
X113376000Y-28429000D02*
G75*
G02*
X113876000Y-27929000I500000J0D01*
G01*
X121871272Y-27929000D02*
G75*
G02*
X122371273Y-28428728I-18J-500019D01*
G01*
X124865000Y-29339000D02*
G75*
G02*
X126770000Y-31244000I-1J-1905001D01*
G01*
X126770000Y-48389000D02*
G75*
G02*
X124865000Y-50294000I-1905001J1D01*
G01*
D13*
X125939000Y-30460000D02*
G75*
G02*
X125435000Y-30460000I-252000J0D01*
G01*
X125435000Y-30460000D02*
G75*
G02*
X125939000Y-30460000I252000J0D01*
G01*
X127082000Y-29580000D02*
G75*
G02*
X126578000Y-29580000I-252000J0D01*
G01*
X126578000Y-29580000D02*
G75*
G02*
X127082000Y-29580000I252000J0D01*
G01*
%TD*%
M02*
