%TF.GenerationSoftware,KiCad,Pcbnew,9.0.7*%
%TF.CreationDate,2026-04-25T18:05:53+02:00*%
%TF.ProjectId,macro pad,6d616372-6f20-4706-9164-2e6b69636164,rev?*%
%TF.SameCoordinates,Original*%
%TF.FileFunction,Copper,L2,Bot*%
%TF.FilePolarity,Positive*%
%FSLAX46Y46*%
G04 Gerber Fmt 4.6, Leading zero omitted, Abs format (unit mm)*
G04 Created by KiCad (PCBNEW 9.0.7) date 2026-04-25 18:05:53*
%MOMM*%
%LPD*%
G01*
G04 APERTURE LIST*
G04 Aperture macros list*
%AMRoundRect*
0 Rectangle with rounded corners*
0 $1 Rounding radius*
0 $2 $3 $4 $5 $6 $7 $8 $9 X,Y pos of 4 corners*
0 Add a 4 corners polygon primitive as box body*
4,1,4,$2,$3,$4,$5,$6,$7,$8,$9,$2,$3,0*
0 Add four circle primitives for the rounded corners*
1,1,$1+$1,$2,$3*
1,1,$1+$1,$4,$5*
1,1,$1+$1,$6,$7*
1,1,$1+$1,$8,$9*
0 Add four rect primitives between the rounded corners*
20,1,$1+$1,$2,$3,$4,$5,0*
20,1,$1+$1,$4,$5,$6,$7,0*
20,1,$1+$1,$6,$7,$8,$9,0*
20,1,$1+$1,$8,$9,$2,$3,0*%
G04 Aperture macros list end*
%TA.AperFunction,ComponentPad*%
%ADD10R,2.000000X2.000000*%
%TD*%
%TA.AperFunction,ComponentPad*%
%ADD11C,2.000000*%
%TD*%
%TA.AperFunction,ComponentPad*%
%ADD12R,3.200000X2.000000*%
%TD*%
%TA.AperFunction,ComponentPad*%
%ADD13C,2.200000*%
%TD*%
%TA.AperFunction,ComponentPad*%
%ADD14R,1.700000X1.700000*%
%TD*%
%TA.AperFunction,ComponentPad*%
%ADD15C,1.700000*%
%TD*%
%TA.AperFunction,SMDPad,CuDef*%
%ADD16RoundRect,0.152400X-1.063600X-0.609600X1.063600X-0.609600X1.063600X0.609600X-1.063600X0.609600X0*%
%TD*%
%TA.AperFunction,ComponentPad*%
%ADD17C,1.524000*%
%TD*%
%TA.AperFunction,SMDPad,CuDef*%
%ADD18RoundRect,0.152400X1.063600X0.609600X-1.063600X0.609600X-1.063600X-0.609600X1.063600X-0.609600X0*%
%TD*%
%TA.AperFunction,Conductor*%
%ADD19C,0.200000*%
%TD*%
G04 APERTURE END LIST*
D10*
%TO.P,SW5,A,A*%
%TO.N,Net-(U1-GPIO26{slash}ADC0{slash}A0)*%
X170340000Y-32500000D03*
D11*
%TO.P,SW5,B,B*%
%TO.N,Net-(U1-GPIO27{slash}ADC1{slash}A1)*%
X170340000Y-37500000D03*
%TO.P,SW5,C,C*%
%TO.N,GND*%
X170340000Y-35000000D03*
D12*
%TO.P,SW5,MP*%
%TO.N,N/C*%
X177840000Y-29400000D03*
X177840000Y-40600000D03*
D11*
%TO.P,SW5,S1,S1*%
%TO.N,Net-(U1-GPIO28{slash}ADC2{slash}A2)*%
X184840000Y-37500000D03*
%TO.P,SW5,S2,S2*%
%TO.N,GND*%
X184840000Y-32500000D03*
%TD*%
D13*
%TO.P,SW3,1,1*%
%TO.N,GND*%
X139850000Y-67920000D03*
%TO.P,SW3,2,2*%
%TO.N,Net-(U1-GPIO4{slash}MISO)*%
X133500000Y-70460000D03*
%TD*%
%TO.P,SW1,1,1*%
%TO.N,GND*%
X159110000Y-67920000D03*
%TO.P,SW1,2,2*%
%TO.N,Net-(U1-GPIO1{slash}RX)*%
X152760000Y-70460000D03*
%TD*%
D14*
%TO.P,J1,1,Pin_1*%
%TO.N,GND*%
X130340000Y-32500000D03*
D15*
%TO.P,J1,2,Pin_2*%
%TO.N,+3.3V*%
X130340000Y-35040000D03*
%TO.P,J1,3,Pin_3*%
%TO.N,Net-(J1-Pin_3)*%
X130340000Y-37580000D03*
%TO.P,J1,4,Pin_4*%
%TO.N,Net-(J1-Pin_4)*%
X130340000Y-40120000D03*
%TD*%
D13*
%TO.P,SW4,1,1*%
%TO.N,GND*%
X120630000Y-67920000D03*
%TO.P,SW4,2,2*%
%TO.N,Net-(U1-GPIO3{slash}MOSI)*%
X114280000Y-70460000D03*
%TD*%
%TO.P,SW2,1,1*%
%TO.N,GND*%
X139840000Y-48720000D03*
%TO.P,SW2,2,2*%
%TO.N,Net-(U1-GPIO2{slash}SCK)*%
X133490000Y-51260000D03*
%TD*%
D16*
%TO.P,U1,1,GPIO26/ADC0/A0*%
%TO.N,Net-(U1-GPIO26{slash}ADC0{slash}A0)*%
X126335000Y-32260000D03*
D17*
X125500000Y-32260000D03*
D16*
%TO.P,U1,2,GPIO27/ADC1/A1*%
%TO.N,Net-(U1-GPIO27{slash}ADC1{slash}A1)*%
X126335000Y-34800000D03*
D17*
X125500000Y-34800000D03*
D16*
%TO.P,U1,3,GPIO28/ADC2/A2*%
%TO.N,Net-(U1-GPIO28{slash}ADC2{slash}A2)*%
X126335000Y-37340000D03*
D17*
X125500000Y-37340000D03*
D16*
%TO.P,U1,4,GPIO29/ADC3/A3*%
%TO.N,unconnected-(U1-GPIO29{slash}ADC3{slash}A3-Pad4)*%
X126335000Y-39880000D03*
D17*
X125500000Y-39880000D03*
D16*
%TO.P,U1,5,GPIO6/SDA*%
%TO.N,Net-(J1-Pin_4)*%
X126335000Y-42420000D03*
D17*
X125500000Y-42420000D03*
D16*
%TO.P,U1,6,GPIO7/SCL*%
%TO.N,Net-(J1-Pin_3)*%
X126335000Y-44960000D03*
D17*
X125500000Y-44960000D03*
D16*
%TO.P,U1,7,GPIO0/TX*%
%TO.N,unconnected-(U1-GPIO0{slash}TX-Pad7)*%
X126335000Y-47500000D03*
D17*
X125500000Y-47500000D03*
%TO.P,U1,8,GPIO1/RX*%
%TO.N,Net-(U1-GPIO1{slash}RX)*%
X110260000Y-47500000D03*
D18*
X109425000Y-47500000D03*
D17*
%TO.P,U1,9,GPIO2/SCK*%
%TO.N,Net-(U1-GPIO2{slash}SCK)*%
X110260000Y-44960000D03*
D18*
X109425000Y-44960000D03*
D17*
%TO.P,U1,10,GPIO4/MISO*%
%TO.N,Net-(U1-GPIO4{slash}MISO)*%
X110260000Y-42420000D03*
D18*
X109425000Y-42420000D03*
D17*
%TO.P,U1,11,GPIO3/MOSI*%
%TO.N,Net-(U1-GPIO3{slash}MOSI)*%
X110260000Y-39880000D03*
D18*
X109425000Y-39880000D03*
D17*
%TO.P,U1,12,3V3*%
%TO.N,+3.3V*%
X110260000Y-37340000D03*
D18*
X109425000Y-37340000D03*
D17*
%TO.P,U1,13,GND*%
%TO.N,unconnected-(U1-GND-Pad13)*%
X110260000Y-34800000D03*
D18*
X109425000Y-34800000D03*
D17*
%TO.P,U1,14,VBUS*%
%TO.N,unconnected-(U1-VBUS-Pad14)*%
X110260000Y-32260000D03*
D18*
X109425000Y-32260000D03*
%TD*%
D19*
%TO.N,GND*%
X120460000Y-67920000D02*
X139850000Y-67920000D01*
X182340000Y-35000000D02*
X170340000Y-35000000D01*
X172000000Y-40000000D02*
X164880000Y-47120000D01*
X139850000Y-67920000D02*
X159120000Y-67920000D01*
X184840000Y-32500000D02*
X182340000Y-35000000D01*
X164880000Y-47120000D02*
X159120000Y-47120000D01*
X139800000Y-41960000D02*
X139800000Y-48420000D01*
X130340000Y-32500000D02*
X139800000Y-41960000D01*
X159120000Y-67920000D02*
X159120000Y-47120000D01*
X139850000Y-48470000D02*
X139800000Y-48420000D01*
X159120000Y-47120000D02*
X159000000Y-47000000D01*
X139850000Y-67920000D02*
X139850000Y-48470000D01*
X172000000Y-35000000D02*
X170340000Y-35000000D01*
X172000000Y-40000000D02*
X172000000Y-35000000D01*
%TD*%
M02*
