%TF.GenerationSoftware,KiCad,Pcbnew,9.0.7*%
%TF.CreationDate,2026-04-25T18:05:54+02:00*%
%TF.ProjectId,macro pad,6d616372-6f20-4706-9164-2e6b69636164,rev?*%
%TF.SameCoordinates,Original*%
%TF.FileFunction,Legend,Top*%
%TF.FilePolarity,Positive*%
%FSLAX46Y46*%
G04 Gerber Fmt 4.6, Leading zero omitted, Abs format (unit mm)*
G04 Created by KiCad (PCBNEW 9.0.7) date 2026-04-25 18:05:54*
%MOMM*%
%LPD*%
G01*
G04 APERTURE LIST*
%ADD10C,0.150000*%
%ADD11C,0.120000*%
G04 APERTURE END LIST*
D10*
X171806667Y-28207200D02*
X171949524Y-28254819D01*
X171949524Y-28254819D02*
X172187619Y-28254819D01*
X172187619Y-28254819D02*
X172282857Y-28207200D01*
X172282857Y-28207200D02*
X172330476Y-28159580D01*
X172330476Y-28159580D02*
X172378095Y-28064342D01*
X172378095Y-28064342D02*
X172378095Y-27969104D01*
X172378095Y-27969104D02*
X172330476Y-27873866D01*
X172330476Y-27873866D02*
X172282857Y-27826247D01*
X172282857Y-27826247D02*
X172187619Y-27778628D01*
X172187619Y-27778628D02*
X171997143Y-27731009D01*
X171997143Y-27731009D02*
X171901905Y-27683390D01*
X171901905Y-27683390D02*
X171854286Y-27635771D01*
X171854286Y-27635771D02*
X171806667Y-27540533D01*
X171806667Y-27540533D02*
X171806667Y-27445295D01*
X171806667Y-27445295D02*
X171854286Y-27350057D01*
X171854286Y-27350057D02*
X171901905Y-27302438D01*
X171901905Y-27302438D02*
X171997143Y-27254819D01*
X171997143Y-27254819D02*
X172235238Y-27254819D01*
X172235238Y-27254819D02*
X172378095Y-27302438D01*
X172711429Y-27254819D02*
X172949524Y-28254819D01*
X172949524Y-28254819D02*
X173140000Y-27540533D01*
X173140000Y-27540533D02*
X173330476Y-28254819D01*
X173330476Y-28254819D02*
X173568572Y-27254819D01*
X174425714Y-27254819D02*
X173949524Y-27254819D01*
X173949524Y-27254819D02*
X173901905Y-27731009D01*
X173901905Y-27731009D02*
X173949524Y-27683390D01*
X173949524Y-27683390D02*
X174044762Y-27635771D01*
X174044762Y-27635771D02*
X174282857Y-27635771D01*
X174282857Y-27635771D02*
X174378095Y-27683390D01*
X174378095Y-27683390D02*
X174425714Y-27731009D01*
X174425714Y-27731009D02*
X174473333Y-27826247D01*
X174473333Y-27826247D02*
X174473333Y-28064342D01*
X174473333Y-28064342D02*
X174425714Y-28159580D01*
X174425714Y-28159580D02*
X174378095Y-28207200D01*
X174378095Y-28207200D02*
X174282857Y-28254819D01*
X174282857Y-28254819D02*
X174044762Y-28254819D01*
X174044762Y-28254819D02*
X173949524Y-28207200D01*
X173949524Y-28207200D02*
X173901905Y-28159580D01*
X135976667Y-65533200D02*
X136119524Y-65580819D01*
X136119524Y-65580819D02*
X136357619Y-65580819D01*
X136357619Y-65580819D02*
X136452857Y-65533200D01*
X136452857Y-65533200D02*
X136500476Y-65485580D01*
X136500476Y-65485580D02*
X136548095Y-65390342D01*
X136548095Y-65390342D02*
X136548095Y-65295104D01*
X136548095Y-65295104D02*
X136500476Y-65199866D01*
X136500476Y-65199866D02*
X136452857Y-65152247D01*
X136452857Y-65152247D02*
X136357619Y-65104628D01*
X136357619Y-65104628D02*
X136167143Y-65057009D01*
X136167143Y-65057009D02*
X136071905Y-65009390D01*
X136071905Y-65009390D02*
X136024286Y-64961771D01*
X136024286Y-64961771D02*
X135976667Y-64866533D01*
X135976667Y-64866533D02*
X135976667Y-64771295D01*
X135976667Y-64771295D02*
X136024286Y-64676057D01*
X136024286Y-64676057D02*
X136071905Y-64628438D01*
X136071905Y-64628438D02*
X136167143Y-64580819D01*
X136167143Y-64580819D02*
X136405238Y-64580819D01*
X136405238Y-64580819D02*
X136548095Y-64628438D01*
X136881429Y-64580819D02*
X137119524Y-65580819D01*
X137119524Y-65580819D02*
X137310000Y-64866533D01*
X137310000Y-64866533D02*
X137500476Y-65580819D01*
X137500476Y-65580819D02*
X137738572Y-64580819D01*
X138024286Y-64580819D02*
X138643333Y-64580819D01*
X138643333Y-64580819D02*
X138310000Y-64961771D01*
X138310000Y-64961771D02*
X138452857Y-64961771D01*
X138452857Y-64961771D02*
X138548095Y-65009390D01*
X138548095Y-65009390D02*
X138595714Y-65057009D01*
X138595714Y-65057009D02*
X138643333Y-65152247D01*
X138643333Y-65152247D02*
X138643333Y-65390342D01*
X138643333Y-65390342D02*
X138595714Y-65485580D01*
X138595714Y-65485580D02*
X138548095Y-65533200D01*
X138548095Y-65533200D02*
X138452857Y-65580819D01*
X138452857Y-65580819D02*
X138167143Y-65580819D01*
X138167143Y-65580819D02*
X138071905Y-65533200D01*
X138071905Y-65533200D02*
X138024286Y-65485580D01*
X155236667Y-65533200D02*
X155379524Y-65580819D01*
X155379524Y-65580819D02*
X155617619Y-65580819D01*
X155617619Y-65580819D02*
X155712857Y-65533200D01*
X155712857Y-65533200D02*
X155760476Y-65485580D01*
X155760476Y-65485580D02*
X155808095Y-65390342D01*
X155808095Y-65390342D02*
X155808095Y-65295104D01*
X155808095Y-65295104D02*
X155760476Y-65199866D01*
X155760476Y-65199866D02*
X155712857Y-65152247D01*
X155712857Y-65152247D02*
X155617619Y-65104628D01*
X155617619Y-65104628D02*
X155427143Y-65057009D01*
X155427143Y-65057009D02*
X155331905Y-65009390D01*
X155331905Y-65009390D02*
X155284286Y-64961771D01*
X155284286Y-64961771D02*
X155236667Y-64866533D01*
X155236667Y-64866533D02*
X155236667Y-64771295D01*
X155236667Y-64771295D02*
X155284286Y-64676057D01*
X155284286Y-64676057D02*
X155331905Y-64628438D01*
X155331905Y-64628438D02*
X155427143Y-64580819D01*
X155427143Y-64580819D02*
X155665238Y-64580819D01*
X155665238Y-64580819D02*
X155808095Y-64628438D01*
X156141429Y-64580819D02*
X156379524Y-65580819D01*
X156379524Y-65580819D02*
X156570000Y-64866533D01*
X156570000Y-64866533D02*
X156760476Y-65580819D01*
X156760476Y-65580819D02*
X156998572Y-64580819D01*
X157903333Y-65580819D02*
X157331905Y-65580819D01*
X157617619Y-65580819D02*
X157617619Y-64580819D01*
X157617619Y-64580819D02*
X157522381Y-64723676D01*
X157522381Y-64723676D02*
X157427143Y-64818914D01*
X157427143Y-64818914D02*
X157331905Y-64866533D01*
X134391666Y-29684819D02*
X134391666Y-30399104D01*
X134391666Y-30399104D02*
X134344047Y-30541961D01*
X134344047Y-30541961D02*
X134248809Y-30637200D01*
X134248809Y-30637200D02*
X134105952Y-30684819D01*
X134105952Y-30684819D02*
X134010714Y-30684819D01*
X135391666Y-30684819D02*
X134820238Y-30684819D01*
X135105952Y-30684819D02*
X135105952Y-29684819D01*
X135105952Y-29684819D02*
X135010714Y-29827676D01*
X135010714Y-29827676D02*
X134915476Y-29922914D01*
X134915476Y-29922914D02*
X134820238Y-29970533D01*
X116756667Y-65533200D02*
X116899524Y-65580819D01*
X116899524Y-65580819D02*
X117137619Y-65580819D01*
X117137619Y-65580819D02*
X117232857Y-65533200D01*
X117232857Y-65533200D02*
X117280476Y-65485580D01*
X117280476Y-65485580D02*
X117328095Y-65390342D01*
X117328095Y-65390342D02*
X117328095Y-65295104D01*
X117328095Y-65295104D02*
X117280476Y-65199866D01*
X117280476Y-65199866D02*
X117232857Y-65152247D01*
X117232857Y-65152247D02*
X117137619Y-65104628D01*
X117137619Y-65104628D02*
X116947143Y-65057009D01*
X116947143Y-65057009D02*
X116851905Y-65009390D01*
X116851905Y-65009390D02*
X116804286Y-64961771D01*
X116804286Y-64961771D02*
X116756667Y-64866533D01*
X116756667Y-64866533D02*
X116756667Y-64771295D01*
X116756667Y-64771295D02*
X116804286Y-64676057D01*
X116804286Y-64676057D02*
X116851905Y-64628438D01*
X116851905Y-64628438D02*
X116947143Y-64580819D01*
X116947143Y-64580819D02*
X117185238Y-64580819D01*
X117185238Y-64580819D02*
X117328095Y-64628438D01*
X117661429Y-64580819D02*
X117899524Y-65580819D01*
X117899524Y-65580819D02*
X118090000Y-64866533D01*
X118090000Y-64866533D02*
X118280476Y-65580819D01*
X118280476Y-65580819D02*
X118518572Y-64580819D01*
X119328095Y-64914152D02*
X119328095Y-65580819D01*
X119090000Y-64533200D02*
X118851905Y-65247485D01*
X118851905Y-65247485D02*
X119470952Y-65247485D01*
X135966667Y-46333200D02*
X136109524Y-46380819D01*
X136109524Y-46380819D02*
X136347619Y-46380819D01*
X136347619Y-46380819D02*
X136442857Y-46333200D01*
X136442857Y-46333200D02*
X136490476Y-46285580D01*
X136490476Y-46285580D02*
X136538095Y-46190342D01*
X136538095Y-46190342D02*
X136538095Y-46095104D01*
X136538095Y-46095104D02*
X136490476Y-45999866D01*
X136490476Y-45999866D02*
X136442857Y-45952247D01*
X136442857Y-45952247D02*
X136347619Y-45904628D01*
X136347619Y-45904628D02*
X136157143Y-45857009D01*
X136157143Y-45857009D02*
X136061905Y-45809390D01*
X136061905Y-45809390D02*
X136014286Y-45761771D01*
X136014286Y-45761771D02*
X135966667Y-45666533D01*
X135966667Y-45666533D02*
X135966667Y-45571295D01*
X135966667Y-45571295D02*
X136014286Y-45476057D01*
X136014286Y-45476057D02*
X136061905Y-45428438D01*
X136061905Y-45428438D02*
X136157143Y-45380819D01*
X136157143Y-45380819D02*
X136395238Y-45380819D01*
X136395238Y-45380819D02*
X136538095Y-45428438D01*
X136871429Y-45380819D02*
X137109524Y-46380819D01*
X137109524Y-46380819D02*
X137300000Y-45666533D01*
X137300000Y-45666533D02*
X137490476Y-46380819D01*
X137490476Y-46380819D02*
X137728572Y-45380819D01*
X138061905Y-45476057D02*
X138109524Y-45428438D01*
X138109524Y-45428438D02*
X138204762Y-45380819D01*
X138204762Y-45380819D02*
X138442857Y-45380819D01*
X138442857Y-45380819D02*
X138538095Y-45428438D01*
X138538095Y-45428438D02*
X138585714Y-45476057D01*
X138585714Y-45476057D02*
X138633333Y-45571295D01*
X138633333Y-45571295D02*
X138633333Y-45666533D01*
X138633333Y-45666533D02*
X138585714Y-45809390D01*
X138585714Y-45809390D02*
X138014286Y-46380819D01*
X138014286Y-46380819D02*
X138633333Y-46380819D01*
D11*
%TO.C,SW5*%
X170040000Y-30900000D02*
X170640000Y-30900000D01*
X170340000Y-31200000D02*
X170040000Y-30900000D01*
X170640000Y-30900000D02*
X170340000Y-31200000D01*
X171740000Y-29100000D02*
X171740000Y-40900000D01*
X175840000Y-29100000D02*
X171740000Y-29100000D01*
X175840000Y-40900000D02*
X171740000Y-40900000D01*
X177340000Y-35000000D02*
X178340000Y-35000000D01*
X177840000Y-34500000D02*
X177840000Y-35500000D01*
X179840000Y-29100000D02*
X183940000Y-29100000D01*
X183940000Y-29100000D02*
X183940000Y-31500000D01*
X183940000Y-33700000D02*
X183940000Y-36300000D01*
X183940000Y-38500000D02*
X183940000Y-40900000D01*
X183940000Y-40900000D02*
X179840000Y-40900000D01*
X180840000Y-35000000D02*
G75*
G02*
X174840000Y-35000000I-3000000J0D01*
G01*
X174840000Y-35000000D02*
G75*
G02*
X180840000Y-35000000I3000000J0D01*
G01*
%TO.C,SW3*%
X130325000Y-66015000D02*
X144295000Y-66015000D01*
X130325000Y-79985000D02*
X130325000Y-66015000D01*
X144295000Y-66015000D02*
X144295000Y-79985000D01*
X144295000Y-79985000D02*
X130325000Y-79985000D01*
%TO.C,SW1*%
X149585000Y-66015000D02*
X163555000Y-66015000D01*
X149585000Y-79985000D02*
X149585000Y-66015000D01*
X163555000Y-66015000D02*
X163555000Y-79985000D01*
X163555000Y-79985000D02*
X149585000Y-79985000D01*
%TO.C,J1*%
X129070000Y-31230000D02*
X130340000Y-31230000D01*
X129070000Y-32500000D02*
X129070000Y-31230000D01*
X131417358Y-34610000D02*
X131730000Y-34610000D01*
X131417358Y-35470000D02*
X131730000Y-35470000D01*
X131417358Y-37150000D02*
X131730000Y-37150000D01*
X131417358Y-38010000D02*
X131730000Y-38010000D01*
X131417358Y-39690000D02*
X131730000Y-39690000D01*
X131417358Y-40550000D02*
X131730000Y-40550000D01*
X131500000Y-32070000D02*
X131730000Y-32070000D01*
X131500000Y-32930000D02*
X131730000Y-32930000D01*
X131730000Y-33770000D02*
X134490000Y-33770000D01*
X131730000Y-36310000D02*
X134490000Y-36310000D01*
X131730000Y-38850000D02*
X134490000Y-38850000D01*
X134490000Y-34610000D02*
X140490000Y-34610000D01*
X134490000Y-37150000D02*
X140490000Y-37150000D01*
X134490000Y-39690000D02*
X140490000Y-39690000D01*
X140490000Y-34610000D02*
X140490000Y-35470000D01*
X140490000Y-35470000D02*
X134490000Y-35470000D01*
X140490000Y-37150000D02*
X140490000Y-38010000D01*
X140490000Y-38010000D02*
X134490000Y-38010000D01*
X140490000Y-39690000D02*
X140490000Y-40550000D01*
X140490000Y-40550000D02*
X134490000Y-40550000D01*
X131730000Y-31120000D02*
X134490000Y-31120000D01*
X134490000Y-41500000D01*
X131730000Y-41500000D01*
X131730000Y-31120000D01*
X134490000Y-32070000D02*
X140490000Y-32070000D01*
X140490000Y-32930000D01*
X134490000Y-32930000D01*
X134490000Y-32070000D01*
G36*
X134490000Y-32070000D02*
G01*
X140490000Y-32070000D01*
X140490000Y-32930000D01*
X134490000Y-32930000D01*
X134490000Y-32070000D01*
G37*
%TO.C,SW4*%
X111105000Y-66015000D02*
X125075000Y-66015000D01*
X111105000Y-79985000D02*
X111105000Y-66015000D01*
X125075000Y-66015000D02*
X125075000Y-79985000D01*
X125075000Y-79985000D02*
X111105000Y-79985000D01*
%TO.C,SW2*%
X130315000Y-46815000D02*
X144285000Y-46815000D01*
X130315000Y-60785000D02*
X130315000Y-46815000D01*
X144285000Y-46815000D02*
X144285000Y-60785000D01*
X144285000Y-60785000D02*
X130315000Y-60785000D01*
%TD*%
M02*
