%TF.GenerationSoftware,KiCad,Pcbnew,9.0.7*%
%TF.CreationDate,2026-04-25T18:04:33+02:00*%
%TF.ProjectId,macro pad,6d616372-6f20-4706-9164-2e6b69636164,rev?*%
%TF.SameCoordinates,Original*%
%TF.FileFunction,Drillmap*%
%TF.FilePolarity,Positive*%
%FSLAX45Y45*%
G04 Gerber Fmt 4.5, Leading zero omitted, Abs format (unit mm)*
G04 Created by KiCad (PCBNEW 9.0.7) date 2026-04-25 18:04:33*
%MOMM*%
%LPD*%
G01*
G04 APERTURE LIST*
%ADD10C,0.050000*%
%ADD11C,0.200000*%
%ADD12C,0.100000*%
%ADD13C,0.150000*%
G04 APERTURE END LIST*
D10*
X10000000Y-8500000D02*
X19000000Y-8500000D01*
X10000000Y-2500000D02*
X10000000Y-8500000D01*
X19000000Y-2500000D02*
X19000000Y-8500000D01*
X19000000Y-2500000D02*
X10000000Y-2500000D01*
D11*
D12*
X10981550Y-3181550D02*
X11070450Y-3270450D01*
X11070450Y-3181550D02*
X10981550Y-3270450D01*
X10981550Y-3435550D02*
X11070450Y-3524450D01*
X11070450Y-3435550D02*
X10981550Y-3524450D01*
X10981550Y-3689550D02*
X11070450Y-3778450D01*
X11070450Y-3689550D02*
X10981550Y-3778450D01*
X10981550Y-3943550D02*
X11070450Y-4032450D01*
X11070450Y-3943550D02*
X10981550Y-4032450D01*
X10981550Y-4197550D02*
X11070450Y-4286450D01*
X11070450Y-4197550D02*
X10981550Y-4286450D01*
X10981550Y-4451550D02*
X11070450Y-4540450D01*
X11070450Y-4451550D02*
X10981550Y-4540450D01*
X10981550Y-4705550D02*
X11070450Y-4794450D01*
X11070450Y-4705550D02*
X10981550Y-4794450D01*
X12505550Y-3181550D02*
X12594450Y-3270450D01*
X12594450Y-3181550D02*
X12505550Y-3270450D01*
X12505550Y-3435550D02*
X12594450Y-3524450D01*
X12594450Y-3435550D02*
X12505550Y-3524450D01*
X12505550Y-3689550D02*
X12594450Y-3778450D01*
X12594450Y-3689550D02*
X12505550Y-3778450D01*
X12505550Y-3943550D02*
X12594450Y-4032450D01*
X12594450Y-3943550D02*
X12505550Y-4032450D01*
X12505550Y-4197550D02*
X12594450Y-4286450D01*
X12594450Y-4197550D02*
X12505550Y-4286450D01*
X12505550Y-4451550D02*
X12594450Y-4540450D01*
X12594450Y-4451550D02*
X12505550Y-4540450D01*
X12505550Y-4705550D02*
X12594450Y-4794450D01*
X12594450Y-4705550D02*
X12505550Y-4794450D01*
X13084000Y-3250000D02*
G75*
G02*
X12984000Y-3250000I-50000J0D01*
G01*
X12984000Y-3250000D02*
G75*
G02*
X13084000Y-3250000I50000J0D01*
G01*
X13084000Y-3504000D02*
G75*
G02*
X12984000Y-3504000I-50000J0D01*
G01*
X12984000Y-3504000D02*
G75*
G02*
X13084000Y-3504000I50000J0D01*
G01*
X13084000Y-3758000D02*
G75*
G02*
X12984000Y-3758000I-50000J0D01*
G01*
X12984000Y-3758000D02*
G75*
G02*
X13084000Y-3758000I50000J0D01*
G01*
X13084000Y-4012000D02*
G75*
G02*
X12984000Y-4012000I-50000J0D01*
G01*
X12984000Y-4012000D02*
G75*
G02*
X13084000Y-4012000I50000J0D01*
G01*
X17084000Y-3250000D02*
G75*
G02*
X16984000Y-3250000I-50000J0D01*
G01*
X16984000Y-3250000D02*
G75*
G02*
X17084000Y-3250000I50000J0D01*
G01*
X17084000Y-3500000D02*
G75*
G02*
X16984000Y-3500000I-50000J0D01*
G01*
X16984000Y-3500000D02*
G75*
G02*
X17084000Y-3500000I50000J0D01*
G01*
X17084000Y-3750000D02*
G75*
G02*
X16984000Y-3750000I-50000J0D01*
G01*
X16984000Y-3750000D02*
G75*
G02*
X17084000Y-3750000I50000J0D01*
G01*
X18534000Y-3250000D02*
G75*
G02*
X18434000Y-3250000I-50000J0D01*
G01*
X18434000Y-3250000D02*
G75*
G02*
X18534000Y-3250000I50000J0D01*
G01*
X18534000Y-3750000D02*
G75*
G02*
X18434000Y-3750000I-50000J0D01*
G01*
X18434000Y-3750000D02*
G75*
G02*
X18534000Y-3750000I50000J0D01*
G01*
D13*
X11428000Y-6971000D02*
X11428000Y-7121000D01*
X11353000Y-7046000D02*
X11503000Y-7046000D01*
X12063000Y-6717000D02*
X12063000Y-6867000D01*
X11988000Y-6792000D02*
X12138000Y-6792000D01*
X13349000Y-5051000D02*
X13349000Y-5201000D01*
X13274000Y-5126000D02*
X13424000Y-5126000D01*
X13350000Y-6971000D02*
X13350000Y-7121000D01*
X13275000Y-7046000D02*
X13425000Y-7046000D01*
X13984000Y-4797000D02*
X13984000Y-4947000D01*
X13909000Y-4872000D02*
X14059000Y-4872000D01*
X13985000Y-6717000D02*
X13985000Y-6867000D01*
X13910000Y-6792000D02*
X14060000Y-6792000D01*
X15276000Y-6971000D02*
X15276000Y-7121000D01*
X15201000Y-7046000D02*
X15351000Y-7046000D01*
X15911000Y-6717000D02*
X15911000Y-6867000D01*
X15836000Y-6792000D02*
X15986000Y-6792000D01*
X17784000Y-2865000D02*
X17784000Y-3015000D01*
X17709000Y-2940000D02*
X17859000Y-2940000D01*
D12*
X17719000Y-3015000D02*
X17849000Y-3015000D01*
X17849000Y-2865000D02*
G75*
G02*
X17849000Y-3015000I0J-75000D01*
G01*
X17849000Y-2865000D02*
X17719000Y-2865000D01*
X17719000Y-2865000D02*
G75*
G03*
X17719000Y-3015000I0J-75000D01*
G01*
D13*
X17784000Y-3985000D02*
X17784000Y-4135000D01*
X17709000Y-4060000D02*
X17859000Y-4060000D01*
D12*
X17719000Y-4135000D02*
X17849000Y-4135000D01*
X17849000Y-3985000D02*
G75*
G02*
X17849000Y-4135000I0J-75000D01*
G01*
X17849000Y-3985000D02*
X17719000Y-3985000D01*
X17719000Y-3985000D02*
G75*
G03*
X17719000Y-4135000I0J-75000D01*
G01*
D11*
X10258277Y-8813984D02*
X10258277Y-8613984D01*
X10258277Y-8613984D02*
X10305896Y-8613984D01*
X10305896Y-8613984D02*
X10334467Y-8623508D01*
X10334467Y-8623508D02*
X10353515Y-8642555D01*
X10353515Y-8642555D02*
X10363039Y-8661603D01*
X10363039Y-8661603D02*
X10372563Y-8699698D01*
X10372563Y-8699698D02*
X10372563Y-8728270D01*
X10372563Y-8728270D02*
X10363039Y-8766365D01*
X10363039Y-8766365D02*
X10353515Y-8785412D01*
X10353515Y-8785412D02*
X10334467Y-8804460D01*
X10334467Y-8804460D02*
X10305896Y-8813984D01*
X10305896Y-8813984D02*
X10258277Y-8813984D01*
X10458277Y-8813984D02*
X10458277Y-8680650D01*
X10458277Y-8718746D02*
X10467801Y-8699698D01*
X10467801Y-8699698D02*
X10477324Y-8690174D01*
X10477324Y-8690174D02*
X10496372Y-8680650D01*
X10496372Y-8680650D02*
X10515420Y-8680650D01*
X10582086Y-8813984D02*
X10582086Y-8680650D01*
X10582086Y-8613984D02*
X10572563Y-8623508D01*
X10572563Y-8623508D02*
X10582086Y-8633031D01*
X10582086Y-8633031D02*
X10591610Y-8623508D01*
X10591610Y-8623508D02*
X10582086Y-8613984D01*
X10582086Y-8613984D02*
X10582086Y-8633031D01*
X10705896Y-8813984D02*
X10686848Y-8804460D01*
X10686848Y-8804460D02*
X10677324Y-8785412D01*
X10677324Y-8785412D02*
X10677324Y-8613984D01*
X10810658Y-8813984D02*
X10791610Y-8804460D01*
X10791610Y-8804460D02*
X10782086Y-8785412D01*
X10782086Y-8785412D02*
X10782086Y-8613984D01*
X11039229Y-8813984D02*
X11039229Y-8613984D01*
X11039229Y-8613984D02*
X11105896Y-8756841D01*
X11105896Y-8756841D02*
X11172563Y-8613984D01*
X11172563Y-8613984D02*
X11172563Y-8813984D01*
X11353515Y-8813984D02*
X11353515Y-8709222D01*
X11353515Y-8709222D02*
X11343991Y-8690174D01*
X11343991Y-8690174D02*
X11324943Y-8680650D01*
X11324943Y-8680650D02*
X11286848Y-8680650D01*
X11286848Y-8680650D02*
X11267801Y-8690174D01*
X11353515Y-8804460D02*
X11334467Y-8813984D01*
X11334467Y-8813984D02*
X11286848Y-8813984D01*
X11286848Y-8813984D02*
X11267801Y-8804460D01*
X11267801Y-8804460D02*
X11258277Y-8785412D01*
X11258277Y-8785412D02*
X11258277Y-8766365D01*
X11258277Y-8766365D02*
X11267801Y-8747317D01*
X11267801Y-8747317D02*
X11286848Y-8737793D01*
X11286848Y-8737793D02*
X11334467Y-8737793D01*
X11334467Y-8737793D02*
X11353515Y-8728270D01*
X11448753Y-8680650D02*
X11448753Y-8880650D01*
X11448753Y-8690174D02*
X11467801Y-8680650D01*
X11467801Y-8680650D02*
X11505896Y-8680650D01*
X11505896Y-8680650D02*
X11524943Y-8690174D01*
X11524943Y-8690174D02*
X11534467Y-8699698D01*
X11534467Y-8699698D02*
X11543991Y-8718746D01*
X11543991Y-8718746D02*
X11543991Y-8775889D01*
X11543991Y-8775889D02*
X11534467Y-8794936D01*
X11534467Y-8794936D02*
X11524943Y-8804460D01*
X11524943Y-8804460D02*
X11505896Y-8813984D01*
X11505896Y-8813984D02*
X11467801Y-8813984D01*
X11467801Y-8813984D02*
X11448753Y-8804460D01*
X11629705Y-8794936D02*
X11639229Y-8804460D01*
X11639229Y-8804460D02*
X11629705Y-8813984D01*
X11629705Y-8813984D02*
X11620182Y-8804460D01*
X11620182Y-8804460D02*
X11629705Y-8794936D01*
X11629705Y-8794936D02*
X11629705Y-8813984D01*
X11629705Y-8690174D02*
X11639229Y-8699698D01*
X11639229Y-8699698D02*
X11629705Y-8709222D01*
X11629705Y-8709222D02*
X11620182Y-8699698D01*
X11620182Y-8699698D02*
X11629705Y-8690174D01*
X11629705Y-8690174D02*
X11629705Y-8709222D01*
D12*
X9908600Y-9098050D02*
X9997500Y-9186950D01*
X9997500Y-9098050D02*
X9908600Y-9186950D01*
D11*
X10296372Y-9033984D02*
X10315420Y-9033984D01*
X10315420Y-9033984D02*
X10334467Y-9043508D01*
X10334467Y-9043508D02*
X10343991Y-9053031D01*
X10343991Y-9053031D02*
X10353515Y-9072079D01*
X10353515Y-9072079D02*
X10363039Y-9110174D01*
X10363039Y-9110174D02*
X10363039Y-9157793D01*
X10363039Y-9157793D02*
X10353515Y-9195889D01*
X10353515Y-9195889D02*
X10343991Y-9214936D01*
X10343991Y-9214936D02*
X10334467Y-9224460D01*
X10334467Y-9224460D02*
X10315420Y-9233984D01*
X10315420Y-9233984D02*
X10296372Y-9233984D01*
X10296372Y-9233984D02*
X10277324Y-9224460D01*
X10277324Y-9224460D02*
X10267801Y-9214936D01*
X10267801Y-9214936D02*
X10258277Y-9195889D01*
X10258277Y-9195889D02*
X10248753Y-9157793D01*
X10248753Y-9157793D02*
X10248753Y-9110174D01*
X10248753Y-9110174D02*
X10258277Y-9072079D01*
X10258277Y-9072079D02*
X10267801Y-9053031D01*
X10267801Y-9053031D02*
X10277324Y-9043508D01*
X10277324Y-9043508D02*
X10296372Y-9033984D01*
X10448753Y-9214936D02*
X10458277Y-9224460D01*
X10458277Y-9224460D02*
X10448753Y-9233984D01*
X10448753Y-9233984D02*
X10439229Y-9224460D01*
X10439229Y-9224460D02*
X10448753Y-9214936D01*
X10448753Y-9214936D02*
X10448753Y-9233984D01*
X10572563Y-9119698D02*
X10553515Y-9110174D01*
X10553515Y-9110174D02*
X10543991Y-9100650D01*
X10543991Y-9100650D02*
X10534467Y-9081603D01*
X10534467Y-9081603D02*
X10534467Y-9072079D01*
X10534467Y-9072079D02*
X10543991Y-9053031D01*
X10543991Y-9053031D02*
X10553515Y-9043508D01*
X10553515Y-9043508D02*
X10572563Y-9033984D01*
X10572563Y-9033984D02*
X10610658Y-9033984D01*
X10610658Y-9033984D02*
X10629705Y-9043508D01*
X10629705Y-9043508D02*
X10639229Y-9053031D01*
X10639229Y-9053031D02*
X10648753Y-9072079D01*
X10648753Y-9072079D02*
X10648753Y-9081603D01*
X10648753Y-9081603D02*
X10639229Y-9100650D01*
X10639229Y-9100650D02*
X10629705Y-9110174D01*
X10629705Y-9110174D02*
X10610658Y-9119698D01*
X10610658Y-9119698D02*
X10572563Y-9119698D01*
X10572563Y-9119698D02*
X10553515Y-9129222D01*
X10553515Y-9129222D02*
X10543991Y-9138746D01*
X10543991Y-9138746D02*
X10534467Y-9157793D01*
X10534467Y-9157793D02*
X10534467Y-9195889D01*
X10534467Y-9195889D02*
X10543991Y-9214936D01*
X10543991Y-9214936D02*
X10553515Y-9224460D01*
X10553515Y-9224460D02*
X10572563Y-9233984D01*
X10572563Y-9233984D02*
X10610658Y-9233984D01*
X10610658Y-9233984D02*
X10629705Y-9224460D01*
X10629705Y-9224460D02*
X10639229Y-9214936D01*
X10639229Y-9214936D02*
X10648753Y-9195889D01*
X10648753Y-9195889D02*
X10648753Y-9157793D01*
X10648753Y-9157793D02*
X10639229Y-9138746D01*
X10639229Y-9138746D02*
X10629705Y-9129222D01*
X10629705Y-9129222D02*
X10610658Y-9119698D01*
X10763039Y-9119698D02*
X10743991Y-9110174D01*
X10743991Y-9110174D02*
X10734467Y-9100650D01*
X10734467Y-9100650D02*
X10724944Y-9081603D01*
X10724944Y-9081603D02*
X10724944Y-9072079D01*
X10724944Y-9072079D02*
X10734467Y-9053031D01*
X10734467Y-9053031D02*
X10743991Y-9043508D01*
X10743991Y-9043508D02*
X10763039Y-9033984D01*
X10763039Y-9033984D02*
X10801134Y-9033984D01*
X10801134Y-9033984D02*
X10820182Y-9043508D01*
X10820182Y-9043508D02*
X10829705Y-9053031D01*
X10829705Y-9053031D02*
X10839229Y-9072079D01*
X10839229Y-9072079D02*
X10839229Y-9081603D01*
X10839229Y-9081603D02*
X10829705Y-9100650D01*
X10829705Y-9100650D02*
X10820182Y-9110174D01*
X10820182Y-9110174D02*
X10801134Y-9119698D01*
X10801134Y-9119698D02*
X10763039Y-9119698D01*
X10763039Y-9119698D02*
X10743991Y-9129222D01*
X10743991Y-9129222D02*
X10734467Y-9138746D01*
X10734467Y-9138746D02*
X10724944Y-9157793D01*
X10724944Y-9157793D02*
X10724944Y-9195889D01*
X10724944Y-9195889D02*
X10734467Y-9214936D01*
X10734467Y-9214936D02*
X10743991Y-9224460D01*
X10743991Y-9224460D02*
X10763039Y-9233984D01*
X10763039Y-9233984D02*
X10801134Y-9233984D01*
X10801134Y-9233984D02*
X10820182Y-9224460D01*
X10820182Y-9224460D02*
X10829705Y-9214936D01*
X10829705Y-9214936D02*
X10839229Y-9195889D01*
X10839229Y-9195889D02*
X10839229Y-9157793D01*
X10839229Y-9157793D02*
X10829705Y-9138746D01*
X10829705Y-9138746D02*
X10820182Y-9129222D01*
X10820182Y-9129222D02*
X10801134Y-9119698D01*
X10934467Y-9233984D02*
X10972563Y-9233984D01*
X10972563Y-9233984D02*
X10991610Y-9224460D01*
X10991610Y-9224460D02*
X11001134Y-9214936D01*
X11001134Y-9214936D02*
X11020182Y-9186365D01*
X11020182Y-9186365D02*
X11029705Y-9148270D01*
X11029705Y-9148270D02*
X11029705Y-9072079D01*
X11029705Y-9072079D02*
X11020182Y-9053031D01*
X11020182Y-9053031D02*
X11010658Y-9043508D01*
X11010658Y-9043508D02*
X10991610Y-9033984D01*
X10991610Y-9033984D02*
X10953515Y-9033984D01*
X10953515Y-9033984D02*
X10934467Y-9043508D01*
X10934467Y-9043508D02*
X10924944Y-9053031D01*
X10924944Y-9053031D02*
X10915420Y-9072079D01*
X10915420Y-9072079D02*
X10915420Y-9119698D01*
X10915420Y-9119698D02*
X10924944Y-9138746D01*
X10924944Y-9138746D02*
X10934467Y-9148270D01*
X10934467Y-9148270D02*
X10953515Y-9157793D01*
X10953515Y-9157793D02*
X10991610Y-9157793D01*
X10991610Y-9157793D02*
X11010658Y-9148270D01*
X11010658Y-9148270D02*
X11020182Y-9138746D01*
X11020182Y-9138746D02*
X11029705Y-9119698D01*
X11115420Y-9233984D02*
X11115420Y-9100650D01*
X11115420Y-9119698D02*
X11124944Y-9110174D01*
X11124944Y-9110174D02*
X11143991Y-9100650D01*
X11143991Y-9100650D02*
X11172563Y-9100650D01*
X11172563Y-9100650D02*
X11191610Y-9110174D01*
X11191610Y-9110174D02*
X11201134Y-9129222D01*
X11201134Y-9129222D02*
X11201134Y-9233984D01*
X11201134Y-9129222D02*
X11210658Y-9110174D01*
X11210658Y-9110174D02*
X11229705Y-9100650D01*
X11229705Y-9100650D02*
X11258277Y-9100650D01*
X11258277Y-9100650D02*
X11277324Y-9110174D01*
X11277324Y-9110174D02*
X11286848Y-9129222D01*
X11286848Y-9129222D02*
X11286848Y-9233984D01*
X11382086Y-9233984D02*
X11382086Y-9100650D01*
X11382086Y-9119698D02*
X11391610Y-9110174D01*
X11391610Y-9110174D02*
X11410658Y-9100650D01*
X11410658Y-9100650D02*
X11439229Y-9100650D01*
X11439229Y-9100650D02*
X11458277Y-9110174D01*
X11458277Y-9110174D02*
X11467801Y-9129222D01*
X11467801Y-9129222D02*
X11467801Y-9233984D01*
X11467801Y-9129222D02*
X11477324Y-9110174D01*
X11477324Y-9110174D02*
X11496372Y-9100650D01*
X11496372Y-9100650D02*
X11524943Y-9100650D01*
X11524943Y-9100650D02*
X11543991Y-9110174D01*
X11543991Y-9110174D02*
X11553515Y-9129222D01*
X11553515Y-9129222D02*
X11553515Y-9233984D01*
X11943991Y-9024460D02*
X11772563Y-9281603D01*
X12201134Y-9033984D02*
X12220182Y-9033984D01*
X12220182Y-9033984D02*
X12239229Y-9043508D01*
X12239229Y-9043508D02*
X12248753Y-9053031D01*
X12248753Y-9053031D02*
X12258277Y-9072079D01*
X12258277Y-9072079D02*
X12267801Y-9110174D01*
X12267801Y-9110174D02*
X12267801Y-9157793D01*
X12267801Y-9157793D02*
X12258277Y-9195889D01*
X12258277Y-9195889D02*
X12248753Y-9214936D01*
X12248753Y-9214936D02*
X12239229Y-9224460D01*
X12239229Y-9224460D02*
X12220182Y-9233984D01*
X12220182Y-9233984D02*
X12201134Y-9233984D01*
X12201134Y-9233984D02*
X12182086Y-9224460D01*
X12182086Y-9224460D02*
X12172563Y-9214936D01*
X12172563Y-9214936D02*
X12163039Y-9195889D01*
X12163039Y-9195889D02*
X12153515Y-9157793D01*
X12153515Y-9157793D02*
X12153515Y-9110174D01*
X12153515Y-9110174D02*
X12163039Y-9072079D01*
X12163039Y-9072079D02*
X12172563Y-9053031D01*
X12172563Y-9053031D02*
X12182086Y-9043508D01*
X12182086Y-9043508D02*
X12201134Y-9033984D01*
X12353515Y-9214936D02*
X12363039Y-9224460D01*
X12363039Y-9224460D02*
X12353515Y-9233984D01*
X12353515Y-9233984D02*
X12343991Y-9224460D01*
X12343991Y-9224460D02*
X12353515Y-9214936D01*
X12353515Y-9214936D02*
X12353515Y-9233984D01*
X12486848Y-9033984D02*
X12505896Y-9033984D01*
X12505896Y-9033984D02*
X12524944Y-9043508D01*
X12524944Y-9043508D02*
X12534467Y-9053031D01*
X12534467Y-9053031D02*
X12543991Y-9072079D01*
X12543991Y-9072079D02*
X12553515Y-9110174D01*
X12553515Y-9110174D02*
X12553515Y-9157793D01*
X12553515Y-9157793D02*
X12543991Y-9195889D01*
X12543991Y-9195889D02*
X12534467Y-9214936D01*
X12534467Y-9214936D02*
X12524944Y-9224460D01*
X12524944Y-9224460D02*
X12505896Y-9233984D01*
X12505896Y-9233984D02*
X12486848Y-9233984D01*
X12486848Y-9233984D02*
X12467801Y-9224460D01*
X12467801Y-9224460D02*
X12458277Y-9214936D01*
X12458277Y-9214936D02*
X12448753Y-9195889D01*
X12448753Y-9195889D02*
X12439229Y-9157793D01*
X12439229Y-9157793D02*
X12439229Y-9110174D01*
X12439229Y-9110174D02*
X12448753Y-9072079D01*
X12448753Y-9072079D02*
X12458277Y-9053031D01*
X12458277Y-9053031D02*
X12467801Y-9043508D01*
X12467801Y-9043508D02*
X12486848Y-9033984D01*
X12620182Y-9033984D02*
X12743991Y-9033984D01*
X12743991Y-9033984D02*
X12677325Y-9110174D01*
X12677325Y-9110174D02*
X12705896Y-9110174D01*
X12705896Y-9110174D02*
X12724944Y-9119698D01*
X12724944Y-9119698D02*
X12734467Y-9129222D01*
X12734467Y-9129222D02*
X12743991Y-9148270D01*
X12743991Y-9148270D02*
X12743991Y-9195889D01*
X12743991Y-9195889D02*
X12734467Y-9214936D01*
X12734467Y-9214936D02*
X12724944Y-9224460D01*
X12724944Y-9224460D02*
X12705896Y-9233984D01*
X12705896Y-9233984D02*
X12648753Y-9233984D01*
X12648753Y-9233984D02*
X12629706Y-9224460D01*
X12629706Y-9224460D02*
X12620182Y-9214936D01*
X12924944Y-9033984D02*
X12829706Y-9033984D01*
X12829706Y-9033984D02*
X12820182Y-9129222D01*
X12820182Y-9129222D02*
X12829706Y-9119698D01*
X12829706Y-9119698D02*
X12848753Y-9110174D01*
X12848753Y-9110174D02*
X12896372Y-9110174D01*
X12896372Y-9110174D02*
X12915420Y-9119698D01*
X12915420Y-9119698D02*
X12924944Y-9129222D01*
X12924944Y-9129222D02*
X12934467Y-9148270D01*
X12934467Y-9148270D02*
X12934467Y-9195889D01*
X12934467Y-9195889D02*
X12924944Y-9214936D01*
X12924944Y-9214936D02*
X12915420Y-9224460D01*
X12915420Y-9224460D02*
X12896372Y-9233984D01*
X12896372Y-9233984D02*
X12848753Y-9233984D01*
X12848753Y-9233984D02*
X12829706Y-9224460D01*
X12829706Y-9224460D02*
X12820182Y-9214936D01*
X13058277Y-9033984D02*
X13077325Y-9033984D01*
X13077325Y-9033984D02*
X13096372Y-9043508D01*
X13096372Y-9043508D02*
X13105896Y-9053031D01*
X13105896Y-9053031D02*
X13115420Y-9072079D01*
X13115420Y-9072079D02*
X13124944Y-9110174D01*
X13124944Y-9110174D02*
X13124944Y-9157793D01*
X13124944Y-9157793D02*
X13115420Y-9195889D01*
X13115420Y-9195889D02*
X13105896Y-9214936D01*
X13105896Y-9214936D02*
X13096372Y-9224460D01*
X13096372Y-9224460D02*
X13077325Y-9233984D01*
X13077325Y-9233984D02*
X13058277Y-9233984D01*
X13058277Y-9233984D02*
X13039229Y-9224460D01*
X13039229Y-9224460D02*
X13029706Y-9214936D01*
X13029706Y-9214936D02*
X13020182Y-9195889D01*
X13020182Y-9195889D02*
X13010658Y-9157793D01*
X13010658Y-9157793D02*
X13010658Y-9110174D01*
X13010658Y-9110174D02*
X13020182Y-9072079D01*
X13020182Y-9072079D02*
X13029706Y-9053031D01*
X13029706Y-9053031D02*
X13039229Y-9043508D01*
X13039229Y-9043508D02*
X13058277Y-9033984D01*
X13201134Y-9033984D02*
X13201134Y-9072079D01*
X13277325Y-9033984D02*
X13277325Y-9072079D01*
X13572563Y-9310174D02*
X13563039Y-9300650D01*
X13563039Y-9300650D02*
X13543991Y-9272079D01*
X13543991Y-9272079D02*
X13534468Y-9253031D01*
X13534468Y-9253031D02*
X13524944Y-9224460D01*
X13524944Y-9224460D02*
X13515420Y-9176841D01*
X13515420Y-9176841D02*
X13515420Y-9138746D01*
X13515420Y-9138746D02*
X13524944Y-9091127D01*
X13524944Y-9091127D02*
X13534468Y-9062555D01*
X13534468Y-9062555D02*
X13543991Y-9043508D01*
X13543991Y-9043508D02*
X13563039Y-9014936D01*
X13563039Y-9014936D02*
X13572563Y-9005412D01*
X13753515Y-9233984D02*
X13639229Y-9233984D01*
X13696372Y-9233984D02*
X13696372Y-9033984D01*
X13696372Y-9033984D02*
X13677325Y-9062555D01*
X13677325Y-9062555D02*
X13658277Y-9081603D01*
X13658277Y-9081603D02*
X13639229Y-9091127D01*
X13924944Y-9100650D02*
X13924944Y-9233984D01*
X13877325Y-9024460D02*
X13829706Y-9167317D01*
X13829706Y-9167317D02*
X13953515Y-9167317D01*
X14182087Y-9233984D02*
X14182087Y-9033984D01*
X14267801Y-9233984D02*
X14267801Y-9129222D01*
X14267801Y-9129222D02*
X14258277Y-9110174D01*
X14258277Y-9110174D02*
X14239230Y-9100650D01*
X14239230Y-9100650D02*
X14210658Y-9100650D01*
X14210658Y-9100650D02*
X14191610Y-9110174D01*
X14191610Y-9110174D02*
X14182087Y-9119698D01*
X14391610Y-9233984D02*
X14372563Y-9224460D01*
X14372563Y-9224460D02*
X14363039Y-9214936D01*
X14363039Y-9214936D02*
X14353515Y-9195889D01*
X14353515Y-9195889D02*
X14353515Y-9138746D01*
X14353515Y-9138746D02*
X14363039Y-9119698D01*
X14363039Y-9119698D02*
X14372563Y-9110174D01*
X14372563Y-9110174D02*
X14391610Y-9100650D01*
X14391610Y-9100650D02*
X14420182Y-9100650D01*
X14420182Y-9100650D02*
X14439230Y-9110174D01*
X14439230Y-9110174D02*
X14448753Y-9119698D01*
X14448753Y-9119698D02*
X14458277Y-9138746D01*
X14458277Y-9138746D02*
X14458277Y-9195889D01*
X14458277Y-9195889D02*
X14448753Y-9214936D01*
X14448753Y-9214936D02*
X14439230Y-9224460D01*
X14439230Y-9224460D02*
X14420182Y-9233984D01*
X14420182Y-9233984D02*
X14391610Y-9233984D01*
X14572563Y-9233984D02*
X14553515Y-9224460D01*
X14553515Y-9224460D02*
X14543991Y-9205412D01*
X14543991Y-9205412D02*
X14543991Y-9033984D01*
X14724944Y-9224460D02*
X14705896Y-9233984D01*
X14705896Y-9233984D02*
X14667801Y-9233984D01*
X14667801Y-9233984D02*
X14648753Y-9224460D01*
X14648753Y-9224460D02*
X14639230Y-9205412D01*
X14639230Y-9205412D02*
X14639230Y-9129222D01*
X14639230Y-9129222D02*
X14648753Y-9110174D01*
X14648753Y-9110174D02*
X14667801Y-9100650D01*
X14667801Y-9100650D02*
X14705896Y-9100650D01*
X14705896Y-9100650D02*
X14724944Y-9110174D01*
X14724944Y-9110174D02*
X14734468Y-9129222D01*
X14734468Y-9129222D02*
X14734468Y-9148270D01*
X14734468Y-9148270D02*
X14639230Y-9167317D01*
X14810658Y-9224460D02*
X14829706Y-9233984D01*
X14829706Y-9233984D02*
X14867801Y-9233984D01*
X14867801Y-9233984D02*
X14886849Y-9224460D01*
X14886849Y-9224460D02*
X14896372Y-9205412D01*
X14896372Y-9205412D02*
X14896372Y-9195889D01*
X14896372Y-9195889D02*
X14886849Y-9176841D01*
X14886849Y-9176841D02*
X14867801Y-9167317D01*
X14867801Y-9167317D02*
X14839230Y-9167317D01*
X14839230Y-9167317D02*
X14820182Y-9157793D01*
X14820182Y-9157793D02*
X14810658Y-9138746D01*
X14810658Y-9138746D02*
X14810658Y-9129222D01*
X14810658Y-9129222D02*
X14820182Y-9110174D01*
X14820182Y-9110174D02*
X14839230Y-9100650D01*
X14839230Y-9100650D02*
X14867801Y-9100650D01*
X14867801Y-9100650D02*
X14886849Y-9110174D01*
X14963039Y-9310174D02*
X14972563Y-9300650D01*
X14972563Y-9300650D02*
X14991611Y-9272079D01*
X14991611Y-9272079D02*
X15001134Y-9253031D01*
X15001134Y-9253031D02*
X15010658Y-9224460D01*
X15010658Y-9224460D02*
X15020182Y-9176841D01*
X15020182Y-9176841D02*
X15020182Y-9138746D01*
X15020182Y-9138746D02*
X15010658Y-9091127D01*
X15010658Y-9091127D02*
X15001134Y-9062555D01*
X15001134Y-9062555D02*
X14991611Y-9043508D01*
X14991611Y-9043508D02*
X14972563Y-9014936D01*
X14972563Y-9014936D02*
X14963039Y-9005412D01*
D12*
X9997500Y-9406500D02*
G75*
G02*
X9897500Y-9406500I-50000J0D01*
G01*
X9897500Y-9406500D02*
G75*
G02*
X9997500Y-9406500I50000J0D01*
G01*
D11*
X10363039Y-9497984D02*
X10248753Y-9497984D01*
X10305896Y-9497984D02*
X10305896Y-9297984D01*
X10305896Y-9297984D02*
X10286848Y-9326555D01*
X10286848Y-9326555D02*
X10267801Y-9345603D01*
X10267801Y-9345603D02*
X10248753Y-9355127D01*
X10448753Y-9478936D02*
X10458277Y-9488460D01*
X10458277Y-9488460D02*
X10448753Y-9497984D01*
X10448753Y-9497984D02*
X10439229Y-9488460D01*
X10439229Y-9488460D02*
X10448753Y-9478936D01*
X10448753Y-9478936D02*
X10448753Y-9497984D01*
X10582086Y-9297984D02*
X10601134Y-9297984D01*
X10601134Y-9297984D02*
X10620182Y-9307508D01*
X10620182Y-9307508D02*
X10629705Y-9317031D01*
X10629705Y-9317031D02*
X10639229Y-9336079D01*
X10639229Y-9336079D02*
X10648753Y-9374174D01*
X10648753Y-9374174D02*
X10648753Y-9421793D01*
X10648753Y-9421793D02*
X10639229Y-9459889D01*
X10639229Y-9459889D02*
X10629705Y-9478936D01*
X10629705Y-9478936D02*
X10620182Y-9488460D01*
X10620182Y-9488460D02*
X10601134Y-9497984D01*
X10601134Y-9497984D02*
X10582086Y-9497984D01*
X10582086Y-9497984D02*
X10563039Y-9488460D01*
X10563039Y-9488460D02*
X10553515Y-9478936D01*
X10553515Y-9478936D02*
X10543991Y-9459889D01*
X10543991Y-9459889D02*
X10534467Y-9421793D01*
X10534467Y-9421793D02*
X10534467Y-9374174D01*
X10534467Y-9374174D02*
X10543991Y-9336079D01*
X10543991Y-9336079D02*
X10553515Y-9317031D01*
X10553515Y-9317031D02*
X10563039Y-9307508D01*
X10563039Y-9307508D02*
X10582086Y-9297984D01*
X10772563Y-9297984D02*
X10791610Y-9297984D01*
X10791610Y-9297984D02*
X10810658Y-9307508D01*
X10810658Y-9307508D02*
X10820182Y-9317031D01*
X10820182Y-9317031D02*
X10829705Y-9336079D01*
X10829705Y-9336079D02*
X10839229Y-9374174D01*
X10839229Y-9374174D02*
X10839229Y-9421793D01*
X10839229Y-9421793D02*
X10829705Y-9459889D01*
X10829705Y-9459889D02*
X10820182Y-9478936D01*
X10820182Y-9478936D02*
X10810658Y-9488460D01*
X10810658Y-9488460D02*
X10791610Y-9497984D01*
X10791610Y-9497984D02*
X10772563Y-9497984D01*
X10772563Y-9497984D02*
X10753515Y-9488460D01*
X10753515Y-9488460D02*
X10743991Y-9478936D01*
X10743991Y-9478936D02*
X10734467Y-9459889D01*
X10734467Y-9459889D02*
X10724944Y-9421793D01*
X10724944Y-9421793D02*
X10724944Y-9374174D01*
X10724944Y-9374174D02*
X10734467Y-9336079D01*
X10734467Y-9336079D02*
X10743991Y-9317031D01*
X10743991Y-9317031D02*
X10753515Y-9307508D01*
X10753515Y-9307508D02*
X10772563Y-9297984D01*
X10963039Y-9297984D02*
X10982086Y-9297984D01*
X10982086Y-9297984D02*
X11001134Y-9307508D01*
X11001134Y-9307508D02*
X11010658Y-9317031D01*
X11010658Y-9317031D02*
X11020182Y-9336079D01*
X11020182Y-9336079D02*
X11029705Y-9374174D01*
X11029705Y-9374174D02*
X11029705Y-9421793D01*
X11029705Y-9421793D02*
X11020182Y-9459889D01*
X11020182Y-9459889D02*
X11010658Y-9478936D01*
X11010658Y-9478936D02*
X11001134Y-9488460D01*
X11001134Y-9488460D02*
X10982086Y-9497984D01*
X10982086Y-9497984D02*
X10963039Y-9497984D01*
X10963039Y-9497984D02*
X10943991Y-9488460D01*
X10943991Y-9488460D02*
X10934467Y-9478936D01*
X10934467Y-9478936D02*
X10924944Y-9459889D01*
X10924944Y-9459889D02*
X10915420Y-9421793D01*
X10915420Y-9421793D02*
X10915420Y-9374174D01*
X10915420Y-9374174D02*
X10924944Y-9336079D01*
X10924944Y-9336079D02*
X10934467Y-9317031D01*
X10934467Y-9317031D02*
X10943991Y-9307508D01*
X10943991Y-9307508D02*
X10963039Y-9297984D01*
X11115420Y-9497984D02*
X11115420Y-9364650D01*
X11115420Y-9383698D02*
X11124944Y-9374174D01*
X11124944Y-9374174D02*
X11143991Y-9364650D01*
X11143991Y-9364650D02*
X11172563Y-9364650D01*
X11172563Y-9364650D02*
X11191610Y-9374174D01*
X11191610Y-9374174D02*
X11201134Y-9393222D01*
X11201134Y-9393222D02*
X11201134Y-9497984D01*
X11201134Y-9393222D02*
X11210658Y-9374174D01*
X11210658Y-9374174D02*
X11229705Y-9364650D01*
X11229705Y-9364650D02*
X11258277Y-9364650D01*
X11258277Y-9364650D02*
X11277324Y-9374174D01*
X11277324Y-9374174D02*
X11286848Y-9393222D01*
X11286848Y-9393222D02*
X11286848Y-9497984D01*
X11382086Y-9497984D02*
X11382086Y-9364650D01*
X11382086Y-9383698D02*
X11391610Y-9374174D01*
X11391610Y-9374174D02*
X11410658Y-9364650D01*
X11410658Y-9364650D02*
X11439229Y-9364650D01*
X11439229Y-9364650D02*
X11458277Y-9374174D01*
X11458277Y-9374174D02*
X11467801Y-9393222D01*
X11467801Y-9393222D02*
X11467801Y-9497984D01*
X11467801Y-9393222D02*
X11477324Y-9374174D01*
X11477324Y-9374174D02*
X11496372Y-9364650D01*
X11496372Y-9364650D02*
X11524943Y-9364650D01*
X11524943Y-9364650D02*
X11543991Y-9374174D01*
X11543991Y-9374174D02*
X11553515Y-9393222D01*
X11553515Y-9393222D02*
X11553515Y-9497984D01*
X11943991Y-9288460D02*
X11772563Y-9545603D01*
X12201134Y-9297984D02*
X12220182Y-9297984D01*
X12220182Y-9297984D02*
X12239229Y-9307508D01*
X12239229Y-9307508D02*
X12248753Y-9317031D01*
X12248753Y-9317031D02*
X12258277Y-9336079D01*
X12258277Y-9336079D02*
X12267801Y-9374174D01*
X12267801Y-9374174D02*
X12267801Y-9421793D01*
X12267801Y-9421793D02*
X12258277Y-9459889D01*
X12258277Y-9459889D02*
X12248753Y-9478936D01*
X12248753Y-9478936D02*
X12239229Y-9488460D01*
X12239229Y-9488460D02*
X12220182Y-9497984D01*
X12220182Y-9497984D02*
X12201134Y-9497984D01*
X12201134Y-9497984D02*
X12182086Y-9488460D01*
X12182086Y-9488460D02*
X12172563Y-9478936D01*
X12172563Y-9478936D02*
X12163039Y-9459889D01*
X12163039Y-9459889D02*
X12153515Y-9421793D01*
X12153515Y-9421793D02*
X12153515Y-9374174D01*
X12153515Y-9374174D02*
X12163039Y-9336079D01*
X12163039Y-9336079D02*
X12172563Y-9317031D01*
X12172563Y-9317031D02*
X12182086Y-9307508D01*
X12182086Y-9307508D02*
X12201134Y-9297984D01*
X12353515Y-9478936D02*
X12363039Y-9488460D01*
X12363039Y-9488460D02*
X12353515Y-9497984D01*
X12353515Y-9497984D02*
X12343991Y-9488460D01*
X12343991Y-9488460D02*
X12353515Y-9478936D01*
X12353515Y-9478936D02*
X12353515Y-9497984D01*
X12486848Y-9297984D02*
X12505896Y-9297984D01*
X12505896Y-9297984D02*
X12524944Y-9307508D01*
X12524944Y-9307508D02*
X12534467Y-9317031D01*
X12534467Y-9317031D02*
X12543991Y-9336079D01*
X12543991Y-9336079D02*
X12553515Y-9374174D01*
X12553515Y-9374174D02*
X12553515Y-9421793D01*
X12553515Y-9421793D02*
X12543991Y-9459889D01*
X12543991Y-9459889D02*
X12534467Y-9478936D01*
X12534467Y-9478936D02*
X12524944Y-9488460D01*
X12524944Y-9488460D02*
X12505896Y-9497984D01*
X12505896Y-9497984D02*
X12486848Y-9497984D01*
X12486848Y-9497984D02*
X12467801Y-9488460D01*
X12467801Y-9488460D02*
X12458277Y-9478936D01*
X12458277Y-9478936D02*
X12448753Y-9459889D01*
X12448753Y-9459889D02*
X12439229Y-9421793D01*
X12439229Y-9421793D02*
X12439229Y-9374174D01*
X12439229Y-9374174D02*
X12448753Y-9336079D01*
X12448753Y-9336079D02*
X12458277Y-9317031D01*
X12458277Y-9317031D02*
X12467801Y-9307508D01*
X12467801Y-9307508D02*
X12486848Y-9297984D01*
X12620182Y-9297984D02*
X12743991Y-9297984D01*
X12743991Y-9297984D02*
X12677325Y-9374174D01*
X12677325Y-9374174D02*
X12705896Y-9374174D01*
X12705896Y-9374174D02*
X12724944Y-9383698D01*
X12724944Y-9383698D02*
X12734467Y-9393222D01*
X12734467Y-9393222D02*
X12743991Y-9412270D01*
X12743991Y-9412270D02*
X12743991Y-9459889D01*
X12743991Y-9459889D02*
X12734467Y-9478936D01*
X12734467Y-9478936D02*
X12724944Y-9488460D01*
X12724944Y-9488460D02*
X12705896Y-9497984D01*
X12705896Y-9497984D02*
X12648753Y-9497984D01*
X12648753Y-9497984D02*
X12629706Y-9488460D01*
X12629706Y-9488460D02*
X12620182Y-9478936D01*
X12839229Y-9497984D02*
X12877325Y-9497984D01*
X12877325Y-9497984D02*
X12896372Y-9488460D01*
X12896372Y-9488460D02*
X12905896Y-9478936D01*
X12905896Y-9478936D02*
X12924944Y-9450365D01*
X12924944Y-9450365D02*
X12934467Y-9412270D01*
X12934467Y-9412270D02*
X12934467Y-9336079D01*
X12934467Y-9336079D02*
X12924944Y-9317031D01*
X12924944Y-9317031D02*
X12915420Y-9307508D01*
X12915420Y-9307508D02*
X12896372Y-9297984D01*
X12896372Y-9297984D02*
X12858277Y-9297984D01*
X12858277Y-9297984D02*
X12839229Y-9307508D01*
X12839229Y-9307508D02*
X12829706Y-9317031D01*
X12829706Y-9317031D02*
X12820182Y-9336079D01*
X12820182Y-9336079D02*
X12820182Y-9383698D01*
X12820182Y-9383698D02*
X12829706Y-9402746D01*
X12829706Y-9402746D02*
X12839229Y-9412270D01*
X12839229Y-9412270D02*
X12858277Y-9421793D01*
X12858277Y-9421793D02*
X12896372Y-9421793D01*
X12896372Y-9421793D02*
X12915420Y-9412270D01*
X12915420Y-9412270D02*
X12924944Y-9402746D01*
X12924944Y-9402746D02*
X12934467Y-9383698D01*
X13105896Y-9364650D02*
X13105896Y-9497984D01*
X13058277Y-9288460D02*
X13010658Y-9431317D01*
X13010658Y-9431317D02*
X13134467Y-9431317D01*
X13201134Y-9297984D02*
X13201134Y-9336079D01*
X13277325Y-9297984D02*
X13277325Y-9336079D01*
X13572563Y-9574174D02*
X13563039Y-9564650D01*
X13563039Y-9564650D02*
X13543991Y-9536079D01*
X13543991Y-9536079D02*
X13534468Y-9517031D01*
X13534468Y-9517031D02*
X13524944Y-9488460D01*
X13524944Y-9488460D02*
X13515420Y-9440841D01*
X13515420Y-9440841D02*
X13515420Y-9402746D01*
X13515420Y-9402746D02*
X13524944Y-9355127D01*
X13524944Y-9355127D02*
X13534468Y-9326555D01*
X13534468Y-9326555D02*
X13543991Y-9307508D01*
X13543991Y-9307508D02*
X13563039Y-9278936D01*
X13563039Y-9278936D02*
X13572563Y-9269412D01*
X13658277Y-9497984D02*
X13696372Y-9497984D01*
X13696372Y-9497984D02*
X13715420Y-9488460D01*
X13715420Y-9488460D02*
X13724944Y-9478936D01*
X13724944Y-9478936D02*
X13743991Y-9450365D01*
X13743991Y-9450365D02*
X13753515Y-9412270D01*
X13753515Y-9412270D02*
X13753515Y-9336079D01*
X13753515Y-9336079D02*
X13743991Y-9317031D01*
X13743991Y-9317031D02*
X13734468Y-9307508D01*
X13734468Y-9307508D02*
X13715420Y-9297984D01*
X13715420Y-9297984D02*
X13677325Y-9297984D01*
X13677325Y-9297984D02*
X13658277Y-9307508D01*
X13658277Y-9307508D02*
X13648753Y-9317031D01*
X13648753Y-9317031D02*
X13639229Y-9336079D01*
X13639229Y-9336079D02*
X13639229Y-9383698D01*
X13639229Y-9383698D02*
X13648753Y-9402746D01*
X13648753Y-9402746D02*
X13658277Y-9412270D01*
X13658277Y-9412270D02*
X13677325Y-9421793D01*
X13677325Y-9421793D02*
X13715420Y-9421793D01*
X13715420Y-9421793D02*
X13734468Y-9412270D01*
X13734468Y-9412270D02*
X13743991Y-9402746D01*
X13743991Y-9402746D02*
X13753515Y-9383698D01*
X13991610Y-9497984D02*
X13991610Y-9297984D01*
X14077325Y-9497984D02*
X14077325Y-9393222D01*
X14077325Y-9393222D02*
X14067801Y-9374174D01*
X14067801Y-9374174D02*
X14048753Y-9364650D01*
X14048753Y-9364650D02*
X14020182Y-9364650D01*
X14020182Y-9364650D02*
X14001134Y-9374174D01*
X14001134Y-9374174D02*
X13991610Y-9383698D01*
X14201134Y-9497984D02*
X14182087Y-9488460D01*
X14182087Y-9488460D02*
X14172563Y-9478936D01*
X14172563Y-9478936D02*
X14163039Y-9459889D01*
X14163039Y-9459889D02*
X14163039Y-9402746D01*
X14163039Y-9402746D02*
X14172563Y-9383698D01*
X14172563Y-9383698D02*
X14182087Y-9374174D01*
X14182087Y-9374174D02*
X14201134Y-9364650D01*
X14201134Y-9364650D02*
X14229706Y-9364650D01*
X14229706Y-9364650D02*
X14248753Y-9374174D01*
X14248753Y-9374174D02*
X14258277Y-9383698D01*
X14258277Y-9383698D02*
X14267801Y-9402746D01*
X14267801Y-9402746D02*
X14267801Y-9459889D01*
X14267801Y-9459889D02*
X14258277Y-9478936D01*
X14258277Y-9478936D02*
X14248753Y-9488460D01*
X14248753Y-9488460D02*
X14229706Y-9497984D01*
X14229706Y-9497984D02*
X14201134Y-9497984D01*
X14382087Y-9497984D02*
X14363039Y-9488460D01*
X14363039Y-9488460D02*
X14353515Y-9469412D01*
X14353515Y-9469412D02*
X14353515Y-9297984D01*
X14534468Y-9488460D02*
X14515420Y-9497984D01*
X14515420Y-9497984D02*
X14477325Y-9497984D01*
X14477325Y-9497984D02*
X14458277Y-9488460D01*
X14458277Y-9488460D02*
X14448753Y-9469412D01*
X14448753Y-9469412D02*
X14448753Y-9393222D01*
X14448753Y-9393222D02*
X14458277Y-9374174D01*
X14458277Y-9374174D02*
X14477325Y-9364650D01*
X14477325Y-9364650D02*
X14515420Y-9364650D01*
X14515420Y-9364650D02*
X14534468Y-9374174D01*
X14534468Y-9374174D02*
X14543991Y-9393222D01*
X14543991Y-9393222D02*
X14543991Y-9412270D01*
X14543991Y-9412270D02*
X14448753Y-9431317D01*
X14620182Y-9488460D02*
X14639230Y-9497984D01*
X14639230Y-9497984D02*
X14677325Y-9497984D01*
X14677325Y-9497984D02*
X14696372Y-9488460D01*
X14696372Y-9488460D02*
X14705896Y-9469412D01*
X14705896Y-9469412D02*
X14705896Y-9459889D01*
X14705896Y-9459889D02*
X14696372Y-9440841D01*
X14696372Y-9440841D02*
X14677325Y-9431317D01*
X14677325Y-9431317D02*
X14648753Y-9431317D01*
X14648753Y-9431317D02*
X14629706Y-9421793D01*
X14629706Y-9421793D02*
X14620182Y-9402746D01*
X14620182Y-9402746D02*
X14620182Y-9393222D01*
X14620182Y-9393222D02*
X14629706Y-9374174D01*
X14629706Y-9374174D02*
X14648753Y-9364650D01*
X14648753Y-9364650D02*
X14677325Y-9364650D01*
X14677325Y-9364650D02*
X14696372Y-9374174D01*
X14772563Y-9574174D02*
X14782087Y-9564650D01*
X14782087Y-9564650D02*
X14801134Y-9536079D01*
X14801134Y-9536079D02*
X14810658Y-9517031D01*
X14810658Y-9517031D02*
X14820182Y-9488460D01*
X14820182Y-9488460D02*
X14829706Y-9440841D01*
X14829706Y-9440841D02*
X14829706Y-9402746D01*
X14829706Y-9402746D02*
X14820182Y-9355127D01*
X14820182Y-9355127D02*
X14810658Y-9326555D01*
X14810658Y-9326555D02*
X14801134Y-9307508D01*
X14801134Y-9307508D02*
X14782087Y-9278936D01*
X14782087Y-9278936D02*
X14772563Y-9269412D01*
D13*
X9922500Y-9595500D02*
X9922500Y-9745500D01*
X9847500Y-9670500D02*
X9997500Y-9670500D01*
D11*
X10363039Y-9761984D02*
X10248753Y-9761984D01*
X10305896Y-9761984D02*
X10305896Y-9561984D01*
X10305896Y-9561984D02*
X10286848Y-9590555D01*
X10286848Y-9590555D02*
X10267801Y-9609603D01*
X10267801Y-9609603D02*
X10248753Y-9619127D01*
X10448753Y-9742936D02*
X10458277Y-9752460D01*
X10458277Y-9752460D02*
X10448753Y-9761984D01*
X10448753Y-9761984D02*
X10439229Y-9752460D01*
X10439229Y-9752460D02*
X10448753Y-9742936D01*
X10448753Y-9742936D02*
X10448753Y-9761984D01*
X10639229Y-9561984D02*
X10543991Y-9561984D01*
X10543991Y-9561984D02*
X10534467Y-9657222D01*
X10534467Y-9657222D02*
X10543991Y-9647698D01*
X10543991Y-9647698D02*
X10563039Y-9638174D01*
X10563039Y-9638174D02*
X10610658Y-9638174D01*
X10610658Y-9638174D02*
X10629705Y-9647698D01*
X10629705Y-9647698D02*
X10639229Y-9657222D01*
X10639229Y-9657222D02*
X10648753Y-9676270D01*
X10648753Y-9676270D02*
X10648753Y-9723889D01*
X10648753Y-9723889D02*
X10639229Y-9742936D01*
X10639229Y-9742936D02*
X10629705Y-9752460D01*
X10629705Y-9752460D02*
X10610658Y-9761984D01*
X10610658Y-9761984D02*
X10563039Y-9761984D01*
X10563039Y-9761984D02*
X10543991Y-9752460D01*
X10543991Y-9752460D02*
X10534467Y-9742936D01*
X10772563Y-9561984D02*
X10791610Y-9561984D01*
X10791610Y-9561984D02*
X10810658Y-9571508D01*
X10810658Y-9571508D02*
X10820182Y-9581031D01*
X10820182Y-9581031D02*
X10829705Y-9600079D01*
X10829705Y-9600079D02*
X10839229Y-9638174D01*
X10839229Y-9638174D02*
X10839229Y-9685793D01*
X10839229Y-9685793D02*
X10829705Y-9723889D01*
X10829705Y-9723889D02*
X10820182Y-9742936D01*
X10820182Y-9742936D02*
X10810658Y-9752460D01*
X10810658Y-9752460D02*
X10791610Y-9761984D01*
X10791610Y-9761984D02*
X10772563Y-9761984D01*
X10772563Y-9761984D02*
X10753515Y-9752460D01*
X10753515Y-9752460D02*
X10743991Y-9742936D01*
X10743991Y-9742936D02*
X10734467Y-9723889D01*
X10734467Y-9723889D02*
X10724944Y-9685793D01*
X10724944Y-9685793D02*
X10724944Y-9638174D01*
X10724944Y-9638174D02*
X10734467Y-9600079D01*
X10734467Y-9600079D02*
X10743991Y-9581031D01*
X10743991Y-9581031D02*
X10753515Y-9571508D01*
X10753515Y-9571508D02*
X10772563Y-9561984D01*
X10963039Y-9561984D02*
X10982086Y-9561984D01*
X10982086Y-9561984D02*
X11001134Y-9571508D01*
X11001134Y-9571508D02*
X11010658Y-9581031D01*
X11010658Y-9581031D02*
X11020182Y-9600079D01*
X11020182Y-9600079D02*
X11029705Y-9638174D01*
X11029705Y-9638174D02*
X11029705Y-9685793D01*
X11029705Y-9685793D02*
X11020182Y-9723889D01*
X11020182Y-9723889D02*
X11010658Y-9742936D01*
X11010658Y-9742936D02*
X11001134Y-9752460D01*
X11001134Y-9752460D02*
X10982086Y-9761984D01*
X10982086Y-9761984D02*
X10963039Y-9761984D01*
X10963039Y-9761984D02*
X10943991Y-9752460D01*
X10943991Y-9752460D02*
X10934467Y-9742936D01*
X10934467Y-9742936D02*
X10924944Y-9723889D01*
X10924944Y-9723889D02*
X10915420Y-9685793D01*
X10915420Y-9685793D02*
X10915420Y-9638174D01*
X10915420Y-9638174D02*
X10924944Y-9600079D01*
X10924944Y-9600079D02*
X10934467Y-9581031D01*
X10934467Y-9581031D02*
X10943991Y-9571508D01*
X10943991Y-9571508D02*
X10963039Y-9561984D01*
X11115420Y-9761984D02*
X11115420Y-9628650D01*
X11115420Y-9647698D02*
X11124944Y-9638174D01*
X11124944Y-9638174D02*
X11143991Y-9628650D01*
X11143991Y-9628650D02*
X11172563Y-9628650D01*
X11172563Y-9628650D02*
X11191610Y-9638174D01*
X11191610Y-9638174D02*
X11201134Y-9657222D01*
X11201134Y-9657222D02*
X11201134Y-9761984D01*
X11201134Y-9657222D02*
X11210658Y-9638174D01*
X11210658Y-9638174D02*
X11229705Y-9628650D01*
X11229705Y-9628650D02*
X11258277Y-9628650D01*
X11258277Y-9628650D02*
X11277324Y-9638174D01*
X11277324Y-9638174D02*
X11286848Y-9657222D01*
X11286848Y-9657222D02*
X11286848Y-9761984D01*
X11382086Y-9761984D02*
X11382086Y-9628650D01*
X11382086Y-9647698D02*
X11391610Y-9638174D01*
X11391610Y-9638174D02*
X11410658Y-9628650D01*
X11410658Y-9628650D02*
X11439229Y-9628650D01*
X11439229Y-9628650D02*
X11458277Y-9638174D01*
X11458277Y-9638174D02*
X11467801Y-9657222D01*
X11467801Y-9657222D02*
X11467801Y-9761984D01*
X11467801Y-9657222D02*
X11477324Y-9638174D01*
X11477324Y-9638174D02*
X11496372Y-9628650D01*
X11496372Y-9628650D02*
X11524943Y-9628650D01*
X11524943Y-9628650D02*
X11543991Y-9638174D01*
X11543991Y-9638174D02*
X11553515Y-9657222D01*
X11553515Y-9657222D02*
X11553515Y-9761984D01*
X11943991Y-9552460D02*
X11772563Y-9809603D01*
X12201134Y-9561984D02*
X12220182Y-9561984D01*
X12220182Y-9561984D02*
X12239229Y-9571508D01*
X12239229Y-9571508D02*
X12248753Y-9581031D01*
X12248753Y-9581031D02*
X12258277Y-9600079D01*
X12258277Y-9600079D02*
X12267801Y-9638174D01*
X12267801Y-9638174D02*
X12267801Y-9685793D01*
X12267801Y-9685793D02*
X12258277Y-9723889D01*
X12258277Y-9723889D02*
X12248753Y-9742936D01*
X12248753Y-9742936D02*
X12239229Y-9752460D01*
X12239229Y-9752460D02*
X12220182Y-9761984D01*
X12220182Y-9761984D02*
X12201134Y-9761984D01*
X12201134Y-9761984D02*
X12182086Y-9752460D01*
X12182086Y-9752460D02*
X12172563Y-9742936D01*
X12172563Y-9742936D02*
X12163039Y-9723889D01*
X12163039Y-9723889D02*
X12153515Y-9685793D01*
X12153515Y-9685793D02*
X12153515Y-9638174D01*
X12153515Y-9638174D02*
X12163039Y-9600079D01*
X12163039Y-9600079D02*
X12172563Y-9581031D01*
X12172563Y-9581031D02*
X12182086Y-9571508D01*
X12182086Y-9571508D02*
X12201134Y-9561984D01*
X12353515Y-9742936D02*
X12363039Y-9752460D01*
X12363039Y-9752460D02*
X12353515Y-9761984D01*
X12353515Y-9761984D02*
X12343991Y-9752460D01*
X12343991Y-9752460D02*
X12353515Y-9742936D01*
X12353515Y-9742936D02*
X12353515Y-9761984D01*
X12486848Y-9561984D02*
X12505896Y-9561984D01*
X12505896Y-9561984D02*
X12524944Y-9571508D01*
X12524944Y-9571508D02*
X12534467Y-9581031D01*
X12534467Y-9581031D02*
X12543991Y-9600079D01*
X12543991Y-9600079D02*
X12553515Y-9638174D01*
X12553515Y-9638174D02*
X12553515Y-9685793D01*
X12553515Y-9685793D02*
X12543991Y-9723889D01*
X12543991Y-9723889D02*
X12534467Y-9742936D01*
X12534467Y-9742936D02*
X12524944Y-9752460D01*
X12524944Y-9752460D02*
X12505896Y-9761984D01*
X12505896Y-9761984D02*
X12486848Y-9761984D01*
X12486848Y-9761984D02*
X12467801Y-9752460D01*
X12467801Y-9752460D02*
X12458277Y-9742936D01*
X12458277Y-9742936D02*
X12448753Y-9723889D01*
X12448753Y-9723889D02*
X12439229Y-9685793D01*
X12439229Y-9685793D02*
X12439229Y-9638174D01*
X12439229Y-9638174D02*
X12448753Y-9600079D01*
X12448753Y-9600079D02*
X12458277Y-9581031D01*
X12458277Y-9581031D02*
X12467801Y-9571508D01*
X12467801Y-9571508D02*
X12486848Y-9561984D01*
X12734467Y-9561984D02*
X12639229Y-9561984D01*
X12639229Y-9561984D02*
X12629706Y-9657222D01*
X12629706Y-9657222D02*
X12639229Y-9647698D01*
X12639229Y-9647698D02*
X12658277Y-9638174D01*
X12658277Y-9638174D02*
X12705896Y-9638174D01*
X12705896Y-9638174D02*
X12724944Y-9647698D01*
X12724944Y-9647698D02*
X12734467Y-9657222D01*
X12734467Y-9657222D02*
X12743991Y-9676270D01*
X12743991Y-9676270D02*
X12743991Y-9723889D01*
X12743991Y-9723889D02*
X12734467Y-9742936D01*
X12734467Y-9742936D02*
X12724944Y-9752460D01*
X12724944Y-9752460D02*
X12705896Y-9761984D01*
X12705896Y-9761984D02*
X12658277Y-9761984D01*
X12658277Y-9761984D02*
X12639229Y-9752460D01*
X12639229Y-9752460D02*
X12629706Y-9742936D01*
X12839229Y-9761984D02*
X12877325Y-9761984D01*
X12877325Y-9761984D02*
X12896372Y-9752460D01*
X12896372Y-9752460D02*
X12905896Y-9742936D01*
X12905896Y-9742936D02*
X12924944Y-9714365D01*
X12924944Y-9714365D02*
X12934467Y-9676270D01*
X12934467Y-9676270D02*
X12934467Y-9600079D01*
X12934467Y-9600079D02*
X12924944Y-9581031D01*
X12924944Y-9581031D02*
X12915420Y-9571508D01*
X12915420Y-9571508D02*
X12896372Y-9561984D01*
X12896372Y-9561984D02*
X12858277Y-9561984D01*
X12858277Y-9561984D02*
X12839229Y-9571508D01*
X12839229Y-9571508D02*
X12829706Y-9581031D01*
X12829706Y-9581031D02*
X12820182Y-9600079D01*
X12820182Y-9600079D02*
X12820182Y-9647698D01*
X12820182Y-9647698D02*
X12829706Y-9666746D01*
X12829706Y-9666746D02*
X12839229Y-9676270D01*
X12839229Y-9676270D02*
X12858277Y-9685793D01*
X12858277Y-9685793D02*
X12896372Y-9685793D01*
X12896372Y-9685793D02*
X12915420Y-9676270D01*
X12915420Y-9676270D02*
X12924944Y-9666746D01*
X12924944Y-9666746D02*
X12934467Y-9647698D01*
X13124944Y-9761984D02*
X13010658Y-9761984D01*
X13067801Y-9761984D02*
X13067801Y-9561984D01*
X13067801Y-9561984D02*
X13048753Y-9590555D01*
X13048753Y-9590555D02*
X13029706Y-9609603D01*
X13029706Y-9609603D02*
X13010658Y-9619127D01*
X13201134Y-9561984D02*
X13201134Y-9600079D01*
X13277325Y-9561984D02*
X13277325Y-9600079D01*
X13572563Y-9838174D02*
X13563039Y-9828650D01*
X13563039Y-9828650D02*
X13543991Y-9800079D01*
X13543991Y-9800079D02*
X13534468Y-9781031D01*
X13534468Y-9781031D02*
X13524944Y-9752460D01*
X13524944Y-9752460D02*
X13515420Y-9704841D01*
X13515420Y-9704841D02*
X13515420Y-9666746D01*
X13515420Y-9666746D02*
X13524944Y-9619127D01*
X13524944Y-9619127D02*
X13534468Y-9590555D01*
X13534468Y-9590555D02*
X13543991Y-9571508D01*
X13543991Y-9571508D02*
X13563039Y-9542936D01*
X13563039Y-9542936D02*
X13572563Y-9533412D01*
X13677325Y-9647698D02*
X13658277Y-9638174D01*
X13658277Y-9638174D02*
X13648753Y-9628650D01*
X13648753Y-9628650D02*
X13639229Y-9609603D01*
X13639229Y-9609603D02*
X13639229Y-9600079D01*
X13639229Y-9600079D02*
X13648753Y-9581031D01*
X13648753Y-9581031D02*
X13658277Y-9571508D01*
X13658277Y-9571508D02*
X13677325Y-9561984D01*
X13677325Y-9561984D02*
X13715420Y-9561984D01*
X13715420Y-9561984D02*
X13734468Y-9571508D01*
X13734468Y-9571508D02*
X13743991Y-9581031D01*
X13743991Y-9581031D02*
X13753515Y-9600079D01*
X13753515Y-9600079D02*
X13753515Y-9609603D01*
X13753515Y-9609603D02*
X13743991Y-9628650D01*
X13743991Y-9628650D02*
X13734468Y-9638174D01*
X13734468Y-9638174D02*
X13715420Y-9647698D01*
X13715420Y-9647698D02*
X13677325Y-9647698D01*
X13677325Y-9647698D02*
X13658277Y-9657222D01*
X13658277Y-9657222D02*
X13648753Y-9666746D01*
X13648753Y-9666746D02*
X13639229Y-9685793D01*
X13639229Y-9685793D02*
X13639229Y-9723889D01*
X13639229Y-9723889D02*
X13648753Y-9742936D01*
X13648753Y-9742936D02*
X13658277Y-9752460D01*
X13658277Y-9752460D02*
X13677325Y-9761984D01*
X13677325Y-9761984D02*
X13715420Y-9761984D01*
X13715420Y-9761984D02*
X13734468Y-9752460D01*
X13734468Y-9752460D02*
X13743991Y-9742936D01*
X13743991Y-9742936D02*
X13753515Y-9723889D01*
X13753515Y-9723889D02*
X13753515Y-9685793D01*
X13753515Y-9685793D02*
X13743991Y-9666746D01*
X13743991Y-9666746D02*
X13734468Y-9657222D01*
X13734468Y-9657222D02*
X13715420Y-9647698D01*
X13991610Y-9761984D02*
X13991610Y-9561984D01*
X14077325Y-9761984D02*
X14077325Y-9657222D01*
X14077325Y-9657222D02*
X14067801Y-9638174D01*
X14067801Y-9638174D02*
X14048753Y-9628650D01*
X14048753Y-9628650D02*
X14020182Y-9628650D01*
X14020182Y-9628650D02*
X14001134Y-9638174D01*
X14001134Y-9638174D02*
X13991610Y-9647698D01*
X14201134Y-9761984D02*
X14182087Y-9752460D01*
X14182087Y-9752460D02*
X14172563Y-9742936D01*
X14172563Y-9742936D02*
X14163039Y-9723889D01*
X14163039Y-9723889D02*
X14163039Y-9666746D01*
X14163039Y-9666746D02*
X14172563Y-9647698D01*
X14172563Y-9647698D02*
X14182087Y-9638174D01*
X14182087Y-9638174D02*
X14201134Y-9628650D01*
X14201134Y-9628650D02*
X14229706Y-9628650D01*
X14229706Y-9628650D02*
X14248753Y-9638174D01*
X14248753Y-9638174D02*
X14258277Y-9647698D01*
X14258277Y-9647698D02*
X14267801Y-9666746D01*
X14267801Y-9666746D02*
X14267801Y-9723889D01*
X14267801Y-9723889D02*
X14258277Y-9742936D01*
X14258277Y-9742936D02*
X14248753Y-9752460D01*
X14248753Y-9752460D02*
X14229706Y-9761984D01*
X14229706Y-9761984D02*
X14201134Y-9761984D01*
X14382087Y-9761984D02*
X14363039Y-9752460D01*
X14363039Y-9752460D02*
X14353515Y-9733412D01*
X14353515Y-9733412D02*
X14353515Y-9561984D01*
X14534468Y-9752460D02*
X14515420Y-9761984D01*
X14515420Y-9761984D02*
X14477325Y-9761984D01*
X14477325Y-9761984D02*
X14458277Y-9752460D01*
X14458277Y-9752460D02*
X14448753Y-9733412D01*
X14448753Y-9733412D02*
X14448753Y-9657222D01*
X14448753Y-9657222D02*
X14458277Y-9638174D01*
X14458277Y-9638174D02*
X14477325Y-9628650D01*
X14477325Y-9628650D02*
X14515420Y-9628650D01*
X14515420Y-9628650D02*
X14534468Y-9638174D01*
X14534468Y-9638174D02*
X14543991Y-9657222D01*
X14543991Y-9657222D02*
X14543991Y-9676270D01*
X14543991Y-9676270D02*
X14448753Y-9695317D01*
X14620182Y-9752460D02*
X14639230Y-9761984D01*
X14639230Y-9761984D02*
X14677325Y-9761984D01*
X14677325Y-9761984D02*
X14696372Y-9752460D01*
X14696372Y-9752460D02*
X14705896Y-9733412D01*
X14705896Y-9733412D02*
X14705896Y-9723889D01*
X14705896Y-9723889D02*
X14696372Y-9704841D01*
X14696372Y-9704841D02*
X14677325Y-9695317D01*
X14677325Y-9695317D02*
X14648753Y-9695317D01*
X14648753Y-9695317D02*
X14629706Y-9685793D01*
X14629706Y-9685793D02*
X14620182Y-9666746D01*
X14620182Y-9666746D02*
X14620182Y-9657222D01*
X14620182Y-9657222D02*
X14629706Y-9638174D01*
X14629706Y-9638174D02*
X14648753Y-9628650D01*
X14648753Y-9628650D02*
X14677325Y-9628650D01*
X14677325Y-9628650D02*
X14696372Y-9638174D01*
X14943992Y-9685793D02*
X15096373Y-9685793D01*
X15020182Y-9761984D02*
X15020182Y-9609603D01*
X15334468Y-9581031D02*
X15343992Y-9571508D01*
X15343992Y-9571508D02*
X15363039Y-9561984D01*
X15363039Y-9561984D02*
X15410658Y-9561984D01*
X15410658Y-9561984D02*
X15429706Y-9571508D01*
X15429706Y-9571508D02*
X15439230Y-9581031D01*
X15439230Y-9581031D02*
X15448753Y-9600079D01*
X15448753Y-9600079D02*
X15448753Y-9619127D01*
X15448753Y-9619127D02*
X15439230Y-9647698D01*
X15439230Y-9647698D02*
X15324944Y-9761984D01*
X15324944Y-9761984D02*
X15448753Y-9761984D01*
X15677325Y-9752460D02*
X15696373Y-9761984D01*
X15696373Y-9761984D02*
X15734468Y-9761984D01*
X15734468Y-9761984D02*
X15753515Y-9752460D01*
X15753515Y-9752460D02*
X15763039Y-9733412D01*
X15763039Y-9733412D02*
X15763039Y-9723889D01*
X15763039Y-9723889D02*
X15753515Y-9704841D01*
X15753515Y-9704841D02*
X15734468Y-9695317D01*
X15734468Y-9695317D02*
X15705896Y-9695317D01*
X15705896Y-9695317D02*
X15686849Y-9685793D01*
X15686849Y-9685793D02*
X15677325Y-9666746D01*
X15677325Y-9666746D02*
X15677325Y-9657222D01*
X15677325Y-9657222D02*
X15686849Y-9638174D01*
X15686849Y-9638174D02*
X15705896Y-9628650D01*
X15705896Y-9628650D02*
X15734468Y-9628650D01*
X15734468Y-9628650D02*
X15753515Y-9638174D01*
X15877325Y-9761984D02*
X15858277Y-9752460D01*
X15858277Y-9752460D02*
X15848754Y-9733412D01*
X15848754Y-9733412D02*
X15848754Y-9561984D01*
X15982087Y-9761984D02*
X15963039Y-9752460D01*
X15963039Y-9752460D02*
X15953515Y-9742936D01*
X15953515Y-9742936D02*
X15943992Y-9723889D01*
X15943992Y-9723889D02*
X15943992Y-9666746D01*
X15943992Y-9666746D02*
X15953515Y-9647698D01*
X15953515Y-9647698D02*
X15963039Y-9638174D01*
X15963039Y-9638174D02*
X15982087Y-9628650D01*
X15982087Y-9628650D02*
X16010658Y-9628650D01*
X16010658Y-9628650D02*
X16029706Y-9638174D01*
X16029706Y-9638174D02*
X16039230Y-9647698D01*
X16039230Y-9647698D02*
X16048754Y-9666746D01*
X16048754Y-9666746D02*
X16048754Y-9723889D01*
X16048754Y-9723889D02*
X16039230Y-9742936D01*
X16039230Y-9742936D02*
X16029706Y-9752460D01*
X16029706Y-9752460D02*
X16010658Y-9761984D01*
X16010658Y-9761984D02*
X15982087Y-9761984D01*
X16105896Y-9628650D02*
X16182087Y-9628650D01*
X16134468Y-9561984D02*
X16134468Y-9733412D01*
X16134468Y-9733412D02*
X16143992Y-9752460D01*
X16143992Y-9752460D02*
X16163039Y-9761984D01*
X16163039Y-9761984D02*
X16182087Y-9761984D01*
X16239230Y-9752460D02*
X16258277Y-9761984D01*
X16258277Y-9761984D02*
X16296373Y-9761984D01*
X16296373Y-9761984D02*
X16315420Y-9752460D01*
X16315420Y-9752460D02*
X16324944Y-9733412D01*
X16324944Y-9733412D02*
X16324944Y-9723889D01*
X16324944Y-9723889D02*
X16315420Y-9704841D01*
X16315420Y-9704841D02*
X16296373Y-9695317D01*
X16296373Y-9695317D02*
X16267801Y-9695317D01*
X16267801Y-9695317D02*
X16248754Y-9685793D01*
X16248754Y-9685793D02*
X16239230Y-9666746D01*
X16239230Y-9666746D02*
X16239230Y-9657222D01*
X16239230Y-9657222D02*
X16248754Y-9638174D01*
X16248754Y-9638174D02*
X16267801Y-9628650D01*
X16267801Y-9628650D02*
X16296373Y-9628650D01*
X16296373Y-9628650D02*
X16315420Y-9638174D01*
X16391611Y-9838174D02*
X16401135Y-9828650D01*
X16401135Y-9828650D02*
X16420182Y-9800079D01*
X16420182Y-9800079D02*
X16429706Y-9781031D01*
X16429706Y-9781031D02*
X16439230Y-9752460D01*
X16439230Y-9752460D02*
X16448754Y-9704841D01*
X16448754Y-9704841D02*
X16448754Y-9666746D01*
X16448754Y-9666746D02*
X16439230Y-9619127D01*
X16439230Y-9619127D02*
X16429706Y-9590555D01*
X16429706Y-9590555D02*
X16420182Y-9571508D01*
X16420182Y-9571508D02*
X16401135Y-9542936D01*
X16401135Y-9542936D02*
X16391611Y-9533412D01*
M02*
