M48
; DRILL file {KiCad 9.0.7} date 2026-03-31T22:06:48+0200
; FORMAT={-:-/ absolute / metric / decimal}
; #@! TF.CreationDate,2026-03-31T22:06:48+02:00
; #@! TF.GenerationSoftware,Kicad,Pcbnew,9.0.7
; #@! TF.FileFunction,Plated,1,2,PTH
FMAT,2
METRIC
; #@! TA.AperFunction,Plated,PTH,ComponentDrill
T1C0.889
; #@! TA.AperFunction,Plated,PTH,ComponentDrill
T2C1.000
; #@! TA.AperFunction,Plated,PTH,ComponentDrill
T3C1.500
%
G90
G05
T1
X110.26Y-32.26
X110.26Y-34.8
X110.26Y-37.34
X110.26Y-39.88
X110.26Y-42.42
X110.26Y-44.96
X110.26Y-47.5
X125.5Y-32.26
X125.5Y-34.8
X125.5Y-37.34
X125.5Y-39.88
X125.5Y-42.42
X125.5Y-44.96
X125.5Y-47.5
T2
X130.34Y-32.5
X130.34Y-35.04
X130.34Y-37.58
X130.34Y-40.12
X170.34Y-32.5
X170.34Y-35.0
X170.34Y-37.5
X184.84Y-32.5
X184.84Y-37.5
T3
X114.28Y-70.46
X120.63Y-67.92
X133.49Y-51.26
X133.5Y-70.46
X139.84Y-48.72
X139.85Y-67.92
X152.76Y-70.46
X159.11Y-67.92
T3
G00X177.19Y-29.4
M15
G01X178.49Y-29.4
M16
G05
G00X177.19Y-40.6
M15
G01X178.49Y-40.6
M16
G05
M30
