%TF.GenerationSoftware,KiCad,Pcbnew,9.0.7*%
%TF.CreationDate,2026-07-06T15:04:40+02:00*%
%TF.ProjectId,macro pad,6d616372-6f20-4706-9164-2e6b69636164,rev?*%
%TF.SameCoordinates,Original*%
%TF.FileFunction,Soldermask,Top*%
%TF.FilePolarity,Negative*%
%FSLAX46Y46*%
G04 Gerber Fmt 4.6, Leading zero omitted, Abs format (unit mm)*
G04 Created by KiCad (PCBNEW 9.0.7) date 2026-07-06 15:04:40*
%MOMM*%
%LPD*%
G01*
G04 APERTURE LIST*
%ADD10R,2.000000X2.000000*%
%ADD11C,2.000000*%
%ADD12R,3.200000X2.000000*%
%ADD13C,1.700000*%
%ADD14C,4.000000*%
%ADD15C,2.200000*%
%ADD16R,1.700000X1.700000*%
%ADD17C,1.524000*%
G04 APERTURE END LIST*
D10*
%TO.C,SW5*%
X165220000Y-32580000D03*
D11*
X165220000Y-37580000D03*
X165220000Y-35080000D03*
D12*
X172720000Y-29480000D03*
X172720000Y-40680000D03*
D11*
X179720000Y-37580000D03*
X179720000Y-32580000D03*
%TD*%
D13*
%TO.C,SW3*%
X127110000Y-73080000D03*
D14*
X132190000Y-73080000D03*
D13*
X137270000Y-73080000D03*
D15*
X134730000Y-68000000D03*
X128380000Y-70540000D03*
%TD*%
D13*
%TO.C,SW1*%
X146370000Y-73080000D03*
D14*
X151450000Y-73080000D03*
D13*
X156530000Y-73080000D03*
D15*
X153990000Y-68000000D03*
X147640000Y-70540000D03*
%TD*%
D16*
%TO.C,J1*%
X125220000Y-32580000D03*
D13*
X125220000Y-35120000D03*
X125220000Y-37660000D03*
X125220000Y-40200000D03*
%TD*%
%TO.C,SW4*%
X107890000Y-73080000D03*
D14*
X112970000Y-73080000D03*
D13*
X118050000Y-73080000D03*
D15*
X115510000Y-68000000D03*
X109160000Y-70540000D03*
%TD*%
D13*
%TO.C,SW2*%
X127100000Y-53880000D03*
D14*
X132180000Y-53880000D03*
D13*
X137260000Y-53880000D03*
D15*
X134720000Y-48800000D03*
X128370000Y-51340000D03*
%TD*%
D17*
%TO.C,U1*%
X120380000Y-32340000D03*
X120380000Y-34880000D03*
X120380000Y-37420000D03*
X120380000Y-39960000D03*
X120380000Y-42500000D03*
X120380000Y-45040000D03*
X120380000Y-47580000D03*
X105140000Y-47580000D03*
X105140000Y-45040000D03*
X105140000Y-42500000D03*
X105140000Y-39960000D03*
X105140000Y-37420000D03*
X105140000Y-34880000D03*
X105140000Y-32340000D03*
%TD*%
M02*
