%TF.GenerationSoftware,KiCad,Pcbnew,9.0.7*%
%TF.CreationDate,2026-07-06T15:04:40+02:00*%
%TF.ProjectId,macro pad,6d616372-6f20-4706-9164-2e6b69636164,rev?*%
%TF.SameCoordinates,Original*%
%TF.FileFunction,Copper,L2,Bot*%
%TF.FilePolarity,Positive*%
%FSLAX46Y46*%
G04 Gerber Fmt 4.6, Leading zero omitted, Abs format (unit mm)*
G04 Created by KiCad (PCBNEW 9.0.7) date 2026-07-06 15:04:40*
%MOMM*%
%LPD*%
G01*
G04 APERTURE LIST*
G04 Aperture macros list*
%AMRoundRect*
0 Rectangle with rounded corners*
0 $1 Rounding radius*
0 $2 $3 $4 $5 $6 $7 $8 $9 X,Y pos of 4 corners*
0 Add a 4 corners polygon primitive as box body*
4,1,4,$2,$3,$4,$5,$6,$7,$8,$9,$2,$3,0*
0 Add four circle primitives for the rounded corners*
1,1,$1+$1,$2,$3*
1,1,$1+$1,$4,$5*
1,1,$1+$1,$6,$7*
1,1,$1+$1,$8,$9*
0 Add four rect primitives between the rounded corners*
20,1,$1+$1,$2,$3,$4,$5,0*
20,1,$1+$1,$4,$5,$6,$7,0*
20,1,$1+$1,$6,$7,$8,$9,0*
20,1,$1+$1,$8,$9,$2,$3,0*%
G04 Aperture macros list end*
%TA.AperFunction,ComponentPad*%
%ADD10R,2.000000X2.000000*%
%TD*%
%TA.AperFunction,ComponentPad*%
%ADD11C,2.000000*%
%TD*%
%TA.AperFunction,ComponentPad*%
%ADD12R,3.200000X2.000000*%
%TD*%
%TA.AperFunction,ComponentPad*%
%ADD13C,2.200000*%
%TD*%
%TA.AperFunction,ComponentPad*%
%ADD14R,1.700000X1.700000*%
%TD*%
%TA.AperFunction,ComponentPad*%
%ADD15C,1.700000*%
%TD*%
%TA.AperFunction,SMDPad,CuDef*%
%ADD16RoundRect,0.152400X-1.063600X-0.609600X1.063600X-0.609600X1.063600X0.609600X-1.063600X0.609600X0*%
%TD*%
%TA.AperFunction,ComponentPad*%
%ADD17C,1.524000*%
%TD*%
%TA.AperFunction,SMDPad,CuDef*%
%ADD18RoundRect,0.152400X1.063600X0.609600X-1.063600X0.609600X-1.063600X-0.609600X1.063600X-0.609600X0*%
%TD*%
%TA.AperFunction,Conductor*%
%ADD19C,0.200000*%
%TD*%
G04 APERTURE END LIST*
D10*
%TO.P,SW5,A,A*%
%TO.N,Net-(U1-GPIO26{slash}ADC0{slash}A0)*%
X165220000Y-32580000D03*
D11*
%TO.P,SW5,B,B*%
%TO.N,Net-(U1-GPIO27{slash}ADC1{slash}A1)*%
X165220000Y-37580000D03*
%TO.P,SW5,C,C*%
%TO.N,GND*%
X165220000Y-35080000D03*
D12*
%TO.P,SW5,MP*%
%TO.N,N/C*%
X172720000Y-29480000D03*
X172720000Y-40680000D03*
D11*
%TO.P,SW5,S1,S1*%
%TO.N,Net-(U1-GPIO28{slash}ADC2{slash}A2)*%
X179720000Y-37580000D03*
%TO.P,SW5,S2,S2*%
%TO.N,GND*%
X179720000Y-32580000D03*
%TD*%
D13*
%TO.P,SW3,1,1*%
%TO.N,GND*%
X134730000Y-68000000D03*
%TO.P,SW3,2,2*%
%TO.N,Net-(U1-GPIO4{slash}MISO)*%
X128380000Y-70540000D03*
%TD*%
%TO.P,SW1,1,1*%
%TO.N,GND*%
X153990000Y-68000000D03*
%TO.P,SW1,2,2*%
%TO.N,Net-(U1-GPIO1{slash}RX)*%
X147640000Y-70540000D03*
%TD*%
D14*
%TO.P,J1,1,Pin_1*%
%TO.N,GND*%
X125220000Y-32580000D03*
D15*
%TO.P,J1,2,Pin_2*%
%TO.N,+3.3V*%
X125220000Y-35120000D03*
%TO.P,J1,3,Pin_3*%
%TO.N,Net-(J1-Pin_3)*%
X125220000Y-37660000D03*
%TO.P,J1,4,Pin_4*%
%TO.N,Net-(J1-Pin_4)*%
X125220000Y-40200000D03*
%TD*%
D13*
%TO.P,SW4,1,1*%
%TO.N,GND*%
X115510000Y-68000000D03*
%TO.P,SW4,2,2*%
%TO.N,Net-(U1-GPIO3{slash}MOSI)*%
X109160000Y-70540000D03*
%TD*%
%TO.P,SW2,1,1*%
%TO.N,GND*%
X134720000Y-48800000D03*
%TO.P,SW2,2,2*%
%TO.N,Net-(U1-GPIO2{slash}SCK)*%
X128370000Y-51340000D03*
%TD*%
D16*
%TO.P,U1,1,GPIO26/ADC0/A0*%
%TO.N,Net-(U1-GPIO26{slash}ADC0{slash}A0)*%
X121215000Y-32340000D03*
D17*
X120380000Y-32340000D03*
D16*
%TO.P,U1,2,GPIO27/ADC1/A1*%
%TO.N,Net-(U1-GPIO27{slash}ADC1{slash}A1)*%
X121215000Y-34880000D03*
D17*
X120380000Y-34880000D03*
D16*
%TO.P,U1,3,GPIO28/ADC2/A2*%
%TO.N,Net-(U1-GPIO28{slash}ADC2{slash}A2)*%
X121215000Y-37420000D03*
D17*
X120380000Y-37420000D03*
D16*
%TO.P,U1,4,GPIO29/ADC3/A3*%
%TO.N,unconnected-(U1-GPIO29{slash}ADC3{slash}A3-Pad4)*%
X121215000Y-39960000D03*
D17*
X120380000Y-39960000D03*
D16*
%TO.P,U1,5,GPIO6/SDA*%
%TO.N,Net-(J1-Pin_4)*%
X121215000Y-42500000D03*
D17*
X120380000Y-42500000D03*
D16*
%TO.P,U1,6,GPIO7/SCL*%
%TO.N,Net-(J1-Pin_3)*%
X121215000Y-45040000D03*
D17*
X120380000Y-45040000D03*
D16*
%TO.P,U1,7,GPIO0/TX*%
%TO.N,unconnected-(U1-GPIO0{slash}TX-Pad7)*%
X121215000Y-47580000D03*
D17*
X120380000Y-47580000D03*
%TO.P,U1,8,GPIO1/RX*%
%TO.N,Net-(U1-GPIO1{slash}RX)*%
X105140000Y-47580000D03*
D18*
X104305000Y-47580000D03*
D17*
%TO.P,U1,9,GPIO2/SCK*%
%TO.N,Net-(U1-GPIO2{slash}SCK)*%
X105140000Y-45040000D03*
D18*
X104305000Y-45040000D03*
D17*
%TO.P,U1,10,GPIO4/MISO*%
%TO.N,Net-(U1-GPIO4{slash}MISO)*%
X105140000Y-42500000D03*
D18*
X104305000Y-42500000D03*
D17*
%TO.P,U1,11,GPIO3/MOSI*%
%TO.N,Net-(U1-GPIO3{slash}MOSI)*%
X105140000Y-39960000D03*
D18*
X104305000Y-39960000D03*
D17*
%TO.P,U1,12,3V3*%
%TO.N,+3.3V*%
X105140000Y-37420000D03*
D18*
X104305000Y-37420000D03*
D17*
%TO.P,U1,13,GND*%
%TO.N,GND*%
X105140000Y-34880000D03*
D18*
X104305000Y-34880000D03*
D17*
%TO.P,U1,14,VBUS*%
%TO.N,unconnected-(U1-VBUS-Pad14)*%
X105140000Y-32340000D03*
D18*
X104305000Y-32340000D03*
%TD*%
D19*
%TO.N,GND*%
X167880000Y-35080000D02*
X165220000Y-35080000D01*
X167880000Y-39080000D02*
X167880000Y-35080000D01*
X115340000Y-68000000D02*
X134730000Y-68000000D01*
X177220000Y-35080000D02*
X165220000Y-35080000D01*
X123983000Y-33817000D02*
X125220000Y-32580000D01*
X105140000Y-34880000D02*
X106203000Y-33817000D01*
X134730000Y-68000000D02*
X154000000Y-68000000D01*
X179720000Y-32580000D02*
X177220000Y-35080000D01*
X134680000Y-42040000D02*
X134680000Y-48500000D01*
X155601000Y-42899000D02*
X154000000Y-44500000D01*
X164061000Y-42899000D02*
X155601000Y-42899000D01*
X125220000Y-32580000D02*
X134680000Y-42040000D01*
X106203000Y-33817000D02*
X123983000Y-33817000D01*
X154000000Y-47200000D02*
X154000000Y-44500000D01*
X154000000Y-68000000D02*
X154000000Y-47200000D01*
X164061000Y-42899000D02*
X167880000Y-39080000D01*
X134730000Y-48550000D02*
X134680000Y-48500000D01*
X154000000Y-47200000D02*
X153880000Y-47080000D01*
X134730000Y-68000000D02*
X134730000Y-48550000D01*
%TD*%
M02*
