M48
; DRILL file {KiCad 9.0.7} date 2026-07-06T15:04:53+0200
; FORMAT={-:-/ absolute / metric / decimal}
; #@! TF.CreationDate,2026-07-06T15:04:53+02:00
; #@! TF.GenerationSoftware,Kicad,Pcbnew,9.0.7
; #@! TF.FileFunction,Plated,1,2,PTH
FMAT,2
METRIC
; #@! TA.AperFunction,Plated,PTH,ComponentDrill
T1C0.889
; #@! TA.AperFunction,Plated,PTH,ComponentDrill
T2C1.000
; #@! TA.AperFunction,Plated,PTH,ComponentDrill
T3C1.500
%
G90
G05
T1
X105.14Y-32.34
X105.14Y-34.88
X105.14Y-37.42
X105.14Y-39.96
X105.14Y-42.5
X105.14Y-45.04
X105.14Y-47.58
X120.38Y-32.34
X120.38Y-34.88
X120.38Y-37.42
X120.38Y-39.96
X120.38Y-42.5
X120.38Y-45.04
X120.38Y-47.58
T2
X125.22Y-32.58
X125.22Y-35.12
X125.22Y-37.66
X125.22Y-40.2
X165.22Y-32.58
X165.22Y-35.08
X165.22Y-37.58
X179.72Y-32.58
X179.72Y-37.58
T3
X109.16Y-70.54
X115.51Y-68.0
X128.37Y-51.34
X128.38Y-70.54
X134.72Y-48.8
X134.73Y-68.0
X147.64Y-70.54
X153.99Y-68.0
T3
X172.07Y-29.48G85X173.37Y-29.48
G05
X172.07Y-40.68G85X173.37Y-40.68
G05
M30
