%TF.GenerationSoftware,KiCad,Pcbnew,9.0.7*%
%TF.CreationDate,2026-07-06T15:04:40+02:00*%
%TF.ProjectId,macro pad,6d616372-6f20-4706-9164-2e6b69636164,rev?*%
%TF.SameCoordinates,Original*%
%TF.FileFunction,Copper,L1,Top*%
%TF.FilePolarity,Positive*%
%FSLAX46Y46*%
G04 Gerber Fmt 4.6, Leading zero omitted, Abs format (unit mm)*
G04 Created by KiCad (PCBNEW 9.0.7) date 2026-07-06 15:04:40*
%MOMM*%
%LPD*%
G01*
G04 APERTURE LIST*
%TA.AperFunction,ComponentPad*%
%ADD10R,2.000000X2.000000*%
%TD*%
%TA.AperFunction,ComponentPad*%
%ADD11C,2.000000*%
%TD*%
%TA.AperFunction,ComponentPad*%
%ADD12R,3.200000X2.000000*%
%TD*%
%TA.AperFunction,ComponentPad*%
%ADD13C,2.200000*%
%TD*%
%TA.AperFunction,ComponentPad*%
%ADD14R,1.700000X1.700000*%
%TD*%
%TA.AperFunction,ComponentPad*%
%ADD15C,1.700000*%
%TD*%
%TA.AperFunction,ComponentPad*%
%ADD16C,1.524000*%
%TD*%
%TA.AperFunction,Conductor*%
%ADD17C,0.200000*%
%TD*%
G04 APERTURE END LIST*
D10*
%TO.P,SW5,A,A*%
%TO.N,Net-(U1-GPIO26{slash}ADC0{slash}A0)*%
X165220000Y-32580000D03*
D11*
%TO.P,SW5,B,B*%
%TO.N,Net-(U1-GPIO27{slash}ADC1{slash}A1)*%
X165220000Y-37580000D03*
%TO.P,SW5,C,C*%
%TO.N,GND*%
X165220000Y-35080000D03*
D12*
%TO.P,SW5,MP*%
%TO.N,N/C*%
X172720000Y-29480000D03*
X172720000Y-40680000D03*
D11*
%TO.P,SW5,S1,S1*%
%TO.N,Net-(U1-GPIO28{slash}ADC2{slash}A2)*%
X179720000Y-37580000D03*
%TO.P,SW5,S2,S2*%
%TO.N,GND*%
X179720000Y-32580000D03*
%TD*%
D13*
%TO.P,SW3,1,1*%
%TO.N,GND*%
X134730000Y-68000000D03*
%TO.P,SW3,2,2*%
%TO.N,Net-(U1-GPIO4{slash}MISO)*%
X128380000Y-70540000D03*
%TD*%
%TO.P,SW1,1,1*%
%TO.N,GND*%
X153990000Y-68000000D03*
%TO.P,SW1,2,2*%
%TO.N,Net-(U1-GPIO1{slash}RX)*%
X147640000Y-70540000D03*
%TD*%
D14*
%TO.P,J1,1,Pin_1*%
%TO.N,GND*%
X125220000Y-32580000D03*
D15*
%TO.P,J1,2,Pin_2*%
%TO.N,+3.3V*%
X125220000Y-35120000D03*
%TO.P,J1,3,Pin_3*%
%TO.N,Net-(J1-Pin_3)*%
X125220000Y-37660000D03*
%TO.P,J1,4,Pin_4*%
%TO.N,Net-(J1-Pin_4)*%
X125220000Y-40200000D03*
%TD*%
D13*
%TO.P,SW4,1,1*%
%TO.N,GND*%
X115510000Y-68000000D03*
%TO.P,SW4,2,2*%
%TO.N,Net-(U1-GPIO3{slash}MOSI)*%
X109160000Y-70540000D03*
%TD*%
%TO.P,SW2,1,1*%
%TO.N,GND*%
X134720000Y-48800000D03*
%TO.P,SW2,2,2*%
%TO.N,Net-(U1-GPIO2{slash}SCK)*%
X128370000Y-51340000D03*
%TD*%
D16*
%TO.P,U1,1,GPIO26/ADC0/A0*%
%TO.N,Net-(U1-GPIO26{slash}ADC0{slash}A0)*%
X120380000Y-32340000D03*
%TO.P,U1,2,GPIO27/ADC1/A1*%
%TO.N,Net-(U1-GPIO27{slash}ADC1{slash}A1)*%
X120380000Y-34880000D03*
%TO.P,U1,3,GPIO28/ADC2/A2*%
%TO.N,Net-(U1-GPIO28{slash}ADC2{slash}A2)*%
X120380000Y-37420000D03*
%TO.P,U1,4,GPIO29/ADC3/A3*%
%TO.N,unconnected-(U1-GPIO29{slash}ADC3{slash}A3-Pad4)*%
X120380000Y-39960000D03*
%TO.P,U1,5,GPIO6/SDA*%
%TO.N,Net-(J1-Pin_4)*%
X120380000Y-42500000D03*
%TO.P,U1,6,GPIO7/SCL*%
%TO.N,Net-(J1-Pin_3)*%
X120380000Y-45040000D03*
%TO.P,U1,7,GPIO0/TX*%
%TO.N,unconnected-(U1-GPIO0{slash}TX-Pad7)*%
X120380000Y-47580000D03*
%TO.P,U1,8,GPIO1/RX*%
%TO.N,Net-(U1-GPIO1{slash}RX)*%
X105140000Y-47580000D03*
%TO.P,U1,9,GPIO2/SCK*%
%TO.N,Net-(U1-GPIO2{slash}SCK)*%
X105140000Y-45040000D03*
%TO.P,U1,10,GPIO4/MISO*%
%TO.N,Net-(U1-GPIO4{slash}MISO)*%
X105140000Y-42500000D03*
%TO.P,U1,11,GPIO3/MOSI*%
%TO.N,Net-(U1-GPIO3{slash}MOSI)*%
X105140000Y-39960000D03*
%TO.P,U1,12,3V3*%
%TO.N,+3.3V*%
X105140000Y-37420000D03*
%TO.P,U1,13,GND*%
%TO.N,GND*%
X105140000Y-34880000D03*
%TO.P,U1,14,VBUS*%
%TO.N,unconnected-(U1-VBUS-Pad14)*%
X105140000Y-32340000D03*
%TD*%
D17*
%TO.N,+3.3V*%
X116380000Y-49580000D02*
X113380000Y-46580000D01*
X113380000Y-46580000D02*
X113380000Y-45660000D01*
X129771000Y-42689000D02*
X122880000Y-49580000D01*
X129771000Y-39671000D02*
X129771000Y-42689000D01*
X113380000Y-45660000D02*
X105140000Y-37420000D01*
X125220000Y-35120000D02*
X129771000Y-39671000D01*
X122880000Y-49580000D02*
X116380000Y-49580000D01*
%TO.N,Net-(J1-Pin_3)*%
X125220000Y-37660000D02*
X124370000Y-38510000D01*
X124370000Y-38510000D02*
X119450000Y-38510000D01*
X118880000Y-39080000D02*
X118880000Y-43540000D01*
X119450000Y-38510000D02*
X118880000Y-39080000D01*
X118880000Y-43540000D02*
X120380000Y-45040000D01*
%TO.N,Net-(J1-Pin_4)*%
X125220000Y-40200000D02*
X122920000Y-42500000D01*
X122920000Y-42500000D02*
X120380000Y-42500000D01*
%TO.N,Net-(U1-GPIO1{slash}RX)*%
X147650000Y-68350000D02*
X147650000Y-70540000D01*
X120140000Y-62580000D02*
X141880000Y-62580000D01*
X105140000Y-47580000D02*
X120140000Y-62580000D01*
X141880000Y-62580000D02*
X147650000Y-68350000D01*
%TO.N,Net-(U1-GPIO2{slash}SCK)*%
X113340000Y-51040000D02*
X107340000Y-45040000D01*
X128330000Y-51040000D02*
X113340000Y-51040000D01*
X107340000Y-45040000D02*
X105140000Y-45040000D01*
%TO.N,Net-(U1-GPIO4{slash}MISO)*%
X105140000Y-42500000D02*
X102460000Y-42500000D01*
X102380000Y-49080000D02*
X123840000Y-70540000D01*
X102460000Y-42500000D02*
X102380000Y-42580000D01*
X123840000Y-70540000D02*
X128380000Y-70540000D01*
X102380000Y-42580000D02*
X102380000Y-49080000D01*
%TO.N,Net-(U1-GPIO3{slash}MOSI)*%
X101380000Y-57580000D02*
X101380000Y-40580000D01*
X108990000Y-70540000D02*
X108990000Y-65190000D01*
X102000000Y-39960000D02*
X105140000Y-39960000D01*
X108990000Y-65190000D02*
X101380000Y-57580000D01*
X101380000Y-40580000D02*
X102000000Y-39960000D01*
%TO.N,Net-(U1-GPIO27{slash}ADC1{slash}A1)*%
X124380000Y-29580000D02*
X121880000Y-32080000D01*
X160640000Y-33000000D02*
X137300000Y-33000000D01*
X165220000Y-37580000D02*
X160640000Y-33000000D01*
X133880000Y-29580000D02*
X124380000Y-29580000D01*
X137300000Y-33000000D02*
X133880000Y-29580000D01*
X121880000Y-32080000D02*
X121880000Y-33380000D01*
X121880000Y-33380000D02*
X120380000Y-34880000D01*
%TO.N,Net-(U1-GPIO28{slash}ADC2{slash}A2)*%
X178220000Y-39080000D02*
X137380000Y-39080000D01*
X123913550Y-31113550D02*
X123413550Y-31113550D01*
X122380000Y-32147100D02*
X122380000Y-35420000D01*
X179720000Y-37580000D02*
X178220000Y-39080000D01*
X128880000Y-30580000D02*
X124447100Y-30580000D01*
X122380000Y-35420000D02*
X120380000Y-37420000D01*
X123413550Y-31113550D02*
X122380000Y-32147100D01*
X137380000Y-39080000D02*
X128880000Y-30580000D01*
X124447100Y-30580000D02*
X123913550Y-31113550D01*
%TO.N,Net-(U1-GPIO26{slash}ADC0{slash}A0)*%
X123640000Y-29080000D02*
X120380000Y-32340000D01*
X135800000Y-29500000D02*
X135380000Y-29080000D01*
X162140000Y-29500000D02*
X135800000Y-29500000D01*
X135380000Y-29080000D02*
X123640000Y-29080000D01*
X165220000Y-32580000D02*
X162140000Y-29500000D01*
%TD*%
M02*
