%TF.GenerationSoftware,KiCad,Pcbnew,9.0.7*%
%TF.CreationDate,2026-07-06T15:04:40+02:00*%
%TF.ProjectId,macro pad,6d616372-6f20-4706-9164-2e6b69636164,rev?*%
%TF.SameCoordinates,Original*%
%TF.FileFunction,OtherDrawing,Comment*%
%FSLAX46Y46*%
G04 Gerber Fmt 4.6, Leading zero omitted, Abs format (unit mm)*
G04 Created by KiCad (PCBNEW 9.0.7) date 2026-07-06 15:04:40*
%MOMM*%
%LPD*%
G01*
G04 APERTURE LIST*
%ADD10C,0.100000*%
%ADD11C,0.150000*%
G04 APERTURE END LIST*
D10*
X144500000Y-62000000D02*
X145500000Y-62000000D01*
X145500000Y-62500000D01*
X144500000Y-62500000D01*
X144500000Y-62000000D01*
X145500000Y-52000000D02*
X149500000Y-52000000D01*
X149500000Y-54500000D01*
X145500000Y-54500000D01*
X145500000Y-52000000D01*
X152000000Y-56500000D02*
X151500000Y-57000000D01*
X151500000Y-57000000D02*
X150000000Y-57000000D01*
X152000000Y-57500000D02*
X153000000Y-56500000D01*
X150000000Y-57500000D02*
X152000000Y-57500000D01*
X153500000Y-55500000D02*
X153000000Y-55500000D01*
X153500000Y-56000000D02*
X153000000Y-56500000D01*
X152000000Y-55500000D02*
X152500000Y-56000000D01*
X153500000Y-56000000D02*
X153000000Y-55500000D01*
X149000000Y-60000000D02*
X149500000Y-60000000D01*
X149500000Y-62500000D01*
X149000000Y-62500000D01*
X149000000Y-60000000D01*
X152000000Y-56000000D02*
X152250000Y-56250000D01*
X153000000Y-55500000D02*
X152500000Y-56000000D01*
X148000000Y-62000000D02*
X149000000Y-62000000D01*
X149000000Y-62500000D01*
X148000000Y-62500000D01*
X148000000Y-62000000D01*
X145000000Y-55000000D02*
X150000000Y-55000000D01*
X150000000Y-60000000D01*
X145000000Y-60000000D01*
X145000000Y-55000000D01*
X152500000Y-56000000D02*
X152000000Y-55500000D01*
X149000000Y-53250000D02*
G75*
G02*
X148000000Y-53250000I-500000J0D01*
G01*
X148000000Y-53250000D02*
G75*
G02*
X149000000Y-53250000I500000J0D01*
G01*
X153500000Y-55500000D02*
X153500000Y-56000000D01*
X152750000Y-56250000D02*
X153500000Y-55500000D01*
X146500000Y-54500000D02*
X148500000Y-54500000D01*
X148500000Y-55000000D01*
X146500000Y-55000000D01*
X146500000Y-54500000D01*
X153000000Y-56500000D02*
X152500000Y-56000000D01*
X147250000Y-53250000D02*
G75*
G02*
X145750000Y-53250000I-750000J0D01*
G01*
X145750000Y-53250000D02*
G75*
G02*
X147250000Y-53250000I750000J0D01*
G01*
X152000000Y-55500000D02*
X152000000Y-56000000D01*
X144500000Y-57000000D02*
X145000000Y-57000000D01*
X145000000Y-59500000D01*
X144500000Y-59500000D01*
X144500000Y-57000000D01*
X145500000Y-60000000D02*
X146000000Y-60000000D01*
X146000000Y-62500000D01*
X145500000Y-62500000D01*
X145500000Y-60000000D01*
X152500000Y-56000000D02*
X152000000Y-56500000D01*
D11*
X150836779Y-28869819D02*
X150836779Y-27869819D01*
X150836779Y-28250771D02*
X150932017Y-28203152D01*
X150932017Y-28203152D02*
X151122493Y-28203152D01*
X151122493Y-28203152D02*
X151217731Y-28250771D01*
X151217731Y-28250771D02*
X151265350Y-28298390D01*
X151265350Y-28298390D02*
X151312969Y-28393628D01*
X151312969Y-28393628D02*
X151312969Y-28679342D01*
X151312969Y-28679342D02*
X151265350Y-28774580D01*
X151265350Y-28774580D02*
X151217731Y-28822200D01*
X151217731Y-28822200D02*
X151122493Y-28869819D01*
X151122493Y-28869819D02*
X150932017Y-28869819D01*
X150932017Y-28869819D02*
X150836779Y-28822200D01*
X151693922Y-28584104D02*
X152170112Y-28584104D01*
X151598684Y-28869819D02*
X151932017Y-27869819D01*
X151932017Y-27869819D02*
X152265350Y-28869819D01*
X153170112Y-28869819D02*
X152836779Y-28393628D01*
X152598684Y-28869819D02*
X152598684Y-27869819D01*
X152598684Y-27869819D02*
X152979636Y-27869819D01*
X152979636Y-27869819D02*
X153074874Y-27917438D01*
X153074874Y-27917438D02*
X153122493Y-27965057D01*
X153122493Y-27965057D02*
X153170112Y-28060295D01*
X153170112Y-28060295D02*
X153170112Y-28203152D01*
X153170112Y-28203152D02*
X153122493Y-28298390D01*
X153122493Y-28298390D02*
X153074874Y-28346009D01*
X153074874Y-28346009D02*
X152979636Y-28393628D01*
X152979636Y-28393628D02*
X152598684Y-28393628D01*
X153455827Y-27869819D02*
X154027255Y-27869819D01*
X153741541Y-28869819D02*
X153741541Y-27869819D01*
X154408208Y-27869819D02*
X154312970Y-28060295D01*
X154789160Y-28822200D02*
X154932017Y-28869819D01*
X154932017Y-28869819D02*
X155170112Y-28869819D01*
X155170112Y-28869819D02*
X155265350Y-28822200D01*
X155265350Y-28822200D02*
X155312969Y-28774580D01*
X155312969Y-28774580D02*
X155360588Y-28679342D01*
X155360588Y-28679342D02*
X155360588Y-28584104D01*
X155360588Y-28584104D02*
X155312969Y-28488866D01*
X155312969Y-28488866D02*
X155265350Y-28441247D01*
X155265350Y-28441247D02*
X155170112Y-28393628D01*
X155170112Y-28393628D02*
X154979636Y-28346009D01*
X154979636Y-28346009D02*
X154884398Y-28298390D01*
X154884398Y-28298390D02*
X154836779Y-28250771D01*
X154836779Y-28250771D02*
X154789160Y-28155533D01*
X154789160Y-28155533D02*
X154789160Y-28060295D01*
X154789160Y-28060295D02*
X154836779Y-27965057D01*
X154836779Y-27965057D02*
X154884398Y-27917438D01*
X154884398Y-27917438D02*
X154979636Y-27869819D01*
X154979636Y-27869819D02*
X155217731Y-27869819D01*
X155217731Y-27869819D02*
X155360588Y-27917438D01*
X156551065Y-28869819D02*
X156551065Y-27869819D01*
X156979636Y-28869819D02*
X156979636Y-28346009D01*
X156979636Y-28346009D02*
X156932017Y-28250771D01*
X156932017Y-28250771D02*
X156836779Y-28203152D01*
X156836779Y-28203152D02*
X156693922Y-28203152D01*
X156693922Y-28203152D02*
X156598684Y-28250771D01*
X156598684Y-28250771D02*
X156551065Y-28298390D01*
X157884398Y-28869819D02*
X157884398Y-28346009D01*
X157884398Y-28346009D02*
X157836779Y-28250771D01*
X157836779Y-28250771D02*
X157741541Y-28203152D01*
X157741541Y-28203152D02*
X157551065Y-28203152D01*
X157551065Y-28203152D02*
X157455827Y-28250771D01*
X157884398Y-28822200D02*
X157789160Y-28869819D01*
X157789160Y-28869819D02*
X157551065Y-28869819D01*
X157551065Y-28869819D02*
X157455827Y-28822200D01*
X157455827Y-28822200D02*
X157408208Y-28726961D01*
X157408208Y-28726961D02*
X157408208Y-28631723D01*
X157408208Y-28631723D02*
X157455827Y-28536485D01*
X157455827Y-28536485D02*
X157551065Y-28488866D01*
X157551065Y-28488866D02*
X157789160Y-28488866D01*
X157789160Y-28488866D02*
X157884398Y-28441247D01*
X158789160Y-28822200D02*
X158693922Y-28869819D01*
X158693922Y-28869819D02*
X158503446Y-28869819D01*
X158503446Y-28869819D02*
X158408208Y-28822200D01*
X158408208Y-28822200D02*
X158360589Y-28774580D01*
X158360589Y-28774580D02*
X158312970Y-28679342D01*
X158312970Y-28679342D02*
X158312970Y-28393628D01*
X158312970Y-28393628D02*
X158360589Y-28298390D01*
X158360589Y-28298390D02*
X158408208Y-28250771D01*
X158408208Y-28250771D02*
X158503446Y-28203152D01*
X158503446Y-28203152D02*
X158693922Y-28203152D01*
X158693922Y-28203152D02*
X158789160Y-28250771D01*
X159217732Y-28869819D02*
X159217732Y-27869819D01*
X159312970Y-28488866D02*
X159598684Y-28869819D01*
X159598684Y-28203152D02*
X159217732Y-28584104D01*
X160027256Y-28203152D02*
X160027256Y-29203152D01*
X160027256Y-28250771D02*
X160122494Y-28203152D01*
X160122494Y-28203152D02*
X160312970Y-28203152D01*
X160312970Y-28203152D02*
X160408208Y-28250771D01*
X160408208Y-28250771D02*
X160455827Y-28298390D01*
X160455827Y-28298390D02*
X160503446Y-28393628D01*
X160503446Y-28393628D02*
X160503446Y-28679342D01*
X160503446Y-28679342D02*
X160455827Y-28774580D01*
X160455827Y-28774580D02*
X160408208Y-28822200D01*
X160408208Y-28822200D02*
X160312970Y-28869819D01*
X160312970Y-28869819D02*
X160122494Y-28869819D01*
X160122494Y-28869819D02*
X160027256Y-28822200D01*
X161360589Y-28869819D02*
X161360589Y-28346009D01*
X161360589Y-28346009D02*
X161312970Y-28250771D01*
X161312970Y-28250771D02*
X161217732Y-28203152D01*
X161217732Y-28203152D02*
X161027256Y-28203152D01*
X161027256Y-28203152D02*
X160932018Y-28250771D01*
X161360589Y-28822200D02*
X161265351Y-28869819D01*
X161265351Y-28869819D02*
X161027256Y-28869819D01*
X161027256Y-28869819D02*
X160932018Y-28822200D01*
X160932018Y-28822200D02*
X160884399Y-28726961D01*
X160884399Y-28726961D02*
X160884399Y-28631723D01*
X160884399Y-28631723D02*
X160932018Y-28536485D01*
X160932018Y-28536485D02*
X161027256Y-28488866D01*
X161027256Y-28488866D02*
X161265351Y-28488866D01*
X161265351Y-28488866D02*
X161360589Y-28441247D01*
X162265351Y-28869819D02*
X162265351Y-27869819D01*
X162265351Y-28822200D02*
X162170113Y-28869819D01*
X162170113Y-28869819D02*
X161979637Y-28869819D01*
X161979637Y-28869819D02*
X161884399Y-28822200D01*
X161884399Y-28822200D02*
X161836780Y-28774580D01*
X161836780Y-28774580D02*
X161789161Y-28679342D01*
X161789161Y-28679342D02*
X161789161Y-28393628D01*
X161789161Y-28393628D02*
X161836780Y-28298390D01*
X161836780Y-28298390D02*
X161884399Y-28250771D01*
X161884399Y-28250771D02*
X161979637Y-28203152D01*
X161979637Y-28203152D02*
X162170113Y-28203152D01*
X162170113Y-28203152D02*
X162265351Y-28250771D01*
G36*
X145860282Y-57809268D02*
G01*
X145860282Y-58219780D01*
X145859678Y-58259072D01*
X145862649Y-58293728D01*
X145869185Y-58309795D01*
X145882017Y-58318689D01*
X145907653Y-58322380D01*
X145954808Y-58317630D01*
X146002075Y-58303119D01*
X146050260Y-58277922D01*
X146093910Y-58245109D01*
X146131920Y-58205568D01*
X146164621Y-58158670D01*
X146179318Y-58140562D01*
X146191054Y-58135974D01*
X146199628Y-58137936D01*
X146207925Y-58144272D01*
X146213795Y-58153035D01*
X146215619Y-58161802D01*
X146208709Y-58184813D01*
X146179953Y-58224231D01*
X146141675Y-58262177D01*
X146096972Y-58296496D01*
X146047081Y-58325119D01*
X145996352Y-58345143D01*
X145944311Y-58357071D01*
X145890397Y-58361068D01*
X145816337Y-58354893D01*
X145751144Y-58337116D01*
X145693225Y-58308218D01*
X145641398Y-58267810D01*
X145600581Y-58223288D01*
X145569544Y-58175903D01*
X145547491Y-58125185D01*
X145534093Y-58070440D01*
X145529510Y-58010787D01*
X145534363Y-57949284D01*
X145548515Y-57893274D01*
X145571770Y-57841771D01*
X145604485Y-57794005D01*
X145647553Y-57749478D01*
X145699435Y-57711135D01*
X145756664Y-57683754D01*
X145820281Y-57666970D01*
X145891661Y-57661166D01*
X145967170Y-57667411D01*
X146034066Y-57685436D01*
X146093894Y-57714801D01*
X146128251Y-57739228D01*
X146154180Y-57763986D01*
X146172697Y-57790136D01*
X146177535Y-57808279D01*
X146175854Y-57816639D01*
X146170776Y-57823666D01*
X146154180Y-57829986D01*
X146141807Y-57824578D01*
X146121591Y-57800805D01*
X146100437Y-57776092D01*
X146071246Y-57752471D01*
X146032400Y-57729969D01*
X145991015Y-57712702D01*
X145952925Y-57702961D01*
X145917490Y-57699854D01*
X145894346Y-57702576D01*
X145879620Y-57709558D01*
X145870724Y-57720132D01*
X145863683Y-57746496D01*
X145860282Y-57809268D01*
G37*
G36*
X146594421Y-57506413D02*
G01*
X146595081Y-57537847D01*
X146593817Y-57754588D01*
X146593212Y-57848176D01*
X146592003Y-58018755D01*
X146594421Y-58322984D01*
X146594421Y-58347000D01*
X146280905Y-58347000D01*
X146280905Y-58318038D01*
X146282114Y-58220164D01*
X146282773Y-58042771D01*
X146283982Y-57810642D01*
X146283378Y-57685620D01*
X146281509Y-57548289D01*
X146282114Y-57506413D01*
X146594421Y-57506413D01*
G37*
G36*
X147217100Y-57666759D02*
G01*
X147306382Y-57681574D01*
X147371989Y-57703150D01*
X147419071Y-57729804D01*
X147453403Y-57762771D01*
X147471937Y-57797233D01*
X147480447Y-57841719D01*
X147484247Y-57929015D01*
X147484247Y-58172299D01*
X147484183Y-58235603D01*
X147488203Y-58273745D01*
X147498248Y-58307786D01*
X147517439Y-58347000D01*
X147173148Y-58347000D01*
X147173148Y-58283692D01*
X147115781Y-58317872D01*
X147060931Y-58341559D01*
X147005119Y-58356291D01*
X146951187Y-58361068D01*
X146891899Y-58355022D01*
X146838017Y-58337262D01*
X146788246Y-58307542D01*
X146746905Y-58268983D01*
X146718400Y-58226438D01*
X146701301Y-58179036D01*
X146695428Y-58125312D01*
X146700281Y-58077374D01*
X146706109Y-58059971D01*
X147000976Y-58059971D01*
X147000976Y-58206920D01*
X147004053Y-58265941D01*
X147011198Y-58281381D01*
X147024338Y-58290703D01*
X147045874Y-58294243D01*
X147074537Y-58290454D01*
X147108907Y-58277812D01*
X147142075Y-58258829D01*
X147172544Y-58234452D01*
X147173753Y-57981221D01*
X147120441Y-57957598D01*
X147081612Y-57945833D01*
X147053842Y-57942533D01*
X147031981Y-57945968D01*
X147017024Y-57955315D01*
X147007131Y-57970835D01*
X147003122Y-57993196D01*
X147000976Y-58059971D01*
X146706109Y-58059971D01*
X146714304Y-58035501D01*
X146737407Y-57998412D01*
X146770441Y-57965285D01*
X146815855Y-57934264D01*
X146866395Y-57911900D01*
X146922996Y-57898090D01*
X146986852Y-57893294D01*
X147038116Y-57895721D01*
X147080275Y-57902416D01*
X147121815Y-57914519D01*
X147173148Y-57935499D01*
X147173148Y-57861036D01*
X147170676Y-57765799D01*
X147166970Y-57748902D01*
X147159630Y-57734035D01*
X147141507Y-57716892D01*
X147109383Y-57704768D01*
X147056315Y-57699854D01*
X146994437Y-57705193D01*
X146942730Y-57720243D01*
X146899263Y-57744244D01*
X146862655Y-57777395D01*
X146834661Y-57802618D01*
X146815943Y-57808884D01*
X146802697Y-57806492D01*
X146791324Y-57799322D01*
X146783413Y-57788833D01*
X146780882Y-57777175D01*
X146784684Y-57761736D01*
X146797822Y-57744343D01*
X146824884Y-57723809D01*
X146872492Y-57699414D01*
X146931985Y-57679260D01*
X147006201Y-57666003D01*
X147098135Y-57661166D01*
X147217100Y-57666759D01*
G37*
G36*
X147939216Y-57675234D02*
G01*
X147939216Y-57763161D01*
X148012031Y-57717646D01*
X148080010Y-57686665D01*
X148148932Y-57667354D01*
X148214044Y-57661166D01*
X148271047Y-57665908D01*
X148319727Y-57679383D01*
X148361598Y-57701008D01*
X148389253Y-57723274D01*
X148409304Y-57747979D01*
X148422707Y-57775471D01*
X148433688Y-57826979D01*
X148438424Y-57920442D01*
X148437215Y-58204172D01*
X148439029Y-58347000D01*
X148126117Y-58347000D01*
X148128590Y-58176420D01*
X148130403Y-58051289D01*
X148129799Y-57862300D01*
X148128260Y-57784099D01*
X148122435Y-57761678D01*
X148108079Y-57747528D01*
X148080010Y-57742059D01*
X148049760Y-57746163D01*
X148014834Y-57759644D01*
X147979967Y-57780538D01*
X147939216Y-57812401D01*
X147938612Y-57837460D01*
X147937348Y-58009358D01*
X147936139Y-58140865D01*
X147938007Y-58320676D01*
X147938612Y-58347000D01*
X147624436Y-58347000D01*
X147626304Y-58105859D01*
X147628118Y-57946545D01*
X147626304Y-57808719D01*
X147624436Y-57675234D01*
X147939216Y-57675234D01*
G37*
G36*
X148731442Y-57457174D02*
G01*
X148800797Y-57462202D01*
X148845663Y-57474825D01*
X148873212Y-57492463D01*
X148888517Y-57514423D01*
X148893723Y-57542134D01*
X148889151Y-57567152D01*
X148875505Y-57588215D01*
X148850969Y-57606431D01*
X148821510Y-57618417D01*
X148782299Y-57626493D01*
X148730838Y-57629512D01*
X148665753Y-57624496D01*
X148623215Y-57611823D01*
X148596695Y-57593893D01*
X148581695Y-57571194D01*
X148576525Y-57542134D01*
X148581581Y-57514567D01*
X148596383Y-57492744D01*
X148622841Y-57475225D01*
X148665633Y-57462575D01*
X148731442Y-57457174D01*
G37*
G36*
X148890646Y-57675234D02*
G01*
X148890646Y-57693094D01*
X148889437Y-57789045D01*
X148888228Y-57937917D01*
X148886359Y-58164275D01*
X148888832Y-58291660D01*
X148890041Y-58347000D01*
X148574052Y-58347000D01*
X148577130Y-58120641D01*
X148578943Y-57920661D01*
X148577734Y-57815478D01*
X148575866Y-57698590D01*
X148576525Y-57675234D01*
X148890646Y-57675234D01*
G37*
G36*
X149400969Y-57665420D02*
G01*
X149453457Y-57677989D01*
X149503329Y-57698887D01*
X149551146Y-57728540D01*
X149602627Y-57774092D01*
X149642077Y-57826212D01*
X149670487Y-57885774D01*
X149687970Y-57954204D01*
X149693753Y-58033373D01*
X149550541Y-58033373D01*
X149366113Y-58033978D01*
X149281868Y-58037495D01*
X149281868Y-58225385D01*
X149284116Y-58275021D01*
X149288627Y-58294518D01*
X149299981Y-58309096D01*
X149319112Y-58318652D01*
X149349517Y-58322380D01*
X149396110Y-58318242D01*
X149442920Y-58305636D01*
X149490586Y-58283912D01*
X149534658Y-58255278D01*
X149574835Y-58220014D01*
X149611376Y-58177574D01*
X149635336Y-58149108D01*
X149651328Y-58143008D01*
X149660931Y-58144908D01*
X149668584Y-58150537D01*
X149673600Y-58158893D01*
X149675343Y-58169496D01*
X149672018Y-58185293D01*
X149659824Y-58207147D01*
X149634127Y-58237585D01*
X149595976Y-58271223D01*
X149551450Y-58300946D01*
X149499818Y-58326721D01*
X149445520Y-58346165D01*
X149393546Y-58357409D01*
X149343362Y-58361068D01*
X149279507Y-58355533D01*
X149220334Y-58339235D01*
X149164813Y-58312101D01*
X149112168Y-58273360D01*
X149076423Y-58236574D01*
X149046555Y-58194439D01*
X149022372Y-58146360D01*
X149001507Y-58079483D01*
X148994730Y-58013864D01*
X149000763Y-57950561D01*
X149019295Y-57885985D01*
X149048846Y-57825697D01*
X149058099Y-57813445D01*
X149281868Y-57813445D01*
X149281868Y-57991773D01*
X149356881Y-57995290D01*
X149439258Y-57991773D01*
X149439258Y-57813445D01*
X149436785Y-57744752D01*
X149428212Y-57723649D01*
X149414631Y-57711500D01*
X149392504Y-57703149D01*
X149358090Y-57699854D01*
X149323374Y-57703681D01*
X149302343Y-57713254D01*
X149290496Y-57727331D01*
X149284797Y-57750347D01*
X149281868Y-57813445D01*
X149058099Y-57813445D01*
X149086944Y-57775251D01*
X149122188Y-57741595D01*
X149161408Y-57713464D01*
X149204986Y-57690621D01*
X149250405Y-57674238D01*
X149296991Y-57664449D01*
X149345176Y-57661166D01*
X149400969Y-57665420D01*
G37*
%TO.C,SW3*%
X122665000Y-63555000D02*
X141715000Y-63555000D01*
X122665000Y-82605000D02*
X122665000Y-63555000D01*
X141715000Y-63555000D02*
X141715000Y-82605000D01*
X141715000Y-82605000D02*
X122665000Y-82605000D01*
%TO.C,SW1*%
X141925000Y-63555000D02*
X160975000Y-63555000D01*
X141925000Y-82605000D02*
X141925000Y-63555000D01*
X160975000Y-63555000D02*
X160975000Y-82605000D01*
X160975000Y-82605000D02*
X141925000Y-82605000D01*
%TO.C,SW4*%
X103445000Y-63555000D02*
X122495000Y-63555000D01*
X103445000Y-82605000D02*
X103445000Y-63555000D01*
X122495000Y-63555000D02*
X122495000Y-82605000D01*
X122495000Y-82605000D02*
X103445000Y-82605000D01*
%TO.C,SW2*%
X122655000Y-44355000D02*
X141705000Y-44355000D01*
X122655000Y-63405000D02*
X122655000Y-44355000D01*
X141705000Y-44355000D02*
X141705000Y-63405000D01*
X141705000Y-63405000D02*
X122655000Y-63405000D01*
%TD*%
M02*
