%TF.GenerationSoftware,KiCad,Pcbnew,9.0.7*%
%TF.CreationDate,2026-07-12T23:44:34+02:00*%
%TF.ProjectId,macro pad,6d616372-6f20-4706-9164-2e6b69636164,rev?*%
%TF.SameCoordinates,Original*%
%TF.FileFunction,Copper,L1,Top*%
%TF.FilePolarity,Positive*%
%FSLAX46Y46*%
G04 Gerber Fmt 4.6, Leading zero omitted, Abs format (unit mm)*
G04 Created by KiCad (PCBNEW 9.0.7) date 2026-07-12 23:44:34*
%MOMM*%
%LPD*%
G01*
G04 APERTURE LIST*
%TA.AperFunction,ComponentPad*%
%ADD10C,2.000000*%
%TD*%
%TA.AperFunction,ComponentPad*%
%ADD11R,3.200000X2.000000*%
%TD*%
%TA.AperFunction,ComponentPad*%
%ADD12R,2.000000X2.000000*%
%TD*%
%TA.AperFunction,ComponentPad*%
%ADD13C,2.200000*%
%TD*%
%TA.AperFunction,ComponentPad*%
%ADD14R,1.700000X1.700000*%
%TD*%
%TA.AperFunction,ComponentPad*%
%ADD15C,1.700000*%
%TD*%
%TA.AperFunction,ComponentPad*%
%ADD16C,1.524000*%
%TD*%
%TA.AperFunction,Conductor*%
%ADD17C,0.200000*%
%TD*%
G04 APERTURE END LIST*
D10*
%TO.P,SW5,S2,S2*%
%TO.N,GND*%
X160750000Y-32500000D03*
%TO.P,SW5,S1,S1*%
%TO.N,Net-(U1-GPIO28{slash}ADC2{slash}A2)*%
X160750000Y-37500000D03*
D11*
%TO.P,SW5,MP*%
%TO.N,N/C*%
X153750000Y-40600000D03*
X153750000Y-29400000D03*
D10*
%TO.P,SW5,C,C*%
%TO.N,GND*%
X146250000Y-35000000D03*
%TO.P,SW5,B,B*%
%TO.N,Net-(U1-GPIO27{slash}ADC1{slash}A1)*%
X146250000Y-37500000D03*
D12*
%TO.P,SW5,A,A*%
%TO.N,Net-(U1-GPIO26{slash}ADC0{slash}A0)*%
X146250000Y-32500000D03*
%TD*%
D13*
%TO.P,SW4,2,2*%
%TO.N,Net-(U1-GPIO3{slash}MOSI)*%
X109160000Y-70540000D03*
%TO.P,SW4,1,1*%
%TO.N,GND*%
X115510000Y-68000000D03*
%TD*%
%TO.P,SW3,1,1*%
%TO.N,GND*%
X134730000Y-68000000D03*
%TO.P,SW3,2,2*%
%TO.N,Net-(U1-GPIO4{slash}MISO)*%
X128380000Y-70540000D03*
%TD*%
%TO.P,SW1,1,1*%
%TO.N,GND*%
X153990000Y-68000000D03*
%TO.P,SW1,2,2*%
%TO.N,Net-(U1-GPIO1{slash}RX)*%
X147640000Y-70540000D03*
%TD*%
%TO.P,SW2,1,1*%
%TO.N,GND*%
X134720000Y-48800000D03*
%TO.P,SW2,2,2*%
%TO.N,Net-(U1-GPIO2{slash}SCK)*%
X128370000Y-51340000D03*
%TD*%
D14*
%TO.P,J1,1,Pin_1*%
%TO.N,GND*%
X107615000Y-31190000D03*
D15*
%TO.P,J1,2,Pin_2*%
%TO.N,+3.3V*%
X107615000Y-33730000D03*
%TO.P,J1,3,Pin_3*%
%TO.N,Net-(J1-Pin_3)*%
X107615000Y-36270000D03*
%TO.P,J1,4,Pin_4*%
%TO.N,Net-(J1-Pin_4)*%
X107615000Y-38810000D03*
%TD*%
D16*
%TO.P,U1,1,GPIO26/ADC0/A0*%
%TO.N,Net-(U1-GPIO26{slash}ADC0{slash}A0)*%
X120380000Y-32340000D03*
%TO.P,U1,2,GPIO27/ADC1/A1*%
%TO.N,Net-(U1-GPIO27{slash}ADC1{slash}A1)*%
X120380000Y-34880000D03*
%TO.P,U1,3,GPIO28/ADC2/A2*%
%TO.N,Net-(U1-GPIO28{slash}ADC2{slash}A2)*%
X120380000Y-37420000D03*
%TO.P,U1,4,GPIO29/ADC3/A3*%
%TO.N,unconnected-(U1-GPIO29{slash}ADC3{slash}A3-Pad4)*%
X120380000Y-39960000D03*
%TO.P,U1,5,GPIO6/SDA*%
%TO.N,Net-(J1-Pin_4)*%
X120380000Y-42500000D03*
%TO.P,U1,6,GPIO7/SCL*%
%TO.N,Net-(J1-Pin_3)*%
X120380000Y-45040000D03*
%TO.P,U1,7,GPIO0/TX*%
%TO.N,unconnected-(U1-GPIO0{slash}TX-Pad7)*%
X120380000Y-47580000D03*
%TO.P,U1,8,GPIO1/RX*%
%TO.N,Net-(U1-GPIO1{slash}RX)*%
X105140000Y-47580000D03*
%TO.P,U1,9,GPIO2/SCK*%
%TO.N,Net-(U1-GPIO2{slash}SCK)*%
X105140000Y-45040000D03*
%TO.P,U1,10,GPIO4/MISO*%
%TO.N,Net-(U1-GPIO4{slash}MISO)*%
X105140000Y-42500000D03*
%TO.P,U1,11,GPIO3/MOSI*%
%TO.N,Net-(U1-GPIO3{slash}MOSI)*%
X105140000Y-39960000D03*
%TO.P,U1,12,3V3*%
%TO.N,+3.3V*%
X105140000Y-37420000D03*
%TO.P,U1,13,GND*%
%TO.N,GND*%
X105140000Y-34880000D03*
%TO.P,U1,14,VBUS*%
%TO.N,unconnected-(U1-VBUS-Pad14)*%
X105140000Y-32340000D03*
%TD*%
D17*
%TO.N,Net-(U1-GPIO4{slash}MISO)*%
X124540000Y-70540000D02*
X128380000Y-70540000D01*
X103500000Y-49500000D02*
X124540000Y-70540000D01*
X103500000Y-44140000D02*
X103500000Y-49500000D01*
X105140000Y-42500000D02*
X103500000Y-44140000D01*
%TO.N,Net-(U1-GPIO3{slash}MOSI)*%
X109160000Y-57660000D02*
X109160000Y-70540000D01*
X102500000Y-51000000D02*
X109160000Y-57660000D01*
X102500000Y-42600000D02*
X102500000Y-51000000D01*
X105140000Y-39960000D02*
X102500000Y-42600000D01*
%TO.N,Net-(U1-GPIO28{slash}ADC2{slash}A2)*%
X160500000Y-43000000D02*
X160750000Y-42750000D01*
X160750000Y-42750000D02*
X160750000Y-37500000D01*
X148000000Y-43000000D02*
X160500000Y-43000000D01*
X120380000Y-37420000D02*
X142420000Y-37420000D01*
X142420000Y-37420000D02*
X148000000Y-43000000D01*
%TO.N,Net-(U1-GPIO27{slash}ADC1{slash}A1)*%
X143630000Y-34880000D02*
X146250000Y-37500000D01*
X120380000Y-34880000D02*
X143630000Y-34880000D01*
%TO.N,Net-(U1-GPIO26{slash}ADC0{slash}A0)*%
X132660000Y-32500000D02*
X146250000Y-32500000D01*
X132500000Y-32340000D02*
X132660000Y-32500000D01*
X120380000Y-32340000D02*
X132500000Y-32340000D01*
%TO.N,Net-(J1-Pin_4)*%
X122000000Y-42500000D02*
X122500000Y-43000000D01*
X120380000Y-42500000D02*
X122000000Y-42500000D01*
X122500000Y-45500000D02*
X122500000Y-43000000D01*
X121897000Y-46103000D02*
X122500000Y-45500000D01*
X114908000Y-46103000D02*
X121897000Y-46103000D01*
X107615000Y-38810000D02*
X114908000Y-46103000D01*
%TO.N,Net-(J1-Pin_3)*%
X116385000Y-45040000D02*
X120380000Y-45040000D01*
X107615000Y-36270000D02*
X116385000Y-45040000D01*
%TO.N,+3.3V*%
X106464000Y-34881000D02*
X107615000Y-33730000D01*
X106464000Y-36096000D02*
X106464000Y-34881000D01*
X105140000Y-37420000D02*
X106464000Y-36096000D01*
%TO.N,GND*%
X105120000Y-34880000D02*
X105000000Y-35000000D01*
X105140000Y-34880000D02*
X105120000Y-34880000D01*
%TO.N,Net-(U1-GPIO1{slash}RX)*%
X147650000Y-68350000D02*
X147650000Y-70540000D01*
X120140000Y-62580000D02*
X141880000Y-62580000D01*
X105140000Y-47580000D02*
X120140000Y-62580000D01*
X141880000Y-62580000D02*
X147650000Y-68350000D01*
%TO.N,Net-(U1-GPIO2{slash}SCK)*%
X113340000Y-51040000D02*
X107340000Y-45040000D01*
X128330000Y-51040000D02*
X113340000Y-51040000D01*
X107340000Y-45040000D02*
X105140000Y-45040000D01*
%TD*%
M02*
