%TF.GenerationSoftware,KiCad,Pcbnew,9.0.7*%
%TF.CreationDate,2026-07-12T23:44:44+02:00*%
%TF.ProjectId,macro pad,6d616372-6f20-4706-9164-2e6b69636164,rev?*%
%TF.SameCoordinates,Original*%
%TF.FileFunction,Drillmap*%
%TF.FilePolarity,Positive*%
%FSLAX45Y45*%
G04 Gerber Fmt 4.5, Leading zero omitted, Abs format (unit mm)*
G04 Created by KiCad (PCBNEW 9.0.7) date 2026-07-12 23:44:44*
%MOMM*%
%LPD*%
G01*
G04 APERTURE LIST*
%ADD10C,0.050000*%
%ADD11C,0.200000*%
%ADD12C,0.170000*%
%ADD13C,0.400000*%
G04 APERTURE END LIST*
D10*
X10100000Y-2750000D02*
X16300000Y-2750000D01*
X10100000Y-8350000D02*
X10100000Y-2750000D01*
X10300000Y-8350000D02*
X10100000Y-8350000D01*
X16300000Y-8350000D02*
X10300000Y-8350000D01*
X16300000Y-2750000D02*
X16300000Y-8350000D01*
D11*
D12*
X10704000Y-7223000D02*
X10874000Y-7393000D01*
X10874000Y-7223000D02*
X10704000Y-7393000D01*
X11720000Y-7223000D02*
X11890000Y-7393000D01*
X11890000Y-7223000D02*
X11720000Y-7393000D01*
X12625000Y-5303000D02*
X12795000Y-5473000D01*
X12795000Y-5303000D02*
X12625000Y-5473000D01*
X12626000Y-7223000D02*
X12796000Y-7393000D01*
X12796000Y-7223000D02*
X12626000Y-7393000D01*
X13641000Y-5303000D02*
X13811000Y-5473000D01*
X13811000Y-5303000D02*
X13641000Y-5473000D01*
X13642000Y-7223000D02*
X13812000Y-7393000D01*
X13812000Y-7223000D02*
X13642000Y-7393000D01*
X14552000Y-7223000D02*
X14722000Y-7393000D01*
X14722000Y-7223000D02*
X14552000Y-7393000D01*
X15568000Y-7223000D02*
X15738000Y-7393000D01*
X15738000Y-7223000D02*
X15568000Y-7393000D01*
D13*
X11497000Y-7308000D02*
G75*
G02*
X11097000Y-7308000I-200000J0D01*
G01*
X11097000Y-7308000D02*
G75*
G02*
X11497000Y-7308000I200000J0D01*
G01*
X13418000Y-5388000D02*
G75*
G02*
X13018000Y-5388000I-200000J0D01*
G01*
X13018000Y-5388000D02*
G75*
G02*
X13418000Y-5388000I200000J0D01*
G01*
X13419000Y-7308000D02*
G75*
G02*
X13019000Y-7308000I-200000J0D01*
G01*
X13019000Y-7308000D02*
G75*
G02*
X13419000Y-7308000I200000J0D01*
G01*
X15345000Y-7308000D02*
G75*
G02*
X14945000Y-7308000I-200000J0D01*
G01*
X14945000Y-7308000D02*
G75*
G02*
X15345000Y-7308000I200000J0D01*
G01*
D11*
X10358277Y-8663984D02*
X10358277Y-8463984D01*
X10358277Y-8463984D02*
X10405896Y-8463984D01*
X10405896Y-8463984D02*
X10434467Y-8473508D01*
X10434467Y-8473508D02*
X10453515Y-8492555D01*
X10453515Y-8492555D02*
X10463039Y-8511603D01*
X10463039Y-8511603D02*
X10472563Y-8549698D01*
X10472563Y-8549698D02*
X10472563Y-8578270D01*
X10472563Y-8578270D02*
X10463039Y-8616365D01*
X10463039Y-8616365D02*
X10453515Y-8635412D01*
X10453515Y-8635412D02*
X10434467Y-8654460D01*
X10434467Y-8654460D02*
X10405896Y-8663984D01*
X10405896Y-8663984D02*
X10358277Y-8663984D01*
X10558277Y-8663984D02*
X10558277Y-8530650D01*
X10558277Y-8568746D02*
X10567801Y-8549698D01*
X10567801Y-8549698D02*
X10577324Y-8540174D01*
X10577324Y-8540174D02*
X10596372Y-8530650D01*
X10596372Y-8530650D02*
X10615420Y-8530650D01*
X10682086Y-8663984D02*
X10682086Y-8530650D01*
X10682086Y-8463984D02*
X10672563Y-8473508D01*
X10672563Y-8473508D02*
X10682086Y-8483031D01*
X10682086Y-8483031D02*
X10691610Y-8473508D01*
X10691610Y-8473508D02*
X10682086Y-8463984D01*
X10682086Y-8463984D02*
X10682086Y-8483031D01*
X10805896Y-8663984D02*
X10786848Y-8654460D01*
X10786848Y-8654460D02*
X10777324Y-8635412D01*
X10777324Y-8635412D02*
X10777324Y-8463984D01*
X10910658Y-8663984D02*
X10891610Y-8654460D01*
X10891610Y-8654460D02*
X10882086Y-8635412D01*
X10882086Y-8635412D02*
X10882086Y-8463984D01*
X11139229Y-8663984D02*
X11139229Y-8463984D01*
X11139229Y-8463984D02*
X11205896Y-8606841D01*
X11205896Y-8606841D02*
X11272562Y-8463984D01*
X11272562Y-8463984D02*
X11272562Y-8663984D01*
X11453515Y-8663984D02*
X11453515Y-8559222D01*
X11453515Y-8559222D02*
X11443991Y-8540174D01*
X11443991Y-8540174D02*
X11424943Y-8530650D01*
X11424943Y-8530650D02*
X11386848Y-8530650D01*
X11386848Y-8530650D02*
X11367801Y-8540174D01*
X11453515Y-8654460D02*
X11434467Y-8663984D01*
X11434467Y-8663984D02*
X11386848Y-8663984D01*
X11386848Y-8663984D02*
X11367801Y-8654460D01*
X11367801Y-8654460D02*
X11358277Y-8635412D01*
X11358277Y-8635412D02*
X11358277Y-8616365D01*
X11358277Y-8616365D02*
X11367801Y-8597317D01*
X11367801Y-8597317D02*
X11386848Y-8587793D01*
X11386848Y-8587793D02*
X11434467Y-8587793D01*
X11434467Y-8587793D02*
X11453515Y-8578270D01*
X11548753Y-8530650D02*
X11548753Y-8730650D01*
X11548753Y-8540174D02*
X11567801Y-8530650D01*
X11567801Y-8530650D02*
X11605896Y-8530650D01*
X11605896Y-8530650D02*
X11624943Y-8540174D01*
X11624943Y-8540174D02*
X11634467Y-8549698D01*
X11634467Y-8549698D02*
X11643991Y-8568746D01*
X11643991Y-8568746D02*
X11643991Y-8625889D01*
X11643991Y-8625889D02*
X11634467Y-8644936D01*
X11634467Y-8644936D02*
X11624943Y-8654460D01*
X11624943Y-8654460D02*
X11605896Y-8663984D01*
X11605896Y-8663984D02*
X11567801Y-8663984D01*
X11567801Y-8663984D02*
X11548753Y-8654460D01*
X11729705Y-8644936D02*
X11739229Y-8654460D01*
X11739229Y-8654460D02*
X11729705Y-8663984D01*
X11729705Y-8663984D02*
X11720182Y-8654460D01*
X11720182Y-8654460D02*
X11729705Y-8644936D01*
X11729705Y-8644936D02*
X11729705Y-8663984D01*
X11729705Y-8540174D02*
X11739229Y-8549698D01*
X11739229Y-8549698D02*
X11729705Y-8559222D01*
X11729705Y-8559222D02*
X11720182Y-8549698D01*
X11720182Y-8549698D02*
X11729705Y-8540174D01*
X11729705Y-8540174D02*
X11729705Y-8559222D01*
D12*
X9927500Y-8907500D02*
X10097500Y-9077500D01*
X10097500Y-8907500D02*
X9927500Y-9077500D01*
D11*
X10463039Y-9083984D02*
X10348753Y-9083984D01*
X10405896Y-9083984D02*
X10405896Y-8883984D01*
X10405896Y-8883984D02*
X10386848Y-8912555D01*
X10386848Y-8912555D02*
X10367801Y-8931603D01*
X10367801Y-8931603D02*
X10348753Y-8941127D01*
X10548753Y-9064936D02*
X10558277Y-9074460D01*
X10558277Y-9074460D02*
X10548753Y-9083984D01*
X10548753Y-9083984D02*
X10539229Y-9074460D01*
X10539229Y-9074460D02*
X10548753Y-9064936D01*
X10548753Y-9064936D02*
X10548753Y-9083984D01*
X10624944Y-8883984D02*
X10758277Y-8883984D01*
X10758277Y-8883984D02*
X10672563Y-9083984D01*
X10872563Y-8883984D02*
X10891610Y-8883984D01*
X10891610Y-8883984D02*
X10910658Y-8893508D01*
X10910658Y-8893508D02*
X10920182Y-8903031D01*
X10920182Y-8903031D02*
X10929705Y-8922079D01*
X10929705Y-8922079D02*
X10939229Y-8960174D01*
X10939229Y-8960174D02*
X10939229Y-9007793D01*
X10939229Y-9007793D02*
X10929705Y-9045889D01*
X10929705Y-9045889D02*
X10920182Y-9064936D01*
X10920182Y-9064936D02*
X10910658Y-9074460D01*
X10910658Y-9074460D02*
X10891610Y-9083984D01*
X10891610Y-9083984D02*
X10872563Y-9083984D01*
X10872563Y-9083984D02*
X10853515Y-9074460D01*
X10853515Y-9074460D02*
X10843991Y-9064936D01*
X10843991Y-9064936D02*
X10834467Y-9045889D01*
X10834467Y-9045889D02*
X10824944Y-9007793D01*
X10824944Y-9007793D02*
X10824944Y-8960174D01*
X10824944Y-8960174D02*
X10834467Y-8922079D01*
X10834467Y-8922079D02*
X10843991Y-8903031D01*
X10843991Y-8903031D02*
X10853515Y-8893508D01*
X10853515Y-8893508D02*
X10872563Y-8883984D01*
X11063039Y-8883984D02*
X11082086Y-8883984D01*
X11082086Y-8883984D02*
X11101134Y-8893508D01*
X11101134Y-8893508D02*
X11110658Y-8903031D01*
X11110658Y-8903031D02*
X11120182Y-8922079D01*
X11120182Y-8922079D02*
X11129705Y-8960174D01*
X11129705Y-8960174D02*
X11129705Y-9007793D01*
X11129705Y-9007793D02*
X11120182Y-9045889D01*
X11120182Y-9045889D02*
X11110658Y-9064936D01*
X11110658Y-9064936D02*
X11101134Y-9074460D01*
X11101134Y-9074460D02*
X11082086Y-9083984D01*
X11082086Y-9083984D02*
X11063039Y-9083984D01*
X11063039Y-9083984D02*
X11043991Y-9074460D01*
X11043991Y-9074460D02*
X11034467Y-9064936D01*
X11034467Y-9064936D02*
X11024944Y-9045889D01*
X11024944Y-9045889D02*
X11015420Y-9007793D01*
X11015420Y-9007793D02*
X11015420Y-8960174D01*
X11015420Y-8960174D02*
X11024944Y-8922079D01*
X11024944Y-8922079D02*
X11034467Y-8903031D01*
X11034467Y-8903031D02*
X11043991Y-8893508D01*
X11043991Y-8893508D02*
X11063039Y-8883984D01*
X11215420Y-9083984D02*
X11215420Y-8950650D01*
X11215420Y-8969698D02*
X11224943Y-8960174D01*
X11224943Y-8960174D02*
X11243991Y-8950650D01*
X11243991Y-8950650D02*
X11272563Y-8950650D01*
X11272563Y-8950650D02*
X11291610Y-8960174D01*
X11291610Y-8960174D02*
X11301134Y-8979222D01*
X11301134Y-8979222D02*
X11301134Y-9083984D01*
X11301134Y-8979222D02*
X11310658Y-8960174D01*
X11310658Y-8960174D02*
X11329705Y-8950650D01*
X11329705Y-8950650D02*
X11358277Y-8950650D01*
X11358277Y-8950650D02*
X11377324Y-8960174D01*
X11377324Y-8960174D02*
X11386848Y-8979222D01*
X11386848Y-8979222D02*
X11386848Y-9083984D01*
X11482086Y-9083984D02*
X11482086Y-8950650D01*
X11482086Y-8969698D02*
X11491610Y-8960174D01*
X11491610Y-8960174D02*
X11510658Y-8950650D01*
X11510658Y-8950650D02*
X11539229Y-8950650D01*
X11539229Y-8950650D02*
X11558277Y-8960174D01*
X11558277Y-8960174D02*
X11567801Y-8979222D01*
X11567801Y-8979222D02*
X11567801Y-9083984D01*
X11567801Y-8979222D02*
X11577324Y-8960174D01*
X11577324Y-8960174D02*
X11596372Y-8950650D01*
X11596372Y-8950650D02*
X11624943Y-8950650D01*
X11624943Y-8950650D02*
X11643991Y-8960174D01*
X11643991Y-8960174D02*
X11653515Y-8979222D01*
X11653515Y-8979222D02*
X11653515Y-9083984D01*
X12043991Y-8874460D02*
X11872563Y-9131603D01*
X12301134Y-8883984D02*
X12320182Y-8883984D01*
X12320182Y-8883984D02*
X12339229Y-8893508D01*
X12339229Y-8893508D02*
X12348753Y-8903031D01*
X12348753Y-8903031D02*
X12358277Y-8922079D01*
X12358277Y-8922079D02*
X12367801Y-8960174D01*
X12367801Y-8960174D02*
X12367801Y-9007793D01*
X12367801Y-9007793D02*
X12358277Y-9045889D01*
X12358277Y-9045889D02*
X12348753Y-9064936D01*
X12348753Y-9064936D02*
X12339229Y-9074460D01*
X12339229Y-9074460D02*
X12320182Y-9083984D01*
X12320182Y-9083984D02*
X12301134Y-9083984D01*
X12301134Y-9083984D02*
X12282086Y-9074460D01*
X12282086Y-9074460D02*
X12272563Y-9064936D01*
X12272563Y-9064936D02*
X12263039Y-9045889D01*
X12263039Y-9045889D02*
X12253515Y-9007793D01*
X12253515Y-9007793D02*
X12253515Y-8960174D01*
X12253515Y-8960174D02*
X12263039Y-8922079D01*
X12263039Y-8922079D02*
X12272563Y-8903031D01*
X12272563Y-8903031D02*
X12282086Y-8893508D01*
X12282086Y-8893508D02*
X12301134Y-8883984D01*
X12453515Y-9064936D02*
X12463039Y-9074460D01*
X12463039Y-9074460D02*
X12453515Y-9083984D01*
X12453515Y-9083984D02*
X12443991Y-9074460D01*
X12443991Y-9074460D02*
X12453515Y-9064936D01*
X12453515Y-9064936D02*
X12453515Y-9083984D01*
X12586848Y-8883984D02*
X12605896Y-8883984D01*
X12605896Y-8883984D02*
X12624944Y-8893508D01*
X12624944Y-8893508D02*
X12634467Y-8903031D01*
X12634467Y-8903031D02*
X12643991Y-8922079D01*
X12643991Y-8922079D02*
X12653515Y-8960174D01*
X12653515Y-8960174D02*
X12653515Y-9007793D01*
X12653515Y-9007793D02*
X12643991Y-9045889D01*
X12643991Y-9045889D02*
X12634467Y-9064936D01*
X12634467Y-9064936D02*
X12624944Y-9074460D01*
X12624944Y-9074460D02*
X12605896Y-9083984D01*
X12605896Y-9083984D02*
X12586848Y-9083984D01*
X12586848Y-9083984D02*
X12567801Y-9074460D01*
X12567801Y-9074460D02*
X12558277Y-9064936D01*
X12558277Y-9064936D02*
X12548753Y-9045889D01*
X12548753Y-9045889D02*
X12539229Y-9007793D01*
X12539229Y-9007793D02*
X12539229Y-8960174D01*
X12539229Y-8960174D02*
X12548753Y-8922079D01*
X12548753Y-8922079D02*
X12558277Y-8903031D01*
X12558277Y-8903031D02*
X12567801Y-8893508D01*
X12567801Y-8893508D02*
X12586848Y-8883984D01*
X12824944Y-8883984D02*
X12786848Y-8883984D01*
X12786848Y-8883984D02*
X12767801Y-8893508D01*
X12767801Y-8893508D02*
X12758277Y-8903031D01*
X12758277Y-8903031D02*
X12739229Y-8931603D01*
X12739229Y-8931603D02*
X12729706Y-8969698D01*
X12729706Y-8969698D02*
X12729706Y-9045889D01*
X12729706Y-9045889D02*
X12739229Y-9064936D01*
X12739229Y-9064936D02*
X12748753Y-9074460D01*
X12748753Y-9074460D02*
X12767801Y-9083984D01*
X12767801Y-9083984D02*
X12805896Y-9083984D01*
X12805896Y-9083984D02*
X12824944Y-9074460D01*
X12824944Y-9074460D02*
X12834467Y-9064936D01*
X12834467Y-9064936D02*
X12843991Y-9045889D01*
X12843991Y-9045889D02*
X12843991Y-8998270D01*
X12843991Y-8998270D02*
X12834467Y-8979222D01*
X12834467Y-8979222D02*
X12824944Y-8969698D01*
X12824944Y-8969698D02*
X12805896Y-8960174D01*
X12805896Y-8960174D02*
X12767801Y-8960174D01*
X12767801Y-8960174D02*
X12748753Y-8969698D01*
X12748753Y-8969698D02*
X12739229Y-8979222D01*
X12739229Y-8979222D02*
X12729706Y-8998270D01*
X13015420Y-8883984D02*
X12977325Y-8883984D01*
X12977325Y-8883984D02*
X12958277Y-8893508D01*
X12958277Y-8893508D02*
X12948753Y-8903031D01*
X12948753Y-8903031D02*
X12929706Y-8931603D01*
X12929706Y-8931603D02*
X12920182Y-8969698D01*
X12920182Y-8969698D02*
X12920182Y-9045889D01*
X12920182Y-9045889D02*
X12929706Y-9064936D01*
X12929706Y-9064936D02*
X12939229Y-9074460D01*
X12939229Y-9074460D02*
X12958277Y-9083984D01*
X12958277Y-9083984D02*
X12996372Y-9083984D01*
X12996372Y-9083984D02*
X13015420Y-9074460D01*
X13015420Y-9074460D02*
X13024944Y-9064936D01*
X13024944Y-9064936D02*
X13034467Y-9045889D01*
X13034467Y-9045889D02*
X13034467Y-8998270D01*
X13034467Y-8998270D02*
X13024944Y-8979222D01*
X13024944Y-8979222D02*
X13015420Y-8969698D01*
X13015420Y-8969698D02*
X12996372Y-8960174D01*
X12996372Y-8960174D02*
X12958277Y-8960174D01*
X12958277Y-8960174D02*
X12939229Y-8969698D01*
X12939229Y-8969698D02*
X12929706Y-8979222D01*
X12929706Y-8979222D02*
X12920182Y-8998270D01*
X13129706Y-9083984D02*
X13167801Y-9083984D01*
X13167801Y-9083984D02*
X13186848Y-9074460D01*
X13186848Y-9074460D02*
X13196372Y-9064936D01*
X13196372Y-9064936D02*
X13215420Y-9036365D01*
X13215420Y-9036365D02*
X13224944Y-8998270D01*
X13224944Y-8998270D02*
X13224944Y-8922079D01*
X13224944Y-8922079D02*
X13215420Y-8903031D01*
X13215420Y-8903031D02*
X13205896Y-8893508D01*
X13205896Y-8893508D02*
X13186848Y-8883984D01*
X13186848Y-8883984D02*
X13148753Y-8883984D01*
X13148753Y-8883984D02*
X13129706Y-8893508D01*
X13129706Y-8893508D02*
X13120182Y-8903031D01*
X13120182Y-8903031D02*
X13110658Y-8922079D01*
X13110658Y-8922079D02*
X13110658Y-8969698D01*
X13110658Y-8969698D02*
X13120182Y-8988746D01*
X13120182Y-8988746D02*
X13129706Y-8998270D01*
X13129706Y-8998270D02*
X13148753Y-9007793D01*
X13148753Y-9007793D02*
X13186848Y-9007793D01*
X13186848Y-9007793D02*
X13205896Y-8998270D01*
X13205896Y-8998270D02*
X13215420Y-8988746D01*
X13215420Y-8988746D02*
X13224944Y-8969698D01*
X13301134Y-8883984D02*
X13301134Y-8922079D01*
X13377325Y-8883984D02*
X13377325Y-8922079D01*
X13672563Y-9160174D02*
X13663039Y-9150650D01*
X13663039Y-9150650D02*
X13643991Y-9122079D01*
X13643991Y-9122079D02*
X13634468Y-9103031D01*
X13634468Y-9103031D02*
X13624944Y-9074460D01*
X13624944Y-9074460D02*
X13615420Y-9026841D01*
X13615420Y-9026841D02*
X13615420Y-8988746D01*
X13615420Y-8988746D02*
X13624944Y-8941127D01*
X13624944Y-8941127D02*
X13634468Y-8912555D01*
X13634468Y-8912555D02*
X13643991Y-8893508D01*
X13643991Y-8893508D02*
X13663039Y-8864936D01*
X13663039Y-8864936D02*
X13672563Y-8855412D01*
X13777325Y-8969698D02*
X13758277Y-8960174D01*
X13758277Y-8960174D02*
X13748753Y-8950650D01*
X13748753Y-8950650D02*
X13739229Y-8931603D01*
X13739229Y-8931603D02*
X13739229Y-8922079D01*
X13739229Y-8922079D02*
X13748753Y-8903031D01*
X13748753Y-8903031D02*
X13758277Y-8893508D01*
X13758277Y-8893508D02*
X13777325Y-8883984D01*
X13777325Y-8883984D02*
X13815420Y-8883984D01*
X13815420Y-8883984D02*
X13834468Y-8893508D01*
X13834468Y-8893508D02*
X13843991Y-8903031D01*
X13843991Y-8903031D02*
X13853515Y-8922079D01*
X13853515Y-8922079D02*
X13853515Y-8931603D01*
X13853515Y-8931603D02*
X13843991Y-8950650D01*
X13843991Y-8950650D02*
X13834468Y-8960174D01*
X13834468Y-8960174D02*
X13815420Y-8969698D01*
X13815420Y-8969698D02*
X13777325Y-8969698D01*
X13777325Y-8969698D02*
X13758277Y-8979222D01*
X13758277Y-8979222D02*
X13748753Y-8988746D01*
X13748753Y-8988746D02*
X13739229Y-9007793D01*
X13739229Y-9007793D02*
X13739229Y-9045889D01*
X13739229Y-9045889D02*
X13748753Y-9064936D01*
X13748753Y-9064936D02*
X13758277Y-9074460D01*
X13758277Y-9074460D02*
X13777325Y-9083984D01*
X13777325Y-9083984D02*
X13815420Y-9083984D01*
X13815420Y-9083984D02*
X13834468Y-9074460D01*
X13834468Y-9074460D02*
X13843991Y-9064936D01*
X13843991Y-9064936D02*
X13853515Y-9045889D01*
X13853515Y-9045889D02*
X13853515Y-9007793D01*
X13853515Y-9007793D02*
X13843991Y-8988746D01*
X13843991Y-8988746D02*
X13834468Y-8979222D01*
X13834468Y-8979222D02*
X13815420Y-8969698D01*
X14091610Y-9083984D02*
X14091610Y-8883984D01*
X14177325Y-9083984D02*
X14177325Y-8979222D01*
X14177325Y-8979222D02*
X14167801Y-8960174D01*
X14167801Y-8960174D02*
X14148753Y-8950650D01*
X14148753Y-8950650D02*
X14120182Y-8950650D01*
X14120182Y-8950650D02*
X14101134Y-8960174D01*
X14101134Y-8960174D02*
X14091610Y-8969698D01*
X14301134Y-9083984D02*
X14282087Y-9074460D01*
X14282087Y-9074460D02*
X14272563Y-9064936D01*
X14272563Y-9064936D02*
X14263039Y-9045889D01*
X14263039Y-9045889D02*
X14263039Y-8988746D01*
X14263039Y-8988746D02*
X14272563Y-8969698D01*
X14272563Y-8969698D02*
X14282087Y-8960174D01*
X14282087Y-8960174D02*
X14301134Y-8950650D01*
X14301134Y-8950650D02*
X14329706Y-8950650D01*
X14329706Y-8950650D02*
X14348753Y-8960174D01*
X14348753Y-8960174D02*
X14358277Y-8969698D01*
X14358277Y-8969698D02*
X14367801Y-8988746D01*
X14367801Y-8988746D02*
X14367801Y-9045889D01*
X14367801Y-9045889D02*
X14358277Y-9064936D01*
X14358277Y-9064936D02*
X14348753Y-9074460D01*
X14348753Y-9074460D02*
X14329706Y-9083984D01*
X14329706Y-9083984D02*
X14301134Y-9083984D01*
X14482087Y-9083984D02*
X14463039Y-9074460D01*
X14463039Y-9074460D02*
X14453515Y-9055412D01*
X14453515Y-9055412D02*
X14453515Y-8883984D01*
X14634468Y-9074460D02*
X14615420Y-9083984D01*
X14615420Y-9083984D02*
X14577325Y-9083984D01*
X14577325Y-9083984D02*
X14558277Y-9074460D01*
X14558277Y-9074460D02*
X14548753Y-9055412D01*
X14548753Y-9055412D02*
X14548753Y-8979222D01*
X14548753Y-8979222D02*
X14558277Y-8960174D01*
X14558277Y-8960174D02*
X14577325Y-8950650D01*
X14577325Y-8950650D02*
X14615420Y-8950650D01*
X14615420Y-8950650D02*
X14634468Y-8960174D01*
X14634468Y-8960174D02*
X14643991Y-8979222D01*
X14643991Y-8979222D02*
X14643991Y-8998270D01*
X14643991Y-8998270D02*
X14548753Y-9017317D01*
X14720182Y-9074460D02*
X14739230Y-9083984D01*
X14739230Y-9083984D02*
X14777325Y-9083984D01*
X14777325Y-9083984D02*
X14796372Y-9074460D01*
X14796372Y-9074460D02*
X14805896Y-9055412D01*
X14805896Y-9055412D02*
X14805896Y-9045889D01*
X14805896Y-9045889D02*
X14796372Y-9026841D01*
X14796372Y-9026841D02*
X14777325Y-9017317D01*
X14777325Y-9017317D02*
X14748753Y-9017317D01*
X14748753Y-9017317D02*
X14729706Y-9007793D01*
X14729706Y-9007793D02*
X14720182Y-8988746D01*
X14720182Y-8988746D02*
X14720182Y-8979222D01*
X14720182Y-8979222D02*
X14729706Y-8960174D01*
X14729706Y-8960174D02*
X14748753Y-8950650D01*
X14748753Y-8950650D02*
X14777325Y-8950650D01*
X14777325Y-8950650D02*
X14796372Y-8960174D01*
X14872563Y-9160174D02*
X14882087Y-9150650D01*
X14882087Y-9150650D02*
X14901134Y-9122079D01*
X14901134Y-9122079D02*
X14910658Y-9103031D01*
X14910658Y-9103031D02*
X14920182Y-9074460D01*
X14920182Y-9074460D02*
X14929706Y-9026841D01*
X14929706Y-9026841D02*
X14929706Y-8988746D01*
X14929706Y-8988746D02*
X14920182Y-8941127D01*
X14920182Y-8941127D02*
X14910658Y-8912555D01*
X14910658Y-8912555D02*
X14901134Y-8893508D01*
X14901134Y-8893508D02*
X14882087Y-8864936D01*
X14882087Y-8864936D02*
X14872563Y-8855412D01*
X15234468Y-9160174D02*
X15224944Y-9150650D01*
X15224944Y-9150650D02*
X15205896Y-9122079D01*
X15205896Y-9122079D02*
X15196372Y-9103031D01*
X15196372Y-9103031D02*
X15186849Y-9074460D01*
X15186849Y-9074460D02*
X15177325Y-9026841D01*
X15177325Y-9026841D02*
X15177325Y-8988746D01*
X15177325Y-8988746D02*
X15186849Y-8941127D01*
X15186849Y-8941127D02*
X15196372Y-8912555D01*
X15196372Y-8912555D02*
X15205896Y-8893508D01*
X15205896Y-8893508D02*
X15224944Y-8864936D01*
X15224944Y-8864936D02*
X15234468Y-8855412D01*
X15310658Y-8950650D02*
X15310658Y-9083984D01*
X15310658Y-8969698D02*
X15320182Y-8960174D01*
X15320182Y-8960174D02*
X15339230Y-8950650D01*
X15339230Y-8950650D02*
X15367801Y-8950650D01*
X15367801Y-8950650D02*
X15386849Y-8960174D01*
X15386849Y-8960174D02*
X15396372Y-8979222D01*
X15396372Y-8979222D02*
X15396372Y-9083984D01*
X15520182Y-9083984D02*
X15501134Y-9074460D01*
X15501134Y-9074460D02*
X15491611Y-9064936D01*
X15491611Y-9064936D02*
X15482087Y-9045889D01*
X15482087Y-9045889D02*
X15482087Y-8988746D01*
X15482087Y-8988746D02*
X15491611Y-8969698D01*
X15491611Y-8969698D02*
X15501134Y-8960174D01*
X15501134Y-8960174D02*
X15520182Y-8950650D01*
X15520182Y-8950650D02*
X15548753Y-8950650D01*
X15548753Y-8950650D02*
X15567801Y-8960174D01*
X15567801Y-8960174D02*
X15577325Y-8969698D01*
X15577325Y-8969698D02*
X15586849Y-8988746D01*
X15586849Y-8988746D02*
X15586849Y-9045889D01*
X15586849Y-9045889D02*
X15577325Y-9064936D01*
X15577325Y-9064936D02*
X15567801Y-9074460D01*
X15567801Y-9074460D02*
X15548753Y-9083984D01*
X15548753Y-9083984D02*
X15520182Y-9083984D01*
X15643992Y-8950650D02*
X15720182Y-8950650D01*
X15672563Y-8883984D02*
X15672563Y-9055412D01*
X15672563Y-9055412D02*
X15682087Y-9074460D01*
X15682087Y-9074460D02*
X15701134Y-9083984D01*
X15701134Y-9083984D02*
X15720182Y-9083984D01*
X15939230Y-8950650D02*
X15939230Y-9150650D01*
X15939230Y-8960174D02*
X15958277Y-8950650D01*
X15958277Y-8950650D02*
X15996373Y-8950650D01*
X15996373Y-8950650D02*
X16015420Y-8960174D01*
X16015420Y-8960174D02*
X16024944Y-8969698D01*
X16024944Y-8969698D02*
X16034468Y-8988746D01*
X16034468Y-8988746D02*
X16034468Y-9045889D01*
X16034468Y-9045889D02*
X16024944Y-9064936D01*
X16024944Y-9064936D02*
X16015420Y-9074460D01*
X16015420Y-9074460D02*
X15996373Y-9083984D01*
X15996373Y-9083984D02*
X15958277Y-9083984D01*
X15958277Y-9083984D02*
X15939230Y-9074460D01*
X16148753Y-9083984D02*
X16129706Y-9074460D01*
X16129706Y-9074460D02*
X16120182Y-9055412D01*
X16120182Y-9055412D02*
X16120182Y-8883984D01*
X16310658Y-9083984D02*
X16310658Y-8979222D01*
X16310658Y-8979222D02*
X16301134Y-8960174D01*
X16301134Y-8960174D02*
X16282087Y-8950650D01*
X16282087Y-8950650D02*
X16243992Y-8950650D01*
X16243992Y-8950650D02*
X16224944Y-8960174D01*
X16310658Y-9074460D02*
X16291611Y-9083984D01*
X16291611Y-9083984D02*
X16243992Y-9083984D01*
X16243992Y-9083984D02*
X16224944Y-9074460D01*
X16224944Y-9074460D02*
X16215420Y-9055412D01*
X16215420Y-9055412D02*
X16215420Y-9036365D01*
X16215420Y-9036365D02*
X16224944Y-9017317D01*
X16224944Y-9017317D02*
X16243992Y-9007793D01*
X16243992Y-9007793D02*
X16291611Y-9007793D01*
X16291611Y-9007793D02*
X16310658Y-8998270D01*
X16377325Y-8950650D02*
X16453515Y-8950650D01*
X16405896Y-8883984D02*
X16405896Y-9055412D01*
X16405896Y-9055412D02*
X16415420Y-9074460D01*
X16415420Y-9074460D02*
X16434468Y-9083984D01*
X16434468Y-9083984D02*
X16453515Y-9083984D01*
X16596373Y-9074460D02*
X16577325Y-9083984D01*
X16577325Y-9083984D02*
X16539230Y-9083984D01*
X16539230Y-9083984D02*
X16520182Y-9074460D01*
X16520182Y-9074460D02*
X16510658Y-9055412D01*
X16510658Y-9055412D02*
X16510658Y-8979222D01*
X16510658Y-8979222D02*
X16520182Y-8960174D01*
X16520182Y-8960174D02*
X16539230Y-8950650D01*
X16539230Y-8950650D02*
X16577325Y-8950650D01*
X16577325Y-8950650D02*
X16596373Y-8960174D01*
X16596373Y-8960174D02*
X16605896Y-8979222D01*
X16605896Y-8979222D02*
X16605896Y-8998270D01*
X16605896Y-8998270D02*
X16510658Y-9017317D01*
X16777325Y-9083984D02*
X16777325Y-8883984D01*
X16777325Y-9074460D02*
X16758277Y-9083984D01*
X16758277Y-9083984D02*
X16720182Y-9083984D01*
X16720182Y-9083984D02*
X16701134Y-9074460D01*
X16701134Y-9074460D02*
X16691611Y-9064936D01*
X16691611Y-9064936D02*
X16682087Y-9045889D01*
X16682087Y-9045889D02*
X16682087Y-8988746D01*
X16682087Y-8988746D02*
X16691611Y-8969698D01*
X16691611Y-8969698D02*
X16701134Y-8960174D01*
X16701134Y-8960174D02*
X16720182Y-8950650D01*
X16720182Y-8950650D02*
X16758277Y-8950650D01*
X16758277Y-8950650D02*
X16777325Y-8960174D01*
X16853516Y-9160174D02*
X16863039Y-9150650D01*
X16863039Y-9150650D02*
X16882087Y-9122079D01*
X16882087Y-9122079D02*
X16891611Y-9103031D01*
X16891611Y-9103031D02*
X16901135Y-9074460D01*
X16901135Y-9074460D02*
X16910658Y-9026841D01*
X16910658Y-9026841D02*
X16910658Y-8988746D01*
X16910658Y-8988746D02*
X16901135Y-8941127D01*
X16901135Y-8941127D02*
X16891611Y-8912555D01*
X16891611Y-8912555D02*
X16882087Y-8893508D01*
X16882087Y-8893508D02*
X16863039Y-8864936D01*
X16863039Y-8864936D02*
X16853516Y-8855412D01*
X10097500Y-9282500D02*
G75*
G02*
X9897500Y-9282500I-100000J0D01*
G01*
X9897500Y-9282500D02*
G75*
G02*
X10097500Y-9282500I100000J0D01*
G01*
X10443991Y-9240650D02*
X10443991Y-9373984D01*
X10396372Y-9164460D02*
X10348753Y-9307317D01*
X10348753Y-9307317D02*
X10472563Y-9307317D01*
X10548753Y-9354936D02*
X10558277Y-9364460D01*
X10558277Y-9364460D02*
X10548753Y-9373984D01*
X10548753Y-9373984D02*
X10539229Y-9364460D01*
X10539229Y-9364460D02*
X10548753Y-9354936D01*
X10548753Y-9354936D02*
X10548753Y-9373984D01*
X10682086Y-9173984D02*
X10701134Y-9173984D01*
X10701134Y-9173984D02*
X10720182Y-9183508D01*
X10720182Y-9183508D02*
X10729705Y-9193031D01*
X10729705Y-9193031D02*
X10739229Y-9212079D01*
X10739229Y-9212079D02*
X10748753Y-9250174D01*
X10748753Y-9250174D02*
X10748753Y-9297793D01*
X10748753Y-9297793D02*
X10739229Y-9335889D01*
X10739229Y-9335889D02*
X10729705Y-9354936D01*
X10729705Y-9354936D02*
X10720182Y-9364460D01*
X10720182Y-9364460D02*
X10701134Y-9373984D01*
X10701134Y-9373984D02*
X10682086Y-9373984D01*
X10682086Y-9373984D02*
X10663039Y-9364460D01*
X10663039Y-9364460D02*
X10653515Y-9354936D01*
X10653515Y-9354936D02*
X10643991Y-9335889D01*
X10643991Y-9335889D02*
X10634467Y-9297793D01*
X10634467Y-9297793D02*
X10634467Y-9250174D01*
X10634467Y-9250174D02*
X10643991Y-9212079D01*
X10643991Y-9212079D02*
X10653515Y-9193031D01*
X10653515Y-9193031D02*
X10663039Y-9183508D01*
X10663039Y-9183508D02*
X10682086Y-9173984D01*
X10872563Y-9173984D02*
X10891610Y-9173984D01*
X10891610Y-9173984D02*
X10910658Y-9183508D01*
X10910658Y-9183508D02*
X10920182Y-9193031D01*
X10920182Y-9193031D02*
X10929705Y-9212079D01*
X10929705Y-9212079D02*
X10939229Y-9250174D01*
X10939229Y-9250174D02*
X10939229Y-9297793D01*
X10939229Y-9297793D02*
X10929705Y-9335889D01*
X10929705Y-9335889D02*
X10920182Y-9354936D01*
X10920182Y-9354936D02*
X10910658Y-9364460D01*
X10910658Y-9364460D02*
X10891610Y-9373984D01*
X10891610Y-9373984D02*
X10872563Y-9373984D01*
X10872563Y-9373984D02*
X10853515Y-9364460D01*
X10853515Y-9364460D02*
X10843991Y-9354936D01*
X10843991Y-9354936D02*
X10834467Y-9335889D01*
X10834467Y-9335889D02*
X10824944Y-9297793D01*
X10824944Y-9297793D02*
X10824944Y-9250174D01*
X10824944Y-9250174D02*
X10834467Y-9212079D01*
X10834467Y-9212079D02*
X10843991Y-9193031D01*
X10843991Y-9193031D02*
X10853515Y-9183508D01*
X10853515Y-9183508D02*
X10872563Y-9173984D01*
X11063039Y-9173984D02*
X11082086Y-9173984D01*
X11082086Y-9173984D02*
X11101134Y-9183508D01*
X11101134Y-9183508D02*
X11110658Y-9193031D01*
X11110658Y-9193031D02*
X11120182Y-9212079D01*
X11120182Y-9212079D02*
X11129705Y-9250174D01*
X11129705Y-9250174D02*
X11129705Y-9297793D01*
X11129705Y-9297793D02*
X11120182Y-9335889D01*
X11120182Y-9335889D02*
X11110658Y-9354936D01*
X11110658Y-9354936D02*
X11101134Y-9364460D01*
X11101134Y-9364460D02*
X11082086Y-9373984D01*
X11082086Y-9373984D02*
X11063039Y-9373984D01*
X11063039Y-9373984D02*
X11043991Y-9364460D01*
X11043991Y-9364460D02*
X11034467Y-9354936D01*
X11034467Y-9354936D02*
X11024944Y-9335889D01*
X11024944Y-9335889D02*
X11015420Y-9297793D01*
X11015420Y-9297793D02*
X11015420Y-9250174D01*
X11015420Y-9250174D02*
X11024944Y-9212079D01*
X11024944Y-9212079D02*
X11034467Y-9193031D01*
X11034467Y-9193031D02*
X11043991Y-9183508D01*
X11043991Y-9183508D02*
X11063039Y-9173984D01*
X11215420Y-9373984D02*
X11215420Y-9240650D01*
X11215420Y-9259698D02*
X11224943Y-9250174D01*
X11224943Y-9250174D02*
X11243991Y-9240650D01*
X11243991Y-9240650D02*
X11272563Y-9240650D01*
X11272563Y-9240650D02*
X11291610Y-9250174D01*
X11291610Y-9250174D02*
X11301134Y-9269222D01*
X11301134Y-9269222D02*
X11301134Y-9373984D01*
X11301134Y-9269222D02*
X11310658Y-9250174D01*
X11310658Y-9250174D02*
X11329705Y-9240650D01*
X11329705Y-9240650D02*
X11358277Y-9240650D01*
X11358277Y-9240650D02*
X11377324Y-9250174D01*
X11377324Y-9250174D02*
X11386848Y-9269222D01*
X11386848Y-9269222D02*
X11386848Y-9373984D01*
X11482086Y-9373984D02*
X11482086Y-9240650D01*
X11482086Y-9259698D02*
X11491610Y-9250174D01*
X11491610Y-9250174D02*
X11510658Y-9240650D01*
X11510658Y-9240650D02*
X11539229Y-9240650D01*
X11539229Y-9240650D02*
X11558277Y-9250174D01*
X11558277Y-9250174D02*
X11567801Y-9269222D01*
X11567801Y-9269222D02*
X11567801Y-9373984D01*
X11567801Y-9269222D02*
X11577324Y-9250174D01*
X11577324Y-9250174D02*
X11596372Y-9240650D01*
X11596372Y-9240650D02*
X11624943Y-9240650D01*
X11624943Y-9240650D02*
X11643991Y-9250174D01*
X11643991Y-9250174D02*
X11653515Y-9269222D01*
X11653515Y-9269222D02*
X11653515Y-9373984D01*
X12043991Y-9164460D02*
X11872563Y-9421603D01*
X12301134Y-9173984D02*
X12320182Y-9173984D01*
X12320182Y-9173984D02*
X12339229Y-9183508D01*
X12339229Y-9183508D02*
X12348753Y-9193031D01*
X12348753Y-9193031D02*
X12358277Y-9212079D01*
X12358277Y-9212079D02*
X12367801Y-9250174D01*
X12367801Y-9250174D02*
X12367801Y-9297793D01*
X12367801Y-9297793D02*
X12358277Y-9335889D01*
X12358277Y-9335889D02*
X12348753Y-9354936D01*
X12348753Y-9354936D02*
X12339229Y-9364460D01*
X12339229Y-9364460D02*
X12320182Y-9373984D01*
X12320182Y-9373984D02*
X12301134Y-9373984D01*
X12301134Y-9373984D02*
X12282086Y-9364460D01*
X12282086Y-9364460D02*
X12272563Y-9354936D01*
X12272563Y-9354936D02*
X12263039Y-9335889D01*
X12263039Y-9335889D02*
X12253515Y-9297793D01*
X12253515Y-9297793D02*
X12253515Y-9250174D01*
X12253515Y-9250174D02*
X12263039Y-9212079D01*
X12263039Y-9212079D02*
X12272563Y-9193031D01*
X12272563Y-9193031D02*
X12282086Y-9183508D01*
X12282086Y-9183508D02*
X12301134Y-9173984D01*
X12453515Y-9354936D02*
X12463039Y-9364460D01*
X12463039Y-9364460D02*
X12453515Y-9373984D01*
X12453515Y-9373984D02*
X12443991Y-9364460D01*
X12443991Y-9364460D02*
X12453515Y-9354936D01*
X12453515Y-9354936D02*
X12453515Y-9373984D01*
X12653515Y-9373984D02*
X12539229Y-9373984D01*
X12596372Y-9373984D02*
X12596372Y-9173984D01*
X12596372Y-9173984D02*
X12577325Y-9202555D01*
X12577325Y-9202555D02*
X12558277Y-9221603D01*
X12558277Y-9221603D02*
X12539229Y-9231127D01*
X12834467Y-9173984D02*
X12739229Y-9173984D01*
X12739229Y-9173984D02*
X12729706Y-9269222D01*
X12729706Y-9269222D02*
X12739229Y-9259698D01*
X12739229Y-9259698D02*
X12758277Y-9250174D01*
X12758277Y-9250174D02*
X12805896Y-9250174D01*
X12805896Y-9250174D02*
X12824944Y-9259698D01*
X12824944Y-9259698D02*
X12834467Y-9269222D01*
X12834467Y-9269222D02*
X12843991Y-9288270D01*
X12843991Y-9288270D02*
X12843991Y-9335889D01*
X12843991Y-9335889D02*
X12834467Y-9354936D01*
X12834467Y-9354936D02*
X12824944Y-9364460D01*
X12824944Y-9364460D02*
X12805896Y-9373984D01*
X12805896Y-9373984D02*
X12758277Y-9373984D01*
X12758277Y-9373984D02*
X12739229Y-9364460D01*
X12739229Y-9364460D02*
X12729706Y-9354936D01*
X12910658Y-9173984D02*
X13043991Y-9173984D01*
X13043991Y-9173984D02*
X12958277Y-9373984D01*
X13215420Y-9173984D02*
X13120182Y-9173984D01*
X13120182Y-9173984D02*
X13110658Y-9269222D01*
X13110658Y-9269222D02*
X13120182Y-9259698D01*
X13120182Y-9259698D02*
X13139229Y-9250174D01*
X13139229Y-9250174D02*
X13186848Y-9250174D01*
X13186848Y-9250174D02*
X13205896Y-9259698D01*
X13205896Y-9259698D02*
X13215420Y-9269222D01*
X13215420Y-9269222D02*
X13224944Y-9288270D01*
X13224944Y-9288270D02*
X13224944Y-9335889D01*
X13224944Y-9335889D02*
X13215420Y-9354936D01*
X13215420Y-9354936D02*
X13205896Y-9364460D01*
X13205896Y-9364460D02*
X13186848Y-9373984D01*
X13186848Y-9373984D02*
X13139229Y-9373984D01*
X13139229Y-9373984D02*
X13120182Y-9364460D01*
X13120182Y-9364460D02*
X13110658Y-9354936D01*
X13301134Y-9173984D02*
X13301134Y-9212079D01*
X13377325Y-9173984D02*
X13377325Y-9212079D01*
X13672563Y-9450174D02*
X13663039Y-9440650D01*
X13663039Y-9440650D02*
X13643991Y-9412079D01*
X13643991Y-9412079D02*
X13634468Y-9393031D01*
X13634468Y-9393031D02*
X13624944Y-9364460D01*
X13624944Y-9364460D02*
X13615420Y-9316841D01*
X13615420Y-9316841D02*
X13615420Y-9278746D01*
X13615420Y-9278746D02*
X13624944Y-9231127D01*
X13624944Y-9231127D02*
X13634468Y-9202555D01*
X13634468Y-9202555D02*
X13643991Y-9183508D01*
X13643991Y-9183508D02*
X13663039Y-9154936D01*
X13663039Y-9154936D02*
X13672563Y-9145412D01*
X13834468Y-9240650D02*
X13834468Y-9373984D01*
X13786848Y-9164460D02*
X13739229Y-9307317D01*
X13739229Y-9307317D02*
X13863039Y-9307317D01*
X14091610Y-9373984D02*
X14091610Y-9173984D01*
X14177325Y-9373984D02*
X14177325Y-9269222D01*
X14177325Y-9269222D02*
X14167801Y-9250174D01*
X14167801Y-9250174D02*
X14148753Y-9240650D01*
X14148753Y-9240650D02*
X14120182Y-9240650D01*
X14120182Y-9240650D02*
X14101134Y-9250174D01*
X14101134Y-9250174D02*
X14091610Y-9259698D01*
X14301134Y-9373984D02*
X14282087Y-9364460D01*
X14282087Y-9364460D02*
X14272563Y-9354936D01*
X14272563Y-9354936D02*
X14263039Y-9335889D01*
X14263039Y-9335889D02*
X14263039Y-9278746D01*
X14263039Y-9278746D02*
X14272563Y-9259698D01*
X14272563Y-9259698D02*
X14282087Y-9250174D01*
X14282087Y-9250174D02*
X14301134Y-9240650D01*
X14301134Y-9240650D02*
X14329706Y-9240650D01*
X14329706Y-9240650D02*
X14348753Y-9250174D01*
X14348753Y-9250174D02*
X14358277Y-9259698D01*
X14358277Y-9259698D02*
X14367801Y-9278746D01*
X14367801Y-9278746D02*
X14367801Y-9335889D01*
X14367801Y-9335889D02*
X14358277Y-9354936D01*
X14358277Y-9354936D02*
X14348753Y-9364460D01*
X14348753Y-9364460D02*
X14329706Y-9373984D01*
X14329706Y-9373984D02*
X14301134Y-9373984D01*
X14482087Y-9373984D02*
X14463039Y-9364460D01*
X14463039Y-9364460D02*
X14453515Y-9345412D01*
X14453515Y-9345412D02*
X14453515Y-9173984D01*
X14634468Y-9364460D02*
X14615420Y-9373984D01*
X14615420Y-9373984D02*
X14577325Y-9373984D01*
X14577325Y-9373984D02*
X14558277Y-9364460D01*
X14558277Y-9364460D02*
X14548753Y-9345412D01*
X14548753Y-9345412D02*
X14548753Y-9269222D01*
X14548753Y-9269222D02*
X14558277Y-9250174D01*
X14558277Y-9250174D02*
X14577325Y-9240650D01*
X14577325Y-9240650D02*
X14615420Y-9240650D01*
X14615420Y-9240650D02*
X14634468Y-9250174D01*
X14634468Y-9250174D02*
X14643991Y-9269222D01*
X14643991Y-9269222D02*
X14643991Y-9288270D01*
X14643991Y-9288270D02*
X14548753Y-9307317D01*
X14720182Y-9364460D02*
X14739230Y-9373984D01*
X14739230Y-9373984D02*
X14777325Y-9373984D01*
X14777325Y-9373984D02*
X14796372Y-9364460D01*
X14796372Y-9364460D02*
X14805896Y-9345412D01*
X14805896Y-9345412D02*
X14805896Y-9335889D01*
X14805896Y-9335889D02*
X14796372Y-9316841D01*
X14796372Y-9316841D02*
X14777325Y-9307317D01*
X14777325Y-9307317D02*
X14748753Y-9307317D01*
X14748753Y-9307317D02*
X14729706Y-9297793D01*
X14729706Y-9297793D02*
X14720182Y-9278746D01*
X14720182Y-9278746D02*
X14720182Y-9269222D01*
X14720182Y-9269222D02*
X14729706Y-9250174D01*
X14729706Y-9250174D02*
X14748753Y-9240650D01*
X14748753Y-9240650D02*
X14777325Y-9240650D01*
X14777325Y-9240650D02*
X14796372Y-9250174D01*
X14872563Y-9450174D02*
X14882087Y-9440650D01*
X14882087Y-9440650D02*
X14901134Y-9412079D01*
X14901134Y-9412079D02*
X14910658Y-9393031D01*
X14910658Y-9393031D02*
X14920182Y-9364460D01*
X14920182Y-9364460D02*
X14929706Y-9316841D01*
X14929706Y-9316841D02*
X14929706Y-9278746D01*
X14929706Y-9278746D02*
X14920182Y-9231127D01*
X14920182Y-9231127D02*
X14910658Y-9202555D01*
X14910658Y-9202555D02*
X14901134Y-9183508D01*
X14901134Y-9183508D02*
X14882087Y-9154936D01*
X14882087Y-9154936D02*
X14872563Y-9145412D01*
X15234468Y-9450174D02*
X15224944Y-9440650D01*
X15224944Y-9440650D02*
X15205896Y-9412079D01*
X15205896Y-9412079D02*
X15196372Y-9393031D01*
X15196372Y-9393031D02*
X15186849Y-9364460D01*
X15186849Y-9364460D02*
X15177325Y-9316841D01*
X15177325Y-9316841D02*
X15177325Y-9278746D01*
X15177325Y-9278746D02*
X15186849Y-9231127D01*
X15186849Y-9231127D02*
X15196372Y-9202555D01*
X15196372Y-9202555D02*
X15205896Y-9183508D01*
X15205896Y-9183508D02*
X15224944Y-9154936D01*
X15224944Y-9154936D02*
X15234468Y-9145412D01*
X15310658Y-9240650D02*
X15310658Y-9373984D01*
X15310658Y-9259698D02*
X15320182Y-9250174D01*
X15320182Y-9250174D02*
X15339230Y-9240650D01*
X15339230Y-9240650D02*
X15367801Y-9240650D01*
X15367801Y-9240650D02*
X15386849Y-9250174D01*
X15386849Y-9250174D02*
X15396372Y-9269222D01*
X15396372Y-9269222D02*
X15396372Y-9373984D01*
X15520182Y-9373984D02*
X15501134Y-9364460D01*
X15501134Y-9364460D02*
X15491611Y-9354936D01*
X15491611Y-9354936D02*
X15482087Y-9335889D01*
X15482087Y-9335889D02*
X15482087Y-9278746D01*
X15482087Y-9278746D02*
X15491611Y-9259698D01*
X15491611Y-9259698D02*
X15501134Y-9250174D01*
X15501134Y-9250174D02*
X15520182Y-9240650D01*
X15520182Y-9240650D02*
X15548753Y-9240650D01*
X15548753Y-9240650D02*
X15567801Y-9250174D01*
X15567801Y-9250174D02*
X15577325Y-9259698D01*
X15577325Y-9259698D02*
X15586849Y-9278746D01*
X15586849Y-9278746D02*
X15586849Y-9335889D01*
X15586849Y-9335889D02*
X15577325Y-9354936D01*
X15577325Y-9354936D02*
X15567801Y-9364460D01*
X15567801Y-9364460D02*
X15548753Y-9373984D01*
X15548753Y-9373984D02*
X15520182Y-9373984D01*
X15643992Y-9240650D02*
X15720182Y-9240650D01*
X15672563Y-9173984D02*
X15672563Y-9345412D01*
X15672563Y-9345412D02*
X15682087Y-9364460D01*
X15682087Y-9364460D02*
X15701134Y-9373984D01*
X15701134Y-9373984D02*
X15720182Y-9373984D01*
X15939230Y-9240650D02*
X15939230Y-9440650D01*
X15939230Y-9250174D02*
X15958277Y-9240650D01*
X15958277Y-9240650D02*
X15996373Y-9240650D01*
X15996373Y-9240650D02*
X16015420Y-9250174D01*
X16015420Y-9250174D02*
X16024944Y-9259698D01*
X16024944Y-9259698D02*
X16034468Y-9278746D01*
X16034468Y-9278746D02*
X16034468Y-9335889D01*
X16034468Y-9335889D02*
X16024944Y-9354936D01*
X16024944Y-9354936D02*
X16015420Y-9364460D01*
X16015420Y-9364460D02*
X15996373Y-9373984D01*
X15996373Y-9373984D02*
X15958277Y-9373984D01*
X15958277Y-9373984D02*
X15939230Y-9364460D01*
X16148753Y-9373984D02*
X16129706Y-9364460D01*
X16129706Y-9364460D02*
X16120182Y-9345412D01*
X16120182Y-9345412D02*
X16120182Y-9173984D01*
X16310658Y-9373984D02*
X16310658Y-9269222D01*
X16310658Y-9269222D02*
X16301134Y-9250174D01*
X16301134Y-9250174D02*
X16282087Y-9240650D01*
X16282087Y-9240650D02*
X16243992Y-9240650D01*
X16243992Y-9240650D02*
X16224944Y-9250174D01*
X16310658Y-9364460D02*
X16291611Y-9373984D01*
X16291611Y-9373984D02*
X16243992Y-9373984D01*
X16243992Y-9373984D02*
X16224944Y-9364460D01*
X16224944Y-9364460D02*
X16215420Y-9345412D01*
X16215420Y-9345412D02*
X16215420Y-9326365D01*
X16215420Y-9326365D02*
X16224944Y-9307317D01*
X16224944Y-9307317D02*
X16243992Y-9297793D01*
X16243992Y-9297793D02*
X16291611Y-9297793D01*
X16291611Y-9297793D02*
X16310658Y-9288270D01*
X16377325Y-9240650D02*
X16453515Y-9240650D01*
X16405896Y-9173984D02*
X16405896Y-9345412D01*
X16405896Y-9345412D02*
X16415420Y-9364460D01*
X16415420Y-9364460D02*
X16434468Y-9373984D01*
X16434468Y-9373984D02*
X16453515Y-9373984D01*
X16596373Y-9364460D02*
X16577325Y-9373984D01*
X16577325Y-9373984D02*
X16539230Y-9373984D01*
X16539230Y-9373984D02*
X16520182Y-9364460D01*
X16520182Y-9364460D02*
X16510658Y-9345412D01*
X16510658Y-9345412D02*
X16510658Y-9269222D01*
X16510658Y-9269222D02*
X16520182Y-9250174D01*
X16520182Y-9250174D02*
X16539230Y-9240650D01*
X16539230Y-9240650D02*
X16577325Y-9240650D01*
X16577325Y-9240650D02*
X16596373Y-9250174D01*
X16596373Y-9250174D02*
X16605896Y-9269222D01*
X16605896Y-9269222D02*
X16605896Y-9288270D01*
X16605896Y-9288270D02*
X16510658Y-9307317D01*
X16777325Y-9373984D02*
X16777325Y-9173984D01*
X16777325Y-9364460D02*
X16758277Y-9373984D01*
X16758277Y-9373984D02*
X16720182Y-9373984D01*
X16720182Y-9373984D02*
X16701134Y-9364460D01*
X16701134Y-9364460D02*
X16691611Y-9354936D01*
X16691611Y-9354936D02*
X16682087Y-9335889D01*
X16682087Y-9335889D02*
X16682087Y-9278746D01*
X16682087Y-9278746D02*
X16691611Y-9259698D01*
X16691611Y-9259698D02*
X16701134Y-9250174D01*
X16701134Y-9250174D02*
X16720182Y-9240650D01*
X16720182Y-9240650D02*
X16758277Y-9240650D01*
X16758277Y-9240650D02*
X16777325Y-9250174D01*
X16853516Y-9450174D02*
X16863039Y-9440650D01*
X16863039Y-9440650D02*
X16882087Y-9412079D01*
X16882087Y-9412079D02*
X16891611Y-9393031D01*
X16891611Y-9393031D02*
X16901135Y-9364460D01*
X16901135Y-9364460D02*
X16910658Y-9316841D01*
X16910658Y-9316841D02*
X16910658Y-9278746D01*
X16910658Y-9278746D02*
X16901135Y-9231127D01*
X16901135Y-9231127D02*
X16891611Y-9202555D01*
X16891611Y-9202555D02*
X16882087Y-9183508D01*
X16882087Y-9183508D02*
X16863039Y-9154936D01*
X16863039Y-9154936D02*
X16853516Y-9145412D01*
M02*
