%TF.GenerationSoftware,KiCad,Pcbnew,9.0.7*%
%TF.CreationDate,2026-07-12T23:44:34+02:00*%
%TF.ProjectId,macro pad,6d616372-6f20-4706-9164-2e6b69636164,rev?*%
%TF.SameCoordinates,Original*%
%TF.FileFunction,Copper,L2,Bot*%
%TF.FilePolarity,Positive*%
%FSLAX46Y46*%
G04 Gerber Fmt 4.6, Leading zero omitted, Abs format (unit mm)*
G04 Created by KiCad (PCBNEW 9.0.7) date 2026-07-12 23:44:34*
%MOMM*%
%LPD*%
G01*
G04 APERTURE LIST*
G04 Aperture macros list*
%AMRoundRect*
0 Rectangle with rounded corners*
0 $1 Rounding radius*
0 $2 $3 $4 $5 $6 $7 $8 $9 X,Y pos of 4 corners*
0 Add a 4 corners polygon primitive as box body*
4,1,4,$2,$3,$4,$5,$6,$7,$8,$9,$2,$3,0*
0 Add four circle primitives for the rounded corners*
1,1,$1+$1,$2,$3*
1,1,$1+$1,$4,$5*
1,1,$1+$1,$6,$7*
1,1,$1+$1,$8,$9*
0 Add four rect primitives between the rounded corners*
20,1,$1+$1,$2,$3,$4,$5,0*
20,1,$1+$1,$4,$5,$6,$7,0*
20,1,$1+$1,$6,$7,$8,$9,0*
20,1,$1+$1,$8,$9,$2,$3,0*%
G04 Aperture macros list end*
%TA.AperFunction,ComponentPad*%
%ADD10C,2.000000*%
%TD*%
%TA.AperFunction,ComponentPad*%
%ADD11R,3.200000X2.000000*%
%TD*%
%TA.AperFunction,ComponentPad*%
%ADD12R,2.000000X2.000000*%
%TD*%
%TA.AperFunction,ComponentPad*%
%ADD13C,2.200000*%
%TD*%
%TA.AperFunction,ComponentPad*%
%ADD14R,1.700000X1.700000*%
%TD*%
%TA.AperFunction,ComponentPad*%
%ADD15C,1.700000*%
%TD*%
%TA.AperFunction,SMDPad,CuDef*%
%ADD16RoundRect,0.152400X-1.063600X-0.609600X1.063600X-0.609600X1.063600X0.609600X-1.063600X0.609600X0*%
%TD*%
%TA.AperFunction,ComponentPad*%
%ADD17C,1.524000*%
%TD*%
%TA.AperFunction,SMDPad,CuDef*%
%ADD18RoundRect,0.152400X1.063600X0.609600X-1.063600X0.609600X-1.063600X-0.609600X1.063600X-0.609600X0*%
%TD*%
%TA.AperFunction,Conductor*%
%ADD19C,0.200000*%
%TD*%
G04 APERTURE END LIST*
D10*
%TO.P,SW5,S2,S2*%
%TO.N,GND*%
X160750000Y-32500000D03*
%TO.P,SW5,S1,S1*%
%TO.N,Net-(U1-GPIO28{slash}ADC2{slash}A2)*%
X160750000Y-37500000D03*
D11*
%TO.P,SW5,MP*%
%TO.N,N/C*%
X153750000Y-40600000D03*
X153750000Y-29400000D03*
D10*
%TO.P,SW5,C,C*%
%TO.N,GND*%
X146250000Y-35000000D03*
%TO.P,SW5,B,B*%
%TO.N,Net-(U1-GPIO27{slash}ADC1{slash}A1)*%
X146250000Y-37500000D03*
D12*
%TO.P,SW5,A,A*%
%TO.N,Net-(U1-GPIO26{slash}ADC0{slash}A0)*%
X146250000Y-32500000D03*
%TD*%
D13*
%TO.P,SW4,2,2*%
%TO.N,Net-(U1-GPIO3{slash}MOSI)*%
X109160000Y-70540000D03*
%TO.P,SW4,1,1*%
%TO.N,GND*%
X115510000Y-68000000D03*
%TD*%
%TO.P,SW3,1,1*%
%TO.N,GND*%
X134730000Y-68000000D03*
%TO.P,SW3,2,2*%
%TO.N,Net-(U1-GPIO4{slash}MISO)*%
X128380000Y-70540000D03*
%TD*%
%TO.P,SW1,1,1*%
%TO.N,GND*%
X153990000Y-68000000D03*
%TO.P,SW1,2,2*%
%TO.N,Net-(U1-GPIO1{slash}RX)*%
X147640000Y-70540000D03*
%TD*%
%TO.P,SW2,1,1*%
%TO.N,GND*%
X134720000Y-48800000D03*
%TO.P,SW2,2,2*%
%TO.N,Net-(U1-GPIO2{slash}SCK)*%
X128370000Y-51340000D03*
%TD*%
D14*
%TO.P,J1,1,Pin_1*%
%TO.N,GND*%
X107615000Y-31190000D03*
D15*
%TO.P,J1,2,Pin_2*%
%TO.N,+3.3V*%
X107615000Y-33730000D03*
%TO.P,J1,3,Pin_3*%
%TO.N,Net-(J1-Pin_3)*%
X107615000Y-36270000D03*
%TO.P,J1,4,Pin_4*%
%TO.N,Net-(J1-Pin_4)*%
X107615000Y-38810000D03*
%TD*%
D16*
%TO.P,U1,1,GPIO26/ADC0/A0*%
%TO.N,Net-(U1-GPIO26{slash}ADC0{slash}A0)*%
X121215000Y-32340000D03*
D17*
X120380000Y-32340000D03*
D16*
%TO.P,U1,2,GPIO27/ADC1/A1*%
%TO.N,Net-(U1-GPIO27{slash}ADC1{slash}A1)*%
X121215000Y-34880000D03*
D17*
X120380000Y-34880000D03*
D16*
%TO.P,U1,3,GPIO28/ADC2/A2*%
%TO.N,Net-(U1-GPIO28{slash}ADC2{slash}A2)*%
X121215000Y-37420000D03*
D17*
X120380000Y-37420000D03*
D16*
%TO.P,U1,4,GPIO29/ADC3/A3*%
%TO.N,unconnected-(U1-GPIO29{slash}ADC3{slash}A3-Pad4)*%
X121215000Y-39960000D03*
D17*
X120380000Y-39960000D03*
D16*
%TO.P,U1,5,GPIO6/SDA*%
%TO.N,Net-(J1-Pin_4)*%
X121215000Y-42500000D03*
D17*
X120380000Y-42500000D03*
D16*
%TO.P,U1,6,GPIO7/SCL*%
%TO.N,Net-(J1-Pin_3)*%
X121215000Y-45040000D03*
D17*
X120380000Y-45040000D03*
D16*
%TO.P,U1,7,GPIO0/TX*%
%TO.N,unconnected-(U1-GPIO0{slash}TX-Pad7)*%
X121215000Y-47580000D03*
D17*
X120380000Y-47580000D03*
%TO.P,U1,8,GPIO1/RX*%
%TO.N,Net-(U1-GPIO1{slash}RX)*%
X105140000Y-47580000D03*
D18*
X104305000Y-47580000D03*
D17*
%TO.P,U1,9,GPIO2/SCK*%
%TO.N,Net-(U1-GPIO2{slash}SCK)*%
X105140000Y-45040000D03*
D18*
X104305000Y-45040000D03*
D17*
%TO.P,U1,10,GPIO4/MISO*%
%TO.N,Net-(U1-GPIO4{slash}MISO)*%
X105140000Y-42500000D03*
D18*
X104305000Y-42500000D03*
D17*
%TO.P,U1,11,GPIO3/MOSI*%
%TO.N,Net-(U1-GPIO3{slash}MOSI)*%
X105140000Y-39960000D03*
D18*
X104305000Y-39960000D03*
D17*
%TO.P,U1,12,3V3*%
%TO.N,+3.3V*%
X105140000Y-37420000D03*
D18*
X104305000Y-37420000D03*
D17*
%TO.P,U1,13,GND*%
%TO.N,GND*%
X105140000Y-34880000D03*
D18*
X104305000Y-34880000D03*
D17*
%TO.P,U1,14,VBUS*%
%TO.N,unconnected-(U1-VBUS-Pad14)*%
X105140000Y-32340000D03*
D18*
X104305000Y-32340000D03*
%TD*%
D19*
%TO.N,GND*%
X134680000Y-42500000D02*
X138750000Y-42500000D01*
X134680000Y-42500000D02*
X134680000Y-48500000D01*
X138750000Y-42500000D02*
X146250000Y-35000000D01*
X134720000Y-43220000D02*
X134720000Y-48800000D01*
X122690000Y-31190000D02*
X134720000Y-43220000D01*
X107615000Y-31190000D02*
X122690000Y-31190000D01*
X106203000Y-32602000D02*
X107615000Y-31190000D01*
X106203000Y-33817000D02*
X106203000Y-32602000D01*
X146250000Y-35000000D02*
X148750000Y-32500000D01*
X148750000Y-32500000D02*
X160750000Y-32500000D01*
X105140000Y-34880000D02*
X106203000Y-33817000D01*
X115340000Y-68000000D02*
X134730000Y-68000000D01*
X134730000Y-68000000D02*
X154000000Y-68000000D01*
X134680000Y-42040000D02*
X134680000Y-42500000D01*
X134730000Y-48550000D02*
X134680000Y-48500000D01*
X134730000Y-68000000D02*
X134730000Y-48550000D01*
%TD*%
%TA.AperFunction,Conductor*%
%TO.N,GND*%
G36*
X106192268Y-35578715D02*
G01*
X106241620Y-35574832D01*
X106309997Y-35589197D01*
X106359754Y-35638249D01*
X106375092Y-35706414D01*
X106364092Y-35746574D01*
X106365310Y-35747079D01*
X106363445Y-35751580D01*
X106297753Y-35953760D01*
X106264500Y-36163713D01*
X106264500Y-36376286D01*
X106276833Y-36454155D01*
X106267878Y-36523449D01*
X106222882Y-36576901D01*
X106156130Y-36597540D01*
X106088817Y-36578815D01*
X106066679Y-36561234D01*
X105962466Y-36457021D01*
X105962462Y-36457018D01*
X105882937Y-36399239D01*
X105876213Y-36393992D01*
X105872019Y-36390480D01*
X105771947Y-36290408D01*
X105705791Y-36251283D01*
X105698024Y-36244779D01*
X105684036Y-36223800D01*
X105666829Y-36205371D01*
X105664983Y-36195225D01*
X105659263Y-36186646D01*
X105658837Y-36161434D01*
X105654326Y-36136630D01*
X105658258Y-36127098D01*
X105658084Y-36116787D01*
X105671356Y-36095347D01*
X105680972Y-36072040D01*
X105691355Y-36063042D01*
X105694862Y-36057379D01*
X105701606Y-36054160D01*
X105714514Y-36042976D01*
X105771635Y-36009195D01*
X105843639Y-35937191D01*
X105224094Y-35317647D01*
X105311571Y-35294208D01*
X105412930Y-35235689D01*
X105495689Y-35152930D01*
X105554208Y-35051571D01*
X105577647Y-34964094D01*
X106192268Y-35578715D01*
G37*
%TD.AperFunction*%
%TA.AperFunction,Conductor*%
G36*
X106329594Y-33091540D02*
G01*
X106363951Y-33152379D01*
X106361105Y-33218783D01*
X106297753Y-33413759D01*
X106264500Y-33623713D01*
X106264500Y-33836286D01*
X106296137Y-34036037D01*
X106287182Y-34105331D01*
X106242186Y-34158783D01*
X106202497Y-34171054D01*
X105577647Y-34795904D01*
X105554208Y-34708429D01*
X105495689Y-34607070D01*
X105412930Y-34524311D01*
X105311571Y-34465792D01*
X105224093Y-34442352D01*
X105843639Y-33822807D01*
X105771639Y-33750807D01*
X105771634Y-33750803D01*
X105714513Y-33717022D01*
X105666829Y-33665953D01*
X105654326Y-33597211D01*
X105680972Y-33532622D01*
X105698024Y-33515220D01*
X105705787Y-33508718D01*
X105771947Y-33469592D01*
X105872019Y-33369518D01*
X105876213Y-33366007D01*
X105877398Y-33365489D01*
X105882939Y-33360758D01*
X105962464Y-33302981D01*
X106102981Y-33162464D01*
X106142858Y-33107577D01*
X106198185Y-33064914D01*
X106267798Y-33058935D01*
X106329594Y-33091540D01*
G37*
%TD.AperFunction*%
%TA.AperFunction,Conductor*%
G36*
X151615674Y-28009145D02*
G01*
X151645657Y-28015668D01*
X151648887Y-28018898D01*
X151653270Y-28020185D01*
X151673362Y-28043372D01*
X151695063Y-28065073D01*
X151696034Y-28069537D01*
X151699025Y-28072989D01*
X151703392Y-28103360D01*
X151709915Y-28133346D01*
X151708583Y-28139466D01*
X151708969Y-28142147D01*
X151702413Y-28167833D01*
X151655908Y-28292517D01*
X151649501Y-28352116D01*
X151649501Y-28352123D01*
X151649500Y-28352135D01*
X151649500Y-30447870D01*
X151649501Y-30447876D01*
X151655908Y-30507483D01*
X151706202Y-30642328D01*
X151706206Y-30642335D01*
X151792452Y-30757544D01*
X151792455Y-30757547D01*
X151907664Y-30843793D01*
X151907671Y-30843797D01*
X152042517Y-30894091D01*
X152042516Y-30894091D01*
X152049444Y-30894835D01*
X152102127Y-30900500D01*
X155397872Y-30900499D01*
X155457483Y-30894091D01*
X155592331Y-30843796D01*
X155707546Y-30757546D01*
X155793796Y-30642331D01*
X155844091Y-30507483D01*
X155850500Y-30447873D01*
X155850499Y-28352128D01*
X155844091Y-28292517D01*
X155797587Y-28167833D01*
X155792603Y-28098141D01*
X155826088Y-28036818D01*
X155887411Y-28003334D01*
X155913769Y-28000500D01*
X162375500Y-28000500D01*
X162442539Y-28020185D01*
X162488294Y-28072989D01*
X162499500Y-28124500D01*
X162499500Y-82875500D01*
X162479815Y-82942539D01*
X162427011Y-82988294D01*
X162375500Y-82999500D01*
X101624500Y-82999500D01*
X101557461Y-82979815D01*
X101511706Y-82927011D01*
X101500500Y-82875500D01*
X101500500Y-72993389D01*
X106789500Y-72993389D01*
X106789500Y-73166611D01*
X106816598Y-73337701D01*
X106870127Y-73502445D01*
X106948768Y-73656788D01*
X107050586Y-73796928D01*
X107173072Y-73919414D01*
X107313212Y-74021232D01*
X107467555Y-74099873D01*
X107632299Y-74153402D01*
X107803389Y-74180500D01*
X107803390Y-74180500D01*
X107976610Y-74180500D01*
X107976611Y-74180500D01*
X108147701Y-74153402D01*
X108312445Y-74099873D01*
X108466788Y-74021232D01*
X108606928Y-73919414D01*
X108729414Y-73796928D01*
X108831232Y-73656788D01*
X108909873Y-73502445D01*
X108963402Y-73337701D01*
X108990500Y-73166611D01*
X108990500Y-72993389D01*
X108980854Y-72932486D01*
X110719500Y-72932486D01*
X110719500Y-73227513D01*
X110751571Y-73471113D01*
X110758007Y-73519993D01*
X110832212Y-73796930D01*
X110834361Y-73804951D01*
X110834364Y-73804961D01*
X110947254Y-74077500D01*
X110947258Y-74077510D01*
X111094761Y-74332993D01*
X111274352Y-74567040D01*
X111274358Y-74567047D01*
X111482952Y-74775641D01*
X111482959Y-74775647D01*
X111717006Y-74955238D01*
X111972489Y-75102741D01*
X111972490Y-75102741D01*
X111972493Y-75102743D01*
X112245048Y-75215639D01*
X112530007Y-75291993D01*
X112822494Y-75330500D01*
X112822501Y-75330500D01*
X113117499Y-75330500D01*
X113117506Y-75330500D01*
X113409993Y-75291993D01*
X113694952Y-75215639D01*
X113967507Y-75102743D01*
X114222994Y-74955238D01*
X114457042Y-74775646D01*
X114665646Y-74567042D01*
X114845238Y-74332994D01*
X114992743Y-74077507D01*
X115105639Y-73804952D01*
X115181993Y-73519993D01*
X115220500Y-73227506D01*
X115220500Y-72993389D01*
X116949500Y-72993389D01*
X116949500Y-73166611D01*
X116976598Y-73337701D01*
X117030127Y-73502445D01*
X117108768Y-73656788D01*
X117210586Y-73796928D01*
X117333072Y-73919414D01*
X117473212Y-74021232D01*
X117627555Y-74099873D01*
X117792299Y-74153402D01*
X117963389Y-74180500D01*
X117963390Y-74180500D01*
X118136610Y-74180500D01*
X118136611Y-74180500D01*
X118307701Y-74153402D01*
X118472445Y-74099873D01*
X118626788Y-74021232D01*
X118766928Y-73919414D01*
X118889414Y-73796928D01*
X118991232Y-73656788D01*
X119069873Y-73502445D01*
X119123402Y-73337701D01*
X119150500Y-73166611D01*
X119150500Y-72993389D01*
X126009500Y-72993389D01*
X126009500Y-73166611D01*
X126036598Y-73337701D01*
X126090127Y-73502445D01*
X126168768Y-73656788D01*
X126270586Y-73796928D01*
X126393072Y-73919414D01*
X126533212Y-74021232D01*
X126687555Y-74099873D01*
X126852299Y-74153402D01*
X127023389Y-74180500D01*
X127023390Y-74180500D01*
X127196610Y-74180500D01*
X127196611Y-74180500D01*
X127367701Y-74153402D01*
X127532445Y-74099873D01*
X127686788Y-74021232D01*
X127826928Y-73919414D01*
X127949414Y-73796928D01*
X128051232Y-73656788D01*
X128129873Y-73502445D01*
X128183402Y-73337701D01*
X128210500Y-73166611D01*
X128210500Y-72993389D01*
X128200854Y-72932486D01*
X129939500Y-72932486D01*
X129939500Y-73227513D01*
X129971571Y-73471113D01*
X129978007Y-73519993D01*
X130052212Y-73796930D01*
X130054361Y-73804951D01*
X130054364Y-73804961D01*
X130167254Y-74077500D01*
X130167258Y-74077510D01*
X130314761Y-74332993D01*
X130494352Y-74567040D01*
X130494358Y-74567047D01*
X130702952Y-74775641D01*
X130702959Y-74775647D01*
X130937006Y-74955238D01*
X131192489Y-75102741D01*
X131192490Y-75102741D01*
X131192493Y-75102743D01*
X131465048Y-75215639D01*
X131750007Y-75291993D01*
X132042494Y-75330500D01*
X132042501Y-75330500D01*
X132337499Y-75330500D01*
X132337506Y-75330500D01*
X132629993Y-75291993D01*
X132914952Y-75215639D01*
X133187507Y-75102743D01*
X133442994Y-74955238D01*
X133677042Y-74775646D01*
X133885646Y-74567042D01*
X134065238Y-74332994D01*
X134212743Y-74077507D01*
X134325639Y-73804952D01*
X134401993Y-73519993D01*
X134440500Y-73227506D01*
X134440500Y-72993389D01*
X136169500Y-72993389D01*
X136169500Y-73166611D01*
X136196598Y-73337701D01*
X136250127Y-73502445D01*
X136328768Y-73656788D01*
X136430586Y-73796928D01*
X136553072Y-73919414D01*
X136693212Y-74021232D01*
X136847555Y-74099873D01*
X137012299Y-74153402D01*
X137183389Y-74180500D01*
X137183390Y-74180500D01*
X137356610Y-74180500D01*
X137356611Y-74180500D01*
X137527701Y-74153402D01*
X137692445Y-74099873D01*
X137846788Y-74021232D01*
X137986928Y-73919414D01*
X138109414Y-73796928D01*
X138211232Y-73656788D01*
X138289873Y-73502445D01*
X138343402Y-73337701D01*
X138370500Y-73166611D01*
X138370500Y-72993389D01*
X145269500Y-72993389D01*
X145269500Y-73166611D01*
X145296598Y-73337701D01*
X145350127Y-73502445D01*
X145428768Y-73656788D01*
X145530586Y-73796928D01*
X145653072Y-73919414D01*
X145793212Y-74021232D01*
X145947555Y-74099873D01*
X146112299Y-74153402D01*
X146283389Y-74180500D01*
X146283390Y-74180500D01*
X146456610Y-74180500D01*
X146456611Y-74180500D01*
X146627701Y-74153402D01*
X146792445Y-74099873D01*
X146946788Y-74021232D01*
X147086928Y-73919414D01*
X147209414Y-73796928D01*
X147311232Y-73656788D01*
X147389873Y-73502445D01*
X147443402Y-73337701D01*
X147470500Y-73166611D01*
X147470500Y-72993389D01*
X147460854Y-72932486D01*
X149199500Y-72932486D01*
X149199500Y-73227513D01*
X149231571Y-73471113D01*
X149238007Y-73519993D01*
X149312212Y-73796930D01*
X149314361Y-73804951D01*
X149314364Y-73804961D01*
X149427254Y-74077500D01*
X149427258Y-74077510D01*
X149574761Y-74332993D01*
X149754352Y-74567040D01*
X149754358Y-74567047D01*
X149962952Y-74775641D01*
X149962959Y-74775647D01*
X150197006Y-74955238D01*
X150452489Y-75102741D01*
X150452490Y-75102741D01*
X150452493Y-75102743D01*
X150725048Y-75215639D01*
X151010007Y-75291993D01*
X151302494Y-75330500D01*
X151302501Y-75330500D01*
X151597499Y-75330500D01*
X151597506Y-75330500D01*
X151889993Y-75291993D01*
X152174952Y-75215639D01*
X152447507Y-75102743D01*
X152702994Y-74955238D01*
X152937042Y-74775646D01*
X153145646Y-74567042D01*
X153325238Y-74332994D01*
X153472743Y-74077507D01*
X153585639Y-73804952D01*
X153661993Y-73519993D01*
X153700500Y-73227506D01*
X153700500Y-72993389D01*
X155429500Y-72993389D01*
X155429500Y-73166611D01*
X155456598Y-73337701D01*
X155510127Y-73502445D01*
X155588768Y-73656788D01*
X155690586Y-73796928D01*
X155813072Y-73919414D01*
X155953212Y-74021232D01*
X156107555Y-74099873D01*
X156272299Y-74153402D01*
X156443389Y-74180500D01*
X156443390Y-74180500D01*
X156616610Y-74180500D01*
X156616611Y-74180500D01*
X156787701Y-74153402D01*
X156952445Y-74099873D01*
X157106788Y-74021232D01*
X157246928Y-73919414D01*
X157369414Y-73796928D01*
X157471232Y-73656788D01*
X157549873Y-73502445D01*
X157603402Y-73337701D01*
X157630500Y-73166611D01*
X157630500Y-72993389D01*
X157603402Y-72822299D01*
X157549873Y-72657555D01*
X157471232Y-72503212D01*
X157369414Y-72363072D01*
X157246928Y-72240586D01*
X157106788Y-72138768D01*
X156952445Y-72060127D01*
X156787701Y-72006598D01*
X156787699Y-72006597D01*
X156787698Y-72006597D01*
X156656271Y-71985781D01*
X156616611Y-71979500D01*
X156443389Y-71979500D01*
X156403728Y-71985781D01*
X156272302Y-72006597D01*
X156107552Y-72060128D01*
X155953211Y-72138768D01*
X155896289Y-72180125D01*
X155813072Y-72240586D01*
X155813070Y-72240588D01*
X155813069Y-72240588D01*
X155690588Y-72363069D01*
X155690588Y-72363070D01*
X155690586Y-72363072D01*
X155646859Y-72423256D01*
X155588768Y-72503211D01*
X155510128Y-72657552D01*
X155456597Y-72822302D01*
X155429500Y-72993389D01*
X153700500Y-72993389D01*
X153700500Y-72932494D01*
X153661993Y-72640007D01*
X153585639Y-72355048D01*
X153472743Y-72082493D01*
X153417309Y-71986479D01*
X153325238Y-71827006D01*
X153145647Y-71592959D01*
X153145641Y-71592952D01*
X152937047Y-71384358D01*
X152937040Y-71384352D01*
X152702993Y-71204761D01*
X152447510Y-71057258D01*
X152447500Y-71057254D01*
X152174961Y-70944364D01*
X152174954Y-70944362D01*
X152174952Y-70944361D01*
X151889993Y-70868007D01*
X151841113Y-70861571D01*
X151597513Y-70829500D01*
X151597506Y-70829500D01*
X151302494Y-70829500D01*
X151302486Y-70829500D01*
X151024085Y-70866153D01*
X151010007Y-70868007D01*
X150835428Y-70914785D01*
X150725048Y-70944361D01*
X150725038Y-70944364D01*
X150452499Y-71057254D01*
X150452489Y-71057258D01*
X150197006Y-71204761D01*
X149962959Y-71384352D01*
X149962952Y-71384358D01*
X149754358Y-71592952D01*
X149754352Y-71592959D01*
X149574761Y-71827006D01*
X149427258Y-72082489D01*
X149427254Y-72082499D01*
X149314364Y-72355038D01*
X149314361Y-72355048D01*
X149238008Y-72640004D01*
X149238006Y-72640015D01*
X149199500Y-72932486D01*
X147460854Y-72932486D01*
X147443402Y-72822299D01*
X147389873Y-72657555D01*
X147311232Y-72503212D01*
X147209414Y-72363072D01*
X147157482Y-72311140D01*
X147123997Y-72249817D01*
X147128981Y-72180125D01*
X147170853Y-72124192D01*
X147236317Y-72099775D01*
X147264561Y-72100986D01*
X147265212Y-72101089D01*
X147265215Y-72101090D01*
X147514038Y-72140500D01*
X147514039Y-72140500D01*
X147765961Y-72140500D01*
X147765962Y-72140500D01*
X148014785Y-72101090D01*
X148254379Y-72023241D01*
X148478845Y-71908870D01*
X148682656Y-71760793D01*
X148860793Y-71582656D01*
X149008870Y-71378845D01*
X149123241Y-71154379D01*
X149201090Y-70914785D01*
X149240500Y-70665962D01*
X149240500Y-70414038D01*
X149201090Y-70165215D01*
X149123241Y-69925621D01*
X149123239Y-69925618D01*
X149123239Y-69925616D01*
X149081747Y-69844184D01*
X149008870Y-69701155D01*
X148906753Y-69560602D01*
X148860798Y-69497350D01*
X148860794Y-69497345D01*
X148682654Y-69319205D01*
X148682649Y-69319201D01*
X148478848Y-69171132D01*
X148478847Y-69171131D01*
X148478845Y-69171130D01*
X148408747Y-69135413D01*
X148254383Y-69056760D01*
X148014785Y-68978910D01*
X147765962Y-68939500D01*
X147514038Y-68939500D01*
X147389626Y-68959205D01*
X147265214Y-68978910D01*
X147025616Y-69056760D01*
X146801151Y-69171132D01*
X146597350Y-69319201D01*
X146597345Y-69319205D01*
X146419205Y-69497345D01*
X146419201Y-69497350D01*
X146271132Y-69701151D01*
X146156760Y-69925616D01*
X146078910Y-70165214D01*
X146039500Y-70414038D01*
X146039500Y-70665961D01*
X146078910Y-70914785D01*
X146156760Y-71154383D01*
X146271132Y-71378848D01*
X146419201Y-71582649D01*
X146419205Y-71582654D01*
X146419207Y-71582656D01*
X146597344Y-71760793D01*
X146597345Y-71760794D01*
X146597344Y-71760794D01*
X146603661Y-71765383D01*
X146646327Y-71820714D01*
X146652305Y-71890327D01*
X146619699Y-71952122D01*
X146558860Y-71986479D01*
X146511378Y-71988174D01*
X146456611Y-71979500D01*
X146283389Y-71979500D01*
X146243728Y-71985781D01*
X146112302Y-72006597D01*
X145947552Y-72060128D01*
X145793211Y-72138768D01*
X145736289Y-72180125D01*
X145653072Y-72240586D01*
X145653070Y-72240588D01*
X145653069Y-72240588D01*
X145530588Y-72363069D01*
X145530588Y-72363070D01*
X145530586Y-72363072D01*
X145486859Y-72423256D01*
X145428768Y-72503211D01*
X145350128Y-72657552D01*
X145296597Y-72822302D01*
X145269500Y-72993389D01*
X138370500Y-72993389D01*
X138343402Y-72822299D01*
X138289873Y-72657555D01*
X138211232Y-72503212D01*
X138109414Y-72363072D01*
X137986928Y-72240586D01*
X137846788Y-72138768D01*
X137692445Y-72060127D01*
X137527701Y-72006598D01*
X137527699Y-72006597D01*
X137527698Y-72006597D01*
X137396271Y-71985781D01*
X137356611Y-71979500D01*
X137183389Y-71979500D01*
X137143728Y-71985781D01*
X137012302Y-72006597D01*
X136847552Y-72060128D01*
X136693211Y-72138768D01*
X136636289Y-72180125D01*
X136553072Y-72240586D01*
X136553070Y-72240588D01*
X136553069Y-72240588D01*
X136430588Y-72363069D01*
X136430588Y-72363070D01*
X136430586Y-72363072D01*
X136386859Y-72423256D01*
X136328768Y-72503211D01*
X136250128Y-72657552D01*
X136196597Y-72822302D01*
X136169500Y-72993389D01*
X134440500Y-72993389D01*
X134440500Y-72932494D01*
X134401993Y-72640007D01*
X134325639Y-72355048D01*
X134212743Y-72082493D01*
X134157309Y-71986479D01*
X134065238Y-71827006D01*
X133885647Y-71592959D01*
X133885641Y-71592952D01*
X133677047Y-71384358D01*
X133677040Y-71384352D01*
X133442993Y-71204761D01*
X133187510Y-71057258D01*
X133187500Y-71057254D01*
X132914961Y-70944364D01*
X132914954Y-70944362D01*
X132914952Y-70944361D01*
X132629993Y-70868007D01*
X132581113Y-70861571D01*
X132337513Y-70829500D01*
X132337506Y-70829500D01*
X132042494Y-70829500D01*
X132042486Y-70829500D01*
X131764085Y-70866153D01*
X131750007Y-70868007D01*
X131575428Y-70914785D01*
X131465048Y-70944361D01*
X131465038Y-70944364D01*
X131192499Y-71057254D01*
X131192489Y-71057258D01*
X130937006Y-71204761D01*
X130702959Y-71384352D01*
X130702952Y-71384358D01*
X130494358Y-71592952D01*
X130494352Y-71592959D01*
X130314761Y-71827006D01*
X130167258Y-72082489D01*
X130167254Y-72082499D01*
X130054364Y-72355038D01*
X130054361Y-72355048D01*
X129978008Y-72640004D01*
X129978006Y-72640015D01*
X129939500Y-72932486D01*
X128200854Y-72932486D01*
X128183402Y-72822299D01*
X128129873Y-72657555D01*
X128051232Y-72503212D01*
X127949414Y-72363072D01*
X127897482Y-72311140D01*
X127863997Y-72249817D01*
X127868981Y-72180125D01*
X127910853Y-72124192D01*
X127976317Y-72099775D01*
X128004561Y-72100986D01*
X128005212Y-72101089D01*
X128005215Y-72101090D01*
X128254038Y-72140500D01*
X128254039Y-72140500D01*
X128505961Y-72140500D01*
X128505962Y-72140500D01*
X128754785Y-72101090D01*
X128994379Y-72023241D01*
X129218845Y-71908870D01*
X129422656Y-71760793D01*
X129600793Y-71582656D01*
X129748870Y-71378845D01*
X129863241Y-71154379D01*
X129941090Y-70914785D01*
X129980500Y-70665962D01*
X129980500Y-70414038D01*
X129941090Y-70165215D01*
X129863241Y-69925621D01*
X129863239Y-69925618D01*
X129863239Y-69925616D01*
X129821747Y-69844184D01*
X129748870Y-69701155D01*
X129646753Y-69560602D01*
X129600798Y-69497350D01*
X129600794Y-69497345D01*
X129422654Y-69319205D01*
X129422649Y-69319201D01*
X129218848Y-69171132D01*
X129218847Y-69171131D01*
X129218845Y-69171130D01*
X129148747Y-69135413D01*
X128994383Y-69056760D01*
X128754785Y-68978910D01*
X128505962Y-68939500D01*
X128254038Y-68939500D01*
X128129626Y-68959205D01*
X128005214Y-68978910D01*
X127765616Y-69056760D01*
X127541151Y-69171132D01*
X127337350Y-69319201D01*
X127337345Y-69319205D01*
X127159205Y-69497345D01*
X127159201Y-69497350D01*
X127011132Y-69701151D01*
X126896760Y-69925616D01*
X126818910Y-70165214D01*
X126779500Y-70414038D01*
X126779500Y-70665961D01*
X126818910Y-70914785D01*
X126896760Y-71154383D01*
X127011132Y-71378848D01*
X127159201Y-71582649D01*
X127159205Y-71582654D01*
X127159207Y-71582656D01*
X127337344Y-71760793D01*
X127337345Y-71760794D01*
X127337344Y-71760794D01*
X127343661Y-71765383D01*
X127386327Y-71820714D01*
X127392305Y-71890327D01*
X127359699Y-71952122D01*
X127298860Y-71986479D01*
X127251378Y-71988174D01*
X127196611Y-71979500D01*
X127023389Y-71979500D01*
X126983728Y-71985781D01*
X126852302Y-72006597D01*
X126687552Y-72060128D01*
X126533211Y-72138768D01*
X126476289Y-72180125D01*
X126393072Y-72240586D01*
X126393070Y-72240588D01*
X126393069Y-72240588D01*
X126270588Y-72363069D01*
X126270588Y-72363070D01*
X126270586Y-72363072D01*
X126226859Y-72423256D01*
X126168768Y-72503211D01*
X126090128Y-72657552D01*
X126036597Y-72822302D01*
X126009500Y-72993389D01*
X119150500Y-72993389D01*
X119123402Y-72822299D01*
X119069873Y-72657555D01*
X118991232Y-72503212D01*
X118889414Y-72363072D01*
X118766928Y-72240586D01*
X118626788Y-72138768D01*
X118472445Y-72060127D01*
X118307701Y-72006598D01*
X118307699Y-72006597D01*
X118307698Y-72006597D01*
X118176271Y-71985781D01*
X118136611Y-71979500D01*
X117963389Y-71979500D01*
X117923728Y-71985781D01*
X117792302Y-72006597D01*
X117627552Y-72060128D01*
X117473211Y-72138768D01*
X117416289Y-72180125D01*
X117333072Y-72240586D01*
X117333070Y-72240588D01*
X117333069Y-72240588D01*
X117210588Y-72363069D01*
X117210588Y-72363070D01*
X117210586Y-72363072D01*
X117166859Y-72423256D01*
X117108768Y-72503211D01*
X117030128Y-72657552D01*
X116976597Y-72822302D01*
X116949500Y-72993389D01*
X115220500Y-72993389D01*
X115220500Y-72932494D01*
X115181993Y-72640007D01*
X115105639Y-72355048D01*
X114992743Y-72082493D01*
X114937309Y-71986479D01*
X114845238Y-71827006D01*
X114665647Y-71592959D01*
X114665641Y-71592952D01*
X114457047Y-71384358D01*
X114457040Y-71384352D01*
X114222993Y-71204761D01*
X113967510Y-71057258D01*
X113967500Y-71057254D01*
X113694961Y-70944364D01*
X113694954Y-70944362D01*
X113694952Y-70944361D01*
X113409993Y-70868007D01*
X113361113Y-70861571D01*
X113117513Y-70829500D01*
X113117506Y-70829500D01*
X112822494Y-70829500D01*
X112822486Y-70829500D01*
X112544085Y-70866153D01*
X112530007Y-70868007D01*
X112355428Y-70914785D01*
X112245048Y-70944361D01*
X112245038Y-70944364D01*
X111972499Y-71057254D01*
X111972489Y-71057258D01*
X111717006Y-71204761D01*
X111482959Y-71384352D01*
X111482952Y-71384358D01*
X111274358Y-71592952D01*
X111274352Y-71592959D01*
X111094761Y-71827006D01*
X110947258Y-72082489D01*
X110947254Y-72082499D01*
X110834364Y-72355038D01*
X110834361Y-72355048D01*
X110758008Y-72640004D01*
X110758006Y-72640015D01*
X110719500Y-72932486D01*
X108980854Y-72932486D01*
X108963402Y-72822299D01*
X108909873Y-72657555D01*
X108831232Y-72503212D01*
X108729414Y-72363072D01*
X108677482Y-72311140D01*
X108643997Y-72249817D01*
X108648981Y-72180125D01*
X108690853Y-72124192D01*
X108756317Y-72099775D01*
X108784561Y-72100986D01*
X108785212Y-72101089D01*
X108785215Y-72101090D01*
X109034038Y-72140500D01*
X109034039Y-72140500D01*
X109285961Y-72140500D01*
X109285962Y-72140500D01*
X109534785Y-72101090D01*
X109774379Y-72023241D01*
X109998845Y-71908870D01*
X110202656Y-71760793D01*
X110380793Y-71582656D01*
X110528870Y-71378845D01*
X110643241Y-71154379D01*
X110721090Y-70914785D01*
X110760500Y-70665962D01*
X110760500Y-70414038D01*
X110721090Y-70165215D01*
X110643241Y-69925621D01*
X110643239Y-69925618D01*
X110643239Y-69925616D01*
X110601747Y-69844184D01*
X110528870Y-69701155D01*
X110426753Y-69560602D01*
X110380798Y-69497350D01*
X110380794Y-69497345D01*
X110202654Y-69319205D01*
X110202649Y-69319201D01*
X109998848Y-69171132D01*
X109998847Y-69171131D01*
X109998845Y-69171130D01*
X109928747Y-69135413D01*
X109774383Y-69056760D01*
X109534785Y-68978910D01*
X109285962Y-68939500D01*
X109034038Y-68939500D01*
X108909626Y-68959205D01*
X108785214Y-68978910D01*
X108545616Y-69056760D01*
X108321151Y-69171132D01*
X108117350Y-69319201D01*
X108117345Y-69319205D01*
X107939205Y-69497345D01*
X107939201Y-69497350D01*
X107791132Y-69701151D01*
X107676760Y-69925616D01*
X107598910Y-70165214D01*
X107559500Y-70414038D01*
X107559500Y-70665961D01*
X107598910Y-70914785D01*
X107676760Y-71154383D01*
X107791132Y-71378848D01*
X107939201Y-71582649D01*
X107939205Y-71582654D01*
X107939207Y-71582656D01*
X108117344Y-71760793D01*
X108117345Y-71760794D01*
X108117344Y-71760794D01*
X108123661Y-71765383D01*
X108166327Y-71820714D01*
X108172305Y-71890327D01*
X108139699Y-71952122D01*
X108078860Y-71986479D01*
X108031378Y-71988174D01*
X107976611Y-71979500D01*
X107803389Y-71979500D01*
X107763728Y-71985781D01*
X107632302Y-72006597D01*
X107467552Y-72060128D01*
X107313211Y-72138768D01*
X107256289Y-72180125D01*
X107173072Y-72240586D01*
X107173070Y-72240588D01*
X107173069Y-72240588D01*
X107050588Y-72363069D01*
X107050588Y-72363070D01*
X107050586Y-72363072D01*
X107006859Y-72423256D01*
X106948768Y-72503211D01*
X106870128Y-72657552D01*
X106816597Y-72822302D01*
X106789500Y-72993389D01*
X101500500Y-72993389D01*
X101500500Y-67874071D01*
X113910000Y-67874071D01*
X113910000Y-68125928D01*
X113949397Y-68374669D01*
X114027219Y-68614184D01*
X114141557Y-68838583D01*
X114215748Y-68940697D01*
X114215748Y-68940698D01*
X114832421Y-68324024D01*
X114845359Y-68355258D01*
X114927437Y-68478097D01*
X115031903Y-68582563D01*
X115154742Y-68664641D01*
X115185974Y-68677577D01*
X114569300Y-69294250D01*
X114671416Y-69368442D01*
X114895815Y-69482780D01*
X115135330Y-69560602D01*
X115384072Y-69600000D01*
X115635928Y-69600000D01*
X115884669Y-69560602D01*
X116124184Y-69482780D01*
X116348575Y-69368446D01*
X116348581Y-69368442D01*
X116450697Y-69294250D01*
X116450698Y-69294250D01*
X115834025Y-68677578D01*
X115865258Y-68664641D01*
X115988097Y-68582563D01*
X116092563Y-68478097D01*
X116174641Y-68355258D01*
X116187577Y-68324025D01*
X116804250Y-68940698D01*
X116804250Y-68940697D01*
X116878442Y-68838581D01*
X116878446Y-68838575D01*
X116992780Y-68614184D01*
X117070602Y-68374669D01*
X117110000Y-68125928D01*
X117110000Y-67874071D01*
X133130000Y-67874071D01*
X133130000Y-68125928D01*
X133169397Y-68374669D01*
X133247219Y-68614184D01*
X133361557Y-68838583D01*
X133435748Y-68940697D01*
X133435748Y-68940698D01*
X134052421Y-68324024D01*
X134065359Y-68355258D01*
X134147437Y-68478097D01*
X134251903Y-68582563D01*
X134374742Y-68664641D01*
X134405974Y-68677577D01*
X133789300Y-69294250D01*
X133891416Y-69368442D01*
X134115815Y-69482780D01*
X134355330Y-69560602D01*
X134604072Y-69600000D01*
X134855928Y-69600000D01*
X135104669Y-69560602D01*
X135344184Y-69482780D01*
X135568575Y-69368446D01*
X135568581Y-69368442D01*
X135670697Y-69294250D01*
X135670698Y-69294250D01*
X135054025Y-68677578D01*
X135085258Y-68664641D01*
X135208097Y-68582563D01*
X135312563Y-68478097D01*
X135394641Y-68355258D01*
X135407577Y-68324025D01*
X136024250Y-68940698D01*
X136024250Y-68940697D01*
X136098442Y-68838581D01*
X136098446Y-68838575D01*
X136212780Y-68614184D01*
X136290602Y-68374669D01*
X136330000Y-68125928D01*
X136330000Y-67874071D01*
X152390000Y-67874071D01*
X152390000Y-68125928D01*
X152429397Y-68374669D01*
X152507219Y-68614184D01*
X152621557Y-68838583D01*
X152695748Y-68940697D01*
X152695748Y-68940698D01*
X153312421Y-68324024D01*
X153325359Y-68355258D01*
X153407437Y-68478097D01*
X153511903Y-68582563D01*
X153634742Y-68664641D01*
X153665974Y-68677577D01*
X153049300Y-69294250D01*
X153151416Y-69368442D01*
X153375815Y-69482780D01*
X153615330Y-69560602D01*
X153864072Y-69600000D01*
X154115928Y-69600000D01*
X154364669Y-69560602D01*
X154604184Y-69482780D01*
X154828575Y-69368446D01*
X154828581Y-69368442D01*
X154930697Y-69294250D01*
X154930698Y-69294250D01*
X154314025Y-68677578D01*
X154345258Y-68664641D01*
X154468097Y-68582563D01*
X154572563Y-68478097D01*
X154654641Y-68355258D01*
X154667577Y-68324025D01*
X155284250Y-68940698D01*
X155284250Y-68940697D01*
X155358442Y-68838581D01*
X155358446Y-68838575D01*
X155472780Y-68614184D01*
X155550602Y-68374669D01*
X155590000Y-68125928D01*
X155590000Y-67874071D01*
X155550602Y-67625330D01*
X155472780Y-67385815D01*
X155358442Y-67161416D01*
X155284250Y-67059301D01*
X155284250Y-67059300D01*
X154667577Y-67675973D01*
X154654641Y-67644742D01*
X154572563Y-67521903D01*
X154468097Y-67417437D01*
X154345258Y-67335359D01*
X154314024Y-67322421D01*
X154930698Y-66705748D01*
X154828583Y-66631557D01*
X154604184Y-66517219D01*
X154364669Y-66439397D01*
X154115928Y-66400000D01*
X153864072Y-66400000D01*
X153615330Y-66439397D01*
X153375815Y-66517219D01*
X153151413Y-66631559D01*
X153049301Y-66705747D01*
X153049300Y-66705748D01*
X153665974Y-67322421D01*
X153634742Y-67335359D01*
X153511903Y-67417437D01*
X153407437Y-67521903D01*
X153325359Y-67644742D01*
X153312421Y-67675974D01*
X152695748Y-67059300D01*
X152695747Y-67059301D01*
X152621559Y-67161413D01*
X152507219Y-67385815D01*
X152429397Y-67625330D01*
X152390000Y-67874071D01*
X136330000Y-67874071D01*
X136290602Y-67625330D01*
X136212780Y-67385815D01*
X136098442Y-67161416D01*
X136024250Y-67059301D01*
X136024250Y-67059300D01*
X135407577Y-67675973D01*
X135394641Y-67644742D01*
X135312563Y-67521903D01*
X135208097Y-67417437D01*
X135085258Y-67335359D01*
X135054024Y-67322421D01*
X135670698Y-66705748D01*
X135568583Y-66631557D01*
X135344184Y-66517219D01*
X135104669Y-66439397D01*
X134855928Y-66400000D01*
X134604072Y-66400000D01*
X134355330Y-66439397D01*
X134115815Y-66517219D01*
X133891413Y-66631559D01*
X133789301Y-66705747D01*
X133789300Y-66705748D01*
X134405974Y-67322421D01*
X134374742Y-67335359D01*
X134251903Y-67417437D01*
X134147437Y-67521903D01*
X134065359Y-67644742D01*
X134052421Y-67675974D01*
X133435748Y-67059300D01*
X133435747Y-67059301D01*
X133361559Y-67161413D01*
X133247219Y-67385815D01*
X133169397Y-67625330D01*
X133130000Y-67874071D01*
X117110000Y-67874071D01*
X117070602Y-67625330D01*
X116992780Y-67385815D01*
X116878442Y-67161416D01*
X116804250Y-67059301D01*
X116804250Y-67059300D01*
X116187577Y-67675973D01*
X116174641Y-67644742D01*
X116092563Y-67521903D01*
X115988097Y-67417437D01*
X115865258Y-67335359D01*
X115834024Y-67322421D01*
X116450698Y-66705748D01*
X116348583Y-66631557D01*
X116124184Y-66517219D01*
X115884669Y-66439397D01*
X115635928Y-66400000D01*
X115384072Y-66400000D01*
X115135330Y-66439397D01*
X114895815Y-66517219D01*
X114671413Y-66631559D01*
X114569301Y-66705747D01*
X114569300Y-66705748D01*
X115185974Y-67322421D01*
X115154742Y-67335359D01*
X115031903Y-67417437D01*
X114927437Y-67521903D01*
X114845359Y-67644742D01*
X114832421Y-67675974D01*
X114215748Y-67059300D01*
X114215747Y-67059301D01*
X114141559Y-67161413D01*
X114027219Y-67385815D01*
X113949397Y-67625330D01*
X113910000Y-67874071D01*
X101500500Y-67874071D01*
X101500500Y-53793389D01*
X125999500Y-53793389D01*
X125999500Y-53966611D01*
X126026598Y-54137701D01*
X126080127Y-54302445D01*
X126158768Y-54456788D01*
X126260586Y-54596928D01*
X126383072Y-54719414D01*
X126523212Y-54821232D01*
X126677555Y-54899873D01*
X126842299Y-54953402D01*
X127013389Y-54980500D01*
X127013390Y-54980500D01*
X127186610Y-54980500D01*
X127186611Y-54980500D01*
X127357701Y-54953402D01*
X127522445Y-54899873D01*
X127676788Y-54821232D01*
X127816928Y-54719414D01*
X127939414Y-54596928D01*
X128041232Y-54456788D01*
X128119873Y-54302445D01*
X128173402Y-54137701D01*
X128200500Y-53966611D01*
X128200500Y-53793389D01*
X128190854Y-53732486D01*
X129929500Y-53732486D01*
X129929500Y-54027513D01*
X129961571Y-54271113D01*
X129968007Y-54319993D01*
X130042212Y-54596930D01*
X130044361Y-54604951D01*
X130044364Y-54604961D01*
X130157254Y-54877500D01*
X130157258Y-54877510D01*
X130304761Y-55132993D01*
X130484352Y-55367040D01*
X130484358Y-55367047D01*
X130692952Y-55575641D01*
X130692959Y-55575647D01*
X130927006Y-55755238D01*
X131182489Y-55902741D01*
X131182490Y-55902741D01*
X131182493Y-55902743D01*
X131455048Y-56015639D01*
X131740007Y-56091993D01*
X132032494Y-56130500D01*
X132032501Y-56130500D01*
X132327499Y-56130500D01*
X132327506Y-56130500D01*
X132619993Y-56091993D01*
X132904952Y-56015639D01*
X133177507Y-55902743D01*
X133432994Y-55755238D01*
X133667042Y-55575646D01*
X133875646Y-55367042D01*
X134055238Y-55132994D01*
X134202743Y-54877507D01*
X134315639Y-54604952D01*
X134391993Y-54319993D01*
X134430500Y-54027506D01*
X134430500Y-53793389D01*
X136159500Y-53793389D01*
X136159500Y-53966611D01*
X136186598Y-54137701D01*
X136240127Y-54302445D01*
X136318768Y-54456788D01*
X136420586Y-54596928D01*
X136543072Y-54719414D01*
X136683212Y-54821232D01*
X136837555Y-54899873D01*
X137002299Y-54953402D01*
X137173389Y-54980500D01*
X137173390Y-54980500D01*
X137346610Y-54980500D01*
X137346611Y-54980500D01*
X137517701Y-54953402D01*
X137682445Y-54899873D01*
X137836788Y-54821232D01*
X137976928Y-54719414D01*
X138099414Y-54596928D01*
X138201232Y-54456788D01*
X138279873Y-54302445D01*
X138333402Y-54137701D01*
X138360500Y-53966611D01*
X138360500Y-53793389D01*
X138333402Y-53622299D01*
X138279873Y-53457555D01*
X138201232Y-53303212D01*
X138099414Y-53163072D01*
X137976928Y-53040586D01*
X137836788Y-52938768D01*
X137682445Y-52860127D01*
X137517701Y-52806598D01*
X137517699Y-52806597D01*
X137517698Y-52806597D01*
X137386271Y-52785781D01*
X137346611Y-52779500D01*
X137173389Y-52779500D01*
X137133728Y-52785781D01*
X137002302Y-52806597D01*
X136837552Y-52860128D01*
X136683211Y-52938768D01*
X136626289Y-52980125D01*
X136543072Y-53040586D01*
X136543070Y-53040588D01*
X136543069Y-53040588D01*
X136420588Y-53163069D01*
X136420588Y-53163070D01*
X136420586Y-53163072D01*
X136376859Y-53223256D01*
X136318768Y-53303211D01*
X136240128Y-53457552D01*
X136186597Y-53622302D01*
X136159500Y-53793389D01*
X134430500Y-53793389D01*
X134430500Y-53732494D01*
X134391993Y-53440007D01*
X134315639Y-53155048D01*
X134202743Y-52882493D01*
X134147309Y-52786479D01*
X134055238Y-52627006D01*
X133875647Y-52392959D01*
X133875641Y-52392952D01*
X133667047Y-52184358D01*
X133667040Y-52184352D01*
X133432993Y-52004761D01*
X133177510Y-51857258D01*
X133177500Y-51857254D01*
X132904961Y-51744364D01*
X132904954Y-51744362D01*
X132904952Y-51744361D01*
X132619993Y-51668007D01*
X132571113Y-51661571D01*
X132327513Y-51629500D01*
X132327506Y-51629500D01*
X132032494Y-51629500D01*
X132032486Y-51629500D01*
X131754085Y-51666153D01*
X131740007Y-51668007D01*
X131565428Y-51714785D01*
X131455048Y-51744361D01*
X131455038Y-51744364D01*
X131182499Y-51857254D01*
X131182489Y-51857258D01*
X130927006Y-52004761D01*
X130692959Y-52184352D01*
X130692952Y-52184358D01*
X130484358Y-52392952D01*
X130484352Y-52392959D01*
X130304761Y-52627006D01*
X130157258Y-52882489D01*
X130157254Y-52882499D01*
X130044364Y-53155038D01*
X130044361Y-53155048D01*
X129968008Y-53440004D01*
X129968006Y-53440015D01*
X129929500Y-53732486D01*
X128190854Y-53732486D01*
X128173402Y-53622299D01*
X128119873Y-53457555D01*
X128041232Y-53303212D01*
X127939414Y-53163072D01*
X127887482Y-53111140D01*
X127853997Y-53049817D01*
X127858981Y-52980125D01*
X127900853Y-52924192D01*
X127966317Y-52899775D01*
X127994561Y-52900986D01*
X127995212Y-52901089D01*
X127995215Y-52901090D01*
X128244038Y-52940500D01*
X128244039Y-52940500D01*
X128495961Y-52940500D01*
X128495962Y-52940500D01*
X128744785Y-52901090D01*
X128984379Y-52823241D01*
X129208845Y-52708870D01*
X129412656Y-52560793D01*
X129590793Y-52382656D01*
X129738870Y-52178845D01*
X129853241Y-51954379D01*
X129931090Y-51714785D01*
X129970500Y-51465962D01*
X129970500Y-51214038D01*
X129931090Y-50965215D01*
X129853241Y-50725621D01*
X129853239Y-50725618D01*
X129853239Y-50725616D01*
X129811747Y-50644184D01*
X129738870Y-50501155D01*
X129636753Y-50360602D01*
X129590798Y-50297350D01*
X129590794Y-50297345D01*
X129412654Y-50119205D01*
X129412649Y-50119201D01*
X129208848Y-49971132D01*
X129208847Y-49971131D01*
X129208845Y-49971130D01*
X129138747Y-49935413D01*
X128984383Y-49856760D01*
X128744785Y-49778910D01*
X128495962Y-49739500D01*
X128244038Y-49739500D01*
X128119626Y-49759205D01*
X127995214Y-49778910D01*
X127755616Y-49856760D01*
X127531151Y-49971132D01*
X127327350Y-50119201D01*
X127327345Y-50119205D01*
X127149205Y-50297345D01*
X127149201Y-50297350D01*
X127001132Y-50501151D01*
X126886760Y-50725616D01*
X126808910Y-50965214D01*
X126769500Y-51214038D01*
X126769500Y-51465961D01*
X126808910Y-51714785D01*
X126886760Y-51954383D01*
X127001132Y-52178848D01*
X127149201Y-52382649D01*
X127149205Y-52382654D01*
X127149207Y-52382656D01*
X127327344Y-52560793D01*
X127327345Y-52560794D01*
X127327344Y-52560794D01*
X127333661Y-52565383D01*
X127376327Y-52620714D01*
X127382305Y-52690327D01*
X127349699Y-52752122D01*
X127288860Y-52786479D01*
X127241378Y-52788174D01*
X127186611Y-52779500D01*
X127013389Y-52779500D01*
X126973728Y-52785781D01*
X126842302Y-52806597D01*
X126677552Y-52860128D01*
X126523211Y-52938768D01*
X126466289Y-52980125D01*
X126383072Y-53040586D01*
X126383070Y-53040588D01*
X126383069Y-53040588D01*
X126260588Y-53163069D01*
X126260588Y-53163070D01*
X126260586Y-53163072D01*
X126216859Y-53223256D01*
X126158768Y-53303211D01*
X126080128Y-53457552D01*
X126026597Y-53622302D01*
X125999500Y-53793389D01*
X101500500Y-53793389D01*
X101500500Y-31664458D01*
X102588500Y-31664458D01*
X102588500Y-33015541D01*
X102591412Y-33052546D01*
X102591413Y-33052552D01*
X102637434Y-33210954D01*
X102637435Y-33210957D01*
X102721405Y-33352943D01*
X102721412Y-33352952D01*
X102838047Y-33469587D01*
X102838056Y-33469594D01*
X102895486Y-33503558D01*
X102943170Y-33554627D01*
X102955673Y-33623369D01*
X102929028Y-33687958D01*
X102895487Y-33717021D01*
X102838367Y-33750801D01*
X102838356Y-33750810D01*
X102721810Y-33867356D01*
X102721803Y-33867365D01*
X102637897Y-34009243D01*
X102637896Y-34009246D01*
X102591911Y-34167526D01*
X102591910Y-34167532D01*
X102589000Y-34204511D01*
X102589000Y-35555469D01*
X102589001Y-35555491D01*
X102591910Y-35592466D01*
X102637897Y-35750757D01*
X102721803Y-35892634D01*
X102721810Y-35892643D01*
X102838356Y-36009189D01*
X102838364Y-36009195D01*
X102895486Y-36042977D01*
X102943169Y-36094046D01*
X102955673Y-36162788D01*
X102929028Y-36227377D01*
X102895487Y-36256440D01*
X102838058Y-36290403D01*
X102838047Y-36290412D01*
X102721412Y-36407047D01*
X102721405Y-36407056D01*
X102637435Y-36549042D01*
X102637434Y-36549045D01*
X102591413Y-36707447D01*
X102591412Y-36707453D01*
X102588500Y-36744458D01*
X102588500Y-38095541D01*
X102591412Y-38132546D01*
X102591413Y-38132552D01*
X102637434Y-38290954D01*
X102637435Y-38290957D01*
X102721405Y-38432943D01*
X102721412Y-38432952D01*
X102838047Y-38549587D01*
X102838050Y-38549589D01*
X102838053Y-38549592D01*
X102894996Y-38583268D01*
X102942679Y-38634338D01*
X102955182Y-38703079D01*
X102928536Y-38767669D01*
X102894996Y-38796732D01*
X102838053Y-38830408D01*
X102838047Y-38830412D01*
X102721412Y-38947047D01*
X102721405Y-38947056D01*
X102637435Y-39089042D01*
X102637434Y-39089045D01*
X102591413Y-39247447D01*
X102591412Y-39247453D01*
X102588500Y-39284458D01*
X102588500Y-40635541D01*
X102591412Y-40672546D01*
X102591413Y-40672552D01*
X102637434Y-40830954D01*
X102637435Y-40830957D01*
X102721405Y-40972943D01*
X102721412Y-40972952D01*
X102838047Y-41089587D01*
X102838050Y-41089589D01*
X102838053Y-41089592D01*
X102894996Y-41123268D01*
X102942679Y-41174338D01*
X102955182Y-41243079D01*
X102928536Y-41307669D01*
X102894996Y-41336732D01*
X102838053Y-41370408D01*
X102838047Y-41370412D01*
X102721412Y-41487047D01*
X102721405Y-41487056D01*
X102637435Y-41629042D01*
X102637434Y-41629045D01*
X102591413Y-41787447D01*
X102591412Y-41787453D01*
X102588500Y-41824458D01*
X102588500Y-43175541D01*
X102591412Y-43212546D01*
X102591413Y-43212552D01*
X102637434Y-43370954D01*
X102637435Y-43370957D01*
X102721405Y-43512943D01*
X102721412Y-43512952D01*
X102838047Y-43629587D01*
X102838050Y-43629589D01*
X102838053Y-43629592D01*
X102894996Y-43663268D01*
X102942679Y-43714338D01*
X102955182Y-43783079D01*
X102928536Y-43847669D01*
X102894996Y-43876732D01*
X102838053Y-43910408D01*
X102838047Y-43910412D01*
X102721412Y-44027047D01*
X102721405Y-44027056D01*
X102637435Y-44169042D01*
X102637434Y-44169045D01*
X102591413Y-44327447D01*
X102591412Y-44327453D01*
X102588500Y-44364458D01*
X102588500Y-45715541D01*
X102591412Y-45752546D01*
X102591413Y-45752552D01*
X102637434Y-45910954D01*
X102637435Y-45910957D01*
X102721405Y-46052943D01*
X102721412Y-46052952D01*
X102838047Y-46169587D01*
X102838050Y-46169589D01*
X102838053Y-46169592D01*
X102894996Y-46203268D01*
X102942679Y-46254338D01*
X102955182Y-46323079D01*
X102928536Y-46387669D01*
X102894996Y-46416732D01*
X102838053Y-46450408D01*
X102838047Y-46450412D01*
X102721412Y-46567047D01*
X102721405Y-46567056D01*
X102637435Y-46709042D01*
X102637434Y-46709045D01*
X102591413Y-46867447D01*
X102591412Y-46867453D01*
X102588500Y-46904458D01*
X102588500Y-48255541D01*
X102591412Y-48292546D01*
X102591413Y-48292552D01*
X102637434Y-48450954D01*
X102637435Y-48450957D01*
X102721405Y-48592943D01*
X102721412Y-48592952D01*
X102838047Y-48709587D01*
X102838051Y-48709590D01*
X102838053Y-48709592D01*
X102980041Y-48793564D01*
X103002197Y-48800001D01*
X103138447Y-48839586D01*
X103138450Y-48839586D01*
X103138452Y-48839587D01*
X103175466Y-48842500D01*
X103175474Y-48842500D01*
X105434526Y-48842500D01*
X105434534Y-48842500D01*
X105471548Y-48839587D01*
X105471550Y-48839586D01*
X105471552Y-48839586D01*
X105513323Y-48827449D01*
X105629959Y-48793564D01*
X105771947Y-48709592D01*
X105868148Y-48613389D01*
X105882939Y-48600758D01*
X105962464Y-48542981D01*
X106102981Y-48402464D01*
X106219787Y-48241694D01*
X106310005Y-48064632D01*
X106371413Y-47875636D01*
X106402500Y-47679361D01*
X106402500Y-47480639D01*
X106371413Y-47284364D01*
X106310005Y-47095368D01*
X106310005Y-47095367D01*
X106219786Y-46918305D01*
X106102981Y-46757536D01*
X105962464Y-46617019D01*
X105882937Y-46559239D01*
X105876175Y-46553960D01*
X105872000Y-46550461D01*
X105771947Y-46450408D01*
X105706259Y-46411560D01*
X105698477Y-46405038D01*
X105684510Y-46384073D01*
X105667321Y-46365663D01*
X105665471Y-46355492D01*
X105659740Y-46346890D01*
X105659324Y-46321702D01*
X105654817Y-46296921D01*
X105658758Y-46287366D01*
X105658588Y-46277030D01*
X105671856Y-46255616D01*
X105681462Y-46232332D01*
X105691874Y-46223309D01*
X105695389Y-46217638D01*
X105702127Y-46214425D01*
X105715004Y-46203268D01*
X105771947Y-46169592D01*
X105868148Y-46073389D01*
X105882939Y-46060758D01*
X105962464Y-46002981D01*
X106102981Y-45862464D01*
X106219787Y-45701694D01*
X106310005Y-45524632D01*
X106371413Y-45335636D01*
X106402500Y-45139361D01*
X106402500Y-44940639D01*
X106371413Y-44744364D01*
X106310005Y-44555368D01*
X106310005Y-44555367D01*
X106219786Y-44378305D01*
X106102981Y-44217536D01*
X105962464Y-44077019D01*
X105882937Y-44019239D01*
X105876175Y-44013960D01*
X105872000Y-44010461D01*
X105771947Y-43910408D01*
X105706259Y-43871560D01*
X105698477Y-43865038D01*
X105684510Y-43844073D01*
X105667321Y-43825663D01*
X105665471Y-43815492D01*
X105659740Y-43806890D01*
X105659324Y-43781702D01*
X105654817Y-43756921D01*
X105658758Y-43747366D01*
X105658588Y-43737030D01*
X105671856Y-43715616D01*
X105681462Y-43692332D01*
X105691874Y-43683309D01*
X105695389Y-43677638D01*
X105702127Y-43674425D01*
X105715004Y-43663268D01*
X105771947Y-43629592D01*
X105868148Y-43533389D01*
X105882939Y-43520758D01*
X105962464Y-43462981D01*
X106102981Y-43322464D01*
X106219787Y-43161694D01*
X106310005Y-42984632D01*
X106371413Y-42795636D01*
X106402500Y-42599361D01*
X106402500Y-42400639D01*
X106371413Y-42204364D01*
X106310005Y-42015368D01*
X106310005Y-42015367D01*
X106264035Y-41925149D01*
X106219787Y-41838306D01*
X106102981Y-41677536D01*
X105962464Y-41537019D01*
X105882937Y-41479239D01*
X105876175Y-41473960D01*
X105872000Y-41470461D01*
X105771947Y-41370408D01*
X105706259Y-41331560D01*
X105698477Y-41325038D01*
X105684510Y-41304073D01*
X105667321Y-41285663D01*
X105665471Y-41275492D01*
X105659740Y-41266890D01*
X105659324Y-41241702D01*
X105654817Y-41216921D01*
X105658758Y-41207366D01*
X105658588Y-41197030D01*
X105671856Y-41175616D01*
X105681462Y-41152332D01*
X105691874Y-41143309D01*
X105695389Y-41137638D01*
X105702127Y-41134425D01*
X105715004Y-41123268D01*
X105771947Y-41089592D01*
X105868148Y-40993389D01*
X105882939Y-40980758D01*
X105962464Y-40922981D01*
X106102981Y-40782464D01*
X106219787Y-40621694D01*
X106310005Y-40444632D01*
X106371413Y-40255636D01*
X106402500Y-40059361D01*
X106402500Y-39860639D01*
X106395723Y-39817851D01*
X106404678Y-39748559D01*
X106449674Y-39695107D01*
X106516425Y-39674467D01*
X106583739Y-39693192D01*
X106605877Y-39710773D01*
X106735213Y-39840109D01*
X106907179Y-39965048D01*
X106907181Y-39965049D01*
X106907184Y-39965051D01*
X107096588Y-40061557D01*
X107298757Y-40127246D01*
X107508713Y-40160500D01*
X107508714Y-40160500D01*
X107721286Y-40160500D01*
X107721287Y-40160500D01*
X107931243Y-40127246D01*
X108133412Y-40061557D01*
X108322816Y-39965051D01*
X108344789Y-39949086D01*
X108494786Y-39840109D01*
X108494788Y-39840106D01*
X108494792Y-39840104D01*
X108645104Y-39689792D01*
X108645106Y-39689788D01*
X108645109Y-39689786D01*
X108770048Y-39517820D01*
X108770047Y-39517820D01*
X108770051Y-39517816D01*
X108866557Y-39328412D01*
X108932246Y-39126243D01*
X108965500Y-38916287D01*
X108965500Y-38703713D01*
X108932246Y-38493757D01*
X108866557Y-38291588D01*
X108770051Y-38102184D01*
X108770049Y-38102181D01*
X108770048Y-38102179D01*
X108645109Y-37930213D01*
X108494786Y-37779890D01*
X108322820Y-37654951D01*
X108322115Y-37654591D01*
X108314054Y-37650485D01*
X108263259Y-37602512D01*
X108246463Y-37534692D01*
X108268999Y-37468556D01*
X108314054Y-37429515D01*
X108322816Y-37425051D01*
X108382206Y-37381902D01*
X108494786Y-37300109D01*
X108494788Y-37300106D01*
X108494792Y-37300104D01*
X108645104Y-37149792D01*
X108645106Y-37149788D01*
X108645109Y-37149786D01*
X108770048Y-36977820D01*
X108770047Y-36977820D01*
X108770051Y-36977816D01*
X108866557Y-36788412D01*
X108932246Y-36586243D01*
X108965500Y-36376287D01*
X108965500Y-36163713D01*
X108932246Y-35953757D01*
X108866557Y-35751588D01*
X108770051Y-35562184D01*
X108770049Y-35562181D01*
X108770048Y-35562179D01*
X108645109Y-35390213D01*
X108494786Y-35239890D01*
X108322820Y-35114951D01*
X108322115Y-35114591D01*
X108314054Y-35110485D01*
X108263259Y-35062512D01*
X108246463Y-34994692D01*
X108268999Y-34928556D01*
X108314054Y-34889515D01*
X108322816Y-34885051D01*
X108410315Y-34821480D01*
X108494786Y-34760109D01*
X108494788Y-34760106D01*
X108494792Y-34760104D01*
X108645104Y-34609792D01*
X108645106Y-34609788D01*
X108645109Y-34609786D01*
X108770048Y-34437820D01*
X108770047Y-34437820D01*
X108770051Y-34437816D01*
X108866557Y-34248412D01*
X108932246Y-34046243D01*
X108965500Y-33836287D01*
X108965500Y-33623713D01*
X108932246Y-33413757D01*
X108866557Y-33211588D01*
X108770051Y-33022184D01*
X108770049Y-33022181D01*
X108770048Y-33022179D01*
X108645109Y-32850213D01*
X108531181Y-32736285D01*
X108497696Y-32674962D01*
X108502680Y-32605270D01*
X108544552Y-32549337D01*
X108575529Y-32532422D01*
X108707086Y-32483354D01*
X108707093Y-32483350D01*
X108822187Y-32397190D01*
X108822190Y-32397187D01*
X108908350Y-32282093D01*
X108908353Y-32282088D01*
X108923813Y-32240639D01*
X119117500Y-32240639D01*
X119117500Y-32439360D01*
X119148587Y-32635637D01*
X119209993Y-32824629D01*
X119209994Y-32824632D01*
X119281988Y-32965925D01*
X119300213Y-33001694D01*
X119417019Y-33162464D01*
X119417021Y-33162466D01*
X119557539Y-33302984D01*
X119637060Y-33360758D01*
X119643824Y-33366039D01*
X119647998Y-33369537D01*
X119748053Y-33469592D01*
X119813737Y-33508437D01*
X119821522Y-33514962D01*
X119835488Y-33535926D01*
X119852679Y-33554338D01*
X119854528Y-33564506D01*
X119860260Y-33573110D01*
X119860674Y-33598297D01*
X119865182Y-33623079D01*
X119861239Y-33632634D01*
X119861410Y-33642970D01*
X119848143Y-33664381D01*
X119838536Y-33687669D01*
X119828122Y-33696692D01*
X119824609Y-33702363D01*
X119817871Y-33705575D01*
X119804996Y-33716731D01*
X119761710Y-33742331D01*
X119748053Y-33750408D01*
X119748046Y-33750413D01*
X119651854Y-33846604D01*
X119637061Y-33859239D01*
X119557536Y-33917018D01*
X119417021Y-34057533D01*
X119300213Y-34218305D01*
X119209994Y-34395367D01*
X119209993Y-34395370D01*
X119148587Y-34584362D01*
X119117500Y-34780639D01*
X119117500Y-34979360D01*
X119148587Y-35175637D01*
X119209993Y-35364629D01*
X119209994Y-35364632D01*
X119268428Y-35479313D01*
X119300213Y-35541694D01*
X119417019Y-35702464D01*
X119417021Y-35702466D01*
X119557539Y-35842984D01*
X119637060Y-35900758D01*
X119643824Y-35906039D01*
X119647998Y-35909537D01*
X119748053Y-36009592D01*
X119813737Y-36048437D01*
X119821522Y-36054962D01*
X119835488Y-36075926D01*
X119852679Y-36094338D01*
X119854528Y-36104506D01*
X119860260Y-36113110D01*
X119860674Y-36138297D01*
X119865182Y-36163079D01*
X119861239Y-36172634D01*
X119861410Y-36182970D01*
X119848143Y-36204381D01*
X119838536Y-36227669D01*
X119828122Y-36236692D01*
X119824609Y-36242363D01*
X119817871Y-36245575D01*
X119804996Y-36256731D01*
X119777578Y-36272947D01*
X119748053Y-36290408D01*
X119748046Y-36290413D01*
X119651854Y-36386604D01*
X119637061Y-36399239D01*
X119557536Y-36457018D01*
X119417021Y-36597533D01*
X119300213Y-36758305D01*
X119209994Y-36935367D01*
X119209993Y-36935370D01*
X119148587Y-37124362D01*
X119117500Y-37320639D01*
X119117500Y-37519360D01*
X119148587Y-37715637D01*
X119209993Y-37904629D01*
X119209994Y-37904632D01*
X119259589Y-38001966D01*
X119300213Y-38081694D01*
X119417019Y-38242464D01*
X119417021Y-38242466D01*
X119557539Y-38382984D01*
X119637060Y-38440758D01*
X119643824Y-38446039D01*
X119647998Y-38449537D01*
X119748053Y-38549592D01*
X119813737Y-38588437D01*
X119821522Y-38594962D01*
X119835488Y-38615926D01*
X119852679Y-38634338D01*
X119854528Y-38644506D01*
X119860260Y-38653110D01*
X119860674Y-38678297D01*
X119865182Y-38703079D01*
X119861239Y-38712634D01*
X119861410Y-38722970D01*
X119848143Y-38744381D01*
X119838536Y-38767669D01*
X119828122Y-38776692D01*
X119824609Y-38782363D01*
X119817871Y-38785575D01*
X119804996Y-38796732D01*
X119748053Y-38830408D01*
X119748046Y-38830413D01*
X119651854Y-38926604D01*
X119637061Y-38939239D01*
X119557536Y-38997018D01*
X119417021Y-39137533D01*
X119300213Y-39298305D01*
X119209994Y-39475367D01*
X119209993Y-39475370D01*
X119148587Y-39664362D01*
X119135252Y-39748559D01*
X119117500Y-39860639D01*
X119117500Y-40059361D01*
X119117848Y-40061557D01*
X119148587Y-40255637D01*
X119209993Y-40444629D01*
X119209994Y-40444632D01*
X119300213Y-40621694D01*
X119417019Y-40782464D01*
X119417021Y-40782466D01*
X119557539Y-40922984D01*
X119637060Y-40980758D01*
X119643824Y-40986039D01*
X119647998Y-40989537D01*
X119748053Y-41089592D01*
X119813737Y-41128437D01*
X119821522Y-41134962D01*
X119835488Y-41155926D01*
X119852679Y-41174338D01*
X119854528Y-41184506D01*
X119860260Y-41193110D01*
X119860674Y-41218297D01*
X119865182Y-41243079D01*
X119861239Y-41252634D01*
X119861410Y-41262970D01*
X119848143Y-41284381D01*
X119838536Y-41307669D01*
X119828122Y-41316692D01*
X119824609Y-41322363D01*
X119817871Y-41325575D01*
X119804996Y-41336732D01*
X119748053Y-41370408D01*
X119748046Y-41370413D01*
X119651854Y-41466604D01*
X119637061Y-41479239D01*
X119557536Y-41537018D01*
X119417021Y-41677533D01*
X119300213Y-41838305D01*
X119209994Y-42015367D01*
X119209993Y-42015370D01*
X119148587Y-42204362D01*
X119117500Y-42400639D01*
X119117500Y-42599360D01*
X119148587Y-42795637D01*
X119209993Y-42984629D01*
X119209994Y-42984632D01*
X119300213Y-43161694D01*
X119417019Y-43322464D01*
X119417021Y-43322466D01*
X119557539Y-43462984D01*
X119637060Y-43520758D01*
X119643824Y-43526039D01*
X119647998Y-43529537D01*
X119748053Y-43629592D01*
X119813737Y-43668437D01*
X119821522Y-43674962D01*
X119835488Y-43695926D01*
X119852679Y-43714338D01*
X119854528Y-43724506D01*
X119860260Y-43733110D01*
X119860674Y-43758297D01*
X119865182Y-43783079D01*
X119861239Y-43792634D01*
X119861410Y-43802970D01*
X119848143Y-43824381D01*
X119838536Y-43847669D01*
X119828122Y-43856692D01*
X119824609Y-43862363D01*
X119817871Y-43865575D01*
X119804996Y-43876732D01*
X119748053Y-43910408D01*
X119748046Y-43910413D01*
X119651854Y-44006604D01*
X119637061Y-44019239D01*
X119557536Y-44077018D01*
X119417021Y-44217533D01*
X119300213Y-44378305D01*
X119209994Y-44555367D01*
X119209993Y-44555370D01*
X119148587Y-44744362D01*
X119117500Y-44940639D01*
X119117500Y-45139360D01*
X119148587Y-45335637D01*
X119209993Y-45524629D01*
X119209994Y-45524632D01*
X119300213Y-45701694D01*
X119417019Y-45862464D01*
X119417021Y-45862466D01*
X119557539Y-46002984D01*
X119637060Y-46060758D01*
X119643824Y-46066039D01*
X119647998Y-46069537D01*
X119748053Y-46169592D01*
X119813737Y-46208437D01*
X119821522Y-46214962D01*
X119835488Y-46235926D01*
X119852679Y-46254338D01*
X119854528Y-46264506D01*
X119860260Y-46273110D01*
X119860674Y-46298297D01*
X119865182Y-46323079D01*
X119861239Y-46332634D01*
X119861410Y-46342970D01*
X119848143Y-46364381D01*
X119838536Y-46387669D01*
X119828122Y-46396692D01*
X119824609Y-46402363D01*
X119817871Y-46405575D01*
X119804996Y-46416732D01*
X119748053Y-46450408D01*
X119748046Y-46450413D01*
X119651854Y-46546604D01*
X119637061Y-46559239D01*
X119557536Y-46617018D01*
X119417021Y-46757533D01*
X119300213Y-46918305D01*
X119209994Y-47095367D01*
X119209993Y-47095370D01*
X119148587Y-47284362D01*
X119117500Y-47480639D01*
X119117500Y-47679360D01*
X119148587Y-47875637D01*
X119209993Y-48064629D01*
X119209994Y-48064632D01*
X119246032Y-48135359D01*
X119300213Y-48241694D01*
X119417019Y-48402464D01*
X119417021Y-48402466D01*
X119557539Y-48542984D01*
X119637060Y-48600758D01*
X119651851Y-48613390D01*
X119748053Y-48709592D01*
X119890041Y-48793564D01*
X119912197Y-48800001D01*
X120048447Y-48839586D01*
X120048450Y-48839586D01*
X120048452Y-48839587D01*
X120085466Y-48842500D01*
X120085474Y-48842500D01*
X122344526Y-48842500D01*
X122344534Y-48842500D01*
X122381548Y-48839587D01*
X122381550Y-48839586D01*
X122381552Y-48839586D01*
X122423323Y-48827449D01*
X122539959Y-48793564D01*
X122681947Y-48709592D01*
X122717468Y-48674071D01*
X133120000Y-48674071D01*
X133120000Y-48925928D01*
X133159397Y-49174669D01*
X133237219Y-49414184D01*
X133351557Y-49638583D01*
X133425748Y-49740697D01*
X133425748Y-49740698D01*
X134042421Y-49124024D01*
X134055359Y-49155258D01*
X134137437Y-49278097D01*
X134241903Y-49382563D01*
X134364742Y-49464641D01*
X134395974Y-49477577D01*
X133779300Y-50094250D01*
X133881416Y-50168442D01*
X134105815Y-50282780D01*
X134345330Y-50360602D01*
X134594072Y-50400000D01*
X134845928Y-50400000D01*
X135094669Y-50360602D01*
X135334184Y-50282780D01*
X135558575Y-50168446D01*
X135558581Y-50168442D01*
X135660697Y-50094250D01*
X135660698Y-50094250D01*
X135044025Y-49477578D01*
X135075258Y-49464641D01*
X135198097Y-49382563D01*
X135302563Y-49278097D01*
X135384641Y-49155258D01*
X135397577Y-49124025D01*
X136014250Y-49740698D01*
X136014250Y-49740697D01*
X136088442Y-49638581D01*
X136088446Y-49638575D01*
X136202780Y-49414184D01*
X136280602Y-49174669D01*
X136320000Y-48925928D01*
X136320000Y-48674071D01*
X136280602Y-48425330D01*
X136202780Y-48185815D01*
X136088442Y-47961416D01*
X136014250Y-47859301D01*
X136014250Y-47859300D01*
X135397577Y-48475973D01*
X135384641Y-48444742D01*
X135302563Y-48321903D01*
X135198097Y-48217437D01*
X135075258Y-48135359D01*
X135044024Y-48122421D01*
X135660698Y-47505748D01*
X135558583Y-47431557D01*
X135334184Y-47317219D01*
X135094669Y-47239397D01*
X134845928Y-47200000D01*
X134594072Y-47200000D01*
X134345330Y-47239397D01*
X134105815Y-47317219D01*
X133881413Y-47431559D01*
X133779301Y-47505747D01*
X133779300Y-47505748D01*
X134395974Y-48122421D01*
X134364742Y-48135359D01*
X134241903Y-48217437D01*
X134137437Y-48321903D01*
X134055359Y-48444742D01*
X134042421Y-48475974D01*
X133425748Y-47859300D01*
X133425747Y-47859301D01*
X133351559Y-47961413D01*
X133237219Y-48185815D01*
X133159397Y-48425330D01*
X133120000Y-48674071D01*
X122717468Y-48674071D01*
X122798592Y-48592947D01*
X122882564Y-48450959D01*
X122928587Y-48292548D01*
X122931500Y-48255534D01*
X122931500Y-46904466D01*
X122928587Y-46867452D01*
X122882564Y-46709041D01*
X122798592Y-46567053D01*
X122798590Y-46567051D01*
X122798587Y-46567047D01*
X122681952Y-46450412D01*
X122681944Y-46450406D01*
X122625004Y-46416732D01*
X122577321Y-46365663D01*
X122564817Y-46296921D01*
X122591462Y-46232332D01*
X122625004Y-46203268D01*
X122681947Y-46169592D01*
X122798592Y-46052947D01*
X122882564Y-45910959D01*
X122928587Y-45752548D01*
X122931500Y-45715534D01*
X122931500Y-44364466D01*
X122928587Y-44327452D01*
X122882564Y-44169041D01*
X122798592Y-44027053D01*
X122798590Y-44027051D01*
X122798587Y-44027047D01*
X122681952Y-43910412D01*
X122681944Y-43910406D01*
X122625004Y-43876732D01*
X122577321Y-43825663D01*
X122564817Y-43756921D01*
X122591462Y-43692332D01*
X122625004Y-43663268D01*
X122681947Y-43629592D01*
X122798592Y-43512947D01*
X122882564Y-43370959D01*
X122928587Y-43212548D01*
X122931500Y-43175534D01*
X122931500Y-41824466D01*
X122928587Y-41787452D01*
X122905353Y-41707482D01*
X122882565Y-41629045D01*
X122882564Y-41629042D01*
X122882564Y-41629041D01*
X122798592Y-41487053D01*
X122798590Y-41487051D01*
X122798587Y-41487047D01*
X122681952Y-41370412D01*
X122681944Y-41370406D01*
X122625004Y-41336732D01*
X122577321Y-41285663D01*
X122564817Y-41216921D01*
X122591462Y-41152332D01*
X122625004Y-41123268D01*
X122681947Y-41089592D01*
X122798592Y-40972947D01*
X122882564Y-40830959D01*
X122928587Y-40672548D01*
X122931500Y-40635534D01*
X122931500Y-39552135D01*
X151649500Y-39552135D01*
X151649500Y-41647870D01*
X151649501Y-41647876D01*
X151655908Y-41707483D01*
X151706202Y-41842328D01*
X151706206Y-41842335D01*
X151792452Y-41957544D01*
X151792455Y-41957547D01*
X151907664Y-42043793D01*
X151907671Y-42043797D01*
X152042517Y-42094091D01*
X152042516Y-42094091D01*
X152049444Y-42094835D01*
X152102127Y-42100500D01*
X155397872Y-42100499D01*
X155457483Y-42094091D01*
X155592331Y-42043796D01*
X155707546Y-41957546D01*
X155793796Y-41842331D01*
X155844091Y-41707483D01*
X155850500Y-41647873D01*
X155850499Y-39552128D01*
X155844091Y-39492517D01*
X155837694Y-39475367D01*
X155793797Y-39357671D01*
X155793793Y-39357664D01*
X155707547Y-39242455D01*
X155707544Y-39242452D01*
X155592335Y-39156206D01*
X155592328Y-39156202D01*
X155457482Y-39105908D01*
X155457483Y-39105908D01*
X155397883Y-39099501D01*
X155397881Y-39099500D01*
X155397873Y-39099500D01*
X155397864Y-39099500D01*
X152102129Y-39099500D01*
X152102123Y-39099501D01*
X152042516Y-39105908D01*
X151907671Y-39156202D01*
X151907664Y-39156206D01*
X151792455Y-39242452D01*
X151792452Y-39242455D01*
X151706206Y-39357664D01*
X151706202Y-39357671D01*
X151655908Y-39492517D01*
X151649501Y-39552116D01*
X151649501Y-39552123D01*
X151649500Y-39552135D01*
X122931500Y-39552135D01*
X122931500Y-39284466D01*
X122928587Y-39247452D01*
X122927135Y-39242455D01*
X122882565Y-39089045D01*
X122882564Y-39089042D01*
X122882564Y-39089041D01*
X122798592Y-38947053D01*
X122798590Y-38947051D01*
X122798587Y-38947047D01*
X122681952Y-38830412D01*
X122681944Y-38830406D01*
X122625004Y-38796732D01*
X122577321Y-38745663D01*
X122564817Y-38676921D01*
X122591462Y-38612332D01*
X122625004Y-38583268D01*
X122681947Y-38549592D01*
X122798592Y-38432947D01*
X122882564Y-38290959D01*
X122924994Y-38144914D01*
X122928586Y-38132552D01*
X122928587Y-38132546D01*
X122931500Y-38095534D01*
X122931500Y-36744466D01*
X122928587Y-36707452D01*
X122882564Y-36549041D01*
X122798592Y-36407053D01*
X122798590Y-36407051D01*
X122798587Y-36407047D01*
X122681952Y-36290412D01*
X122681944Y-36290406D01*
X122652389Y-36272927D01*
X122625003Y-36256731D01*
X122577321Y-36205663D01*
X122564817Y-36136921D01*
X122591462Y-36072332D01*
X122625004Y-36043268D01*
X122625498Y-36042976D01*
X122681947Y-36009592D01*
X122798592Y-35892947D01*
X122882564Y-35750959D01*
X122928587Y-35592548D01*
X122931500Y-35555534D01*
X122931500Y-34204466D01*
X122928587Y-34167452D01*
X122926068Y-34158783D01*
X122890407Y-34036037D01*
X122882564Y-34009041D01*
X122798592Y-33867053D01*
X122798590Y-33867051D01*
X122798587Y-33867047D01*
X122681952Y-33750412D01*
X122681944Y-33750406D01*
X122652389Y-33732927D01*
X122625003Y-33716731D01*
X122577321Y-33665663D01*
X122564817Y-33596921D01*
X122591462Y-33532332D01*
X122625004Y-33503268D01*
X122681947Y-33469592D01*
X122798592Y-33352947D01*
X122882564Y-33210959D01*
X122924994Y-33064914D01*
X122928586Y-33052552D01*
X122928587Y-33052546D01*
X122931500Y-33015534D01*
X122931500Y-31664466D01*
X122928587Y-31627452D01*
X122896653Y-31517536D01*
X122886739Y-31483410D01*
X122886737Y-31483403D01*
X122883452Y-31472097D01*
X122882564Y-31469041D01*
X122872566Y-31452135D01*
X144749500Y-31452135D01*
X144749500Y-33547870D01*
X144749501Y-33547876D01*
X144755908Y-33607483D01*
X144806202Y-33742328D01*
X144806206Y-33742335D01*
X144892452Y-33857544D01*
X144892453Y-33857544D01*
X144892454Y-33857546D01*
X144935943Y-33890102D01*
X145010599Y-33945990D01*
X145052469Y-34001924D01*
X145057453Y-34071615D01*
X145036605Y-34118141D01*
X144967087Y-34213824D01*
X144859897Y-34424197D01*
X144786934Y-34648752D01*
X144750000Y-34881947D01*
X144750000Y-35118052D01*
X144786934Y-35351247D01*
X144859897Y-35575802D01*
X144967087Y-35786174D01*
X145027338Y-35869104D01*
X145027340Y-35869105D01*
X145767037Y-35129408D01*
X145784075Y-35192993D01*
X145849901Y-35307007D01*
X145942993Y-35400099D01*
X146057007Y-35465925D01*
X146120590Y-35482962D01*
X145374280Y-36229271D01*
X145365105Y-36272947D01*
X145328739Y-36314615D01*
X145272490Y-36355482D01*
X145105485Y-36522487D01*
X145105485Y-36522488D01*
X145105483Y-36522490D01*
X145059164Y-36586243D01*
X144966657Y-36713566D01*
X144859433Y-36924003D01*
X144786446Y-37148631D01*
X144749500Y-37381902D01*
X144749500Y-37618097D01*
X144786446Y-37851368D01*
X144859433Y-38075996D01*
X144944255Y-38242467D01*
X144966657Y-38286433D01*
X145105483Y-38477510D01*
X145272490Y-38644517D01*
X145463567Y-38783343D01*
X145555933Y-38830406D01*
X145674003Y-38890566D01*
X145674005Y-38890566D01*
X145674008Y-38890568D01*
X145753160Y-38916286D01*
X145898631Y-38963553D01*
X146131903Y-39000500D01*
X146131908Y-39000500D01*
X146368097Y-39000500D01*
X146601368Y-38963553D01*
X146652140Y-38947056D01*
X146825992Y-38890568D01*
X147036433Y-38783343D01*
X147227510Y-38644517D01*
X147394517Y-38477510D01*
X147533343Y-38286433D01*
X147640568Y-38075992D01*
X147713553Y-37851368D01*
X147735051Y-37715636D01*
X147750500Y-37618097D01*
X147750500Y-37381902D01*
X159249500Y-37381902D01*
X159249500Y-37618097D01*
X159286446Y-37851368D01*
X159359433Y-38075996D01*
X159444255Y-38242467D01*
X159466657Y-38286433D01*
X159605483Y-38477510D01*
X159772490Y-38644517D01*
X159963567Y-38783343D01*
X160055933Y-38830406D01*
X160174003Y-38890566D01*
X160174005Y-38890566D01*
X160174008Y-38890568D01*
X160253160Y-38916286D01*
X160398631Y-38963553D01*
X160631903Y-39000500D01*
X160631908Y-39000500D01*
X160868097Y-39000500D01*
X161101368Y-38963553D01*
X161152140Y-38947056D01*
X161325992Y-38890568D01*
X161536433Y-38783343D01*
X161727510Y-38644517D01*
X161894517Y-38477510D01*
X162033343Y-38286433D01*
X162140568Y-38075992D01*
X162213553Y-37851368D01*
X162235051Y-37715636D01*
X162250500Y-37618097D01*
X162250500Y-37381902D01*
X162213553Y-37148631D01*
X162179689Y-37044412D01*
X162140568Y-36924008D01*
X162140566Y-36924005D01*
X162140566Y-36924003D01*
X162071478Y-36788412D01*
X162033343Y-36713567D01*
X161894517Y-36522490D01*
X161727510Y-36355483D01*
X161536433Y-36216657D01*
X161512340Y-36204381D01*
X161325996Y-36109433D01*
X161101368Y-36036446D01*
X160868097Y-35999500D01*
X160868092Y-35999500D01*
X160631908Y-35999500D01*
X160631903Y-35999500D01*
X160398631Y-36036446D01*
X160174003Y-36109433D01*
X159963566Y-36216657D01*
X159862058Y-36290408D01*
X159772490Y-36355483D01*
X159772488Y-36355485D01*
X159772487Y-36355485D01*
X159605485Y-36522487D01*
X159605485Y-36522488D01*
X159605483Y-36522490D01*
X159559164Y-36586243D01*
X159466657Y-36713566D01*
X159359433Y-36924003D01*
X159286446Y-37148631D01*
X159249500Y-37381902D01*
X147750500Y-37381902D01*
X147713553Y-37148631D01*
X147679689Y-37044412D01*
X147640568Y-36924008D01*
X147640566Y-36924005D01*
X147640566Y-36924003D01*
X147571478Y-36788412D01*
X147533343Y-36713567D01*
X147394517Y-36522490D01*
X147227510Y-36355483D01*
X147171259Y-36314614D01*
X147128595Y-36259284D01*
X147123902Y-36227455D01*
X146379408Y-35482962D01*
X146442993Y-35465925D01*
X146557007Y-35400099D01*
X146650099Y-35307007D01*
X146715925Y-35192993D01*
X146732962Y-35129409D01*
X147472658Y-35869105D01*
X147472658Y-35869104D01*
X147532914Y-35786169D01*
X147532918Y-35786163D01*
X147640102Y-35575802D01*
X147713065Y-35351247D01*
X147750000Y-35118052D01*
X147750000Y-34881947D01*
X147713065Y-34648752D01*
X147640102Y-34424197D01*
X147532914Y-34213828D01*
X147463394Y-34118142D01*
X147439914Y-34052335D01*
X147455739Y-33984281D01*
X147489401Y-33945989D01*
X147492329Y-33943796D01*
X147492331Y-33943796D01*
X147607546Y-33857546D01*
X147693796Y-33742331D01*
X147744091Y-33607483D01*
X147750500Y-33547873D01*
X147750499Y-32381947D01*
X159250000Y-32381947D01*
X159250000Y-32618052D01*
X159286934Y-32851247D01*
X159359897Y-33075802D01*
X159467087Y-33286174D01*
X159527338Y-33369104D01*
X159527340Y-33369105D01*
X160267037Y-32629408D01*
X160284075Y-32692993D01*
X160349901Y-32807007D01*
X160442993Y-32900099D01*
X160557007Y-32965925D01*
X160620590Y-32982962D01*
X159880893Y-33722658D01*
X159963828Y-33782914D01*
X160174197Y-33890102D01*
X160398752Y-33963065D01*
X160398751Y-33963065D01*
X160631948Y-34000000D01*
X160868052Y-34000000D01*
X161101247Y-33963065D01*
X161325802Y-33890102D01*
X161536163Y-33782918D01*
X161536169Y-33782914D01*
X161619104Y-33722658D01*
X161619105Y-33722658D01*
X160879408Y-32982962D01*
X160942993Y-32965925D01*
X161057007Y-32900099D01*
X161150099Y-32807007D01*
X161215925Y-32692993D01*
X161232962Y-32629408D01*
X161972658Y-33369105D01*
X161972658Y-33369104D01*
X162032914Y-33286169D01*
X162032918Y-33286163D01*
X162140102Y-33075802D01*
X162213065Y-32851247D01*
X162250000Y-32618052D01*
X162250000Y-32381947D01*
X162213065Y-32148752D01*
X162140102Y-31924197D01*
X162032914Y-31713828D01*
X161972658Y-31630894D01*
X161972658Y-31630893D01*
X161232962Y-32370590D01*
X161215925Y-32307007D01*
X161150099Y-32192993D01*
X161057007Y-32099901D01*
X160942993Y-32034075D01*
X160879409Y-32017037D01*
X161619105Y-31277340D01*
X161619104Y-31277338D01*
X161536174Y-31217087D01*
X161325802Y-31109897D01*
X161101247Y-31036934D01*
X161101248Y-31036934D01*
X160868052Y-31000000D01*
X160631948Y-31000000D01*
X160398752Y-31036934D01*
X160174197Y-31109897D01*
X159963830Y-31217084D01*
X159880894Y-31277340D01*
X160620591Y-32017037D01*
X160557007Y-32034075D01*
X160442993Y-32099901D01*
X160349901Y-32192993D01*
X160284075Y-32307007D01*
X160267037Y-32370591D01*
X159527340Y-31630894D01*
X159467084Y-31713830D01*
X159359897Y-31924197D01*
X159286934Y-32148752D01*
X159250000Y-32381947D01*
X147750499Y-32381947D01*
X147750499Y-31452128D01*
X147744091Y-31392517D01*
X147740539Y-31382993D01*
X147734922Y-31367931D01*
X147693797Y-31257671D01*
X147693793Y-31257664D01*
X147607547Y-31142455D01*
X147607544Y-31142452D01*
X147492335Y-31056206D01*
X147492328Y-31056202D01*
X147357482Y-31005908D01*
X147357483Y-31005908D01*
X147297883Y-30999501D01*
X147297881Y-30999500D01*
X147297873Y-30999500D01*
X147297864Y-30999500D01*
X145202129Y-30999500D01*
X145202123Y-30999501D01*
X145142516Y-31005908D01*
X145007671Y-31056202D01*
X145007664Y-31056206D01*
X144892455Y-31142452D01*
X144892452Y-31142455D01*
X144806206Y-31257664D01*
X144806202Y-31257671D01*
X144755908Y-31392517D01*
X144749501Y-31452116D01*
X144749501Y-31452123D01*
X144749500Y-31452135D01*
X122872566Y-31452135D01*
X122798592Y-31327053D01*
X122798590Y-31327051D01*
X122798587Y-31327047D01*
X122681952Y-31210412D01*
X122681943Y-31210405D01*
X122539957Y-31126435D01*
X122539954Y-31126434D01*
X122381552Y-31080413D01*
X122381546Y-31080412D01*
X122344541Y-31077500D01*
X122344534Y-31077500D01*
X120085466Y-31077500D01*
X120085458Y-31077500D01*
X120048453Y-31080412D01*
X120048447Y-31080413D01*
X119890045Y-31126434D01*
X119890042Y-31126435D01*
X119748056Y-31210405D01*
X119748046Y-31210413D01*
X119651854Y-31306604D01*
X119637061Y-31319239D01*
X119557536Y-31377018D01*
X119417021Y-31517533D01*
X119300213Y-31678305D01*
X119209994Y-31855367D01*
X119209993Y-31855370D01*
X119148587Y-32044362D01*
X119117500Y-32240639D01*
X108923813Y-32240639D01*
X108941793Y-32192433D01*
X108941794Y-32192431D01*
X108958596Y-32147382D01*
X108958598Y-32147372D01*
X108964999Y-32087844D01*
X108965000Y-32087827D01*
X108965000Y-31440000D01*
X108048012Y-31440000D01*
X108080925Y-31382993D01*
X108115000Y-31255826D01*
X108115000Y-31124174D01*
X108080925Y-30997007D01*
X108048012Y-30940000D01*
X108965000Y-30940000D01*
X108965000Y-30292172D01*
X108964999Y-30292155D01*
X108958598Y-30232627D01*
X108958596Y-30232620D01*
X108908354Y-30097913D01*
X108908350Y-30097906D01*
X108822190Y-29982812D01*
X108822187Y-29982809D01*
X108707093Y-29896649D01*
X108707086Y-29896645D01*
X108572379Y-29846403D01*
X108572372Y-29846401D01*
X108512844Y-29840000D01*
X107865000Y-29840000D01*
X107865000Y-30756988D01*
X107807993Y-30724075D01*
X107680826Y-30690000D01*
X107549174Y-30690000D01*
X107422007Y-30724075D01*
X107365000Y-30756988D01*
X107365000Y-29840000D01*
X106717155Y-29840000D01*
X106657627Y-29846401D01*
X106657620Y-29846403D01*
X106522913Y-29896645D01*
X106522906Y-29896649D01*
X106407812Y-29982809D01*
X106407809Y-29982812D01*
X106321649Y-30097906D01*
X106321645Y-30097913D01*
X106271403Y-30232620D01*
X106271401Y-30232627D01*
X106265000Y-30292155D01*
X106265000Y-30940000D01*
X107181988Y-30940000D01*
X107149075Y-30997007D01*
X107115000Y-31124174D01*
X107115000Y-31255826D01*
X107149075Y-31382993D01*
X107181988Y-31440000D01*
X106265000Y-31440000D01*
X106232903Y-31472097D01*
X106171579Y-31505581D01*
X106101888Y-31500596D01*
X106057541Y-31472096D01*
X105962466Y-31377021D01*
X105962462Y-31377018D01*
X105949955Y-31367931D01*
X105882938Y-31319240D01*
X105868147Y-31306608D01*
X105771947Y-31210408D01*
X105771946Y-31210407D01*
X105771943Y-31210405D01*
X105629957Y-31126435D01*
X105629954Y-31126434D01*
X105471552Y-31080413D01*
X105471546Y-31080412D01*
X105434541Y-31077500D01*
X105434534Y-31077500D01*
X103175466Y-31077500D01*
X103175458Y-31077500D01*
X103138453Y-31080412D01*
X103138447Y-31080413D01*
X102980045Y-31126434D01*
X102980042Y-31126435D01*
X102838056Y-31210405D01*
X102838047Y-31210412D01*
X102721412Y-31327047D01*
X102721405Y-31327056D01*
X102637435Y-31469042D01*
X102637434Y-31469045D01*
X102591413Y-31627447D01*
X102591412Y-31627453D01*
X102588500Y-31664458D01*
X101500500Y-31664458D01*
X101500500Y-28124500D01*
X101520185Y-28057461D01*
X101572989Y-28011706D01*
X101624500Y-28000500D01*
X151586231Y-28000500D01*
X151615674Y-28009145D01*
G37*
%TD.AperFunction*%
%TD*%
M02*
