M48
; DRILL file {KiCad 9.0.7} date 2026-07-12T23:44:44+0200
; FORMAT={-:-/ absolute / metric / decimal}
; #@! TF.CreationDate,2026-07-12T23:44:44+02:00
; #@! TF.GenerationSoftware,Kicad,Pcbnew,9.0.7
; #@! TF.FileFunction,Plated,1,2,PTH
FMAT,2
METRIC
; #@! TA.AperFunction,Plated,PTH,ComponentDrill
T1C0.889
; #@! TA.AperFunction,Plated,PTH,ComponentDrill
T2C1.000
; #@! TA.AperFunction,Plated,PTH,ComponentDrill
T3C1.500
%
G90
G05
T1
X105.14Y-32.34
X105.14Y-34.88
X105.14Y-37.42
X105.14Y-39.96
X105.14Y-42.5
X105.14Y-45.04
X105.14Y-47.58
X120.38Y-32.34
X120.38Y-34.88
X120.38Y-37.42
X120.38Y-39.96
X120.38Y-42.5
X120.38Y-45.04
X120.38Y-47.58
T2
X107.615Y-31.19
X107.615Y-33.73
X107.615Y-36.27
X107.615Y-38.81
X146.25Y-32.5
X146.25Y-35.0
X146.25Y-37.5
X160.75Y-32.5
X160.75Y-37.5
T3
X109.16Y-70.54
X115.51Y-68.0
X128.37Y-51.34
X128.38Y-70.54
X134.72Y-48.8
X134.73Y-68.0
X147.64Y-70.54
X153.99Y-68.0
T3
X153.1Y-29.4G85X154.4Y-29.4
G05
X153.1Y-40.6G85X154.4Y-40.6
G05
M30
