%TF.GenerationSoftware,KiCad,Pcbnew,9.0.7*%
%TF.CreationDate,2026-07-12T23:44:44+02:00*%
%TF.ProjectId,macro pad,6d616372-6f20-4706-9164-2e6b69636164,rev?*%
%TF.SameCoordinates,Original*%
%TF.FileFunction,Drillmap*%
%TF.FilePolarity,Positive*%
%FSLAX45Y45*%
G04 Gerber Fmt 4.5, Leading zero omitted, Abs format (unit mm)*
G04 Created by KiCad (PCBNEW 9.0.7) date 2026-07-12 23:44:44*
%MOMM*%
%LPD*%
G01*
G04 APERTURE LIST*
%ADD10C,0.050000*%
%ADD11C,0.200000*%
%ADD12C,0.100000*%
%ADD13C,0.150000*%
G04 APERTURE END LIST*
D10*
X10100000Y-2750000D02*
X16300000Y-2750000D01*
X10100000Y-8350000D02*
X10100000Y-2750000D01*
X10300000Y-8350000D02*
X10100000Y-8350000D01*
X16300000Y-8350000D02*
X10300000Y-8350000D01*
X16300000Y-2750000D02*
X16300000Y-8350000D01*
D11*
D12*
X10469550Y-3189550D02*
X10558450Y-3278450D01*
X10558450Y-3189550D02*
X10469550Y-3278450D01*
X10469550Y-3443550D02*
X10558450Y-3532450D01*
X10558450Y-3443550D02*
X10469550Y-3532450D01*
X10469550Y-3697550D02*
X10558450Y-3786450D01*
X10558450Y-3697550D02*
X10469550Y-3786450D01*
X10469550Y-3951550D02*
X10558450Y-4040450D01*
X10558450Y-3951550D02*
X10469550Y-4040450D01*
X10469550Y-4205550D02*
X10558450Y-4294450D01*
X10558450Y-4205550D02*
X10469550Y-4294450D01*
X10469550Y-4459550D02*
X10558450Y-4548450D01*
X10558450Y-4459550D02*
X10469550Y-4548450D01*
X10469550Y-4713550D02*
X10558450Y-4802450D01*
X10558450Y-4713550D02*
X10469550Y-4802450D01*
X11993550Y-3189550D02*
X12082450Y-3278450D01*
X12082450Y-3189550D02*
X11993550Y-3278450D01*
X11993550Y-3443550D02*
X12082450Y-3532450D01*
X12082450Y-3443550D02*
X11993550Y-3532450D01*
X11993550Y-3697550D02*
X12082450Y-3786450D01*
X12082450Y-3697550D02*
X11993550Y-3786450D01*
X11993550Y-3951550D02*
X12082450Y-4040450D01*
X12082450Y-3951550D02*
X11993550Y-4040450D01*
X11993550Y-4205550D02*
X12082450Y-4294450D01*
X12082450Y-4205550D02*
X11993550Y-4294450D01*
X11993550Y-4459550D02*
X12082450Y-4548450D01*
X12082450Y-4459550D02*
X11993550Y-4548450D01*
X11993550Y-4713550D02*
X12082450Y-4802450D01*
X12082450Y-4713550D02*
X11993550Y-4802450D01*
X10811500Y-3119000D02*
G75*
G02*
X10711500Y-3119000I-50000J0D01*
G01*
X10711500Y-3119000D02*
G75*
G02*
X10811500Y-3119000I50000J0D01*
G01*
X10811500Y-3373000D02*
G75*
G02*
X10711500Y-3373000I-50000J0D01*
G01*
X10711500Y-3373000D02*
G75*
G02*
X10811500Y-3373000I50000J0D01*
G01*
X10811500Y-3627000D02*
G75*
G02*
X10711500Y-3627000I-50000J0D01*
G01*
X10711500Y-3627000D02*
G75*
G02*
X10811500Y-3627000I50000J0D01*
G01*
X10811500Y-3881000D02*
G75*
G02*
X10711500Y-3881000I-50000J0D01*
G01*
X10711500Y-3881000D02*
G75*
G02*
X10811500Y-3881000I50000J0D01*
G01*
X14675000Y-3250000D02*
G75*
G02*
X14575000Y-3250000I-50000J0D01*
G01*
X14575000Y-3250000D02*
G75*
G02*
X14675000Y-3250000I50000J0D01*
G01*
X14675000Y-3500000D02*
G75*
G02*
X14575000Y-3500000I-50000J0D01*
G01*
X14575000Y-3500000D02*
G75*
G02*
X14675000Y-3500000I50000J0D01*
G01*
X14675000Y-3750000D02*
G75*
G02*
X14575000Y-3750000I-50000J0D01*
G01*
X14575000Y-3750000D02*
G75*
G02*
X14675000Y-3750000I50000J0D01*
G01*
X16125000Y-3250000D02*
G75*
G02*
X16025000Y-3250000I-50000J0D01*
G01*
X16025000Y-3250000D02*
G75*
G02*
X16125000Y-3250000I50000J0D01*
G01*
X16125000Y-3750000D02*
G75*
G02*
X16025000Y-3750000I-50000J0D01*
G01*
X16025000Y-3750000D02*
G75*
G02*
X16125000Y-3750000I50000J0D01*
G01*
D13*
X10916000Y-6979000D02*
X10916000Y-7129000D01*
X10841000Y-7054000D02*
X10991000Y-7054000D01*
X11551000Y-6725000D02*
X11551000Y-6875000D01*
X11476000Y-6800000D02*
X11626000Y-6800000D01*
X12837000Y-5059000D02*
X12837000Y-5209000D01*
X12762000Y-5134000D02*
X12912000Y-5134000D01*
X12838000Y-6979000D02*
X12838000Y-7129000D01*
X12763000Y-7054000D02*
X12913000Y-7054000D01*
X13472000Y-4805000D02*
X13472000Y-4955000D01*
X13397000Y-4880000D02*
X13547000Y-4880000D01*
X13473000Y-6725000D02*
X13473000Y-6875000D01*
X13398000Y-6800000D02*
X13548000Y-6800000D01*
X14764000Y-6979000D02*
X14764000Y-7129000D01*
X14689000Y-7054000D02*
X14839000Y-7054000D01*
X15375000Y-2865000D02*
X15375000Y-3015000D01*
X15300000Y-2940000D02*
X15450000Y-2940000D01*
D12*
X15310000Y-3015000D02*
X15440000Y-3015000D01*
X15440000Y-2865000D02*
G75*
G02*
X15440000Y-3015000I0J-75000D01*
G01*
X15440000Y-2865000D02*
X15310000Y-2865000D01*
X15310000Y-2865000D02*
G75*
G03*
X15310000Y-3015000I0J-75000D01*
G01*
D13*
X15375000Y-3985000D02*
X15375000Y-4135000D01*
X15300000Y-4060000D02*
X15450000Y-4060000D01*
D12*
X15310000Y-4135000D02*
X15440000Y-4135000D01*
X15440000Y-3985000D02*
G75*
G02*
X15440000Y-4135000I0J-75000D01*
G01*
X15440000Y-3985000D02*
X15310000Y-3985000D01*
X15310000Y-3985000D02*
G75*
G03*
X15310000Y-4135000I0J-75000D01*
G01*
D13*
X15399000Y-6725000D02*
X15399000Y-6875000D01*
X15324000Y-6800000D02*
X15474000Y-6800000D01*
D11*
X10358277Y-8663984D02*
X10358277Y-8463984D01*
X10358277Y-8463984D02*
X10405896Y-8463984D01*
X10405896Y-8463984D02*
X10434467Y-8473508D01*
X10434467Y-8473508D02*
X10453515Y-8492555D01*
X10453515Y-8492555D02*
X10463039Y-8511603D01*
X10463039Y-8511603D02*
X10472563Y-8549698D01*
X10472563Y-8549698D02*
X10472563Y-8578270D01*
X10472563Y-8578270D02*
X10463039Y-8616365D01*
X10463039Y-8616365D02*
X10453515Y-8635412D01*
X10453515Y-8635412D02*
X10434467Y-8654460D01*
X10434467Y-8654460D02*
X10405896Y-8663984D01*
X10405896Y-8663984D02*
X10358277Y-8663984D01*
X10558277Y-8663984D02*
X10558277Y-8530650D01*
X10558277Y-8568746D02*
X10567801Y-8549698D01*
X10567801Y-8549698D02*
X10577324Y-8540174D01*
X10577324Y-8540174D02*
X10596372Y-8530650D01*
X10596372Y-8530650D02*
X10615420Y-8530650D01*
X10682086Y-8663984D02*
X10682086Y-8530650D01*
X10682086Y-8463984D02*
X10672563Y-8473508D01*
X10672563Y-8473508D02*
X10682086Y-8483031D01*
X10682086Y-8483031D02*
X10691610Y-8473508D01*
X10691610Y-8473508D02*
X10682086Y-8463984D01*
X10682086Y-8463984D02*
X10682086Y-8483031D01*
X10805896Y-8663984D02*
X10786848Y-8654460D01*
X10786848Y-8654460D02*
X10777324Y-8635412D01*
X10777324Y-8635412D02*
X10777324Y-8463984D01*
X10910658Y-8663984D02*
X10891610Y-8654460D01*
X10891610Y-8654460D02*
X10882086Y-8635412D01*
X10882086Y-8635412D02*
X10882086Y-8463984D01*
X11139229Y-8663984D02*
X11139229Y-8463984D01*
X11139229Y-8463984D02*
X11205896Y-8606841D01*
X11205896Y-8606841D02*
X11272562Y-8463984D01*
X11272562Y-8463984D02*
X11272562Y-8663984D01*
X11453515Y-8663984D02*
X11453515Y-8559222D01*
X11453515Y-8559222D02*
X11443991Y-8540174D01*
X11443991Y-8540174D02*
X11424943Y-8530650D01*
X11424943Y-8530650D02*
X11386848Y-8530650D01*
X11386848Y-8530650D02*
X11367801Y-8540174D01*
X11453515Y-8654460D02*
X11434467Y-8663984D01*
X11434467Y-8663984D02*
X11386848Y-8663984D01*
X11386848Y-8663984D02*
X11367801Y-8654460D01*
X11367801Y-8654460D02*
X11358277Y-8635412D01*
X11358277Y-8635412D02*
X11358277Y-8616365D01*
X11358277Y-8616365D02*
X11367801Y-8597317D01*
X11367801Y-8597317D02*
X11386848Y-8587793D01*
X11386848Y-8587793D02*
X11434467Y-8587793D01*
X11434467Y-8587793D02*
X11453515Y-8578270D01*
X11548753Y-8530650D02*
X11548753Y-8730650D01*
X11548753Y-8540174D02*
X11567801Y-8530650D01*
X11567801Y-8530650D02*
X11605896Y-8530650D01*
X11605896Y-8530650D02*
X11624943Y-8540174D01*
X11624943Y-8540174D02*
X11634467Y-8549698D01*
X11634467Y-8549698D02*
X11643991Y-8568746D01*
X11643991Y-8568746D02*
X11643991Y-8625889D01*
X11643991Y-8625889D02*
X11634467Y-8644936D01*
X11634467Y-8644936D02*
X11624943Y-8654460D01*
X11624943Y-8654460D02*
X11605896Y-8663984D01*
X11605896Y-8663984D02*
X11567801Y-8663984D01*
X11567801Y-8663984D02*
X11548753Y-8654460D01*
X11729705Y-8644936D02*
X11739229Y-8654460D01*
X11739229Y-8654460D02*
X11729705Y-8663984D01*
X11729705Y-8663984D02*
X11720182Y-8654460D01*
X11720182Y-8654460D02*
X11729705Y-8644936D01*
X11729705Y-8644936D02*
X11729705Y-8663984D01*
X11729705Y-8540174D02*
X11739229Y-8549698D01*
X11739229Y-8549698D02*
X11729705Y-8559222D01*
X11729705Y-8559222D02*
X11720182Y-8549698D01*
X11720182Y-8549698D02*
X11729705Y-8540174D01*
X11729705Y-8540174D02*
X11729705Y-8559222D01*
D12*
X10008600Y-8948050D02*
X10097500Y-9036950D01*
X10097500Y-8948050D02*
X10008600Y-9036950D01*
D11*
X10396372Y-8883984D02*
X10415420Y-8883984D01*
X10415420Y-8883984D02*
X10434467Y-8893508D01*
X10434467Y-8893508D02*
X10443991Y-8903031D01*
X10443991Y-8903031D02*
X10453515Y-8922079D01*
X10453515Y-8922079D02*
X10463039Y-8960174D01*
X10463039Y-8960174D02*
X10463039Y-9007793D01*
X10463039Y-9007793D02*
X10453515Y-9045889D01*
X10453515Y-9045889D02*
X10443991Y-9064936D01*
X10443991Y-9064936D02*
X10434467Y-9074460D01*
X10434467Y-9074460D02*
X10415420Y-9083984D01*
X10415420Y-9083984D02*
X10396372Y-9083984D01*
X10396372Y-9083984D02*
X10377324Y-9074460D01*
X10377324Y-9074460D02*
X10367801Y-9064936D01*
X10367801Y-9064936D02*
X10358277Y-9045889D01*
X10358277Y-9045889D02*
X10348753Y-9007793D01*
X10348753Y-9007793D02*
X10348753Y-8960174D01*
X10348753Y-8960174D02*
X10358277Y-8922079D01*
X10358277Y-8922079D02*
X10367801Y-8903031D01*
X10367801Y-8903031D02*
X10377324Y-8893508D01*
X10377324Y-8893508D02*
X10396372Y-8883984D01*
X10548753Y-9064936D02*
X10558277Y-9074460D01*
X10558277Y-9074460D02*
X10548753Y-9083984D01*
X10548753Y-9083984D02*
X10539229Y-9074460D01*
X10539229Y-9074460D02*
X10548753Y-9064936D01*
X10548753Y-9064936D02*
X10548753Y-9083984D01*
X10672563Y-8969698D02*
X10653515Y-8960174D01*
X10653515Y-8960174D02*
X10643991Y-8950650D01*
X10643991Y-8950650D02*
X10634467Y-8931603D01*
X10634467Y-8931603D02*
X10634467Y-8922079D01*
X10634467Y-8922079D02*
X10643991Y-8903031D01*
X10643991Y-8903031D02*
X10653515Y-8893508D01*
X10653515Y-8893508D02*
X10672563Y-8883984D01*
X10672563Y-8883984D02*
X10710658Y-8883984D01*
X10710658Y-8883984D02*
X10729705Y-8893508D01*
X10729705Y-8893508D02*
X10739229Y-8903031D01*
X10739229Y-8903031D02*
X10748753Y-8922079D01*
X10748753Y-8922079D02*
X10748753Y-8931603D01*
X10748753Y-8931603D02*
X10739229Y-8950650D01*
X10739229Y-8950650D02*
X10729705Y-8960174D01*
X10729705Y-8960174D02*
X10710658Y-8969698D01*
X10710658Y-8969698D02*
X10672563Y-8969698D01*
X10672563Y-8969698D02*
X10653515Y-8979222D01*
X10653515Y-8979222D02*
X10643991Y-8988746D01*
X10643991Y-8988746D02*
X10634467Y-9007793D01*
X10634467Y-9007793D02*
X10634467Y-9045889D01*
X10634467Y-9045889D02*
X10643991Y-9064936D01*
X10643991Y-9064936D02*
X10653515Y-9074460D01*
X10653515Y-9074460D02*
X10672563Y-9083984D01*
X10672563Y-9083984D02*
X10710658Y-9083984D01*
X10710658Y-9083984D02*
X10729705Y-9074460D01*
X10729705Y-9074460D02*
X10739229Y-9064936D01*
X10739229Y-9064936D02*
X10748753Y-9045889D01*
X10748753Y-9045889D02*
X10748753Y-9007793D01*
X10748753Y-9007793D02*
X10739229Y-8988746D01*
X10739229Y-8988746D02*
X10729705Y-8979222D01*
X10729705Y-8979222D02*
X10710658Y-8969698D01*
X10863039Y-8969698D02*
X10843991Y-8960174D01*
X10843991Y-8960174D02*
X10834467Y-8950650D01*
X10834467Y-8950650D02*
X10824944Y-8931603D01*
X10824944Y-8931603D02*
X10824944Y-8922079D01*
X10824944Y-8922079D02*
X10834467Y-8903031D01*
X10834467Y-8903031D02*
X10843991Y-8893508D01*
X10843991Y-8893508D02*
X10863039Y-8883984D01*
X10863039Y-8883984D02*
X10901134Y-8883984D01*
X10901134Y-8883984D02*
X10920182Y-8893508D01*
X10920182Y-8893508D02*
X10929705Y-8903031D01*
X10929705Y-8903031D02*
X10939229Y-8922079D01*
X10939229Y-8922079D02*
X10939229Y-8931603D01*
X10939229Y-8931603D02*
X10929705Y-8950650D01*
X10929705Y-8950650D02*
X10920182Y-8960174D01*
X10920182Y-8960174D02*
X10901134Y-8969698D01*
X10901134Y-8969698D02*
X10863039Y-8969698D01*
X10863039Y-8969698D02*
X10843991Y-8979222D01*
X10843991Y-8979222D02*
X10834467Y-8988746D01*
X10834467Y-8988746D02*
X10824944Y-9007793D01*
X10824944Y-9007793D02*
X10824944Y-9045889D01*
X10824944Y-9045889D02*
X10834467Y-9064936D01*
X10834467Y-9064936D02*
X10843991Y-9074460D01*
X10843991Y-9074460D02*
X10863039Y-9083984D01*
X10863039Y-9083984D02*
X10901134Y-9083984D01*
X10901134Y-9083984D02*
X10920182Y-9074460D01*
X10920182Y-9074460D02*
X10929705Y-9064936D01*
X10929705Y-9064936D02*
X10939229Y-9045889D01*
X10939229Y-9045889D02*
X10939229Y-9007793D01*
X10939229Y-9007793D02*
X10929705Y-8988746D01*
X10929705Y-8988746D02*
X10920182Y-8979222D01*
X10920182Y-8979222D02*
X10901134Y-8969698D01*
X11034467Y-9083984D02*
X11072563Y-9083984D01*
X11072563Y-9083984D02*
X11091610Y-9074460D01*
X11091610Y-9074460D02*
X11101134Y-9064936D01*
X11101134Y-9064936D02*
X11120182Y-9036365D01*
X11120182Y-9036365D02*
X11129705Y-8998270D01*
X11129705Y-8998270D02*
X11129705Y-8922079D01*
X11129705Y-8922079D02*
X11120182Y-8903031D01*
X11120182Y-8903031D02*
X11110658Y-8893508D01*
X11110658Y-8893508D02*
X11091610Y-8883984D01*
X11091610Y-8883984D02*
X11053515Y-8883984D01*
X11053515Y-8883984D02*
X11034467Y-8893508D01*
X11034467Y-8893508D02*
X11024944Y-8903031D01*
X11024944Y-8903031D02*
X11015420Y-8922079D01*
X11015420Y-8922079D02*
X11015420Y-8969698D01*
X11015420Y-8969698D02*
X11024944Y-8988746D01*
X11024944Y-8988746D02*
X11034467Y-8998270D01*
X11034467Y-8998270D02*
X11053515Y-9007793D01*
X11053515Y-9007793D02*
X11091610Y-9007793D01*
X11091610Y-9007793D02*
X11110658Y-8998270D01*
X11110658Y-8998270D02*
X11120182Y-8988746D01*
X11120182Y-8988746D02*
X11129705Y-8969698D01*
X11215420Y-9083984D02*
X11215420Y-8950650D01*
X11215420Y-8969698D02*
X11224943Y-8960174D01*
X11224943Y-8960174D02*
X11243991Y-8950650D01*
X11243991Y-8950650D02*
X11272563Y-8950650D01*
X11272563Y-8950650D02*
X11291610Y-8960174D01*
X11291610Y-8960174D02*
X11301134Y-8979222D01*
X11301134Y-8979222D02*
X11301134Y-9083984D01*
X11301134Y-8979222D02*
X11310658Y-8960174D01*
X11310658Y-8960174D02*
X11329705Y-8950650D01*
X11329705Y-8950650D02*
X11358277Y-8950650D01*
X11358277Y-8950650D02*
X11377324Y-8960174D01*
X11377324Y-8960174D02*
X11386848Y-8979222D01*
X11386848Y-8979222D02*
X11386848Y-9083984D01*
X11482086Y-9083984D02*
X11482086Y-8950650D01*
X11482086Y-8969698D02*
X11491610Y-8960174D01*
X11491610Y-8960174D02*
X11510658Y-8950650D01*
X11510658Y-8950650D02*
X11539229Y-8950650D01*
X11539229Y-8950650D02*
X11558277Y-8960174D01*
X11558277Y-8960174D02*
X11567801Y-8979222D01*
X11567801Y-8979222D02*
X11567801Y-9083984D01*
X11567801Y-8979222D02*
X11577324Y-8960174D01*
X11577324Y-8960174D02*
X11596372Y-8950650D01*
X11596372Y-8950650D02*
X11624943Y-8950650D01*
X11624943Y-8950650D02*
X11643991Y-8960174D01*
X11643991Y-8960174D02*
X11653515Y-8979222D01*
X11653515Y-8979222D02*
X11653515Y-9083984D01*
X12043991Y-8874460D02*
X11872563Y-9131603D01*
X12301134Y-8883984D02*
X12320182Y-8883984D01*
X12320182Y-8883984D02*
X12339229Y-8893508D01*
X12339229Y-8893508D02*
X12348753Y-8903031D01*
X12348753Y-8903031D02*
X12358277Y-8922079D01*
X12358277Y-8922079D02*
X12367801Y-8960174D01*
X12367801Y-8960174D02*
X12367801Y-9007793D01*
X12367801Y-9007793D02*
X12358277Y-9045889D01*
X12358277Y-9045889D02*
X12348753Y-9064936D01*
X12348753Y-9064936D02*
X12339229Y-9074460D01*
X12339229Y-9074460D02*
X12320182Y-9083984D01*
X12320182Y-9083984D02*
X12301134Y-9083984D01*
X12301134Y-9083984D02*
X12282086Y-9074460D01*
X12282086Y-9074460D02*
X12272563Y-9064936D01*
X12272563Y-9064936D02*
X12263039Y-9045889D01*
X12263039Y-9045889D02*
X12253515Y-9007793D01*
X12253515Y-9007793D02*
X12253515Y-8960174D01*
X12253515Y-8960174D02*
X12263039Y-8922079D01*
X12263039Y-8922079D02*
X12272563Y-8903031D01*
X12272563Y-8903031D02*
X12282086Y-8893508D01*
X12282086Y-8893508D02*
X12301134Y-8883984D01*
X12453515Y-9064936D02*
X12463039Y-9074460D01*
X12463039Y-9074460D02*
X12453515Y-9083984D01*
X12453515Y-9083984D02*
X12443991Y-9074460D01*
X12443991Y-9074460D02*
X12453515Y-9064936D01*
X12453515Y-9064936D02*
X12453515Y-9083984D01*
X12586848Y-8883984D02*
X12605896Y-8883984D01*
X12605896Y-8883984D02*
X12624944Y-8893508D01*
X12624944Y-8893508D02*
X12634467Y-8903031D01*
X12634467Y-8903031D02*
X12643991Y-8922079D01*
X12643991Y-8922079D02*
X12653515Y-8960174D01*
X12653515Y-8960174D02*
X12653515Y-9007793D01*
X12653515Y-9007793D02*
X12643991Y-9045889D01*
X12643991Y-9045889D02*
X12634467Y-9064936D01*
X12634467Y-9064936D02*
X12624944Y-9074460D01*
X12624944Y-9074460D02*
X12605896Y-9083984D01*
X12605896Y-9083984D02*
X12586848Y-9083984D01*
X12586848Y-9083984D02*
X12567801Y-9074460D01*
X12567801Y-9074460D02*
X12558277Y-9064936D01*
X12558277Y-9064936D02*
X12548753Y-9045889D01*
X12548753Y-9045889D02*
X12539229Y-9007793D01*
X12539229Y-9007793D02*
X12539229Y-8960174D01*
X12539229Y-8960174D02*
X12548753Y-8922079D01*
X12548753Y-8922079D02*
X12558277Y-8903031D01*
X12558277Y-8903031D02*
X12567801Y-8893508D01*
X12567801Y-8893508D02*
X12586848Y-8883984D01*
X12720182Y-8883984D02*
X12843991Y-8883984D01*
X12843991Y-8883984D02*
X12777325Y-8960174D01*
X12777325Y-8960174D02*
X12805896Y-8960174D01*
X12805896Y-8960174D02*
X12824944Y-8969698D01*
X12824944Y-8969698D02*
X12834467Y-8979222D01*
X12834467Y-8979222D02*
X12843991Y-8998270D01*
X12843991Y-8998270D02*
X12843991Y-9045889D01*
X12843991Y-9045889D02*
X12834467Y-9064936D01*
X12834467Y-9064936D02*
X12824944Y-9074460D01*
X12824944Y-9074460D02*
X12805896Y-9083984D01*
X12805896Y-9083984D02*
X12748753Y-9083984D01*
X12748753Y-9083984D02*
X12729706Y-9074460D01*
X12729706Y-9074460D02*
X12720182Y-9064936D01*
X13024944Y-8883984D02*
X12929706Y-8883984D01*
X12929706Y-8883984D02*
X12920182Y-8979222D01*
X12920182Y-8979222D02*
X12929706Y-8969698D01*
X12929706Y-8969698D02*
X12948753Y-8960174D01*
X12948753Y-8960174D02*
X12996372Y-8960174D01*
X12996372Y-8960174D02*
X13015420Y-8969698D01*
X13015420Y-8969698D02*
X13024944Y-8979222D01*
X13024944Y-8979222D02*
X13034467Y-8998270D01*
X13034467Y-8998270D02*
X13034467Y-9045889D01*
X13034467Y-9045889D02*
X13024944Y-9064936D01*
X13024944Y-9064936D02*
X13015420Y-9074460D01*
X13015420Y-9074460D02*
X12996372Y-9083984D01*
X12996372Y-9083984D02*
X12948753Y-9083984D01*
X12948753Y-9083984D02*
X12929706Y-9074460D01*
X12929706Y-9074460D02*
X12920182Y-9064936D01*
X13158277Y-8883984D02*
X13177325Y-8883984D01*
X13177325Y-8883984D02*
X13196372Y-8893508D01*
X13196372Y-8893508D02*
X13205896Y-8903031D01*
X13205896Y-8903031D02*
X13215420Y-8922079D01*
X13215420Y-8922079D02*
X13224944Y-8960174D01*
X13224944Y-8960174D02*
X13224944Y-9007793D01*
X13224944Y-9007793D02*
X13215420Y-9045889D01*
X13215420Y-9045889D02*
X13205896Y-9064936D01*
X13205896Y-9064936D02*
X13196372Y-9074460D01*
X13196372Y-9074460D02*
X13177325Y-9083984D01*
X13177325Y-9083984D02*
X13158277Y-9083984D01*
X13158277Y-9083984D02*
X13139229Y-9074460D01*
X13139229Y-9074460D02*
X13129706Y-9064936D01*
X13129706Y-9064936D02*
X13120182Y-9045889D01*
X13120182Y-9045889D02*
X13110658Y-9007793D01*
X13110658Y-9007793D02*
X13110658Y-8960174D01*
X13110658Y-8960174D02*
X13120182Y-8922079D01*
X13120182Y-8922079D02*
X13129706Y-8903031D01*
X13129706Y-8903031D02*
X13139229Y-8893508D01*
X13139229Y-8893508D02*
X13158277Y-8883984D01*
X13301134Y-8883984D02*
X13301134Y-8922079D01*
X13377325Y-8883984D02*
X13377325Y-8922079D01*
X13672563Y-9160174D02*
X13663039Y-9150650D01*
X13663039Y-9150650D02*
X13643991Y-9122079D01*
X13643991Y-9122079D02*
X13634468Y-9103031D01*
X13634468Y-9103031D02*
X13624944Y-9074460D01*
X13624944Y-9074460D02*
X13615420Y-9026841D01*
X13615420Y-9026841D02*
X13615420Y-8988746D01*
X13615420Y-8988746D02*
X13624944Y-8941127D01*
X13624944Y-8941127D02*
X13634468Y-8912555D01*
X13634468Y-8912555D02*
X13643991Y-8893508D01*
X13643991Y-8893508D02*
X13663039Y-8864936D01*
X13663039Y-8864936D02*
X13672563Y-8855412D01*
X13853515Y-9083984D02*
X13739229Y-9083984D01*
X13796372Y-9083984D02*
X13796372Y-8883984D01*
X13796372Y-8883984D02*
X13777325Y-8912555D01*
X13777325Y-8912555D02*
X13758277Y-8931603D01*
X13758277Y-8931603D02*
X13739229Y-8941127D01*
X14024944Y-8950650D02*
X14024944Y-9083984D01*
X13977325Y-8874460D02*
X13929706Y-9017317D01*
X13929706Y-9017317D02*
X14053515Y-9017317D01*
X14282087Y-9083984D02*
X14282087Y-8883984D01*
X14367801Y-9083984D02*
X14367801Y-8979222D01*
X14367801Y-8979222D02*
X14358277Y-8960174D01*
X14358277Y-8960174D02*
X14339230Y-8950650D01*
X14339230Y-8950650D02*
X14310658Y-8950650D01*
X14310658Y-8950650D02*
X14291610Y-8960174D01*
X14291610Y-8960174D02*
X14282087Y-8969698D01*
X14491610Y-9083984D02*
X14472563Y-9074460D01*
X14472563Y-9074460D02*
X14463039Y-9064936D01*
X14463039Y-9064936D02*
X14453515Y-9045889D01*
X14453515Y-9045889D02*
X14453515Y-8988746D01*
X14453515Y-8988746D02*
X14463039Y-8969698D01*
X14463039Y-8969698D02*
X14472563Y-8960174D01*
X14472563Y-8960174D02*
X14491610Y-8950650D01*
X14491610Y-8950650D02*
X14520182Y-8950650D01*
X14520182Y-8950650D02*
X14539230Y-8960174D01*
X14539230Y-8960174D02*
X14548753Y-8969698D01*
X14548753Y-8969698D02*
X14558277Y-8988746D01*
X14558277Y-8988746D02*
X14558277Y-9045889D01*
X14558277Y-9045889D02*
X14548753Y-9064936D01*
X14548753Y-9064936D02*
X14539230Y-9074460D01*
X14539230Y-9074460D02*
X14520182Y-9083984D01*
X14520182Y-9083984D02*
X14491610Y-9083984D01*
X14672563Y-9083984D02*
X14653515Y-9074460D01*
X14653515Y-9074460D02*
X14643991Y-9055412D01*
X14643991Y-9055412D02*
X14643991Y-8883984D01*
X14824944Y-9074460D02*
X14805896Y-9083984D01*
X14805896Y-9083984D02*
X14767801Y-9083984D01*
X14767801Y-9083984D02*
X14748753Y-9074460D01*
X14748753Y-9074460D02*
X14739230Y-9055412D01*
X14739230Y-9055412D02*
X14739230Y-8979222D01*
X14739230Y-8979222D02*
X14748753Y-8960174D01*
X14748753Y-8960174D02*
X14767801Y-8950650D01*
X14767801Y-8950650D02*
X14805896Y-8950650D01*
X14805896Y-8950650D02*
X14824944Y-8960174D01*
X14824944Y-8960174D02*
X14834468Y-8979222D01*
X14834468Y-8979222D02*
X14834468Y-8998270D01*
X14834468Y-8998270D02*
X14739230Y-9017317D01*
X14910658Y-9074460D02*
X14929706Y-9083984D01*
X14929706Y-9083984D02*
X14967801Y-9083984D01*
X14967801Y-9083984D02*
X14986849Y-9074460D01*
X14986849Y-9074460D02*
X14996372Y-9055412D01*
X14996372Y-9055412D02*
X14996372Y-9045889D01*
X14996372Y-9045889D02*
X14986849Y-9026841D01*
X14986849Y-9026841D02*
X14967801Y-9017317D01*
X14967801Y-9017317D02*
X14939230Y-9017317D01*
X14939230Y-9017317D02*
X14920182Y-9007793D01*
X14920182Y-9007793D02*
X14910658Y-8988746D01*
X14910658Y-8988746D02*
X14910658Y-8979222D01*
X14910658Y-8979222D02*
X14920182Y-8960174D01*
X14920182Y-8960174D02*
X14939230Y-8950650D01*
X14939230Y-8950650D02*
X14967801Y-8950650D01*
X14967801Y-8950650D02*
X14986849Y-8960174D01*
X15063039Y-9160174D02*
X15072563Y-9150650D01*
X15072563Y-9150650D02*
X15091611Y-9122079D01*
X15091611Y-9122079D02*
X15101134Y-9103031D01*
X15101134Y-9103031D02*
X15110658Y-9074460D01*
X15110658Y-9074460D02*
X15120182Y-9026841D01*
X15120182Y-9026841D02*
X15120182Y-8988746D01*
X15120182Y-8988746D02*
X15110658Y-8941127D01*
X15110658Y-8941127D02*
X15101134Y-8912555D01*
X15101134Y-8912555D02*
X15091611Y-8893508D01*
X15091611Y-8893508D02*
X15072563Y-8864936D01*
X15072563Y-8864936D02*
X15063039Y-8855412D01*
D12*
X10097500Y-9256500D02*
G75*
G02*
X9997500Y-9256500I-50000J0D01*
G01*
X9997500Y-9256500D02*
G75*
G02*
X10097500Y-9256500I50000J0D01*
G01*
D11*
X10463039Y-9347984D02*
X10348753Y-9347984D01*
X10405896Y-9347984D02*
X10405896Y-9147984D01*
X10405896Y-9147984D02*
X10386848Y-9176555D01*
X10386848Y-9176555D02*
X10367801Y-9195603D01*
X10367801Y-9195603D02*
X10348753Y-9205127D01*
X10548753Y-9328936D02*
X10558277Y-9338460D01*
X10558277Y-9338460D02*
X10548753Y-9347984D01*
X10548753Y-9347984D02*
X10539229Y-9338460D01*
X10539229Y-9338460D02*
X10548753Y-9328936D01*
X10548753Y-9328936D02*
X10548753Y-9347984D01*
X10682086Y-9147984D02*
X10701134Y-9147984D01*
X10701134Y-9147984D02*
X10720182Y-9157508D01*
X10720182Y-9157508D02*
X10729705Y-9167031D01*
X10729705Y-9167031D02*
X10739229Y-9186079D01*
X10739229Y-9186079D02*
X10748753Y-9224174D01*
X10748753Y-9224174D02*
X10748753Y-9271793D01*
X10748753Y-9271793D02*
X10739229Y-9309889D01*
X10739229Y-9309889D02*
X10729705Y-9328936D01*
X10729705Y-9328936D02*
X10720182Y-9338460D01*
X10720182Y-9338460D02*
X10701134Y-9347984D01*
X10701134Y-9347984D02*
X10682086Y-9347984D01*
X10682086Y-9347984D02*
X10663039Y-9338460D01*
X10663039Y-9338460D02*
X10653515Y-9328936D01*
X10653515Y-9328936D02*
X10643991Y-9309889D01*
X10643991Y-9309889D02*
X10634467Y-9271793D01*
X10634467Y-9271793D02*
X10634467Y-9224174D01*
X10634467Y-9224174D02*
X10643991Y-9186079D01*
X10643991Y-9186079D02*
X10653515Y-9167031D01*
X10653515Y-9167031D02*
X10663039Y-9157508D01*
X10663039Y-9157508D02*
X10682086Y-9147984D01*
X10872563Y-9147984D02*
X10891610Y-9147984D01*
X10891610Y-9147984D02*
X10910658Y-9157508D01*
X10910658Y-9157508D02*
X10920182Y-9167031D01*
X10920182Y-9167031D02*
X10929705Y-9186079D01*
X10929705Y-9186079D02*
X10939229Y-9224174D01*
X10939229Y-9224174D02*
X10939229Y-9271793D01*
X10939229Y-9271793D02*
X10929705Y-9309889D01*
X10929705Y-9309889D02*
X10920182Y-9328936D01*
X10920182Y-9328936D02*
X10910658Y-9338460D01*
X10910658Y-9338460D02*
X10891610Y-9347984D01*
X10891610Y-9347984D02*
X10872563Y-9347984D01*
X10872563Y-9347984D02*
X10853515Y-9338460D01*
X10853515Y-9338460D02*
X10843991Y-9328936D01*
X10843991Y-9328936D02*
X10834467Y-9309889D01*
X10834467Y-9309889D02*
X10824944Y-9271793D01*
X10824944Y-9271793D02*
X10824944Y-9224174D01*
X10824944Y-9224174D02*
X10834467Y-9186079D01*
X10834467Y-9186079D02*
X10843991Y-9167031D01*
X10843991Y-9167031D02*
X10853515Y-9157508D01*
X10853515Y-9157508D02*
X10872563Y-9147984D01*
X11063039Y-9147984D02*
X11082086Y-9147984D01*
X11082086Y-9147984D02*
X11101134Y-9157508D01*
X11101134Y-9157508D02*
X11110658Y-9167031D01*
X11110658Y-9167031D02*
X11120182Y-9186079D01*
X11120182Y-9186079D02*
X11129705Y-9224174D01*
X11129705Y-9224174D02*
X11129705Y-9271793D01*
X11129705Y-9271793D02*
X11120182Y-9309889D01*
X11120182Y-9309889D02*
X11110658Y-9328936D01*
X11110658Y-9328936D02*
X11101134Y-9338460D01*
X11101134Y-9338460D02*
X11082086Y-9347984D01*
X11082086Y-9347984D02*
X11063039Y-9347984D01*
X11063039Y-9347984D02*
X11043991Y-9338460D01*
X11043991Y-9338460D02*
X11034467Y-9328936D01*
X11034467Y-9328936D02*
X11024944Y-9309889D01*
X11024944Y-9309889D02*
X11015420Y-9271793D01*
X11015420Y-9271793D02*
X11015420Y-9224174D01*
X11015420Y-9224174D02*
X11024944Y-9186079D01*
X11024944Y-9186079D02*
X11034467Y-9167031D01*
X11034467Y-9167031D02*
X11043991Y-9157508D01*
X11043991Y-9157508D02*
X11063039Y-9147984D01*
X11215420Y-9347984D02*
X11215420Y-9214650D01*
X11215420Y-9233698D02*
X11224943Y-9224174D01*
X11224943Y-9224174D02*
X11243991Y-9214650D01*
X11243991Y-9214650D02*
X11272563Y-9214650D01*
X11272563Y-9214650D02*
X11291610Y-9224174D01*
X11291610Y-9224174D02*
X11301134Y-9243222D01*
X11301134Y-9243222D02*
X11301134Y-9347984D01*
X11301134Y-9243222D02*
X11310658Y-9224174D01*
X11310658Y-9224174D02*
X11329705Y-9214650D01*
X11329705Y-9214650D02*
X11358277Y-9214650D01*
X11358277Y-9214650D02*
X11377324Y-9224174D01*
X11377324Y-9224174D02*
X11386848Y-9243222D01*
X11386848Y-9243222D02*
X11386848Y-9347984D01*
X11482086Y-9347984D02*
X11482086Y-9214650D01*
X11482086Y-9233698D02*
X11491610Y-9224174D01*
X11491610Y-9224174D02*
X11510658Y-9214650D01*
X11510658Y-9214650D02*
X11539229Y-9214650D01*
X11539229Y-9214650D02*
X11558277Y-9224174D01*
X11558277Y-9224174D02*
X11567801Y-9243222D01*
X11567801Y-9243222D02*
X11567801Y-9347984D01*
X11567801Y-9243222D02*
X11577324Y-9224174D01*
X11577324Y-9224174D02*
X11596372Y-9214650D01*
X11596372Y-9214650D02*
X11624943Y-9214650D01*
X11624943Y-9214650D02*
X11643991Y-9224174D01*
X11643991Y-9224174D02*
X11653515Y-9243222D01*
X11653515Y-9243222D02*
X11653515Y-9347984D01*
X12043991Y-9138460D02*
X11872563Y-9395603D01*
X12301134Y-9147984D02*
X12320182Y-9147984D01*
X12320182Y-9147984D02*
X12339229Y-9157508D01*
X12339229Y-9157508D02*
X12348753Y-9167031D01*
X12348753Y-9167031D02*
X12358277Y-9186079D01*
X12358277Y-9186079D02*
X12367801Y-9224174D01*
X12367801Y-9224174D02*
X12367801Y-9271793D01*
X12367801Y-9271793D02*
X12358277Y-9309889D01*
X12358277Y-9309889D02*
X12348753Y-9328936D01*
X12348753Y-9328936D02*
X12339229Y-9338460D01*
X12339229Y-9338460D02*
X12320182Y-9347984D01*
X12320182Y-9347984D02*
X12301134Y-9347984D01*
X12301134Y-9347984D02*
X12282086Y-9338460D01*
X12282086Y-9338460D02*
X12272563Y-9328936D01*
X12272563Y-9328936D02*
X12263039Y-9309889D01*
X12263039Y-9309889D02*
X12253515Y-9271793D01*
X12253515Y-9271793D02*
X12253515Y-9224174D01*
X12253515Y-9224174D02*
X12263039Y-9186079D01*
X12263039Y-9186079D02*
X12272563Y-9167031D01*
X12272563Y-9167031D02*
X12282086Y-9157508D01*
X12282086Y-9157508D02*
X12301134Y-9147984D01*
X12453515Y-9328936D02*
X12463039Y-9338460D01*
X12463039Y-9338460D02*
X12453515Y-9347984D01*
X12453515Y-9347984D02*
X12443991Y-9338460D01*
X12443991Y-9338460D02*
X12453515Y-9328936D01*
X12453515Y-9328936D02*
X12453515Y-9347984D01*
X12586848Y-9147984D02*
X12605896Y-9147984D01*
X12605896Y-9147984D02*
X12624944Y-9157508D01*
X12624944Y-9157508D02*
X12634467Y-9167031D01*
X12634467Y-9167031D02*
X12643991Y-9186079D01*
X12643991Y-9186079D02*
X12653515Y-9224174D01*
X12653515Y-9224174D02*
X12653515Y-9271793D01*
X12653515Y-9271793D02*
X12643991Y-9309889D01*
X12643991Y-9309889D02*
X12634467Y-9328936D01*
X12634467Y-9328936D02*
X12624944Y-9338460D01*
X12624944Y-9338460D02*
X12605896Y-9347984D01*
X12605896Y-9347984D02*
X12586848Y-9347984D01*
X12586848Y-9347984D02*
X12567801Y-9338460D01*
X12567801Y-9338460D02*
X12558277Y-9328936D01*
X12558277Y-9328936D02*
X12548753Y-9309889D01*
X12548753Y-9309889D02*
X12539229Y-9271793D01*
X12539229Y-9271793D02*
X12539229Y-9224174D01*
X12539229Y-9224174D02*
X12548753Y-9186079D01*
X12548753Y-9186079D02*
X12558277Y-9167031D01*
X12558277Y-9167031D02*
X12567801Y-9157508D01*
X12567801Y-9157508D02*
X12586848Y-9147984D01*
X12720182Y-9147984D02*
X12843991Y-9147984D01*
X12843991Y-9147984D02*
X12777325Y-9224174D01*
X12777325Y-9224174D02*
X12805896Y-9224174D01*
X12805896Y-9224174D02*
X12824944Y-9233698D01*
X12824944Y-9233698D02*
X12834467Y-9243222D01*
X12834467Y-9243222D02*
X12843991Y-9262270D01*
X12843991Y-9262270D02*
X12843991Y-9309889D01*
X12843991Y-9309889D02*
X12834467Y-9328936D01*
X12834467Y-9328936D02*
X12824944Y-9338460D01*
X12824944Y-9338460D02*
X12805896Y-9347984D01*
X12805896Y-9347984D02*
X12748753Y-9347984D01*
X12748753Y-9347984D02*
X12729706Y-9338460D01*
X12729706Y-9338460D02*
X12720182Y-9328936D01*
X12939229Y-9347984D02*
X12977325Y-9347984D01*
X12977325Y-9347984D02*
X12996372Y-9338460D01*
X12996372Y-9338460D02*
X13005896Y-9328936D01*
X13005896Y-9328936D02*
X13024944Y-9300365D01*
X13024944Y-9300365D02*
X13034467Y-9262270D01*
X13034467Y-9262270D02*
X13034467Y-9186079D01*
X13034467Y-9186079D02*
X13024944Y-9167031D01*
X13024944Y-9167031D02*
X13015420Y-9157508D01*
X13015420Y-9157508D02*
X12996372Y-9147984D01*
X12996372Y-9147984D02*
X12958277Y-9147984D01*
X12958277Y-9147984D02*
X12939229Y-9157508D01*
X12939229Y-9157508D02*
X12929706Y-9167031D01*
X12929706Y-9167031D02*
X12920182Y-9186079D01*
X12920182Y-9186079D02*
X12920182Y-9233698D01*
X12920182Y-9233698D02*
X12929706Y-9252746D01*
X12929706Y-9252746D02*
X12939229Y-9262270D01*
X12939229Y-9262270D02*
X12958277Y-9271793D01*
X12958277Y-9271793D02*
X12996372Y-9271793D01*
X12996372Y-9271793D02*
X13015420Y-9262270D01*
X13015420Y-9262270D02*
X13024944Y-9252746D01*
X13024944Y-9252746D02*
X13034467Y-9233698D01*
X13205896Y-9214650D02*
X13205896Y-9347984D01*
X13158277Y-9138460D02*
X13110658Y-9281317D01*
X13110658Y-9281317D02*
X13234467Y-9281317D01*
X13301134Y-9147984D02*
X13301134Y-9186079D01*
X13377325Y-9147984D02*
X13377325Y-9186079D01*
X13672563Y-9424174D02*
X13663039Y-9414650D01*
X13663039Y-9414650D02*
X13643991Y-9386079D01*
X13643991Y-9386079D02*
X13634468Y-9367031D01*
X13634468Y-9367031D02*
X13624944Y-9338460D01*
X13624944Y-9338460D02*
X13615420Y-9290841D01*
X13615420Y-9290841D02*
X13615420Y-9252746D01*
X13615420Y-9252746D02*
X13624944Y-9205127D01*
X13624944Y-9205127D02*
X13634468Y-9176555D01*
X13634468Y-9176555D02*
X13643991Y-9157508D01*
X13643991Y-9157508D02*
X13663039Y-9128936D01*
X13663039Y-9128936D02*
X13672563Y-9119412D01*
X13758277Y-9347984D02*
X13796372Y-9347984D01*
X13796372Y-9347984D02*
X13815420Y-9338460D01*
X13815420Y-9338460D02*
X13824944Y-9328936D01*
X13824944Y-9328936D02*
X13843991Y-9300365D01*
X13843991Y-9300365D02*
X13853515Y-9262270D01*
X13853515Y-9262270D02*
X13853515Y-9186079D01*
X13853515Y-9186079D02*
X13843991Y-9167031D01*
X13843991Y-9167031D02*
X13834468Y-9157508D01*
X13834468Y-9157508D02*
X13815420Y-9147984D01*
X13815420Y-9147984D02*
X13777325Y-9147984D01*
X13777325Y-9147984D02*
X13758277Y-9157508D01*
X13758277Y-9157508D02*
X13748753Y-9167031D01*
X13748753Y-9167031D02*
X13739229Y-9186079D01*
X13739229Y-9186079D02*
X13739229Y-9233698D01*
X13739229Y-9233698D02*
X13748753Y-9252746D01*
X13748753Y-9252746D02*
X13758277Y-9262270D01*
X13758277Y-9262270D02*
X13777325Y-9271793D01*
X13777325Y-9271793D02*
X13815420Y-9271793D01*
X13815420Y-9271793D02*
X13834468Y-9262270D01*
X13834468Y-9262270D02*
X13843991Y-9252746D01*
X13843991Y-9252746D02*
X13853515Y-9233698D01*
X14091610Y-9347984D02*
X14091610Y-9147984D01*
X14177325Y-9347984D02*
X14177325Y-9243222D01*
X14177325Y-9243222D02*
X14167801Y-9224174D01*
X14167801Y-9224174D02*
X14148753Y-9214650D01*
X14148753Y-9214650D02*
X14120182Y-9214650D01*
X14120182Y-9214650D02*
X14101134Y-9224174D01*
X14101134Y-9224174D02*
X14091610Y-9233698D01*
X14301134Y-9347984D02*
X14282087Y-9338460D01*
X14282087Y-9338460D02*
X14272563Y-9328936D01*
X14272563Y-9328936D02*
X14263039Y-9309889D01*
X14263039Y-9309889D02*
X14263039Y-9252746D01*
X14263039Y-9252746D02*
X14272563Y-9233698D01*
X14272563Y-9233698D02*
X14282087Y-9224174D01*
X14282087Y-9224174D02*
X14301134Y-9214650D01*
X14301134Y-9214650D02*
X14329706Y-9214650D01*
X14329706Y-9214650D02*
X14348753Y-9224174D01*
X14348753Y-9224174D02*
X14358277Y-9233698D01*
X14358277Y-9233698D02*
X14367801Y-9252746D01*
X14367801Y-9252746D02*
X14367801Y-9309889D01*
X14367801Y-9309889D02*
X14358277Y-9328936D01*
X14358277Y-9328936D02*
X14348753Y-9338460D01*
X14348753Y-9338460D02*
X14329706Y-9347984D01*
X14329706Y-9347984D02*
X14301134Y-9347984D01*
X14482087Y-9347984D02*
X14463039Y-9338460D01*
X14463039Y-9338460D02*
X14453515Y-9319412D01*
X14453515Y-9319412D02*
X14453515Y-9147984D01*
X14634468Y-9338460D02*
X14615420Y-9347984D01*
X14615420Y-9347984D02*
X14577325Y-9347984D01*
X14577325Y-9347984D02*
X14558277Y-9338460D01*
X14558277Y-9338460D02*
X14548753Y-9319412D01*
X14548753Y-9319412D02*
X14548753Y-9243222D01*
X14548753Y-9243222D02*
X14558277Y-9224174D01*
X14558277Y-9224174D02*
X14577325Y-9214650D01*
X14577325Y-9214650D02*
X14615420Y-9214650D01*
X14615420Y-9214650D02*
X14634468Y-9224174D01*
X14634468Y-9224174D02*
X14643991Y-9243222D01*
X14643991Y-9243222D02*
X14643991Y-9262270D01*
X14643991Y-9262270D02*
X14548753Y-9281317D01*
X14720182Y-9338460D02*
X14739230Y-9347984D01*
X14739230Y-9347984D02*
X14777325Y-9347984D01*
X14777325Y-9347984D02*
X14796372Y-9338460D01*
X14796372Y-9338460D02*
X14805896Y-9319412D01*
X14805896Y-9319412D02*
X14805896Y-9309889D01*
X14805896Y-9309889D02*
X14796372Y-9290841D01*
X14796372Y-9290841D02*
X14777325Y-9281317D01*
X14777325Y-9281317D02*
X14748753Y-9281317D01*
X14748753Y-9281317D02*
X14729706Y-9271793D01*
X14729706Y-9271793D02*
X14720182Y-9252746D01*
X14720182Y-9252746D02*
X14720182Y-9243222D01*
X14720182Y-9243222D02*
X14729706Y-9224174D01*
X14729706Y-9224174D02*
X14748753Y-9214650D01*
X14748753Y-9214650D02*
X14777325Y-9214650D01*
X14777325Y-9214650D02*
X14796372Y-9224174D01*
X14872563Y-9424174D02*
X14882087Y-9414650D01*
X14882087Y-9414650D02*
X14901134Y-9386079D01*
X14901134Y-9386079D02*
X14910658Y-9367031D01*
X14910658Y-9367031D02*
X14920182Y-9338460D01*
X14920182Y-9338460D02*
X14929706Y-9290841D01*
X14929706Y-9290841D02*
X14929706Y-9252746D01*
X14929706Y-9252746D02*
X14920182Y-9205127D01*
X14920182Y-9205127D02*
X14910658Y-9176555D01*
X14910658Y-9176555D02*
X14901134Y-9157508D01*
X14901134Y-9157508D02*
X14882087Y-9128936D01*
X14882087Y-9128936D02*
X14872563Y-9119412D01*
D13*
X10022500Y-9445500D02*
X10022500Y-9595500D01*
X9947500Y-9520500D02*
X10097500Y-9520500D01*
D11*
X10463039Y-9611984D02*
X10348753Y-9611984D01*
X10405896Y-9611984D02*
X10405896Y-9411984D01*
X10405896Y-9411984D02*
X10386848Y-9440555D01*
X10386848Y-9440555D02*
X10367801Y-9459603D01*
X10367801Y-9459603D02*
X10348753Y-9469127D01*
X10548753Y-9592936D02*
X10558277Y-9602460D01*
X10558277Y-9602460D02*
X10548753Y-9611984D01*
X10548753Y-9611984D02*
X10539229Y-9602460D01*
X10539229Y-9602460D02*
X10548753Y-9592936D01*
X10548753Y-9592936D02*
X10548753Y-9611984D01*
X10739229Y-9411984D02*
X10643991Y-9411984D01*
X10643991Y-9411984D02*
X10634467Y-9507222D01*
X10634467Y-9507222D02*
X10643991Y-9497698D01*
X10643991Y-9497698D02*
X10663039Y-9488174D01*
X10663039Y-9488174D02*
X10710658Y-9488174D01*
X10710658Y-9488174D02*
X10729705Y-9497698D01*
X10729705Y-9497698D02*
X10739229Y-9507222D01*
X10739229Y-9507222D02*
X10748753Y-9526270D01*
X10748753Y-9526270D02*
X10748753Y-9573889D01*
X10748753Y-9573889D02*
X10739229Y-9592936D01*
X10739229Y-9592936D02*
X10729705Y-9602460D01*
X10729705Y-9602460D02*
X10710658Y-9611984D01*
X10710658Y-9611984D02*
X10663039Y-9611984D01*
X10663039Y-9611984D02*
X10643991Y-9602460D01*
X10643991Y-9602460D02*
X10634467Y-9592936D01*
X10872563Y-9411984D02*
X10891610Y-9411984D01*
X10891610Y-9411984D02*
X10910658Y-9421508D01*
X10910658Y-9421508D02*
X10920182Y-9431031D01*
X10920182Y-9431031D02*
X10929705Y-9450079D01*
X10929705Y-9450079D02*
X10939229Y-9488174D01*
X10939229Y-9488174D02*
X10939229Y-9535793D01*
X10939229Y-9535793D02*
X10929705Y-9573889D01*
X10929705Y-9573889D02*
X10920182Y-9592936D01*
X10920182Y-9592936D02*
X10910658Y-9602460D01*
X10910658Y-9602460D02*
X10891610Y-9611984D01*
X10891610Y-9611984D02*
X10872563Y-9611984D01*
X10872563Y-9611984D02*
X10853515Y-9602460D01*
X10853515Y-9602460D02*
X10843991Y-9592936D01*
X10843991Y-9592936D02*
X10834467Y-9573889D01*
X10834467Y-9573889D02*
X10824944Y-9535793D01*
X10824944Y-9535793D02*
X10824944Y-9488174D01*
X10824944Y-9488174D02*
X10834467Y-9450079D01*
X10834467Y-9450079D02*
X10843991Y-9431031D01*
X10843991Y-9431031D02*
X10853515Y-9421508D01*
X10853515Y-9421508D02*
X10872563Y-9411984D01*
X11063039Y-9411984D02*
X11082086Y-9411984D01*
X11082086Y-9411984D02*
X11101134Y-9421508D01*
X11101134Y-9421508D02*
X11110658Y-9431031D01*
X11110658Y-9431031D02*
X11120182Y-9450079D01*
X11120182Y-9450079D02*
X11129705Y-9488174D01*
X11129705Y-9488174D02*
X11129705Y-9535793D01*
X11129705Y-9535793D02*
X11120182Y-9573889D01*
X11120182Y-9573889D02*
X11110658Y-9592936D01*
X11110658Y-9592936D02*
X11101134Y-9602460D01*
X11101134Y-9602460D02*
X11082086Y-9611984D01*
X11082086Y-9611984D02*
X11063039Y-9611984D01*
X11063039Y-9611984D02*
X11043991Y-9602460D01*
X11043991Y-9602460D02*
X11034467Y-9592936D01*
X11034467Y-9592936D02*
X11024944Y-9573889D01*
X11024944Y-9573889D02*
X11015420Y-9535793D01*
X11015420Y-9535793D02*
X11015420Y-9488174D01*
X11015420Y-9488174D02*
X11024944Y-9450079D01*
X11024944Y-9450079D02*
X11034467Y-9431031D01*
X11034467Y-9431031D02*
X11043991Y-9421508D01*
X11043991Y-9421508D02*
X11063039Y-9411984D01*
X11215420Y-9611984D02*
X11215420Y-9478650D01*
X11215420Y-9497698D02*
X11224943Y-9488174D01*
X11224943Y-9488174D02*
X11243991Y-9478650D01*
X11243991Y-9478650D02*
X11272563Y-9478650D01*
X11272563Y-9478650D02*
X11291610Y-9488174D01*
X11291610Y-9488174D02*
X11301134Y-9507222D01*
X11301134Y-9507222D02*
X11301134Y-9611984D01*
X11301134Y-9507222D02*
X11310658Y-9488174D01*
X11310658Y-9488174D02*
X11329705Y-9478650D01*
X11329705Y-9478650D02*
X11358277Y-9478650D01*
X11358277Y-9478650D02*
X11377324Y-9488174D01*
X11377324Y-9488174D02*
X11386848Y-9507222D01*
X11386848Y-9507222D02*
X11386848Y-9611984D01*
X11482086Y-9611984D02*
X11482086Y-9478650D01*
X11482086Y-9497698D02*
X11491610Y-9488174D01*
X11491610Y-9488174D02*
X11510658Y-9478650D01*
X11510658Y-9478650D02*
X11539229Y-9478650D01*
X11539229Y-9478650D02*
X11558277Y-9488174D01*
X11558277Y-9488174D02*
X11567801Y-9507222D01*
X11567801Y-9507222D02*
X11567801Y-9611984D01*
X11567801Y-9507222D02*
X11577324Y-9488174D01*
X11577324Y-9488174D02*
X11596372Y-9478650D01*
X11596372Y-9478650D02*
X11624943Y-9478650D01*
X11624943Y-9478650D02*
X11643991Y-9488174D01*
X11643991Y-9488174D02*
X11653515Y-9507222D01*
X11653515Y-9507222D02*
X11653515Y-9611984D01*
X12043991Y-9402460D02*
X11872563Y-9659603D01*
X12301134Y-9411984D02*
X12320182Y-9411984D01*
X12320182Y-9411984D02*
X12339229Y-9421508D01*
X12339229Y-9421508D02*
X12348753Y-9431031D01*
X12348753Y-9431031D02*
X12358277Y-9450079D01*
X12358277Y-9450079D02*
X12367801Y-9488174D01*
X12367801Y-9488174D02*
X12367801Y-9535793D01*
X12367801Y-9535793D02*
X12358277Y-9573889D01*
X12358277Y-9573889D02*
X12348753Y-9592936D01*
X12348753Y-9592936D02*
X12339229Y-9602460D01*
X12339229Y-9602460D02*
X12320182Y-9611984D01*
X12320182Y-9611984D02*
X12301134Y-9611984D01*
X12301134Y-9611984D02*
X12282086Y-9602460D01*
X12282086Y-9602460D02*
X12272563Y-9592936D01*
X12272563Y-9592936D02*
X12263039Y-9573889D01*
X12263039Y-9573889D02*
X12253515Y-9535793D01*
X12253515Y-9535793D02*
X12253515Y-9488174D01*
X12253515Y-9488174D02*
X12263039Y-9450079D01*
X12263039Y-9450079D02*
X12272563Y-9431031D01*
X12272563Y-9431031D02*
X12282086Y-9421508D01*
X12282086Y-9421508D02*
X12301134Y-9411984D01*
X12453515Y-9592936D02*
X12463039Y-9602460D01*
X12463039Y-9602460D02*
X12453515Y-9611984D01*
X12453515Y-9611984D02*
X12443991Y-9602460D01*
X12443991Y-9602460D02*
X12453515Y-9592936D01*
X12453515Y-9592936D02*
X12453515Y-9611984D01*
X12586848Y-9411984D02*
X12605896Y-9411984D01*
X12605896Y-9411984D02*
X12624944Y-9421508D01*
X12624944Y-9421508D02*
X12634467Y-9431031D01*
X12634467Y-9431031D02*
X12643991Y-9450079D01*
X12643991Y-9450079D02*
X12653515Y-9488174D01*
X12653515Y-9488174D02*
X12653515Y-9535793D01*
X12653515Y-9535793D02*
X12643991Y-9573889D01*
X12643991Y-9573889D02*
X12634467Y-9592936D01*
X12634467Y-9592936D02*
X12624944Y-9602460D01*
X12624944Y-9602460D02*
X12605896Y-9611984D01*
X12605896Y-9611984D02*
X12586848Y-9611984D01*
X12586848Y-9611984D02*
X12567801Y-9602460D01*
X12567801Y-9602460D02*
X12558277Y-9592936D01*
X12558277Y-9592936D02*
X12548753Y-9573889D01*
X12548753Y-9573889D02*
X12539229Y-9535793D01*
X12539229Y-9535793D02*
X12539229Y-9488174D01*
X12539229Y-9488174D02*
X12548753Y-9450079D01*
X12548753Y-9450079D02*
X12558277Y-9431031D01*
X12558277Y-9431031D02*
X12567801Y-9421508D01*
X12567801Y-9421508D02*
X12586848Y-9411984D01*
X12834467Y-9411984D02*
X12739229Y-9411984D01*
X12739229Y-9411984D02*
X12729706Y-9507222D01*
X12729706Y-9507222D02*
X12739229Y-9497698D01*
X12739229Y-9497698D02*
X12758277Y-9488174D01*
X12758277Y-9488174D02*
X12805896Y-9488174D01*
X12805896Y-9488174D02*
X12824944Y-9497698D01*
X12824944Y-9497698D02*
X12834467Y-9507222D01*
X12834467Y-9507222D02*
X12843991Y-9526270D01*
X12843991Y-9526270D02*
X12843991Y-9573889D01*
X12843991Y-9573889D02*
X12834467Y-9592936D01*
X12834467Y-9592936D02*
X12824944Y-9602460D01*
X12824944Y-9602460D02*
X12805896Y-9611984D01*
X12805896Y-9611984D02*
X12758277Y-9611984D01*
X12758277Y-9611984D02*
X12739229Y-9602460D01*
X12739229Y-9602460D02*
X12729706Y-9592936D01*
X12939229Y-9611984D02*
X12977325Y-9611984D01*
X12977325Y-9611984D02*
X12996372Y-9602460D01*
X12996372Y-9602460D02*
X13005896Y-9592936D01*
X13005896Y-9592936D02*
X13024944Y-9564365D01*
X13024944Y-9564365D02*
X13034467Y-9526270D01*
X13034467Y-9526270D02*
X13034467Y-9450079D01*
X13034467Y-9450079D02*
X13024944Y-9431031D01*
X13024944Y-9431031D02*
X13015420Y-9421508D01*
X13015420Y-9421508D02*
X12996372Y-9411984D01*
X12996372Y-9411984D02*
X12958277Y-9411984D01*
X12958277Y-9411984D02*
X12939229Y-9421508D01*
X12939229Y-9421508D02*
X12929706Y-9431031D01*
X12929706Y-9431031D02*
X12920182Y-9450079D01*
X12920182Y-9450079D02*
X12920182Y-9497698D01*
X12920182Y-9497698D02*
X12929706Y-9516746D01*
X12929706Y-9516746D02*
X12939229Y-9526270D01*
X12939229Y-9526270D02*
X12958277Y-9535793D01*
X12958277Y-9535793D02*
X12996372Y-9535793D01*
X12996372Y-9535793D02*
X13015420Y-9526270D01*
X13015420Y-9526270D02*
X13024944Y-9516746D01*
X13024944Y-9516746D02*
X13034467Y-9497698D01*
X13224944Y-9611984D02*
X13110658Y-9611984D01*
X13167801Y-9611984D02*
X13167801Y-9411984D01*
X13167801Y-9411984D02*
X13148753Y-9440555D01*
X13148753Y-9440555D02*
X13129706Y-9459603D01*
X13129706Y-9459603D02*
X13110658Y-9469127D01*
X13301134Y-9411984D02*
X13301134Y-9450079D01*
X13377325Y-9411984D02*
X13377325Y-9450079D01*
X13672563Y-9688174D02*
X13663039Y-9678650D01*
X13663039Y-9678650D02*
X13643991Y-9650079D01*
X13643991Y-9650079D02*
X13634468Y-9631031D01*
X13634468Y-9631031D02*
X13624944Y-9602460D01*
X13624944Y-9602460D02*
X13615420Y-9554841D01*
X13615420Y-9554841D02*
X13615420Y-9516746D01*
X13615420Y-9516746D02*
X13624944Y-9469127D01*
X13624944Y-9469127D02*
X13634468Y-9440555D01*
X13634468Y-9440555D02*
X13643991Y-9421508D01*
X13643991Y-9421508D02*
X13663039Y-9392936D01*
X13663039Y-9392936D02*
X13672563Y-9383412D01*
X13777325Y-9497698D02*
X13758277Y-9488174D01*
X13758277Y-9488174D02*
X13748753Y-9478650D01*
X13748753Y-9478650D02*
X13739229Y-9459603D01*
X13739229Y-9459603D02*
X13739229Y-9450079D01*
X13739229Y-9450079D02*
X13748753Y-9431031D01*
X13748753Y-9431031D02*
X13758277Y-9421508D01*
X13758277Y-9421508D02*
X13777325Y-9411984D01*
X13777325Y-9411984D02*
X13815420Y-9411984D01*
X13815420Y-9411984D02*
X13834468Y-9421508D01*
X13834468Y-9421508D02*
X13843991Y-9431031D01*
X13843991Y-9431031D02*
X13853515Y-9450079D01*
X13853515Y-9450079D02*
X13853515Y-9459603D01*
X13853515Y-9459603D02*
X13843991Y-9478650D01*
X13843991Y-9478650D02*
X13834468Y-9488174D01*
X13834468Y-9488174D02*
X13815420Y-9497698D01*
X13815420Y-9497698D02*
X13777325Y-9497698D01*
X13777325Y-9497698D02*
X13758277Y-9507222D01*
X13758277Y-9507222D02*
X13748753Y-9516746D01*
X13748753Y-9516746D02*
X13739229Y-9535793D01*
X13739229Y-9535793D02*
X13739229Y-9573889D01*
X13739229Y-9573889D02*
X13748753Y-9592936D01*
X13748753Y-9592936D02*
X13758277Y-9602460D01*
X13758277Y-9602460D02*
X13777325Y-9611984D01*
X13777325Y-9611984D02*
X13815420Y-9611984D01*
X13815420Y-9611984D02*
X13834468Y-9602460D01*
X13834468Y-9602460D02*
X13843991Y-9592936D01*
X13843991Y-9592936D02*
X13853515Y-9573889D01*
X13853515Y-9573889D02*
X13853515Y-9535793D01*
X13853515Y-9535793D02*
X13843991Y-9516746D01*
X13843991Y-9516746D02*
X13834468Y-9507222D01*
X13834468Y-9507222D02*
X13815420Y-9497698D01*
X14091610Y-9611984D02*
X14091610Y-9411984D01*
X14177325Y-9611984D02*
X14177325Y-9507222D01*
X14177325Y-9507222D02*
X14167801Y-9488174D01*
X14167801Y-9488174D02*
X14148753Y-9478650D01*
X14148753Y-9478650D02*
X14120182Y-9478650D01*
X14120182Y-9478650D02*
X14101134Y-9488174D01*
X14101134Y-9488174D02*
X14091610Y-9497698D01*
X14301134Y-9611984D02*
X14282087Y-9602460D01*
X14282087Y-9602460D02*
X14272563Y-9592936D01*
X14272563Y-9592936D02*
X14263039Y-9573889D01*
X14263039Y-9573889D02*
X14263039Y-9516746D01*
X14263039Y-9516746D02*
X14272563Y-9497698D01*
X14272563Y-9497698D02*
X14282087Y-9488174D01*
X14282087Y-9488174D02*
X14301134Y-9478650D01*
X14301134Y-9478650D02*
X14329706Y-9478650D01*
X14329706Y-9478650D02*
X14348753Y-9488174D01*
X14348753Y-9488174D02*
X14358277Y-9497698D01*
X14358277Y-9497698D02*
X14367801Y-9516746D01*
X14367801Y-9516746D02*
X14367801Y-9573889D01*
X14367801Y-9573889D02*
X14358277Y-9592936D01*
X14358277Y-9592936D02*
X14348753Y-9602460D01*
X14348753Y-9602460D02*
X14329706Y-9611984D01*
X14329706Y-9611984D02*
X14301134Y-9611984D01*
X14482087Y-9611984D02*
X14463039Y-9602460D01*
X14463039Y-9602460D02*
X14453515Y-9583412D01*
X14453515Y-9583412D02*
X14453515Y-9411984D01*
X14634468Y-9602460D02*
X14615420Y-9611984D01*
X14615420Y-9611984D02*
X14577325Y-9611984D01*
X14577325Y-9611984D02*
X14558277Y-9602460D01*
X14558277Y-9602460D02*
X14548753Y-9583412D01*
X14548753Y-9583412D02*
X14548753Y-9507222D01*
X14548753Y-9507222D02*
X14558277Y-9488174D01*
X14558277Y-9488174D02*
X14577325Y-9478650D01*
X14577325Y-9478650D02*
X14615420Y-9478650D01*
X14615420Y-9478650D02*
X14634468Y-9488174D01*
X14634468Y-9488174D02*
X14643991Y-9507222D01*
X14643991Y-9507222D02*
X14643991Y-9526270D01*
X14643991Y-9526270D02*
X14548753Y-9545317D01*
X14720182Y-9602460D02*
X14739230Y-9611984D01*
X14739230Y-9611984D02*
X14777325Y-9611984D01*
X14777325Y-9611984D02*
X14796372Y-9602460D01*
X14796372Y-9602460D02*
X14805896Y-9583412D01*
X14805896Y-9583412D02*
X14805896Y-9573889D01*
X14805896Y-9573889D02*
X14796372Y-9554841D01*
X14796372Y-9554841D02*
X14777325Y-9545317D01*
X14777325Y-9545317D02*
X14748753Y-9545317D01*
X14748753Y-9545317D02*
X14729706Y-9535793D01*
X14729706Y-9535793D02*
X14720182Y-9516746D01*
X14720182Y-9516746D02*
X14720182Y-9507222D01*
X14720182Y-9507222D02*
X14729706Y-9488174D01*
X14729706Y-9488174D02*
X14748753Y-9478650D01*
X14748753Y-9478650D02*
X14777325Y-9478650D01*
X14777325Y-9478650D02*
X14796372Y-9488174D01*
X15043992Y-9535793D02*
X15196373Y-9535793D01*
X15120182Y-9611984D02*
X15120182Y-9459603D01*
X15434468Y-9431031D02*
X15443992Y-9421508D01*
X15443992Y-9421508D02*
X15463039Y-9411984D01*
X15463039Y-9411984D02*
X15510658Y-9411984D01*
X15510658Y-9411984D02*
X15529706Y-9421508D01*
X15529706Y-9421508D02*
X15539230Y-9431031D01*
X15539230Y-9431031D02*
X15548753Y-9450079D01*
X15548753Y-9450079D02*
X15548753Y-9469127D01*
X15548753Y-9469127D02*
X15539230Y-9497698D01*
X15539230Y-9497698D02*
X15424944Y-9611984D01*
X15424944Y-9611984D02*
X15548753Y-9611984D01*
X15777325Y-9602460D02*
X15796373Y-9611984D01*
X15796373Y-9611984D02*
X15834468Y-9611984D01*
X15834468Y-9611984D02*
X15853515Y-9602460D01*
X15853515Y-9602460D02*
X15863039Y-9583412D01*
X15863039Y-9583412D02*
X15863039Y-9573889D01*
X15863039Y-9573889D02*
X15853515Y-9554841D01*
X15853515Y-9554841D02*
X15834468Y-9545317D01*
X15834468Y-9545317D02*
X15805896Y-9545317D01*
X15805896Y-9545317D02*
X15786849Y-9535793D01*
X15786849Y-9535793D02*
X15777325Y-9516746D01*
X15777325Y-9516746D02*
X15777325Y-9507222D01*
X15777325Y-9507222D02*
X15786849Y-9488174D01*
X15786849Y-9488174D02*
X15805896Y-9478650D01*
X15805896Y-9478650D02*
X15834468Y-9478650D01*
X15834468Y-9478650D02*
X15853515Y-9488174D01*
X15977325Y-9611984D02*
X15958277Y-9602460D01*
X15958277Y-9602460D02*
X15948754Y-9583412D01*
X15948754Y-9583412D02*
X15948754Y-9411984D01*
X16082087Y-9611984D02*
X16063039Y-9602460D01*
X16063039Y-9602460D02*
X16053515Y-9592936D01*
X16053515Y-9592936D02*
X16043992Y-9573889D01*
X16043992Y-9573889D02*
X16043992Y-9516746D01*
X16043992Y-9516746D02*
X16053515Y-9497698D01*
X16053515Y-9497698D02*
X16063039Y-9488174D01*
X16063039Y-9488174D02*
X16082087Y-9478650D01*
X16082087Y-9478650D02*
X16110658Y-9478650D01*
X16110658Y-9478650D02*
X16129706Y-9488174D01*
X16129706Y-9488174D02*
X16139230Y-9497698D01*
X16139230Y-9497698D02*
X16148754Y-9516746D01*
X16148754Y-9516746D02*
X16148754Y-9573889D01*
X16148754Y-9573889D02*
X16139230Y-9592936D01*
X16139230Y-9592936D02*
X16129706Y-9602460D01*
X16129706Y-9602460D02*
X16110658Y-9611984D01*
X16110658Y-9611984D02*
X16082087Y-9611984D01*
X16205896Y-9478650D02*
X16282087Y-9478650D01*
X16234468Y-9411984D02*
X16234468Y-9583412D01*
X16234468Y-9583412D02*
X16243992Y-9602460D01*
X16243992Y-9602460D02*
X16263039Y-9611984D01*
X16263039Y-9611984D02*
X16282087Y-9611984D01*
X16339230Y-9602460D02*
X16358277Y-9611984D01*
X16358277Y-9611984D02*
X16396373Y-9611984D01*
X16396373Y-9611984D02*
X16415420Y-9602460D01*
X16415420Y-9602460D02*
X16424944Y-9583412D01*
X16424944Y-9583412D02*
X16424944Y-9573889D01*
X16424944Y-9573889D02*
X16415420Y-9554841D01*
X16415420Y-9554841D02*
X16396373Y-9545317D01*
X16396373Y-9545317D02*
X16367801Y-9545317D01*
X16367801Y-9545317D02*
X16348754Y-9535793D01*
X16348754Y-9535793D02*
X16339230Y-9516746D01*
X16339230Y-9516746D02*
X16339230Y-9507222D01*
X16339230Y-9507222D02*
X16348754Y-9488174D01*
X16348754Y-9488174D02*
X16367801Y-9478650D01*
X16367801Y-9478650D02*
X16396373Y-9478650D01*
X16396373Y-9478650D02*
X16415420Y-9488174D01*
X16491611Y-9688174D02*
X16501135Y-9678650D01*
X16501135Y-9678650D02*
X16520182Y-9650079D01*
X16520182Y-9650079D02*
X16529706Y-9631031D01*
X16529706Y-9631031D02*
X16539230Y-9602460D01*
X16539230Y-9602460D02*
X16548754Y-9554841D01*
X16548754Y-9554841D02*
X16548754Y-9516746D01*
X16548754Y-9516746D02*
X16539230Y-9469127D01*
X16539230Y-9469127D02*
X16529706Y-9440555D01*
X16529706Y-9440555D02*
X16520182Y-9421508D01*
X16520182Y-9421508D02*
X16501135Y-9392936D01*
X16501135Y-9392936D02*
X16491611Y-9383412D01*
M02*
