%TF.GenerationSoftware,KiCad,Pcbnew,9.0.7*%
%TF.CreationDate,2026-07-12T23:44:34+02:00*%
%TF.ProjectId,macro pad,6d616372-6f20-4706-9164-2e6b69636164,rev?*%
%TF.SameCoordinates,Original*%
%TF.FileFunction,Legend,Top*%
%TF.FilePolarity,Positive*%
%FSLAX46Y46*%
G04 Gerber Fmt 4.6, Leading zero omitted, Abs format (unit mm)*
G04 Created by KiCad (PCBNEW 9.0.7) date 2026-07-12 23:44:34*
%MOMM*%
%LPD*%
G01*
G04 APERTURE LIST*
%ADD10C,0.150000*%
%ADD11C,0.120000*%
G04 APERTURE END LIST*
D10*
X147716667Y-28207200D02*
X147859524Y-28254819D01*
X147859524Y-28254819D02*
X148097619Y-28254819D01*
X148097619Y-28254819D02*
X148192857Y-28207200D01*
X148192857Y-28207200D02*
X148240476Y-28159580D01*
X148240476Y-28159580D02*
X148288095Y-28064342D01*
X148288095Y-28064342D02*
X148288095Y-27969104D01*
X148288095Y-27969104D02*
X148240476Y-27873866D01*
X148240476Y-27873866D02*
X148192857Y-27826247D01*
X148192857Y-27826247D02*
X148097619Y-27778628D01*
X148097619Y-27778628D02*
X147907143Y-27731009D01*
X147907143Y-27731009D02*
X147811905Y-27683390D01*
X147811905Y-27683390D02*
X147764286Y-27635771D01*
X147764286Y-27635771D02*
X147716667Y-27540533D01*
X147716667Y-27540533D02*
X147716667Y-27445295D01*
X147716667Y-27445295D02*
X147764286Y-27350057D01*
X147764286Y-27350057D02*
X147811905Y-27302438D01*
X147811905Y-27302438D02*
X147907143Y-27254819D01*
X147907143Y-27254819D02*
X148145238Y-27254819D01*
X148145238Y-27254819D02*
X148288095Y-27302438D01*
X148621429Y-27254819D02*
X148859524Y-28254819D01*
X148859524Y-28254819D02*
X149050000Y-27540533D01*
X149050000Y-27540533D02*
X149240476Y-28254819D01*
X149240476Y-28254819D02*
X149478572Y-27254819D01*
X150335714Y-27254819D02*
X149859524Y-27254819D01*
X149859524Y-27254819D02*
X149811905Y-27731009D01*
X149811905Y-27731009D02*
X149859524Y-27683390D01*
X149859524Y-27683390D02*
X149954762Y-27635771D01*
X149954762Y-27635771D02*
X150192857Y-27635771D01*
X150192857Y-27635771D02*
X150288095Y-27683390D01*
X150288095Y-27683390D02*
X150335714Y-27731009D01*
X150335714Y-27731009D02*
X150383333Y-27826247D01*
X150383333Y-27826247D02*
X150383333Y-28064342D01*
X150383333Y-28064342D02*
X150335714Y-28159580D01*
X150335714Y-28159580D02*
X150288095Y-28207200D01*
X150288095Y-28207200D02*
X150192857Y-28254819D01*
X150192857Y-28254819D02*
X149954762Y-28254819D01*
X149954762Y-28254819D02*
X149859524Y-28207200D01*
X149859524Y-28207200D02*
X149811905Y-28159580D01*
X111636667Y-65613200D02*
X111779524Y-65660819D01*
X111779524Y-65660819D02*
X112017619Y-65660819D01*
X112017619Y-65660819D02*
X112112857Y-65613200D01*
X112112857Y-65613200D02*
X112160476Y-65565580D01*
X112160476Y-65565580D02*
X112208095Y-65470342D01*
X112208095Y-65470342D02*
X112208095Y-65375104D01*
X112208095Y-65375104D02*
X112160476Y-65279866D01*
X112160476Y-65279866D02*
X112112857Y-65232247D01*
X112112857Y-65232247D02*
X112017619Y-65184628D01*
X112017619Y-65184628D02*
X111827143Y-65137009D01*
X111827143Y-65137009D02*
X111731905Y-65089390D01*
X111731905Y-65089390D02*
X111684286Y-65041771D01*
X111684286Y-65041771D02*
X111636667Y-64946533D01*
X111636667Y-64946533D02*
X111636667Y-64851295D01*
X111636667Y-64851295D02*
X111684286Y-64756057D01*
X111684286Y-64756057D02*
X111731905Y-64708438D01*
X111731905Y-64708438D02*
X111827143Y-64660819D01*
X111827143Y-64660819D02*
X112065238Y-64660819D01*
X112065238Y-64660819D02*
X112208095Y-64708438D01*
X112541429Y-64660819D02*
X112779524Y-65660819D01*
X112779524Y-65660819D02*
X112970000Y-64946533D01*
X112970000Y-64946533D02*
X113160476Y-65660819D01*
X113160476Y-65660819D02*
X113398572Y-64660819D01*
X114208095Y-64994152D02*
X114208095Y-65660819D01*
X113970000Y-64613200D02*
X113731905Y-65327485D01*
X113731905Y-65327485D02*
X114350952Y-65327485D01*
X130856667Y-65613200D02*
X130999524Y-65660819D01*
X130999524Y-65660819D02*
X131237619Y-65660819D01*
X131237619Y-65660819D02*
X131332857Y-65613200D01*
X131332857Y-65613200D02*
X131380476Y-65565580D01*
X131380476Y-65565580D02*
X131428095Y-65470342D01*
X131428095Y-65470342D02*
X131428095Y-65375104D01*
X131428095Y-65375104D02*
X131380476Y-65279866D01*
X131380476Y-65279866D02*
X131332857Y-65232247D01*
X131332857Y-65232247D02*
X131237619Y-65184628D01*
X131237619Y-65184628D02*
X131047143Y-65137009D01*
X131047143Y-65137009D02*
X130951905Y-65089390D01*
X130951905Y-65089390D02*
X130904286Y-65041771D01*
X130904286Y-65041771D02*
X130856667Y-64946533D01*
X130856667Y-64946533D02*
X130856667Y-64851295D01*
X130856667Y-64851295D02*
X130904286Y-64756057D01*
X130904286Y-64756057D02*
X130951905Y-64708438D01*
X130951905Y-64708438D02*
X131047143Y-64660819D01*
X131047143Y-64660819D02*
X131285238Y-64660819D01*
X131285238Y-64660819D02*
X131428095Y-64708438D01*
X131761429Y-64660819D02*
X131999524Y-65660819D01*
X131999524Y-65660819D02*
X132190000Y-64946533D01*
X132190000Y-64946533D02*
X132380476Y-65660819D01*
X132380476Y-65660819D02*
X132618572Y-64660819D01*
X132904286Y-64660819D02*
X133523333Y-64660819D01*
X133523333Y-64660819D02*
X133190000Y-65041771D01*
X133190000Y-65041771D02*
X133332857Y-65041771D01*
X133332857Y-65041771D02*
X133428095Y-65089390D01*
X133428095Y-65089390D02*
X133475714Y-65137009D01*
X133475714Y-65137009D02*
X133523333Y-65232247D01*
X133523333Y-65232247D02*
X133523333Y-65470342D01*
X133523333Y-65470342D02*
X133475714Y-65565580D01*
X133475714Y-65565580D02*
X133428095Y-65613200D01*
X133428095Y-65613200D02*
X133332857Y-65660819D01*
X133332857Y-65660819D02*
X133047143Y-65660819D01*
X133047143Y-65660819D02*
X132951905Y-65613200D01*
X132951905Y-65613200D02*
X132904286Y-65565580D01*
X150116667Y-65613200D02*
X150259524Y-65660819D01*
X150259524Y-65660819D02*
X150497619Y-65660819D01*
X150497619Y-65660819D02*
X150592857Y-65613200D01*
X150592857Y-65613200D02*
X150640476Y-65565580D01*
X150640476Y-65565580D02*
X150688095Y-65470342D01*
X150688095Y-65470342D02*
X150688095Y-65375104D01*
X150688095Y-65375104D02*
X150640476Y-65279866D01*
X150640476Y-65279866D02*
X150592857Y-65232247D01*
X150592857Y-65232247D02*
X150497619Y-65184628D01*
X150497619Y-65184628D02*
X150307143Y-65137009D01*
X150307143Y-65137009D02*
X150211905Y-65089390D01*
X150211905Y-65089390D02*
X150164286Y-65041771D01*
X150164286Y-65041771D02*
X150116667Y-64946533D01*
X150116667Y-64946533D02*
X150116667Y-64851295D01*
X150116667Y-64851295D02*
X150164286Y-64756057D01*
X150164286Y-64756057D02*
X150211905Y-64708438D01*
X150211905Y-64708438D02*
X150307143Y-64660819D01*
X150307143Y-64660819D02*
X150545238Y-64660819D01*
X150545238Y-64660819D02*
X150688095Y-64708438D01*
X151021429Y-64660819D02*
X151259524Y-65660819D01*
X151259524Y-65660819D02*
X151450000Y-64946533D01*
X151450000Y-64946533D02*
X151640476Y-65660819D01*
X151640476Y-65660819D02*
X151878572Y-64660819D01*
X152783333Y-65660819D02*
X152211905Y-65660819D01*
X152497619Y-65660819D02*
X152497619Y-64660819D01*
X152497619Y-64660819D02*
X152402381Y-64803676D01*
X152402381Y-64803676D02*
X152307143Y-64898914D01*
X152307143Y-64898914D02*
X152211905Y-64946533D01*
X130846667Y-46413200D02*
X130989524Y-46460819D01*
X130989524Y-46460819D02*
X131227619Y-46460819D01*
X131227619Y-46460819D02*
X131322857Y-46413200D01*
X131322857Y-46413200D02*
X131370476Y-46365580D01*
X131370476Y-46365580D02*
X131418095Y-46270342D01*
X131418095Y-46270342D02*
X131418095Y-46175104D01*
X131418095Y-46175104D02*
X131370476Y-46079866D01*
X131370476Y-46079866D02*
X131322857Y-46032247D01*
X131322857Y-46032247D02*
X131227619Y-45984628D01*
X131227619Y-45984628D02*
X131037143Y-45937009D01*
X131037143Y-45937009D02*
X130941905Y-45889390D01*
X130941905Y-45889390D02*
X130894286Y-45841771D01*
X130894286Y-45841771D02*
X130846667Y-45746533D01*
X130846667Y-45746533D02*
X130846667Y-45651295D01*
X130846667Y-45651295D02*
X130894286Y-45556057D01*
X130894286Y-45556057D02*
X130941905Y-45508438D01*
X130941905Y-45508438D02*
X131037143Y-45460819D01*
X131037143Y-45460819D02*
X131275238Y-45460819D01*
X131275238Y-45460819D02*
X131418095Y-45508438D01*
X131751429Y-45460819D02*
X131989524Y-46460819D01*
X131989524Y-46460819D02*
X132180000Y-45746533D01*
X132180000Y-45746533D02*
X132370476Y-46460819D01*
X132370476Y-46460819D02*
X132608572Y-45460819D01*
X132941905Y-45556057D02*
X132989524Y-45508438D01*
X132989524Y-45508438D02*
X133084762Y-45460819D01*
X133084762Y-45460819D02*
X133322857Y-45460819D01*
X133322857Y-45460819D02*
X133418095Y-45508438D01*
X133418095Y-45508438D02*
X133465714Y-45556057D01*
X133465714Y-45556057D02*
X133513333Y-45651295D01*
X133513333Y-45651295D02*
X133513333Y-45746533D01*
X133513333Y-45746533D02*
X133465714Y-45889390D01*
X133465714Y-45889390D02*
X132894286Y-46460819D01*
X132894286Y-46460819D02*
X133513333Y-46460819D01*
X111666666Y-28374819D02*
X111666666Y-29089104D01*
X111666666Y-29089104D02*
X111619047Y-29231961D01*
X111619047Y-29231961D02*
X111523809Y-29327200D01*
X111523809Y-29327200D02*
X111380952Y-29374819D01*
X111380952Y-29374819D02*
X111285714Y-29374819D01*
X112666666Y-29374819D02*
X112095238Y-29374819D01*
X112380952Y-29374819D02*
X112380952Y-28374819D01*
X112380952Y-28374819D02*
X112285714Y-28517676D01*
X112285714Y-28517676D02*
X112190476Y-28612914D01*
X112190476Y-28612914D02*
X112095238Y-28660533D01*
D11*
%TO.C,SW5*%
X156750000Y-35000000D02*
G75*
G02*
X150750000Y-35000000I-3000000J0D01*
G01*
X150750000Y-35000000D02*
G75*
G02*
X156750000Y-35000000I3000000J0D01*
G01*
X159850000Y-40900000D02*
X155750000Y-40900000D01*
X159850000Y-38500000D02*
X159850000Y-40900000D01*
X159850000Y-33700000D02*
X159850000Y-36300000D01*
X159850000Y-29100000D02*
X159850000Y-31500000D01*
X155750000Y-29100000D02*
X159850000Y-29100000D01*
X153750000Y-34500000D02*
X153750000Y-35500000D01*
X153250000Y-35000000D02*
X154250000Y-35000000D01*
X151750000Y-40900000D02*
X147650000Y-40900000D01*
X151750000Y-29100000D02*
X147650000Y-29100000D01*
X147650000Y-29100000D02*
X147650000Y-40900000D01*
X146550000Y-30900000D02*
X146250000Y-31200000D01*
X146250000Y-31200000D02*
X145950000Y-30900000D01*
X145950000Y-30900000D02*
X146550000Y-30900000D01*
%TO.C,SW4*%
X119955000Y-80065000D02*
X105985000Y-80065000D01*
X119955000Y-66095000D02*
X119955000Y-80065000D01*
X105985000Y-80065000D02*
X105985000Y-66095000D01*
X105985000Y-66095000D02*
X119955000Y-66095000D01*
%TO.C,SW3*%
X125205000Y-66095000D02*
X139175000Y-66095000D01*
X125205000Y-80065000D02*
X125205000Y-66095000D01*
X139175000Y-66095000D02*
X139175000Y-80065000D01*
X139175000Y-80065000D02*
X125205000Y-80065000D01*
%TO.C,SW1*%
X144465000Y-66095000D02*
X158435000Y-66095000D01*
X144465000Y-80065000D02*
X144465000Y-66095000D01*
X158435000Y-66095000D02*
X158435000Y-80065000D01*
X158435000Y-80065000D02*
X144465000Y-80065000D01*
%TO.C,SW2*%
X125195000Y-46895000D02*
X139165000Y-46895000D01*
X125195000Y-60865000D02*
X125195000Y-46895000D01*
X139165000Y-46895000D02*
X139165000Y-60865000D01*
X139165000Y-60865000D02*
X125195000Y-60865000D01*
%TO.C,J1*%
X106345000Y-29920000D02*
X107615000Y-29920000D01*
X106345000Y-31190000D02*
X106345000Y-29920000D01*
X108692358Y-33300000D02*
X109005000Y-33300000D01*
X108692358Y-34160000D02*
X109005000Y-34160000D01*
X108692358Y-35840000D02*
X109005000Y-35840000D01*
X108692358Y-36700000D02*
X109005000Y-36700000D01*
X108692358Y-38380000D02*
X109005000Y-38380000D01*
X108692358Y-39240000D02*
X109005000Y-39240000D01*
X108775000Y-30760000D02*
X109005000Y-30760000D01*
X108775000Y-31620000D02*
X109005000Y-31620000D01*
X109005000Y-32460000D02*
X111765000Y-32460000D01*
X109005000Y-35000000D02*
X111765000Y-35000000D01*
X109005000Y-37540000D02*
X111765000Y-37540000D01*
X111765000Y-33300000D02*
X117765000Y-33300000D01*
X111765000Y-35840000D02*
X117765000Y-35840000D01*
X111765000Y-38380000D02*
X117765000Y-38380000D01*
X117765000Y-33300000D02*
X117765000Y-34160000D01*
X117765000Y-34160000D02*
X111765000Y-34160000D01*
X117765000Y-35840000D02*
X117765000Y-36700000D01*
X117765000Y-36700000D02*
X111765000Y-36700000D01*
X117765000Y-38380000D02*
X117765000Y-39240000D01*
X117765000Y-39240000D02*
X111765000Y-39240000D01*
X109005000Y-29810000D02*
X111765000Y-29810000D01*
X111765000Y-40190000D01*
X109005000Y-40190000D01*
X109005000Y-29810000D01*
X111765000Y-30760000D02*
X117765000Y-30760000D01*
X117765000Y-31620000D01*
X111765000Y-31620000D01*
X111765000Y-30760000D01*
G36*
X111765000Y-30760000D02*
G01*
X117765000Y-30760000D01*
X117765000Y-31620000D01*
X111765000Y-31620000D01*
X111765000Y-30760000D01*
G37*
%TD*%
M02*
